<svg xmlns="http://www.w3.org/2000/svg" width="20" height="20" viewBox="0 0 20 20">
    <g fill="none" fill-rule="evenodd">
        <path fill="#4A4A4A" fill-rule="nonzero" stroke="#4A4A4A" stroke-width=".1" d="M19.667 7.851h-.358c-.114-.53-.501-.976-1.145-1.298a3.647 3.647 0 0 0-1.645-.368h-3.837l-.015.001v-.001H3.496c-.603 0-1.156.124-1.645.368C1.207 6.875.82 7.32.706 7.851H.333a.333.333 0 0 0 0 .667h.334v2.685c.035.655.515 2.018 2.082 2.482.293.086.6.13.912.13.38 0 .77-.065 1.157-.193 1.686-.56 4.515-1.838 4.514-4.072a5.56 5.56 0 0 0 0-.873 1.15 1.15 0 0 1 1.35.011 5.311 5.311 0 0 0 0 .83c0 2.266 2.829 3.544 4.515 4.104.387.129.777.193 1.158.193a3.2 3.2 0 0 0 .911-.13 2.859 2.859 0 0 0 2.083-2.5V8.518h.318a.333.333 0 1 0 0-.667zm-11 1.667c0 1.916-2.839 3.066-4.059 3.471-.573.19-1.15.21-1.67.056-1.498-.443-1.602-1.821-1.605-1.86v-3c0-.417.275-.765.816-1.035a2.983 2.983 0 0 1 1.347-.299h3.837c.346 0 .615.112.825.343.652.717.512 2.277.509 2.324zM9.23 7.97c-.089-.396-.241-.796-.494-1.119h2.543c-.255.325-.407.729-.495 1.126A1.872 1.872 0 0 0 9.23 7.97zm7.847 5.075c-.52.154-1.097.135-1.67-.056-1.22-.405-4.059-1.555-4.06-3.503-.002-.015-.142-1.575.51-2.292.21-.23.48-.342.825-.342h3.837c.498 0 .952.1 1.347.298.518.259.789.59.812.982-.004.017-.011.034-.011.053 0 .027.009.05.015.076v2.904a2.18 2.18 0 0 1-1.605 1.88z"/>
        <path d="M0 0h20v20H0z"/>
    </g>
</svg>
