<svg xmlns="http://www.w3.org/2000/svg" width="20" height="20" viewBox="0 0 20 20">
    <g fill="none" fill-rule="evenodd">
        <path fill="#4A4A4A" fill-rule="nonzero" d="M11.703 7.32h3.987l2.784-2.811-2.784-2.811h-3.987V0H7.796v1.698h-4.23V7.32h4.23v1.561H3.81l-2.784 2.811 2.784 2.811h3.987V20h3.906v-5.497h4.23V8.881h-4.23V7.32zM8.63.833h2.238v.865H8.631V.833zM4.4 2.531h10.941l1.959 1.978-1.959 1.978H4.4V2.53zM8.63 7.32h2.238v1.561H8.631V7.32zm2.238 11.847H8.631v-4.664h2.238v4.664zm4.23-5.497H4.158L2.2 11.692l1.958-1.978H15.1v3.956z"/>
        <path d="M0 0h20v20H0z"/>
    </g>
</svg>
