<svg xmlns="http://www.w3.org/2000/svg" width="20" height="20" viewBox="0 0 20 20">
    <g fill="none" fill-rule="evenodd">
        <path fill="#4A4A4A" fill-rule="nonzero" d="M16.665 2.609h-.361V.435c0-.2-.162-.363-.362-.363H5.101c-.2 0-.361.163-.361.363v2.174h-.362c-.2 0-.361.162-.361.362v16.667c0 .2.162.362.361.362H16.665c.2 0 .362-.162.362-.362V2.97c0-.2-.162-.362-.362-.362zM5.462.797h10.119V2.61H5.462V.797zm7.228 18.478H8.353v-2.174c0-1.198.973-2.173 2.169-2.173 1.195 0 2.168.975 2.168 2.173v2.174zm3.614 0h-2.891v-2.174a2.898 2.898 0 0 0-2.891-2.898A2.898 2.898 0 0 0 7.63 17.1v2.174H4.74V3.333h11.564v15.942z"/>
        <path fill="#4A4A4A" fill-rule="nonzero" d="M7.992 9.13H5.824c-.2 0-.362.163-.362.363v3.623c0 .2.162.362.362.362h2.168c.2 0 .361-.162.361-.362V9.493c0-.2-.161-.363-.36-.363zm-.361 3.624H6.185V9.855h1.446v2.899zM11.606 9.13H9.438c-.2 0-.362.163-.362.363v3.623c0 .2.162.362.362.362h2.168c.2 0 .361-.162.361-.362V9.493c0-.2-.162-.363-.361-.363zm-.361 3.624H9.799V9.855h1.446v2.899zM15.22 9.13H13.05c-.2 0-.361.163-.361.363v3.623c0 .2.162.362.361.362h2.169c.2 0 .361-.162.361-.362V9.493c0-.2-.162-.363-.361-.363zm-.362 3.624h-1.445V9.855h1.445v2.899zM7.992 4.058H5.824c-.2 0-.362.162-.362.362v3.623c0 .2.162.363.362.363h2.168c.2 0 .361-.162.361-.363V4.42c0-.2-.161-.362-.36-.362zm-.361 3.623H6.185V4.783h1.446V7.68zM11.606 4.058H9.438c-.2 0-.362.162-.362.362v3.623c0 .2.162.363.362.363h2.168c.2 0 .361-.162.361-.363V4.42c0-.2-.162-.362-.361-.362zm-.361 3.623H9.799V4.783h1.446V7.68zM15.22 4.058H13.05c-.2 0-.361.162-.361.362v3.623c0 .2.162.363.361.363h2.169c.2 0 .361-.162.361-.363V4.42c0-.2-.162-.362-.361-.362zm-.362 3.623h-1.445V4.783h1.445V7.68z"/>
        <path d="M0 0h20v20H0z"/>
    </g>
</svg>
