<svg xmlns="http://www.w3.org/2000/svg" width="20" height="20" viewBox="0 0 20 20">
    <g fill="none" fill-rule="evenodd">
        <path fill="#4A4A4A" fill-rule="nonzero" stroke="#4A4A4A" stroke-width=".1" d="M18.702 3.244c-.815-.815-1.978-1.254-3.191-1.202-1.239.052-2.377.601-3.216 1.55a7.78 7.78 0 0 0-2.265-.334c-.791 0-1.568.118-2.315.35-.842-.958-1.985-1.514-3.23-1.566-1.213-.052-2.376.387-3.191 1.202-1.64 1.64-1.734 4.214-.209 5.74a2.01 2.01 0 0 0 1.296.594 7.85 7.85 0 0 0-.139 1.467c0 4.295 3.494 7.788 7.788 7.788 4.294 0 7.788-3.493 7.788-7.788 0-.495-.048-.99-.14-1.472.46-.045.89-.248 1.233-.59 1.524-1.525 1.43-4.1-.209-5.74zm-1.526 5.683c-.465-.096-.84-.395-1.002-.8a.312.312 0 1 0-.58.231c.238.597.776 1.035 1.44 1.177l.003.018c.103.487.156.99.156 1.492 0 3.95-3.214 7.163-7.163 7.163-3.95 0-7.163-3.213-7.163-7.163a7.213 7.213 0 0 1 .161-1.526c.633-.156 1.144-.584 1.374-1.16a.312.312 0 1 0-.58-.233c-.162.406-.537.705-1.002.8a1.4 1.4 0 0 1-1.293-.385C.246 7.26.34 5.081 1.736 3.686a3.428 3.428 0 0 1 1.112-.739h.046c1.296-.116 1.614.252 1.719.373.256.297.313.777.374 1.284.081.684.174 1.458.786 2.003a.311.311 0 0 0 .441-.026.312.312 0 0 0-.026-.441c-.435-.387-.506-.981-.58-1.61-.077-.644-.165-1.381-.747-1.826a3.913 3.913 0 0 1 2.365 1.295.311.311 0 0 0 .416.291 7.145 7.145 0 0 1 2.388-.407c.82 0 1.623.137 2.388.407a.312.312 0 0 0 .41-.356 3.905 3.905 0 0 1 2.307-1.23c-.582.445-.67 1.182-.747 1.826-.075.629-.145 1.223-.58 1.61a.313.313 0 0 0 .415.467c.612-.545.704-1.32.786-2.003.06-.507.117-.987.374-1.284.105-.121.422-.489 1.719-.373a.314.314 0 0 0 .046 0c.417.174.796.423 1.112.739 1.396 1.396 1.49 3.574.209 4.855a1.4 1.4 0 0 1-1.293.386z"/>
        <path fill="#4A4A4A" fill-rule="nonzero" stroke="#4A4A4A" stroke-width=".1" d="M12.035 15.459a3.536 3.536 0 0 1-.486.279c.026-.103.04-.214.04-.332v-2.492a1.56 1.56 0 0 0-3.117 0v2.492c0 .118.013.229.039.332a3.534 3.534 0 0 1-.486-.28.313.313 0 0 0-.35.518c.827.562 1.54.677 2.355.677s1.528-.115 2.356-.677a.312.312 0 0 0-.351-.517zm-2.938-.053v-2.492a.934.934 0 0 1 1.866 0v2.492c0 .154 0 .622-.933.622s-.933-.468-.933-.622z"/>
        <path fill="#4A4A4A" fill-rule="nonzero" d="M6.604 11.044a.625.625 0 1 0 .001 1.25.625.625 0 0 0-.001-1.25zM13.456 11.044a.625.625 0 1 0 .001 1.25.625.625 0 0 0-.001-1.25z"/>
        <path d="M0 0h20v20H0z"/>
    </g>
</svg>
