<svg xmlns="http://www.w3.org/2000/svg" width="20" height="20" viewBox="0 0 20 20">
    <g fill="none" fill-rule="evenodd">
        <path fill="#4A4A4A" fill-rule="nonzero" d="M5.37 15.253c.82 0 1.489-.668 1.489-1.49 0-.82-.668-1.488-1.49-1.488-.82 0-1.489.668-1.489 1.489 0 .821.668 1.49 1.49 1.49zm0-2.34a.852.852 0 0 1 0 1.702.852.852 0 0 1 0-1.702zM14.63 12.275c-.82 0-1.489.668-1.489 1.489 0 .821.668 1.49 1.49 1.49.82 0 1.489-.669 1.489-1.49s-.668-1.49-1.49-1.49zm0 2.34a.852.852 0 0 1 0-1.702.852.852 0 0 1 0 1.702zM5.851 4.917h1.012a.32.32 0 1 0 0-.638H5.85c-.443 0-1.15.305-1.454.628L1.84 7.624a.32.32 0 0 0 .232.538h12.352a.32.32 0 0 0 .29-.454L13.4 4.884c-.141-.3-.623-.605-.954-.605H8.14a.32.32 0 0 0-.32.319v2.925H2.81l2.052-2.178c.18-.192.726-.428.99-.428zm2.608 0h3.987c.094.004.334.157.376.237l1.102 2.37H8.459V4.916z"/>
        <path fill="#4A4A4A" fill-rule="nonzero" d="M20 10.944c0-1.133-.875-2.346-1.95-2.705l-1.492-.497c-.25-.083-.578-.375-.69-.613L14.556 4.34c-.353-.75-1.28-1.338-2.11-1.338H5.852c-.793 0-1.84.453-2.384 1.03L.524 7.16C.23 7.471 0 8.052 0 8.481v4.006c0 .88.716 1.596 1.596 1.596h.598a3.196 3.196 0 0 0 3.176 2.872 3.196 3.196 0 0 0 3.175-2.872h1.937a.32.32 0 1 0 0-.638H8.545a3.196 3.196 0 0 0-3.175-2.873 3.196 3.196 0 0 0-3.176 2.873h-.598a.959.959 0 0 1-.958-.958V8.481c0-.268.167-.69.351-.884L3.932 4.47c.423-.45 1.302-.83 1.92-.83h6.595c.582 0 1.283.445 1.531.972l1.313 2.789c.188.4.646.807 1.065.946l1.212.404a2.148 2.148 0 0 0 1.793 2.488v1.248c0 .528-.355.958-.792.958h-.763a3.196 3.196 0 0 0-3.176-2.873 3.195 3.195 0 0 0-3.191 3.192 3.195 3.195 0 0 0 3.191 3.191 3.196 3.196 0 0 0 3.176-2.872h.763c.789 0 1.431-.716 1.431-1.596v-1.543zm-14.63.267a2.556 2.556 0 0 1 2.553 2.553 2.556 2.556 0 0 1-2.553 2.553 2.556 2.556 0 0 1-2.554-2.553A2.556 2.556 0 0 1 5.37 11.21zm9.26 5.106a2.556 2.556 0 0 1-2.553-2.553 2.556 2.556 0 0 1 2.553-2.553 2.556 2.556 0 0 1 2.554 2.553 2.556 2.556 0 0 1-2.554 2.553zm3.545-7.198c0-.041.002-.082.005-.123.56.325 1.012.952 1.143 1.586a1.508 1.508 0 0 1-1.148-1.463z"/>
        <path d="M0 0h20v20H0z"/>
    </g>
</svg>
