<svg xmlns="http://www.w3.org/2000/svg" width="20" height="20" viewBox="0 0 20 20">
    <g fill="none" fill-rule="evenodd">
        <path fill="#4A4A4A" fill-rule="nonzero" stroke="#4A4A4A" stroke-width=".2" d="M9.648 7.677v3.992c0 .931.732 1.663 1.663 1.663.932 0 1.664-.732 1.664-1.663V7.677a3.324 3.324 0 0 0 1.33-2.66 3.286 3.286 0 0 0-1.83-2.961.302.302 0 0 0-.332 0c-.1.066-.166.2-.166.299v2.661h-1.331V2.355c0-.1-.067-.233-.133-.3-.1-.033-.233-.066-.333 0a3.259 3.259 0 0 0-1.863 2.961c0 1.065.5 2.03 1.33 2.661zm.333-4.723v2.395c0 .2.133.332.332.332h1.996c.2 0 .333-.133.333-.332V2.954c.632.499.998 1.264.998 2.062 0 .898-.466 1.73-1.198 2.229-.066.066-.133.166-.133.266v4.158a.98.98 0 0 1-.998.998.98.98 0 0 1-.998-.998V7.511c0-.1-.033-.2-.133-.266a2.634 2.634 0 0 1-1.198-2.229c0-.831.366-1.563.999-2.062z"/>
        <path fill="#4A4A4A" fill-rule="nonzero" stroke="#4A4A4A" stroke-width=".2" d="M18.43 10.97c-.864-.066-1.563-.465-1.962-1.097l-.1-.167c-.499-.831-1.397-1.33-2.362-1.397-.2-.033-.366.1-.366.3-.033.2.1.366.3.366.765.033 1.43.465 1.83 1.097l.099.167c.499.831 1.43 1.364 2.495 1.43a.988.988 0 0 1 .932.998v2.328a.98.98 0 0 1-.998.998h-.694a2.007 2.007 0 0 0-1.148-1.485l-.04-.018-.025-.01a1.887 1.887 0 0 0-.065-.026l-.018-.007a1.955 1.955 0 0 0-.074-.025l-.016-.005a1.912 1.912 0 0 0-.077-.021l-.017-.005a1.96 1.96 0 0 0-.076-.018c-.007 0-.013-.002-.02-.004a1.966 1.966 0 0 0-.075-.013l-.022-.004a1.953 1.953 0 0 0-.073-.01l-.025-.002a2.01 2.01 0 0 0-.074-.006l-.024-.001a2.015 2.015 0 0 0-.198 0l-.024.001a2.01 2.01 0 0 0-.074.006c-.009 0-.017.002-.025.003a2.038 2.038 0 0 0-.073.01c-.008 0-.015.002-.023.003l-.075.013-.019.004a1.975 1.975 0 0 0-.076.018l-.017.005a1.913 1.913 0 0 0-.077.021l-.016.005-.074.025-.018.007a1.894 1.894 0 0 0-.065.026l-.025.01-.04.018a2.008 2.008 0 0 0-1.148 1.485h-6.71a2.008 2.008 0 0 0-1.148-1.485l-.04-.018-.025-.01a2.067 2.067 0 0 0-.065-.026l-.018-.007a1.98 1.98 0 0 0-.074-.025l-.016-.005a1.98 1.98 0 0 0-.17-.044c-.006 0-.013-.002-.02-.004a1.966 1.966 0 0 0-.074-.013l-.023-.004a1.953 1.953 0 0 0-.073-.01l-.025-.002a2.009 2.009 0 0 0-.074-.006l-.024-.001a2.015 2.015 0 0 0-.197 0l-.025.001-.074.006-.025.003a2.038 2.038 0 0 0-.073.01l-.022.003-.075.013-.02.004a1.96 1.96 0 0 0-.076.018l-.017.005a2 2 0 0 0-.077.021l-.016.005-.074.025-.017.007a1.97 1.97 0 0 0-.066.026l-.025.01-.04.018a2.007 2.007 0 0 0-1.148 1.485H1.663a.98.98 0 0 1-.998-.998V13.5c0-.5.366-.932.865-.965l2.03-.266a5.872 5.872 0 0 0 3.76-1.963l.498-.565c.266-.333.632-.666.965-.799.166-.066.266-.266.2-.432-.067-.167-.267-.266-.433-.2-.499.167-.931.566-1.264.965l-.466.532a5.375 5.375 0 0 1-3.327 1.763l-2.03.266C.634 11.935 0 12.667 0 13.5v1.496c0 .932.732 1.664 1.663 1.664h1.36c.16.94.983 1.663 1.967 1.663.985 0 1.808-.723 1.968-1.663h6.71c.16.94.984 1.663 1.968 1.663.985 0 1.808-.723 1.968-1.663h.694c.931 0 1.663-.732 1.696-1.697v-2.328c0-.865-.698-1.597-1.563-1.664zM4.99 17.657c-.732 0-1.33-.6-1.33-1.331 0-.732.598-1.33 1.33-1.33.732 0 1.331.598 1.331 1.33 0 .732-.599 1.33-1.33 1.33zm10.646 0c-.732 0-1.33-.6-1.33-1.331 0-.732.598-1.33 1.33-1.33.732 0 1.33.598 1.33 1.33 0 .732-.598 1.33-1.33 1.33z"/>
        <path d="M0 0h20v20H0z"/>
    </g>
</svg>
