<svg xmlns="http://www.w3.org/2000/svg" width="20" height="20" viewBox="0 0 20 20">
    <g fill="none" fill-rule="evenodd">
        <path fill="#4A4A4A" fill-rule="nonzero" d="M18.52 9.347h-.196V6.1c0-1.14-.927-2.066-2.066-2.066H3.678A2.068 2.068 0 0 0 1.614 6.1v3.248h-.196C.636 9.347 0 9.983 0 10.764v2.099c0 .78.636 1.416 1.417 1.416h1.751v1.333a.443.443 0 1 0 .886 0V14.28h11.829v1.333a.443.443 0 1 0 .886 0V14.28h1.751c.781 0 1.417-.635 1.417-1.416v-2.1c0-.78-.636-1.416-1.417-1.416zM2.5 6.1c0-.65.528-1.18 1.179-1.18h12.579c.65 0 1.18.53 1.18 1.18v3.248h-.569v-.89a1.03 1.03 0 0 0-1.028-1.028h-4.542a1.03 1.03 0 0 0-1.029 1.028v.89h-.604v-.89A1.03 1.03 0 0 0 8.637 7.43H4.096a1.03 1.03 0 0 0-1.029 1.028v.89H2.5V6.1zm8.656 3.248v-.89c0-.077.066-.142.143-.142h4.542c.077 0 .142.065.142.142v.89h-4.827zm-7.203 0v-.89c0-.077.066-.142.143-.142h4.541c.078 0 .143.065.143.142v.89H3.953zm15.098 3.516c0 .292-.238.53-.53.53H1.416a.531.531 0 0 1-.53-.53v-2.1c0-.292.237-.53.53-.53H18.52c.293 0 .53.238.53.53v2.1z"/>
        <path d="M0 0h20v20H0z"/>
    </g>
</svg>
