<svg xmlns="http://www.w3.org/2000/svg" width="20" height="20" viewBox="0 0 20 20">
    <g fill="none" fill-rule="evenodd">
        <g fill="#4A4A4A" fill-rule="nonzero" stroke="#4A4A4A" stroke-width=".2">
            <path d="M12.314 19.048H6.997a2.513 2.513 0 0 1-2.51-2.51V6.501c0-.16.129-.288.288-.288h9.713c.16 0 .335.129.335.288v10.036a2.513 2.513 0 0 1-2.51 2.51zM5.064 6.79v9.747c0 1.066.866 1.933 1.933 1.933h5.317a1.935 1.935 0 0 0 1.933-1.933V6.791H5.063z"/>
            <path d="M15.754 14.761h-1.219a.289.289 0 0 1 0-.577h1.219c.58 0 1.052-.472 1.052-1.052v-2.709c0-.58-.472-1.053-1.052-1.053h-1.219a.289.289 0 0 1 0-.577h1.219c.899 0 1.63.731 1.63 1.63v2.709c0 .899-.732 1.63-1.63 1.63zM7.257 16.372a.289.289 0 0 1-.288-.288V9.057a.289.289 0 0 1 .577 0v7.027c0 .16-.13.288-.289.288zM12.052 16.372a.289.289 0 0 1-.288-.288V9.057a.289.289 0 0 1 .577 0v7.027c0 .16-.13.288-.289.288zM9.655 16.372a.289.289 0 0 1-.29-.288V9.057a.289.289 0 0 1 .578 0v7.027c0 .16-.129.288-.288.288z"/>
        </g>
        <path fill="#4A4A4A" fill-rule="nonzero" stroke="#4A4A4A" stroke-width=".2" d="M14.37 6.79H4.94a1.895 1.895 0 0 1-1.893-1.892c0-1.044.85-1.894 1.893-1.894h.138A3.378 3.378 0 0 1 8.448 0c1.036 0 2.01.473 2.652 1.277.282-.12.574-.18.87-.18 1.128 0 2.07.818 2.257 1.907h.143c1.044 0 1.893.85 1.893 1.893 0 1.044-.85 1.894-1.893 1.894zM4.94 3.582a1.317 1.317 0 0 0 0 2.632h9.43a1.317 1.317 0 0 0 0-2.632h-.4a.288.288 0 0 1-.288-.274 1.716 1.716 0 0 0-1.711-1.633c-.28 0-.557.074-.822.22a.288.288 0 0 1-.376-.09A2.82 2.82 0 0 0 8.448.577a2.804 2.804 0 0 0-2.813 2.725.288.288 0 0 1-.289.279H4.94z"/>
        <path d="M0 0h20v20H0z"/>
    </g>
</svg>
