<svg xmlns="http://www.w3.org/2000/svg" width="20" height="20" viewBox="0 0 20 20">
    <g fill="none" fill-rule="evenodd">
        <path fill="#4A4A4A" fill-rule="nonzero" d="M18.304 4.11h-4.97V2.86c0-.459-.405-.834-.905-.834H7.571c-.5 0-.904.375-.904.833v1.25H1.696C.758 4.11 0 4.868 0 5.805v11.192c0 .937.758 1.696 1.696 1.696h16.608c.938 0 1.696-.759 1.696-1.696V5.805c0-.937-.758-1.696-1.696-1.696zM7.567 2.86h4.862c.042 0 .067.016.071.004v1.245h-5l-.008-1.225a.125.125 0 0 1 .075-.025zm10.737 15H1.696a.864.864 0 0 1-.863-.863V9.359c1.788 1.925 5.93 2.805 7.121 3.025a2.076 2.076 0 1 0 4.096-.013c1.162-.274 5.325-1.37 7.117-3.387v8.013a.864.864 0 0 1-.863.862zM8.75 12.025c0-.692.558-1.25 1.25-1.25s1.25.558 1.25 1.25-.558 1.25-1.25 1.25-1.25-.558-1.25-1.25zm3.262-.504a2.075 2.075 0 0 0-4.033.02C5.65 11.11.833 9.74.833 7.443V5.806c0-.475.388-.862.863-.862h16.608c.475 0 .863.387.863.862v1.221c0 2.3-4.813 3.933-7.155 4.496z"/>
        <path d="M0 0h20v20H0z"/>
    </g>
</svg>
