<svg xmlns="http://www.w3.org/2000/svg" width="20" height="20" viewBox="0 0 20 20">
    <g fill="none" fill-rule="evenodd">
        <path fill="#4A4A4A" fill-rule="nonzero" d="M14.85 0H4.666a.662.662 0 0 0-.657.666v18.668c0 .367.294.666.657.666H14.85a.662.662 0 0 0 .657-.666V.666A.661.661 0 0 0 14.851 0zm0 19a.331.331 0 0 1-.328.334H4.993A.332.332 0 0 1 4.665 19V1c0-.184.147-.334.328-.334h9.529c.181 0 .329.15.329.334v18zM13.07 2.864H6.445a.58.58 0 0 0-.576.584v11.104a.58.58 0 0 0 .576.584h6.625a.58.58 0 0 0 .576-.584V3.448a.58.58 0 0 0-.576-.584zm0 11.396a.29.29 0 0 1-.288.292H6.733a.29.29 0 0 1-.288-.292V3.74a.29.29 0 0 1 .288-.292h6.05a.29.29 0 0 1 .287.292v10.52zm-3.148 2.406a.993.993 0 0 0-.986 1c0 .553.442 1.001.986 1.001a.993.993 0 0 0 .986-1c0-.553-.442-1-.986-1zm0 1.334a.332.332 0 0 1-.329-.334c0-.183.147-.333.33-.333.18 0 .328.15.328.333a.332.332 0 0 1-.329.334z"/>
        <path d="M0 0h20v20H0z"/>
    </g>
</svg>
