<svg xmlns="http://www.w3.org/2000/svg" width="20" height="20" viewBox="0 0 20 20">
    <g fill="none" fill-rule="evenodd">
        <path fill="#4A4A4A" fill-rule="nonzero" d="M7.185 10.187c.303-.352.487-.81.487-1.31 0-1.109-.902-2.01-2.01-2.01-1.109 0-2.01.901-2.01 2.01 0 .5.183.958.487 1.31a2.24 2.24 0 0 0-1.186 1.974v1.756c0 .266.216.482.482.482h4.454a.481.481 0 0 0 .481-.482v-1.756a2.24 2.24 0 0 0-1.185-1.974zM5.662 7.83a1.049 1.049 0 0 1 .01 2.095h-.02a1.049 1.049 0 0 1 .01-2.095zm1.746 5.607H3.916v-1.275c0-.702.572-1.274 1.275-1.274h.942c.703 0 1.275.572 1.275 1.274v1.275zm3.061-4.924c0-.266.216-.481.481-.481h2.602a.481.481 0 1 1 0 .962H10.95a.481.481 0 0 1-.48-.48zm7.465-5.489H2.037A2.04 2.04 0 0 0 0 5.06v11.145a2.04 2.04 0 0 0 2.037 2.037h11.411a.577.577 0 0 0 .02 0h4.466a2.04 2.04 0 0 0 2.037-2.037V5.06a2.04 2.04 0 0 0-2.037-2.037zm1.075 13.182c0 .592-.483 1.074-1.075 1.074h-1.15l.26-.49a.481.481 0 0 0-.85-.45l-.499.94h-1.437l.26-.49a.481.481 0 0 0-.851-.45l-.498.94H11.73l.26-.49a.481.481 0 0 0-.85-.45l-.499.94H9.205l.26-.49a.481.481 0 0 0-.851-.45l-.498.94H6.678l.26-.49a.481.481 0 0 0-.85-.45l-.499.94H4.152l.26-.49a.481.481 0 0 0-.85-.45l-.5.94H2.038a1.076 1.076 0 0 1-1.074-1.074V5.06c0-.592.482-1.074 1.074-1.074h1.15l-.26.49a.481.481 0 0 0 .851.45l.498-.94h1.437l-.26.49a.481.481 0 0 0 .851.45l.499-.94H8.24l-.26.49a.481.481 0 0 0 .85.45l.499-.94h1.437l-.26.49a.481.481 0 0 0 .851.45l.499-.94h1.437l-.26.49a.481.481 0 0 0 .85.45l.499-.94h1.437l-.26.49a.481.481 0 0 0 .851.45l.498-.94h1.026c.593 0 1.075.482 1.075 1.074v11.145zm-1.91-3.452a.481.481 0 0 1-.48.481H10.95a.481.481 0 1 1 0-.962h5.668c.266 0 .482.215.482.48zm0-1.912a.481.481 0 0 1-.48.481H10.95a.481.481 0 1 1 0-.962h5.668c.266 0 .482.215.482.48z"/>
        <path d="M0 0h20v20H0z"/>
    </g>
</svg>
