<svg xmlns="http://www.w3.org/2000/svg" width="20" height="20" viewBox="0 0 20 20">
    <g fill="none" fill-rule="evenodd">
        <path fill="#4A4A4A" fill-rule="nonzero" stroke="#4A4A4A" stroke-width=".1" d="M4.645 6.35L1.235 9.6c-.041.039-.06.1-.048.157l.968 4.765a.165.165 0 0 0 .106.125l4.377 1.516a.15.15 0 0 0 .154-.035l3.41-3.248c.041-.04.06-.1.048-.159l-.968-4.765a.165.165 0 0 0-.105-.124L4.799 6.316a.15.15 0 0 0-.154.034zm.347-.667L9.37 7.199c.267.093.468.33.527.62l.968 4.765a.86.86 0 0 1-.241.792l-3.41 3.249a.752.752 0 0 1-.77.17L2.069 15.28a.823.823 0 0 1-.528-.62L.572 9.893a.86.86 0 0 1 .241-.791l3.41-3.249a.752.752 0 0 1 .77-.171z"/>
        <path fill="#4A4A4A" fill-rule="nonzero" stroke="#4A4A4A" stroke-width=".1" d="M13.204 3.873a.15.15 0 0 0-.152.043l-3.243 3.43a.173.173 0 0 0-.04.162l1.205 4.705a.164.164 0 0 0 .111.118l4.447 1.274a.15.15 0 0 0 .152-.042l3.243-3.431a.173.173 0 0 0 .04-.161l-1.204-4.705a.164.164 0 0 0-.112-.119l-4.447-1.274zm.16-.643l4.448 1.274a.818.818 0 0 1 .558.591l1.205 4.706a.863.863 0 0 1-.202.803l-3.242 3.431a.755.755 0 0 1-.76.213l-4.447-1.274a.818.818 0 0 1-.558-.59L9.16 7.677a.863.863 0 0 1 .202-.804l3.242-3.43a.755.755 0 0 1 .76-.214z"/>
        <path d="M0 0h20v20H0z"/>
    </g>
</svg>
