<svg xmlns="http://www.w3.org/2000/svg" width="20" height="20" viewBox="0 0 20 20">
    <g fill="#4D4D4D" fill-rule="nonzero">
        <path d="M3.91 12.132a2.85 2.85 0 0 0-.84 2.028c0 .766.299 1.486.84 2.028l.697-.697a1.872 1.872 0 0 1-.55-1.332c0-.502.195-.974.55-1.33l-.697-.697z"/>
        <path d="M17.748 2.448a4.58 4.58 0 0 0-3.258-1.35 4.58 4.58 0 0 0-3.26 1.35L2.448 11.23a4.58 4.58 0 0 0-1.35 3.26c0 1.23.48 2.388 1.35 3.259.87.87 2.028 1.35 3.26 1.35 1.23 0 2.389-.48 3.259-1.35l8.781-8.782a4.578 4.578 0 0 0 1.35-3.26 4.58 4.58 0 0 0-1.35-3.259zM8.303 17.085a3.647 3.647 0 0 1-2.595 1.074c-.981 0-1.903-.381-2.596-1.074a3.647 3.647 0 0 1-1.075-2.596c0-.98.382-1.902 1.075-2.595l4.06-4.06 5.19 5.192-4.06 4.059zm8.782-8.782l-4.06 4.059-5.19-5.191 4.059-4.059a3.649 3.649 0 0 1 2.595-1.075c.98 0 1.902.382 2.595 1.075a3.648 3.648 0 0 1 1.075 2.595c0 .981-.381 1.902-1.074 2.596z"/>
    </g>
</svg>
