<svg xmlns="http://www.w3.org/2000/svg" width="20" height="20" viewBox="0 0 20 20">
    <g fill="#4A4A4A" fill-rule="nonzero" stroke="#4A4A4A" stroke-width=".1">
        <path d="M6.117 6.598c.065.069.15.103.235.103.086 0 .171-.034.236-.103a.364.364 0 0 0 0-.496.95.95 0 0 1 0-1.293c.29-.305.45-.71.45-1.142 0-.432-.16-.837-.45-1.142a.321.321 0 0 0-.471 0 .364.364 0 0 0 0 .496.933.933 0 0 1 .254.646c0 .244-.09.474-.254.646a1.679 1.679 0 0 0 0 2.285zM13.45 6.598a.324.324 0 0 0 .471 0 .364.364 0 0 0 0-.496.95.95 0 0 1 0-1.293c.29-.305.45-.71.45-1.142 0-.432-.16-.837-.45-1.142a.321.321 0 0 0-.471 0 .364.364 0 0 0 0 .496.933.933 0 0 1 .255.646c0 .244-.09.474-.255.646a1.679 1.679 0 0 0 0 2.285zM9.783 4.493a.324.324 0 0 0 .471 0 .364.364 0 0 0 0-.496.95.95 0 0 1 0-1.293c.29-.305.45-.71.45-1.142 0-.432-.159-.837-.45-1.143a.321.321 0 0 0-.47 0 .364.364 0 0 0 0 .496.933.933 0 0 1 .254.647c0 .244-.09.473-.255.646a1.679 1.679 0 0 0 0 2.285zM18.541 14.639c-.604-3.734-3.369-6.7-6.889-7.419.006-.056.015-.113.015-.168 0-.968-.748-1.755-1.667-1.755s-1.667.787-1.667 1.755c0 .055.009.112.015.168-3.52.719-6.285 3.685-6.89 7.419C.763 15.054 0 15.665 0 16.35c0 1.784 5.17 2.983 10 2.983s10-1.199 10-2.983c0-.685-.762-1.296-1.459-1.711zM9.002 7.112A.928.928 0 0 1 9 7.052c0-.58.449-1.053 1-1.053.551 0 1 .473 1 1.053 0 .02 0 .04-.002.06l-.047-.004a8.027 8.027 0 0 0-.346-.031c-.042-.003-.085-.008-.127-.01a8.274 8.274 0 0 0-.955 0c-.043.002-.085.007-.128.01a8.629 8.629 0 0 0-.346.031l-.047.004zm-.202.736a7.73 7.73 0 0 1 .54-.063l.11-.01a7.772 7.772 0 0 1 1.1 0l.111.01c.18.015.36.035.54.063 3.472.553 6.219 3.464 6.717 7.129.015.112.028.225.039.338.003.04.008.078.012.117.013.155.022.31.027.466a33.84 33.84 0 0 1-15.991 0c.005-.155.014-.31.027-.466l.012-.117a8.75 8.75 0 0 1 .039-.338C2.58 11.312 5.327 8.4 8.8 7.848zM10 18.631c-5.699 0-9.333-1.498-9.333-2.28 0-.135.158-.431.688-.818-.002.02-.001.04-.002.06-.012.192-.02.386-.02.582v.276l.256.065A34.381 34.381 0 0 0 10 17.56c2.83 0 5.66-.348 8.411-1.043l.256-.065v-.276c0-.196-.008-.39-.02-.582-.001-.02 0-.04-.002-.06.53.387.688.683.688.817 0 .783-3.634 2.28-9.333 2.28z"/>
    </g>
</svg>
