<svg xmlns="http://www.w3.org/2000/svg" width="20" height="20" viewBox="0 0 20 20">
    <g fill="none" fill-rule="evenodd">
        <path fill="#4A4A4A" fill-rule="nonzero" d="M18.86 3.637c-.53-1.65-1.66-2.862-3.1-3.323-2.654-.851-4.836.243-5.67.767C9.259.557 7.076-.537 4.423.314c-1.44.461-2.57 1.673-3.1 3.324-.696 2.172-.246 4.631 1.204 6.58a7.08 7.08 0 0 1 1.266 2.776c.094.442.175.928.242 1.446.2 1.553.495 2.8.876 3.704.457 1.085 1.046 1.67 1.752 1.741.04.004.08.006.119.006.694 0 1.274-.623 1.726-1.855.334-.91.597-2.13.74-3.435.081-.73.27-1.32.545-1.709a.364.364 0 0 1 .299-.154c.057 0 .2.015.299.154.275.388.464.98.544 1.709.144 1.305.407 2.525.741 3.435.451 1.232 1.032 1.855 1.726 1.855.04 0 .08-.002.12-.006.705-.07 1.294-.656 1.75-1.74.382-.906.677-2.152.877-3.705.067-.518.148-1.004.241-1.446.21-.994.637-1.929 1.27-2.779 1.448-1.948 1.897-4.407 1.2-6.578zM16.82 9.516a8.369 8.369 0 0 0-1.494 3.279 19.909 19.909 0 0 0-.26 1.559c-.414 3.207-1.184 4.445-1.607 4.5-.089-.03-.392-.322-.718-1.288-.277-.818-.498-1.893-.623-3.027-.105-.953-.362-1.722-.764-2.287a1.554 1.554 0 0 0-2.529 0c-.401.565-.658 1.334-.763 2.287-.125 1.134-.346 2.21-.623 3.027-.326.966-.63 1.257-.718 1.289-.423-.056-1.193-1.294-1.606-4.501-.072-.556-.16-1.08-.26-1.56a8.354 8.354 0 0 0-1.494-3.276c-1.244-1.672-1.634-3.77-1.044-5.61.42-1.309 1.288-2.26 2.382-2.61 1.154-.371 2.345-.347 3.538.07.912.318 1.484.759 1.488.762l.364.285.365-.284c.005-.004.577-.445 1.489-.763 1.193-.417 2.384-.441 3.538-.07 1.094.35 1.961 1.3 2.381 2.608.59 1.84.201 3.938-1.042 5.61z"/>
        <path d="M0 0h20v20H0z"/>
    </g>
</svg>
