<svg xmlns="http://www.w3.org/2000/svg" width="20" height="20" viewBox="0 0 20 20">
    <g fill="none" fill-rule="evenodd">
        <path fill="#4A4A4A" fill-rule="nonzero" d="M8.09 13.176a24.64 24.64 0 0 1-.888-.164c.264.32.554.595.867.826a.466.466 0 0 1-.274.84.46.46 0 0 1-.274-.09c-.693-.51-1.284-1.2-1.758-2.05a.467.467 0 0 1 .034-.506.462.462 0 0 1 .474-.174c.796.183 1.42.31 1.968.4a.465.465 0 0 1-.15.918zm.903 5.002c-3.726-1.645-6.04-4.99-6.04-8.73 0-5.853 3.81-8.518 7.35-8.518 3.54 0 7.35 2.665 7.35 8.517a8.88 8.88 0 0 1-.21 1.922.463.463 0 1 0 .904.202c.155-.695.233-1.41.233-2.124 0-2.899-.89-5.341-2.575-7.062A7.912 7.912 0 0 0 10.303 0 7.912 7.912 0 0 0 4.6 2.385c-1.684 1.72-2.574 4.163-2.574 7.062 0 2.042.636 4.026 1.841 5.738 1.167 1.657 2.81 2.987 4.753 3.845a.46.46 0 0 0 .61-.239.466.466 0 0 0-.237-.613zM10.76 7.11c0-.88.646-1.596 1.438-1.596h1.38c.792 0 1.437.716 1.437 1.596 0 .88-.645 1.595-1.438 1.595h-1.379c-.792 0-1.438-.716-1.438-1.595zm.927 0c0 .36.234.664.511.664h1.38c.277 0 .511-.304.511-.664 0-.361-.234-.665-.512-.665h-1.379c-.277 0-.511.304-.511.665zm4.992 11.754c-1.017.746-2.197 1.125-3.336 1.125a4.694 4.694 0 0 1-2.326-.597l-.18.131a.462.462 0 0 1-.647-.101.466.466 0 0 1 .101-.65l.18-.132a4.441 4.441 0 0 1-.045-.249c-1.12-.985-1.645-2.577-1.376-4.206.318-1.923 1.679-3.432 3.388-3.755a.462.462 0 0 1 .314.053c.767.436 1.366 1.14 1.72 2.013 1.446-.437 2.976-.266 4.169.536.09.061.157.152.187.258.567 1.977-.297 4.217-2.149 5.574zm-5.245-4.223l.276-1.674a.464.464 0 1 1 .914.152l-.06.369.134-.102c.292-.214.597-.397.91-.55-.251-.616-.655-1.12-1.166-1.454-1.25.316-2.235 1.481-2.478 2.955-.156.943.026 1.89.474 2.631.132-.82.473-1.62.996-2.327zm6.547-.928c-1.035-.624-2.362-.684-3.59-.207a5.04 5.04 0 0 0-1.147.631 5.034 5.034 0 0 0-1.032 1.012c-.653.858-.978 1.883-.896 2.872l4.683-3.432a.462.462 0 0 1 .647.102.466.466 0 0 1-.1.65l-4.684 3.431c1.31.545 2.947.31 4.271-.66 1.486-1.088 2.214-2.836 1.848-4.399zM8.407 8.705H7.03c-.793 0-1.439-.716-1.439-1.595 0-.88.646-1.596 1.439-1.596h1.378c.793 0 1.439.716 1.439 1.596 0 .88-.646 1.595-1.439 1.595zM8.92 7.11c0-.361-.234-.665-.512-.665H7.03c-.278 0-.512.304-.512.665 0 .36.234.664.512.664h1.378c.278 0 .512-.304.512-.664z"/>
        <path d="M0 0h20v20H0z"/>
    </g>
</svg>
