<svg xmlns="http://www.w3.org/2000/svg" width="20" height="20" viewBox="0 0 20 20">
    <g fill="#4A4A4A" fill-rule="nonzero" stroke="#4A4A4A" stroke-width=".2">
        <path d="M15.782 1.78a4.737 4.737 0 0 0-1.934.149 4.826 4.826 0 0 0-7.697 0 4.754 4.754 0 0 0-1.933-.15C1.834 2.09.02 4.13 0 6.527a4.812 4.812 0 0 0 3.658 4.727c.516.128.897.57.947 1.1l.29 3.035h-.001l.165 1.734c.07.74 1.007 1.248 1.4 1.43l.132.058a8.792 8.792 0 0 0 3.409.684 8.784 8.784 0 0 0 3.406-.684c.242-.1 1.453-.642 1.534-1.488l.165-1.734.289-3.036c.05-.529.43-.97.947-1.099A4.813 4.813 0 0 0 20 6.526c-.02-2.397-1.834-4.437-4.218-4.746zm-2.641 16.194a8.138 8.138 0 0 1-6.284 0c-.43-.18-1.08-.595-1.111-.917l-.043-.448a9.787 9.787 0 0 0 8.593 0l-.043.448c-.03.322-.68.737-1.112.917zm3.034-7.39a1.95 1.95 0 0 0-1.467 1.703l-.334 3.504c-1.38.742-2.85 1.121-4.374 1.121-1.523 0-2.994-.38-4.374-1.121l-.334-3.504a1.949 1.949 0 0 0-1.467-1.704A4.125 4.125 0 0 1 .69 6.532c.017-2.055 1.572-3.803 3.617-4.068a4.078 4.078 0 0 1 1.867.194l.25.086.148-.218a4.138 4.138 0 0 1 6.856 0l.148.218.25-.085a4.082 4.082 0 0 1 1.867-.195c2.045.265 3.6 2.013 3.617 4.068a4.124 4.124 0 0 1-3.135 4.051z"/>
        <path d="M7.509 11.743a.344.344 0 0 0-.3.385l.345 2.759a.345.345 0 1 0 .685-.086l-.345-2.759a.347.347 0 0 0-.385-.299zM12.491 11.743a.347.347 0 0 0-.385.3l-.345 2.758a.345.345 0 1 0 .685.086l.344-2.76a.344.344 0 0 0-.299-.384zM10.034 12.43a.345.345 0 0 0-.344.345v2.758a.345.345 0 1 0 .69 0v-2.758a.345.345 0 0 0-.346-.345z"/>
    </g>
</svg>
