<svg xmlns="http://www.w3.org/2000/svg" width="20" height="20" viewBox="0 0 20 20">
    <path fill="#4A4A4A" fill-rule="nonzero" stroke="#4A4A4A" stroke-width=".2" d="M17.436 9.897c-1.502-.227-3.496-.352-5.615-.352l-.402.001c.032-.417.365-.746.77-.746h2.867c.752 0 1.364-.644 1.364-1.436 0-.791-.612-1.435-1.364-1.435h-5.018a3.318 3.318 0 0 0 1.284-2.643c0-1.8-1.391-3.265-3.102-3.265-1.71 0-3.102 1.464-3.102 3.265 0 1.086.507 2.049 1.284 2.643H1.364C.612 5.929 0 6.573 0 7.364 0 8.156.612 8.8 1.364 8.8h2.868c.425 0 .772.364.772.813v.516c-.95.237-1.36.517-1.36.92 0 .402.41.682 1.36.919v5.661c0 .79.619 1.43 1.38 1.43.363 0 .704-.148.961-.419.257-.27.398-.629.398-1.01v-3.595c0-.289.212-.525.477-.527.128 0 .248.053.338.147.09.095.14.222.14.356v3.593c0 .793.601 1.446 1.341 1.456h.018c.363 0 .704-.149.96-.42.257-.27.399-.629.399-1.01v-5.08c.135.002.27.002.405.002 2.119 0 4.113-.125 5.615-.352 2.258-.342 2.562-.774 2.562-1.152 0-.377-.304-.81-2.562-1.15zM5.71 3.286C5.71 1.829 6.836.643 8.22.643c1.385 0 2.511 1.185 2.511 2.643 0 1.457-1.126 2.643-2.51 2.643-1.385 0-2.512-1.186-2.512-2.643zM4.232 8.177H1.364c-.426 0-.773-.364-.773-.813 0-.448.347-.813.773-.813h13.692c.426 0 .773.365.773.813 0 .449-.347.813-.773.813h-2.868c-.752 0-1.363.644-1.363 1.436v2.307c-2.087-.04-3.962-.204-5.23-.457v-1.85c0-.792-.612-1.436-1.363-1.436zm.056 2.871c.089-.06.287-.161.716-.278v.557c-.428-.117-.627-.218-.716-.279zm6.312 7.153a.745.745 0 0 1-.543.237h-.01c-.418-.006-.758-.38-.758-.834v-3.593c0-.3-.111-.582-.313-.796a1.035 1.035 0 0 0-.756-.329h-.007c-.585.004-1.061.52-1.061 1.149v3.594c0 .216-.08.419-.225.572a.745.745 0 0 1-.543.237c-.428 0-.789-.37-.789-.809v-5.533c1.3.248 3.167.408 5.23.447v5.086c0 .216-.08.419-.225.572zm6.482-6.578c-1.44.198-3.309.307-5.261.307-.135 0-.27 0-.405-.002v-1.76l.405-.001c1.952 0 3.82.11 5.261.307 1.575.217 2.104.465 2.27.574-.166.11-.695.358-2.27.575z"/>
</svg>
