<svg xmlns="http://www.w3.org/2000/svg" width="20" height="20" viewBox="0 0 20 20">
    <g fill="none" fill-rule="evenodd">
        <path fill="#4A4A4A" fill-rule="nonzero" d="M14.643 3.207l-9.281-1.15A4.807 4.807 0 0 0 0 6.824v.1c0 1.79.986 3.353 2.443 4.179l1.284 5.174a2.193 2.193 0 0 0 1.005 1.36 2.204 2.204 0 0 0 1.675.252l.035-.009a2.198 2.198 0 0 0 1.364-1.002 2.188 2.188 0 0 0 .253-1.67l-.927-3.736 7.51-.93a.411.411 0 0 0 .362-.408v-6.52a.411.411 0 0 0-.361-.407zM7.259 15.405c.089.36.032.732-.16 1.048a1.38 1.38 0 0 1-.855.63l-.035.008c-.36.09-.734.033-1.051-.158a1.376 1.376 0 0 1-.631-.854l-1.133-4.567a4.793 4.793 0 0 0 1.972.179l.943-.117.95 3.831zm6.92-5.634l-8.911 1.104a3.983 3.983 0 0 1-4.443-3.95v-.1a3.983 3.983 0 0 1 4.439-3.951l8.916 1.104V9.77z"/>
        <path fill="#4A4A4A" fill-rule="nonzero" d="M2.303 6.874a2.74 2.74 0 0 0 2.74 2.734 2.74 2.74 0 0 0 2.742-2.734 2.74 2.74 0 0 0-2.741-2.733 2.74 2.74 0 0 0-2.741 2.733zm4.657 0a1.916 1.916 0 0 1-3.833 0 1.916 1.916 0 0 1 3.833 0zM15.997 5.578c.24 0 .355.128.573.396.24.295.57.7 1.212.7.643 0 .972-.405 1.213-.7.218-.268.333-.396.573-.396a.411.411 0 1 0 0-.822c-.643 0-.972.404-1.213.7-.218.267-.333.396-.573.396-.24 0-.354-.13-.572-.397-.24-.295-.57-.7-1.213-.7a.411.411 0 1 0 0 .823zM19.568 7.238c-.643 0-.972.404-1.213.7-.218.267-.333.396-.573.396-.24 0-.354-.129-.572-.396-.24-.296-.57-.7-1.213-.7a.411.411 0 1 0 0 .822c.24 0 .355.128.573.396.24.295.57.7 1.213.7.642 0 .972-.405 1.212-.7.218-.268.333-.396.573-.396a.411.411 0 1 0 0-.822z"/>
        <path d="M0 0h20v20H0z"/>
    </g>
</svg>
