<svg xmlns="http://www.w3.org/2000/svg" width="20" height="20" viewBox="0 0 20 20">
    <g fill="none" fill-rule="evenodd">
        <path d="M0 0h20v20H0z"/>
        <path fill="#4A4A4A" fill-rule="nonzero" d="M6.018 16.788a.458.458 0 0 1-.614.16C2.687 15.424 1 12.588 1 9.544c0-1.752.542-3.43 1.549-4.845l-.57-.547a.428.428 0 0 1-.109-.454.447.447 0 0 1 .376-.29l1.912-.204a.456.456 0 0 1 .365.124.43.43 0 0 1 .131.353L4.468 5.54a.439.439 0 0 1-.295.368.46.46 0 0 1-.468-.1L3.2 5.324A7.47 7.47 0 0 0 1.9 9.544c0 2.733 1.515 5.28 3.954 6.648a.43.43 0 0 1 .165.596zM18.147 9.09a.443.443 0 0 0-.45.436v.018c0 4.23-3.543 7.672-7.899 7.672-.16 0-.318-.005-.477-.014l.172-.668a.43.43 0 0 0-.15-.443.46.46 0 0 0-.477-.059l-1.742.792a.44.44 0 0 0-.246.29.427.427 0 0 0 .077.367l1.155 1.495a.454.454 0 0 0 .448.165.444.444 0 0 0 .347-.322l.195-.758c.232.018.465.028.698.028 4.852 0 8.798-3.833 8.798-8.548v-.015a.443.443 0 0 0-.45-.436zm.689-3.578a.46.46 0 0 0-.477-.058l-.673.307C16.225 2.897 13.176 1 9.798 1a8.998 8.998 0 0 0-4.411 1.15.43.43 0 0 0-.163.597c.125.208.4.28.614.158a8.078 8.078 0 0 1 3.96-1.032c3.027 0 5.76 1.696 7.075 4.26l-.71.324a.436.436 0 0 0-.257.393c-.001.168.098.322.254.395l1.733.81a.46.46 0 0 0 .387.003.44.44 0 0 0 .245-.29l.462-1.814a.43.43 0 0 0-.151-.442zM7.02 13.118a.443.443 0 0 1-.449-.436c0-.241.201-.437.45-.437h2.328V9.894H8.68c-1.163 0-2.109-.92-2.109-2.049 0-1.13.946-2.049 2.11-2.049h.668v-.502c0-.24.2-.436.45-.436.247 0 .449.195.449.436v.502h2.328c.248 0 .45.195.45.436a.443.443 0 0 1-.45.437h-2.328V9.02h.667c1.164 0 2.11.919 2.11 2.049s-.946 2.048-2.11 2.048h-.667v.676a.443.443 0 0 1-.45.437.443.443 0 0 1-.45-.437v-.676H7.02zm1.66-4.097h.669V6.669H8.68c-.667 0-1.21.527-1.21 1.176 0 .648.543 1.176 1.21 1.176zm1.568 3.224h.667c.668 0 1.211-.527 1.211-1.175 0-.649-.543-1.176-1.21-1.176h-.668v2.351z"/>
    </g>
</svg>
