<svg xmlns="http://www.w3.org/2000/svg" width="20" height="20" viewBox="0 0 20 20">
    <g fill="none" fill-rule="evenodd">
        <path fill="#4A4A4A" fill-rule="nonzero" d="M17.756 17.452h-.837a295.117 295.117 0 0 1-1.956-4.957h.872a.392.392 0 1 0 0-.784h-1.17a83.944 83.944 0 0 1-.983-2.743h.375a.392.392 0 1 0 0-.784h-.632c-.605-1.906-.85-3.136-1.195-4.86l-.174-.867a.392.392 0 0 0-.385-.315h-.699V.392a.392.392 0 0 0-.784 0v1.75h-.7a.392.392 0 0 0-.384.315l-.174.866c-.344 1.725-.59 2.955-1.195 4.86h-.632a.392.392 0 1 0 0 .785h.375c-.262.78-.582 1.675-.983 2.743h-1.17a.392.392 0 1 0 0 .784h.872a294.516 294.516 0 0 1-1.956 4.957h-.837a.392.392 0 0 0-.393.392v1.764c0 .216.176.392.393.392h4.705a.392.392 0 0 0 .393-.392v-1.764a.392.392 0 0 0-.393-.392h-.542c.196-1.627 1.483-2.897 3.013-2.897 1.53 0 2.817 1.27 3.013 2.897h-.542a.392.392 0 0 0-.393.392v1.764c0 .216.176.392.393.392h4.705a.392.392 0 0 0 .393-.392v-1.764a.392.392 0 0 0-.393-.392zm-10.039.784v.98H3.796v-.98h3.921zm5.551-3.277c-.72-.766-1.675-1.188-2.688-1.188-1.013 0-1.968.422-2.688 1.188a4.215 4.215 0 0 0-1.11 2.454h-1.68C8.702 8.471 9 6.98 9.7 3.477l.11-.55h1.542l.11.55c.7 3.503.997 4.994 4.597 13.936h-1.68a4.215 4.215 0 0 0-1.11-2.454zm4.096 4.257h-3.921v-.98h3.921v.98z"/>
        <path fill="#4A4A4A" fill-rule="nonzero" d="M11.868 8.451a.392.392 0 0 0-.374-.275H9.667a.392.392 0 0 0-.375.275 71.151 71.151 0 0 1-1.219 3.51.392.392 0 0 0 .368.53h4.279a.392.392 0 0 0 .367-.53 71.096 71.096 0 0 1-1.22-3.51zm-2.865 3.255c.38-1.038.694-1.942.95-2.745h1.253c.257.803.57 1.707.95 2.745H9.004z"/>
        <path d="M0 0h20v20H0z"/>
    </g>
</svg>
