<svg xmlns="http://www.w3.org/2000/svg" width="20" height="20" viewBox="0 0 20 20">
    <g fill="none" fill-rule="evenodd">
        <path fill="#4A4A4A" fill-rule="nonzero" d="M8.578 17.783H1.155a.452.452 0 0 1-.45-.4c-.833-7.044.876-11.625 5.17-13.63C11.52 1.12 16.65 2.903 18.49 6.998c2.282 5.083.81 10.692-5.541 11.297-1.71.163-3.104-.04-4.18-.553a.45.45 0 0 1-.19.042zM6.5 15.326c-.659-1.616-.494-3.75.193-5.047 1.571-2.965 6.042-3.48 7.989.527a.452.452 0 1 1-.814.395c-1.59-3.271-5.122-2.864-6.375-.499-.566 1.067-.71 2.923-.155 4.282.722 1.772 2.489 2.698 5.526 2.41 5.582-.532 6.867-5.427 4.801-10.026-1.628-3.627-6.21-5.22-11.407-2.795C2.454 6.348.875 10.413 1.56 16.878h5.967a4.567 4.567 0 0 1-1.027-1.552z"/>
        <path d="M0 0h20v20H0z"/>
    </g>
</svg>
