<svg xmlns="http://www.w3.org/2000/svg" width="20" height="20" viewBox="0 0 20 20">
    <g fill="none" fill-rule="evenodd">
        <path fill="#4A4A4A" fill-rule="nonzero" d="M19.637 17.64v-.999c0-.2-.133-.332-.333-.332h-.665v-.998c0-.2-.133-.333-.333-.333h-.665V7.66h.665c.2 0 .333-.133.333-.333v-.998h.665c.166 0 .3-.1.3-.266a.334.334 0 0 0-.167-.366L10.122 1.04a.462.462 0 0 0-.3 0L.176 5.696c-.133.067-.2.2-.167.366a.324.324 0 0 0 .333.266h.998v.998c0 .2.133.333.333.333h.665v7.319h-.665c-.2 0-.333.133-.333.333v.998H.674c-.2 0-.333.133-.333.332v.998c-.2 0-.333.134-.333.333 0 .2.134.333.333.333H19.637c.2 0 .332-.133.332-.333s-.133-.333-.332-.333zM9.989 1.703l7.918 3.959H1.805l8.184-3.96zm-7.984 5.29v-.666h15.968v.666H2.005zm14.97.665v7.319h-.665V7.659h.665zm-1.33 0v7.319h-1.331V7.659h1.33zm-1.997 0v7.319h-.665V7.659h.665zm-1.33 0v7.319h-1.33V7.659h1.33zm-1.996 0v7.319h-.666V7.659h.666zm-1.331 0v7.319H7.66V7.659h1.33zm-1.996 0v7.319h-.666V7.659h.666zm-1.33 0v7.319H4.332V7.659h1.331zm-1.997 0v7.319h-.665V7.659h.665zm-1.663 7.984h15.968v.666H2.005v-.666zM18.97 17.64H1.007v-.665H18.97v.665z"/>
        <path d="M0 0h20v20H0z"/>
    </g>
</svg>
