<svg xmlns="http://www.w3.org/2000/svg" width="20" height="20" viewBox="0 0 20 20">
    <g fill="none" fill-rule="evenodd">
        <path d="M0 0h20v20H0z"/>
        <path fill="#4A4A4A" fill-rule="nonzero" d="M13.599 13.565H6.672a.303.303 0 0 1 0-.606h6.927a.303.303 0 0 1 0 .606z"/>
        <path fill="#4A4A4A" fill-rule="nonzero" stroke="#4A4A4A" stroke-width=".2" d="M5.023 15.215a1.954 1.954 0 0 1-1.952-1.953c0-1.077.875-1.952 1.952-1.952s1.952.875 1.952 1.952a1.954 1.954 0 0 1-1.952 1.953zm0-3.299c-.742 0-1.346.604-1.346 1.346 0 .743.604 1.346 1.346 1.346.742 0 1.346-.603 1.346-1.346 0-.742-.604-1.346-1.346-1.346zM15.248 15.215a1.954 1.954 0 0 1-1.952-1.953c0-1.077.875-1.952 1.952-1.952s1.952.875 1.952 1.952a1.954 1.954 0 0 1-1.952 1.953zm0-3.299c-.743 0-1.346.604-1.346 1.346 0 .743.603 1.346 1.346 1.346.742 0 1.346-.603 1.346-1.346 0-.742-.604-1.346-1.346-1.346z"/>
        <path fill="#4A4A4A" fill-rule="nonzero" stroke="#4A4A4A" stroke-width=".2" d="M13.601 13.565H6.673a.303.303 0 0 1 0-.606h6.929a.303.303 0 1 1 0 .606z"/>
        <path fill="#4A4A4A" fill-rule="nonzero" stroke="#4A4A4A" stroke-width=".2" d="M18.352 13.565h-1.457a.303.303 0 0 1 0-.606h1.457c.375 0 .69-.269.747-.64l.286-1.828a.75.75 0 0 0-.147-.578.751.751 0 0 0-.519-.29l-4.4-.478a.308.308 0 0 1-.163-.069l-3.67-3.085a1.264 1.264 0 0 0-.811-.295H3.629a.839.839 0 0 0-.692.365L.738 9.266a.75.75 0 0 0-.123.544l.392 2.51c.058.37.372.64.747.64H3.37a.303.303 0 0 1 0 .606H1.755a1.356 1.356 0 0 1-1.347-1.152l-.392-2.51a1.357 1.357 0 0 1 .223-.981l2.199-3.205c.269-.393.715-.628 1.191-.628h6.046c.439 0 .865.155 1.2.438l3.6 3.026 4.309.467c.374.04.705.227.934.525.229.298.323.668.266 1.04l-.286 1.829a1.355 1.355 0 0 1-1.346 1.15z"/>
        <path fill="#4A4A4A" fill-rule="nonzero" stroke="#4A4A4A" stroke-width=".2" d="M11.676 9.381H2.908a.303.303 0 0 1 0-.606h8.768a.303.303 0 0 1 0 .606z"/>
    </g>
</svg>
