<svg xmlns="http://www.w3.org/2000/svg" width="20" height="20" viewBox="0 0 20 20">
    <g fill="none" fill-rule="evenodd">
        <path fill="#4A4A4A" fill-rule="nonzero" stroke="#4A4A4A" stroke-width=".1" d="M16.553 10.651c.343-.019.684.051.987.203.31.154.67.139.962-.042a.966.966 0 0 0 .46-.827V5.637a.378.378 0 0 0-.377-.378h-4.348a.21.21 0 0 1-.185-.102.229.229 0 0 1-.008-.227c.21-.42.307-.893.28-1.367a2.737 2.737 0 0 0-2.605-2.56 2.695 2.695 0 0 0-1.992.756 2.695 2.695 0 0 0-.834 1.959c0 .428.096.837.287 1.217a.223.223 0 0 1-.009.22.213.213 0 0 1-.186.104H4.637a.378.378 0 0 0-.378.378v4.348a.21.21 0 0 1-.102.184.229.229 0 0 1-.227.009 2.723 2.723 0 0 0-1.367-.28 2.737 2.737 0 0 0-2.56 2.604c-.03.747.239 1.455.756 1.993a2.695 2.695 0 0 0 1.959.834c.428 0 .837-.097 1.217-.288a.223.223 0 0 1 .22.01c.04.023.104.079.104.186v4.348c0 .208.17.377.378.377h4.348c.34 0 .649-.172.827-.46a.982.982 0 0 0 .042-.962 1.968 1.968 0 0 1-.203-.987 1.975 1.975 0 0 1 1.88-1.848 1.95 1.95 0 0 1 1.44.546c.388.373.602.876.602 1.415 0 .308-.07.604-.207.878a.976.976 0 0 0 .87 1.418h4.349c.208 0 .377-.169.377-.377v-4.348a.976.976 0 0 0-1.419-.87 1.94 1.94 0 0 1-.877.206 1.946 1.946 0 0 1-1.415-.602 1.948 1.948 0 0 1-.546-1.44 1.975 1.975 0 0 1 1.848-1.88zm-1.847 3.844a2.695 2.695 0 0 0 1.96.834c.427 0 .837-.097 1.217-.288a.223.223 0 0 1 .324.196v3.97h-3.97a.213.213 0 0 1-.187-.104.223.223 0 0 1-.009-.22c.191-.38.288-.79.288-1.217 0-.747-.296-1.442-.834-1.96a2.695 2.695 0 0 0-1.993-.756 2.737 2.737 0 0 0-2.605 2.56c-.026.475.07.947.28 1.368a.23.23 0 0 1-.008.227.21.21 0 0 1-.184.102h-3.97v-3.97a.976.976 0 0 0-1.419-.87 1.94 1.94 0 0 1-.878.206 1.946 1.946 0 0 1-1.415-.602 1.948 1.948 0 0 1-.546-1.44 1.975 1.975 0 0 1 1.848-1.88c.343-.019.685.051.988.203.31.154.669.139.961-.042a.966.966 0 0 0 .46-.827v-3.97h3.971a.976.976 0 0 0 .87-1.419 1.94 1.94 0 0 1-.207-.878c0-.539.214-1.041.603-1.415.388-.373.899-.567 1.439-.546.999.039 1.825.85 1.88 1.848.02.343-.05.685-.202.988-.155.31-.14.669.042.961.178.289.487.46.827.46h3.97v3.97a.21.21 0 0 1-.102.185.23.23 0 0 1-.227.009 2.723 2.723 0 0 0-1.367-.28 2.737 2.737 0 0 0-2.561 2.604c-.03.747.24 1.455.756 1.993z"/>
        <path d="M0 0h20v20H0z"/>
    </g>
</svg>
