<svg xmlns="http://www.w3.org/2000/svg" width="20" height="20" viewBox="0 0 20 20">
    <g fill="none" fill-rule="evenodd">
        <path fill="#4A4A4A" fill-rule="nonzero" d="M18.414 13.721c-.263 0-.51-.213-.51-.476 0-.264.264-.477.527-.477.14 0 .617 0 .617-.815v-1.3c0-1.14-1.062-2.066-2.2-2.066H2.88c-1.137 0-1.928.926-1.928 2.065v1.19c0 .483.257.875.738.875h.714a.476.476 0 0 1 0 .953H1.69C.683 13.67 0 12.85 0 11.843v-1.19c0-1.665 1.217-3.019 2.88-3.019H16.85c1.663 0 3.151 1.354 3.151 3.018v1.301c0 1.074-.663 1.768-1.586 1.768z"/>
        <path fill="#4A4A4A" fill-rule="nonzero" d="M14.15 13.67H6.531a.476.476 0 0 1 0-.953h7.62a.476.476 0 0 1 0 .953zM14.137 8.27c-.26 0-.472-.288-.476-.55-.023-1.673-2.112-3.583-4.872-3.583-2.687 0-4.873 1.567-4.873 3.518a.468.468 0 0 1-.477.467.48.48 0 0 1-.476-.482c0-2.476 2.613-4.493 5.826-4.493 3.07 0 5.792 2.173 5.825 4.562.003.263-.207.243-.47.56h-.007z"/>
        <path fill="#4A4A4A" fill-rule="nonzero" d="M16.354 15.87a2.34 2.34 0 0 1-2.338-2.34 2.34 2.34 0 0 1 2.338-2.338 2.34 2.34 0 0 1 2.337 2.338 2.34 2.34 0 0 1-2.337 2.34zm0-3.725a1.387 1.387 0 0 0 0 2.771 1.387 1.387 0 0 0 0-2.771zM4.564 15.552a2.34 2.34 0 0 1-2.337-2.339 2.34 2.34 0 0 1 2.337-2.339A2.34 2.34 0 0 1 6.9 13.213a2.34 2.34 0 0 1-2.337 2.339zm0-3.725a1.387 1.387 0 0 0 0 2.771 1.387 1.387 0 0 0 0-2.771zM8.73 8.428a.477.477 0 0 1-.476-.476v-4.13a.476.476 0 1 1 .952 0v4.13a.477.477 0 0 1-.476.476zM19.23 10.493h-1.27a.476.476 0 0 1 0-.953h1.27a.476.476 0 0 1 0 .953z"/>
        <path d="M0 0h20v20H0z"/>
    </g>
</svg>
