<svg xmlns="http://www.w3.org/2000/svg" width="20" height="7" viewBox="0 0 20 7">
    <g fill="none" fill-rule="evenodd">
        <path fill="#4A4A4A" d="M2.122 6.25V.532h-.505a1.285 1.285 0 0 1-.202.533c-.098.14-.219.25-.361.33-.143.08-.302.136-.478.166s-.357.044-.543.044v.548h1.429V6.25h.66zm2.756-4.234a.99.99 0 0 0 .078.407.8.8 0 0 0 .52.456c.12.038.246.057.381.057.264 0 .481-.081.652-.242.171-.162.257-.387.257-.678 0-.29-.087-.51-.26-.657-.174-.148-.395-.222-.665-.222-.129 0-.253.019-.372.057a.84.84 0 0 0-.513.443.865.865 0 0 0-.078.38zm-.698-.024c0-.237.044-.445.132-.625a1.35 1.35 0 0 1 .357-.456c.15-.123.322-.217.516-.282a1.92 1.92 0 0 1 .61-.097c.3 0 .556.042.769.125.212.084.384.194.516.331s.23.293.291.468c.062.174.093.353.093.536a1.291 1.291 0 0 1-.761 1.185c.332.108.578.284.738.529.16.244.24.544.24.899 0 .28-.047.527-.143.742a1.606 1.606 0 0 1-.388.544c-.163.148-.356.26-.579.335-.222.075-.46.113-.714.113-.264 0-.51-.035-.738-.105a1.628 1.628 0 0 1-.594-.323 1.51 1.51 0 0 1-.396-.544 1.879 1.879 0 0 1-.144-.762c0-.339.083-.633.249-.883.166-.25.404-.432.714-.545a1.198 1.198 0 0 1-.559-.471 1.295 1.295 0 0 1-.21-.714zm.504 2.645c0 .344.11.614.33.81.22.197.501.295.843.295.166 0 .317-.028.454-.085.137-.056.257-.134.357-.234.101-.099.18-.216.233-.35a1.172 1.172 0 0 0-.007-.875 1.064 1.064 0 0 0-.245-.343 1.182 1.182 0 0 0-.8-.315c-.16 0-.312.026-.454.077a1.096 1.096 0 0 0-.373.222 1.026 1.026 0 0 0-.248.347c-.06.134-.09.284-.09.451zm3.697-.951v.645h2.244v-.645H8.381zm2.974-1.13h.66a2.012 2.012 0 0 1 .05-.512c.04-.169.103-.32.191-.455.088-.135.2-.244.338-.327a.932.932 0 0 1 .493-.125c.145 0 .282.024.412.073a.98.98 0 0 1 .566.536c.057.126.086.267.086.423 0 .2-.03.374-.09.525-.059.15-.147.29-.263.419a2.745 2.745 0 0 1-.44.383c-.175.126-.38.265-.613.415a6.76 6.76 0 0 0-.551.38c-.176.134-.334.29-.474.467-.14.178-.255.386-.345.625-.091.24-.15.528-.175.867h3.595v-.605H11.97c.03-.177.097-.334.198-.472.1-.137.222-.264.365-.383.142-.118.299-.23.47-.334.17-.105.341-.211.512-.319a8.42 8.42 0 0 0 .497-.355c.16-.123.303-.262.427-.415.124-.153.224-.327.3-.52.074-.194.112-.417.112-.67 0-.268-.046-.505-.136-.71a1.463 1.463 0 0 0-.369-.511 1.616 1.616 0 0 0-.547-.315 2.04 2.04 0 0 0-.672-.109c-.29 0-.549.051-.777.154a1.588 1.588 0 0 0-.57.423 1.73 1.73 0 0 0-.338.641 2.396 2.396 0 0 0-.086.807zm5.017 2.315c.026.28.135.495.326.645.192.15.42.226.683.226.404 0 .707-.181.91-.544.201-.363.312-.918.333-1.666l-.016-.016c-.124.242-.3.434-.528.577a1.38 1.38 0 0 1-.745.214c-.28 0-.528-.048-.746-.142a1.532 1.532 0 0 1-.881-.996 2.548 2.548 0 0 1-.113-.774c0-.274.044-.525.132-.754.088-.228.213-.425.373-.589.16-.164.352-.291.575-.383.222-.091.466-.137.73-.137.259 0 .502.042.73.125.228.084.427.227.598.432.17.204.306.482.407.834.101.353.152.8.152 1.343 0 .99-.152 1.749-.454 2.278-.303.53-.789.795-1.457.795-.46 0-.843-.121-1.149-.363-.305-.242-.479-.61-.52-1.105h.66zm2.136-2.427c0-.178-.025-.344-.074-.5a1.285 1.285 0 0 0-.218-.416 1.036 1.036 0 0 0-.353-.286 1.08 1.08 0 0 0-.49-.105c-.196 0-.363.038-.5.113a.945.945 0 0 0-.334.302 1.31 1.31 0 0 0-.187.432c-.038.161-.058.33-.058.508a1.295 1.295 0 0 0 .307.839c.096.113.21.203.342.27.132.067.278.1.438.1a1.061 1.061 0 0 0 .824-.374c.098-.116.173-.25.225-.404.052-.153.078-.313.078-.48z"/>
        <path d="M0-6h19.259v20H0z"/>
    </g>
</svg>
