<svg xmlns="http://www.w3.org/2000/svg" width="20" height="20" viewBox="0 0 20 20">
    <g fill="none" fill-rule="evenodd">
        <path fill="#4A4A4A" d="M1.694 8.929v.567a3.01 3.01 0 0 1 .387-.023c.162 0 .312.022.452.067a.969.969 0 0 1 .603.544c.06.134.091.287.091.46a1.015 1.015 0 0 1-.35.792c-.105.093-.23.164-.371.214-.142.05-.291.075-.448.075-.37 0-.65-.114-.843-.343-.192-.229-.293-.524-.303-.887H.267c-.005.29.034.547.117.773.084.226.204.416.36.571.158.155.347.272.57.35.223.08.47.12.744.12.253 0 .492-.036.717-.107.226-.071.422-.178.589-.32.167-.141.3-.319.398-.532.099-.212.148-.458.148-.737 0-.336-.08-.628-.239-.875-.16-.247-.403-.407-.732-.48v-.016c.212-.1.39-.247.531-.442.142-.194.213-.418.213-.67 0-.257-.042-.48-.126-.67a1.239 1.239 0 0 0-.345-.465 1.482 1.482 0 0 0-.52-.272c-.2-.06-.416-.09-.65-.09-.267 0-.504.044-.709.133-.205.09-.376.213-.512.37a1.65 1.65 0 0 0-.315.568c-.074.221-.115.466-.126.734h.646c0-.163.02-.318.06-.466a1.13 1.13 0 0 1 .186-.386.912.912 0 0 1 .32-.264.983.983 0 0 1 .45-.098c.274 0 .502.074.684.224.182.15.273.375.273.674a.897.897 0 0 1-.083.394.828.828 0 0 1-.224.288.983.983 0 0 1-.326.174c-.124.039-.255.059-.391.059h-.213a.34.34 0 0 1-.068-.008zm3.568.441c0 .21.006.446.019.706.012.26.053.504.121.733.068.229.178.422.33.58.152.157.365.236.638.236s.486-.079.638-.237c.151-.157.261-.35.33-.58.068-.228.109-.472.121-.732a14.648 14.648 0 0 0 .015-1.159 4.1 4.1 0 0 0-.136-.981 1.307 1.307 0 0 0-.19-.414.99.99 0 0 0-.315-.288.907.907 0 0 0-.463-.11.907.907 0 0 0-.463.11.99.99 0 0 0-.315.288 1.307 1.307 0 0 0-.19.414 4.1 4.1 0 0 0-.137.981l-.003.453zm-.684.008c0-.205.005-.418.016-.638.01-.221.035-.437.075-.647.041-.21.1-.41.175-.599.076-.19.18-.355.311-.497.132-.141.298-.254.498-.339.2-.084.439-.126.717-.126.278 0 .517.042.717.126.2.085.366.198.497.34.132.141.236.307.312.496.076.19.134.389.174.6.04.21.066.425.076.646a13.953 13.953 0 0 1 0 1.277c-.01.22-.035.436-.076.646-.04.21-.098.409-.174.595a1.61 1.61 0 0 1-.312.493 1.379 1.379 0 0 1-.493.335 1.891 1.891 0 0 1-.721.122c-.278 0-.518-.04-.717-.122a1.373 1.373 0 0 1-.498-.335 1.61 1.61 0 0 1-.31-.493 3.162 3.162 0 0 1-.176-.595 4.505 4.505 0 0 1-.075-.646c-.01-.221-.016-.434-.016-.639zm4.282.237v.63h2.194v-.63H8.86zm4.228-.686v.567a3.01 3.01 0 0 1 .387-.023c.162 0 .313.022.452.067a.969.969 0 0 1 .603.544c.061.134.092.287.092.46a1.015 1.015 0 0 1-.35.792c-.106.093-.23.164-.372.214-.141.05-.29.075-.448.075-.369 0-.65-.114-.842-.343-.192-.229-.294-.524-.304-.887h-.645c-.005.29.034.547.118.773.083.226.203.416.36.571.157.155.347.272.57.35.222.08.47.12.743.12.254 0 .493-.036.718-.107.225-.071.421-.178.588-.32.167-.141.3-.319.399-.532.098-.212.148-.458.148-.737 0-.336-.08-.628-.24-.875-.159-.247-.403-.407-.732-.48v-.016c.213-.1.39-.247.531-.442.142-.194.213-.418.213-.67 0-.257-.042-.48-.125-.67a1.239 1.239 0 0 0-.346-.465 1.482 1.482 0 0 0-.52-.272c-.2-.06-.416-.09-.649-.09-.268 0-.505.044-.71.133-.204.09-.375.213-.512.37a1.65 1.65 0 0 0-.315.568c-.073.221-.115.466-.125.734h.645c0-.163.02-.318.06-.466a1.13 1.13 0 0 1 .187-.386.912.912 0 0 1 .319-.264.983.983 0 0 1 .451-.098c.274 0 .501.074.683.224.183.15.274.375.274.674a.897.897 0 0 1-.084.394.828.828 0 0 1-.224.288.983.983 0 0 1-.326.174c-.124.039-.254.059-.391.059h-.213a.34.34 0 0 1-.068-.008zm3.583 1.844c.025.274.132.484.319.631.187.147.41.22.668.22.395 0 .69-.177.888-.531.198-.355.306-.898.327-1.628l-.016-.016a1.414 1.414 0 0 1-.516.564c-.222.139-.465.209-.729.209a1.82 1.82 0 0 1-.728-.138 1.498 1.498 0 0 1-.862-.974 2.49 2.49 0 0 1-.11-.757c0-.268.043-.513.13-.737a1.67 1.67 0 0 1 .363-.575c.157-.16.345-.285.562-.375.218-.089.456-.134.714-.134.253 0 .49.041.713.122.223.082.418.223.585.422.167.2.3.472.398.816.1.344.148.782.148 1.313 0 .967-.148 1.709-.444 2.227-.296.517-.77.776-1.423.776-.45 0-.825-.118-1.124-.355-.298-.236-.468-.596-.508-1.08h.645zm2.088-2.372c0-.174-.024-.337-.072-.49a1.256 1.256 0 0 0-.213-.405 1.012 1.012 0 0 0-.345-.28 1.057 1.057 0 0 0-.479-.102c-.192 0-.355.036-.49.11a.924.924 0 0 0-.326.296 1.28 1.28 0 0 0-.182.421 2.115 2.115 0 0 0-.057.497 1.266 1.266 0 0 0 .3.82c.094.11.205.198.334.264.13.066.272.098.429.098a1.038 1.038 0 0 0 .805-.366c.096-.113.17-.245.22-.394.05-.15.076-.306.076-.47z"/>
        <path d="M.741 0h18.546v20H.741z"/>
    </g>
</svg>
