<svg xmlns="http://www.w3.org/2000/svg" width="20" height="20" viewBox="0 0 20 20">
    <path fill="#4A4A4A" fill-rule="evenodd" d="M2.45 10.686V7.953h-.016L.575 10.686H2.45zm.63 0h.756v.591H3.08v1.308h-.63v-1.308H0v-.646L2.544 7h.536v3.686zm2.119-.85c0 .21.006.445.02.705.013.26.055.504.126.732.07.229.185.422.342.58.158.157.378.236.662.236.284 0 .504-.08.662-.237.157-.157.271-.35.342-.579.071-.228.113-.472.126-.732a14.096 14.096 0 0 0 .016-1.158 3.949 3.949 0 0 0-.142-.98 1.284 1.284 0 0 0-.197-.414A1.015 1.015 0 0 0 6.83 7.7a.97.97 0 0 0-.48-.11.97.97 0 0 0-.48.11c-.132.074-.24.17-.327.288a1.284 1.284 0 0 0-.197.413 3.949 3.949 0 0 0-.142.98c-.003.166-.004.317-.004.454zm-.709.008c0-.205.005-.418.016-.638.01-.221.036-.436.078-.646.042-.21.103-.41.182-.599a1.471 1.471 0 0 1 .839-.835A1.98 1.98 0 0 1 6.349 7c.289 0 .537.042.744.126a1.471 1.471 0 0 1 .84.835c.078.19.138.389.18.599.042.21.069.425.08.646a13.427 13.427 0 0 1 0 1.276c-.011.22-.038.436-.08.646-.042.21-.102.408-.18.594-.08.187-.187.35-.324.493a1.434 1.434 0 0 1-.512.334 2.03 2.03 0 0 1-.748.123c-.289 0-.537-.041-.744-.123a1.428 1.428 0 0 1-.516-.334 1.601 1.601 0 0 1-.323-.493 3.071 3.071 0 0 1-.182-.594 4.342 4.342 0 0 1-.078-.646c-.01-.22-.016-.434-.016-.638zm4.443.236v.63h2.276v-.63H8.933zm5.34.606V7.953h-.015l-1.86 2.733h1.875zm.63 0h.757v.591h-.756v1.308h-.63v-1.308h-2.45v-.646L14.368 7h.536v3.686zm2.135.552c.026.273.137.483.331.63.194.147.425.22.693.22.41 0 .717-.177.922-.531.205-.355.318-.897.339-1.627l-.016-.015a1.434 1.434 0 0 1-.536.563c-.23.139-.483.208-.756.208-.284 0-.536-.045-.756-.137a1.554 1.554 0 0 1-.556-.382 1.599 1.599 0 0 1-.338-.591 2.403 2.403 0 0 1-.115-.756c0-.268.045-.514.134-.737a1.661 1.661 0 0 1 .961-.95c.226-.088.473-.133.74-.133.263 0 .51.04.741.122.231.081.434.222.607.422.173.2.311.47.413.815.103.344.154.78.154 1.311 0 .967-.154 1.708-.46 2.226-.308.517-.8.776-1.478.776-.467 0-.856-.119-1.166-.355-.31-.236-.485-.596-.527-1.08h.67zm2.166-2.371a1.56 1.56 0 0 0-.074-.489 1.24 1.24 0 0 0-.221-.405 1.044 1.044 0 0 0-.358-.28 1.132 1.132 0 0 0-.497-.102c-.2 0-.369.037-.508.11a.947.947 0 0 0-.338.295c-.087.124-.15.264-.19.422a2.04 2.04 0 0 0-.059.496 1.255 1.255 0 0 0 .311.82c.098.11.213.198.347.263a.997.997 0 0 0 .445.099 1.086 1.086 0 0 0 .835-.366c.1-.113.176-.245.229-.394.052-.15.078-.306.078-.47z"/>
</svg>
