<svg xmlns="http://www.w3.org/2000/svg" width="20" height="20" viewBox="0 0 20 20">
    <g fill="none" fill-rule="evenodd">
        <path fill="#4A4A4A" d="M6.909 8.467a.993.993 0 0 0-.3-.625c-.168-.157-.39-.235-.666-.235-.293 0-.528.071-.707.215a1.467 1.467 0 0 0-.418.544c-.1.219-.169.455-.207.71-.037.254-.06.492-.065.714l.017.016c.162-.265.364-.457.604-.576.241-.119.519-.179.833-.179.276 0 .523.048.742.143.22.094.403.225.552.393.15.168.264.366.345.593.081.227.122.473.122.738 0 .212-.032.43-.097.658a1.765 1.765 0 0 1-.321.621c-.149.187-.346.34-.593.463-.246.121-.55.182-.913.182-.427 0-.771-.086-1.03-.26a1.773 1.773 0 0 1-.601-.665 2.758 2.758 0 0 1-.28-.893 6.714 6.714 0 0 1-.07-.942c0-.395.034-.778.102-1.148.068-.37.183-.7.345-.987.162-.286.379-.516.65-.69.27-.173.61-.26 1.022-.26.476 0 .855.127 1.137.378.281.252.443.616.487 1.092h-.69zM5.869 9.66a1.12 1.12 0 0 0-1.116.791 1.645 1.645 0 0 0 .005 1.011 1.092 1.092 0 0 0 .605.678c.148.068.317.102.507.102.189 0 .355-.034.499-.102.143-.067.264-.16.361-.28a1.28 1.28 0 0 0 .223-.41c.052-.154.077-.315.077-.483 0-.178-.023-.347-.069-.507a1.118 1.118 0 0 0-.215-.414 1.08 1.08 0 0 0-.365-.28 1.166 1.166 0 0 0-.511-.106zm3.264.26c0 .217.007.459.02.727.014.267.057.52.13.754.073.236.19.435.353.597.162.162.39.244.682.244.292 0 .52-.082.682-.244.162-.162.28-.361.353-.597.073-.235.116-.487.13-.754a14.527 14.527 0 0 0 .016-1.194 4.07 4.07 0 0 0-.146-1.01 1.323 1.323 0 0 0-.203-.427 1.046 1.046 0 0 0-.337-.296 1 1 0 0 0-.495-.113 1 1 0 0 0-.495.113 1.046 1.046 0 0 0-.337.296c-.09.122-.157.264-.203.427a4.07 4.07 0 0 0-.146 1.01c-.003.17-.004.326-.004.467zm-.73.008c0-.21.005-.43.016-.657.01-.228.037-.45.08-.666.044-.216.106-.422.187-.617a1.516 1.516 0 0 1 .865-.86c.214-.087.47-.13.767-.13.298 0 .553.043.767.13a1.516 1.516 0 0 1 .865.86c.08.195.143.4.186.617.044.216.07.438.081.666a13.836 13.836 0 0 1 0 1.315c-.01.227-.037.449-.08.665-.044.217-.106.421-.187.613a1.65 1.65 0 0 1-.333.508c-.14.146-.317.26-.528.345a2.092 2.092 0 0 1-.771.125 2.1 2.1 0 0 1-.767-.125 1.472 1.472 0 0 1-.532-.345 1.65 1.65 0 0 1-.333-.508 3.165 3.165 0 0 1-.186-.613 4.475 4.475 0 0 1-.081-.665c-.011-.228-.017-.447-.017-.658zm6.883.495V8.646h-.552v1.777h-1.77v.552h1.77v1.778h.552v-1.778h1.77v-.552h-1.77z"/>
        <path d="M0 0h20v20H0z"/>
    </g>
</svg>
