<svg xmlns="http://www.w3.org/2000/svg" width="20" height="20" viewBox="0 0 20 20">
    <g fill="#4A4A4A" fill-rule="nonzero">
        <path d="M18.683.014H1.303A1.3 1.3 0 0 0 0 1.315v16.921a1.3 1.3 0 0 0 1.303 1.302h17.38a1.3 1.3 0 0 0 1.303-1.302V1.316A1.3 1.3 0 0 0 18.683.013zm.434 18.222a.435.435 0 0 1-.434.434H1.303a.435.435 0 0 1-.434-.434V1.316c0-.24.195-.435.434-.435h17.38c.239 0 .434.196.434.434v16.921z"/>
        <path d="M16.728 2.75c-.839 0-1.52.68-1.52 1.518a1.521 1.521 0 0 0 3.04 0c0-.838-.682-1.515-1.52-1.519zm0 2.168a.652.652 0 0 1-.652-.68.66.66 0 0 1 .621-.621.652.652 0 1 1 .03 1.301zM16.076 6.956H3.91a1.3 1.3 0 0 0-1.303 1.301v7.81A1.3 1.3 0 0 0 3.91 17.37h12.166a1.3 1.3 0 0 0 1.304-1.302v-7.81a1.3 1.3 0 0 0-1.304-1.301zm.435 9.111a.435.435 0 0 1-.435.434H3.91a.435.435 0 0 1-.434-.434v-7.81c0-.238.195-.434.434-.434h12.166c.239 0 .435.196.435.434v7.81zM3.53 4.786h7.41c.29 0 .53-.195.53-.434 0-.238-.24-.434-.53-.434H3.53c-.292 0-.53.196-.53.434 0 .239.238.434.53.434z"/>
        <path d="M9.042 10.357a.43.43 0 0 0 .082-.607.432.432 0 0 0-.59-.096c-.44.313-1.026 1.285-.118 2.738.222.356.295.673.222.933-.113.39-.535.599-.535.599a.436.436 0 0 0-.213.577c.1.217.36.312.578.212.078-.034.774-.377 1-1.132.152-.512.047-1.067-.313-1.649-.674-1.08-.179-1.527-.113-1.575zM11.644 10.362a.435.435 0 0 0-.517-.699c-.426.308-1.003 1.276-.117 2.725.217.36.291.672.213.937-.113.386-.517.59-.517.59a.434.434 0 0 0 .187.824.47.47 0 0 0 .186-.043c.079-.035.752-.373.978-1.12.152-.511.052-1.067-.304-1.648-.656-1.067-.17-1.514-.109-1.566z"/>
    </g>
</svg>
