<svg xmlns="http://www.w3.org/2000/svg" width="20" height="20" viewBox="0 0 20 20">
    <g fill="none" fill-rule="evenodd">
        <path fill="#FFF" d="M0 0h20v20H0z"/>
        <g fill="#4A4A4A" fill-rule="nonzero">
            <path d="M7.144 5.946c.156.089.354.035.444-.121.416-.724 1.097-1.156 1.828-1.156.942 0 1.709.93 1.709 2.07a.322.322 0 1 0 .645 0c0-1.14.767-2.07 1.709-2.07.412 0 .813.136 1.163.397A.328.328 0 0 0 15.097 5a.328.328 0 0 0-.066-.455 2.591 2.591 0 0 0-1.549-.526c-.863 0-1.622.541-2.035 1.343-.408-.806-1.167-1.343-2.035-1.343-.965 0-1.856.553-2.389 1.483a.328.328 0 0 0 .121.444z"/>
            <path d="M19.84 11.732s0-.004-.003-.004l-.004-.004a1.542 1.542 0 0 0-1.736-.891 1.29 1.29 0 0 0-.747-1.576l-.008-.004a1.297 1.297 0 0 0-1.642.642l-1.02 2.12-1.657.58c-.31.11-.65.11-.957 0l-.047-.015c2.09-1.164 4.335-3.144 4.335-5.241a3.66 3.66 0 0 0-.58-2.004.326.326 0 1 0-.544.358c.31.474.474 1.042.474 1.646 0 1.782-2.113 3.68-4.253 4.809A12.538 12.538 0 0 1 9.794 11.1a9.97 9.97 0 0 1-1.18-1.02l3.308 1.133a1.346 1.346 0 0 0 1.662-.732c.148-.338.148-.727.004-1.066a1.325 1.325 0 0 0-.751-.72L6.965 6.444l-.144-.055c-1.152-.397-2.463-.214-3.514.483L.183 8.953a.325.325 0 0 0 .362.541l3.124-2.082c.88-.587 1.98-.739 2.942-.408.047.015.085.031.12.043L12.608 9.3a.679.679 0 0 1 .385.37.674.674 0 0 1 0 .548.697.697 0 0 1-.856.377L8.405 9.323a1.267 1.267 0 0 0-1.635.872c-.167.634.187 1.3.806 1.517l4.272 1.494c.448.156.938.156 1.385 0l4.895-1.712a.893.893 0 0 1 1.11.487v.003a.88.88 0 0 1 .003.681.882.882 0 0 1-.478.483l-2.214.922c-.012.004-.024.008-.031.012l-4.16 1.735a2.577 2.577 0 0 1-1.798.07l-6.653-2.19a1.764 1.764 0 0 0-1.277.062l-.264.116a.327.327 0 0 0-.168.429c.07.163.265.237.428.167l.265-.117c.257-.113.545-.128.813-.039l6.658 2.195a3.202 3.202 0 0 0 2.253-.086l3.759-1.572.03-.012 2.615-1.089a1.52 1.52 0 0 0 .83-.837 1.557 1.557 0 0 0-.009-1.182zm-12.046-.63a.619.619 0 0 1-.393-.74.602.602 0 0 1 .268-.362c.456.556 1.04 1.101 1.736 1.619.039.027.077.058.116.085l-1.727-.603zm9.665-.406l-.167.405-1.747.611.739-1.537a.643.643 0 0 1 1.175.521z"/>
        </g>
    </g>
</svg>
