<svg xmlns="http://www.w3.org/2000/svg" width="16" height="20" viewBox="0 0 16 20">
    <g fill="none" fill-rule="evenodd">
        <path d="M-2 0h20v20H-2z"/>
        <g fill="#4A4A4A">
            <path d="M12.274 13.609a7.197 7.197 0 0 1-4.367 1.482 7.194 7.194 0 0 1-4.375-1.488A7.138 7.138 0 0 1 .724 7.907a7.173 7.173 0 0 1 3.222-5.992A7.15 7.15 0 0 1 7.907.724c1.39 0 2.74.399 3.904 1.155a7.164 7.164 0 0 1 3.28 6.028 7.137 7.137 0 0 1-2.817 5.702zm-7.864 1.39a7.929 7.929 0 0 0 3.497.815c1.209 0 2.41-.28 3.49-.812l-.634 1.63H5.045l-.635-1.633zm7.396 3.132v1.11H4.002v-1.11c0-.408.32-.74.711-.74h6.382c.392 0 .71.332.71.74zm.4-16.86A7.876 7.876 0 0 0 7.906 0a7.871 7.871 0 0 0-4.36 1.312A7.894 7.894 0 0 0 0 7.907a7.856 7.856 0 0 0 3.387 6.485l.898 2.307c-.586.19-1.012.76-1.012 1.432v1.49c0 .209.163.379.365.379h8.533c.2 0 .364-.17.364-.38v-1.49c0-.67-.426-1.24-1.012-1.43l.897-2.302a7.855 7.855 0 0 0 3.394-6.49 7.885 7.885 0 0 0-3.609-6.636z"/>
            <path fill-rule="nonzero" d="M2.507 9h-.006a.51.51 0 0 0-.5.514L2 9.533c0 .287.225.52.501.52a.51.51 0 0 0 .502-.52v-.007A.511.511 0 0 0 2.507 9zM7.994 2.372a.43.43 0 0 0-.49-.366 6.612 6.612 0 0 0-3.556 1.838 7.022 7.022 0 0 0-1.938 3.58c-.05.24.097.476.328.527a.432.432 0 0 0 .508-.34c.504-2.429 2.431-4.33 4.795-4.73a.442.442 0 0 0 .353-.509z"/>
            <path fill-rule="nonzero" stroke="#FFF" stroke-width=".8" d="M8.77 9.23h.465l.003-.466a.77.77 0 0 1 .77-.764h.004a.77.77 0 0 1 .765.774l-.003.457h.457a.77.77 0 0 1 0 1.538h-.467l-.002.467a.77.77 0 0 1-.77.764h-.004a.77.77 0 0 1-.765-.774l.003-.457h-.457a.77.77 0 0 1 0-1.538z"/>
        </g>
    </g>
</svg>
