<svg xmlns="http://www.w3.org/2000/svg" width="20" height="20" viewBox="0 0 20 20">
    <path fill="#4A4A4A" fill-rule="nonzero" d="M19.959 1.735l-.038-.358c-.075-.734-.68-1.299-1.434-1.355l-.302-.02a3.257 3.257 0 0 0-2.434.942l-3.019 2.993-9.886-.019c-.83 0-1.642.339-2.246.941l-.415.414a.632.632 0 0 0-.15.546.569.569 0 0 0 .377.396L8.279 8.36l-1.83 1.826-3.32.113c-.34 0-.66.132-.906.396l-.32.32a.594.594 0 0 0-.152.527c.057.188.189.32.359.395l4.226 1.6 1.698 4.367c.076.188.245.32.434.339a.55.55 0 0 0 .49-.188l.34-.34c.227-.225.359-.526.397-.903l.113-3.332 1.849-1.807 2.132 7.869a.595.595 0 0 0 .396.395c.057.019.094.019.151.019.151 0 .302-.057.415-.17l.415-.414a3.188 3.188 0 0 0 .944-2.259V7.25l2.924-2.937a3.094 3.094 0 0 0 .925-2.578zm-1.453 2.051l-3.057 3.05a.371.371 0 0 0-.113.263v10.014a2.48 2.48 0 0 1-.717 1.732l-.189.188-2.245-8.15a.373.373 0 0 0-.264-.264c-.038 0-.057-.019-.094-.019a.373.373 0 0 0-.264.113l-2.416 2.372a.341.341 0 0 0-.113.264l-.113 3.463a.527.527 0 0 1-.17.396l-.132.131-1.641-4.235a.356.356 0 0 0-.227-.207l-4.094-1.562.113-.113a.599.599 0 0 1 .396-.17l3.49-.113a.305.305 0 0 0 .246-.113l2.396-2.39c.095-.094.132-.226.095-.358a.373.373 0 0 0-.264-.263l-8.19-2.24.19-.189a2.447 2.447 0 0 1 1.717-.715l10.037.019a.373.373 0 0 0 .264-.113L16.28 1.47a2.46 2.46 0 0 1 1.868-.715l.302.019c.378.018.68.32.717.677l.038.358c.075.734-.17 1.45-.698 1.976z"/>
</svg>
