<svg xmlns="http://www.w3.org/2000/svg" width="20" height="20" viewBox="0 0 20 20">
    <g fill="none" fill-rule="evenodd">
        <path fill="#4A4A4A" fill-rule="nonzero" d="M19.611 12.075c.312-.426.584-1.133.201-1.895.119-.203.187-.438.187-.688 0-.476-.245-.896-.616-1.144.38-.367.616-.88.616-1.447 0-3.794-3.113-6.88-6.938-6.88H6.939C3.114.02.001 3.106.001 6.9c0 .567.237 1.08.616 1.447a1.373 1.373 0 0 0-.616 1.144c0 .25.068.485.187.688-.384.762-.11 1.47.201 1.896a1.645 1.645 0 0 0 .021 2.147v1.057c0 2.03 1.665 3.683 3.713 3.683h11.754c2.048 0 3.714-1.652 3.714-3.683v-1.033l-.001-.024a1.645 1.645 0 0 0 .021-2.148zm-.837 3.205c0 1.584-1.3 2.873-2.897 2.873H4.123c-1.598 0-2.897-1.289-2.897-2.873v-.544c.143.04.293.061.449.061h4.121a.406.406 0 0 0 .409-.405.406.406 0 0 0-.409-.404H1.675a.855.855 0 0 1-.858-.85c0-.205.072-.396.2-.547a1.845 1.845 0 0 0 1.795-.159c.346-.236.81-.236 1.157 0h.001a1.86 1.86 0 0 0 2.084 0c.273-.186.62-.225.925-.117l.007.006 2.294 1.666h-.776a.406.406 0 0 0-.409.405c0 .224.183.405.409.405h1.824c.02 0 .04-.002.06-.005l2.4 1.745a.41.41 0 0 0 .48.002l2.444-1.743.015.001h2.598c.156 0 .306-.022.45-.061v.544zm-3.207-3.514h-.001c-.346.236-.81.236-1.157 0a1.86 1.86 0 0 0-2.083 0 1.032 1.032 0 0 1-1.158 0l-.002-.003A1.85 1.85 0 0 0 10 11.45a1.852 1.852 0 0 0-1.166.314l-.003.002a1.032 1.032 0 0 1-1.158 0 1.86 1.86 0 0 0-2.083 0c-.346.237-.81.237-1.157.001a1.86 1.86 0 0 0-2.085 0 1.019 1.019 0 0 1-1.144.004c-.006-.004-.492-.445-.363-1.014.168.072.353.112.547.112H18.61c.194 0 .38-.04.547-.112.13.57-.357 1.01-.36 1.012a1.02 1.02 0 0 1-1.148-.003 1.86 1.86 0 0 0-2.083 0zm1.865.807l-4.4 3.137-4.2-3.05a1.82 1.82 0 0 0 .46-.227l.003-.001c.195-.133.432-.195.668-.174a.498.498 0 0 0 .073 0c.237-.02.474.041.669.174l.002.001a1.859 1.859 0 0 0 2.082 0 1.033 1.033 0 0 1 1.157 0 1.86 1.86 0 0 0 2.084 0l.001-.002c.346-.235.81-.235 1.155 0 .08.055.161.102.246.142zm.893 1.415h-1.478l1.8-1.284c.114-.027.227-.064.335-.113.129.152.2.343.2.546 0 .47-.384.85-.857.85zm-2.367-5.063h2.653a.57.57 0 0 1 .572.567.57.57 0 0 1-.572.566H1.39a.57.57 0 0 1-.572-.566.57.57 0 0 1 .572-.567h11.733a.406.406 0 0 0 .408-.405.406.406 0 0 0-.408-.405H2.042A1.22 1.22 0 0 1 .817 6.901C.817 3.553 3.564.83 6.94.83h6.122c3.375 0 6.122 2.723 6.122 6.071 0 .67-.55 1.214-1.225 1.214h-2a.406.406 0 0 0-.408.405c0 .224.183.405.408.405z"/>
        <path fill="#4A4A4A" fill-rule="nonzero" d="M2.715 5.093a.406.406 0 0 0-.408.405v.025c0 .224.183.405.408.405a.406.406 0 0 0 .408-.405v-.025a.406.406 0 0 0-.408-.405zM10 5.822a.406.406 0 0 0-.408.404v.026c0 .223.183.404.408.404a.406.406 0 0 0 .408-.404v-.026A.406.406 0 0 0 10 5.822zM17.285 5.093a.406.406 0 0 0-.408.405v.025c0 .224.182.405.408.405a.406.406 0 0 0 .408-.405v-.025a.407.407 0 0 0-.408-.405zM6.307 2.825a.406.406 0 0 0-.409.405v.025c0 .224.183.405.409.405a.406.406 0 0 0 .408-.405V3.23a.406.406 0 0 0-.408-.405zM11.163 2.825a.406.406 0 0 0-.408.405v.025c0 .224.183.405.408.405a.406.406 0 0 0 .408-.405V3.23a.406.406 0 0 0-.408-.405zM7.157 13.988H7.14a.406.406 0 0 0-.408.404c0 .224.183.405.408.405h.016a.406.406 0 0 0 .408-.405.406.406 0 0 0-.408-.404zM14.519 8.115h-.013a.406.406 0 0 0-.408.405c0 .224.183.405.408.405h.013a.406.406 0 0 0 .408-.405.406.406 0 0 0-.408-.405z"/>
        <path d="M0 0h20v20H0z"/>
    </g>
</svg>
