<svg xmlns="http://www.w3.org/2000/svg" width="20" height="20" viewBox="0 0 20 20">
    <path fill="#4A4A4A" fill-rule="nonzero" d="M15.565 15.287a11.86 11.86 0 0 0 .682-2.738h2.187c.248 0 .449-.206.449-.461a.455.455 0 0 0-.45-.462h-2.1a13.051 13.051 0 0 0-.2-3.189c2.147-.377 3.808-2.753 3.808-5.62a.455.455 0 0 0-.449-.462.455.455 0 0 0-.449.462c0 2.44-1.366 4.454-3.117 4.72-.307-1.14-.774-2.186-1.383-3.08-1.08-1.587-2.493-2.532-4.022-2.709a1.22 1.22 0 0 1 1.14-.819c.249 0 .45-.206.45-.461a.455.455 0 0 0-.45-.462c-.675 0-1.278.328-1.665.837A2.092 2.092 0 0 0 8.331.006a.455.455 0 0 0-.45.462c0 .255.201.461.45.461.523 0 .968.342 1.14.82-1.53.176-2.942 1.121-4.022 2.707-.61.897-1.078 1.946-1.385 3.088C2.29 7.309.898 5.279.898 2.817a.455.455 0 0 0-.449-.462.455.455 0 0 0-.449.462c0 2.889 1.686 5.28 3.858 5.629a13.056 13.056 0 0 0-.199 3.18h-2.1a.455.455 0 0 0-.45.462c0 .255.201.461.45.461h2.186c.125.964.355 1.886.682 2.738-1.87.26-3.318 1.912-3.318 3.905 0 .255.201.462.45.462.247 0 .448-.207.448-.462 0-1.621 1.25-2.947 2.812-3.016.189.38.399.741.63 1.08 1.203 1.767 2.818 2.739 4.547 2.739 1.73 0 3.344-.972 4.547-2.738.231-.34.441-.701.63-1.08 1.562.067 2.813 1.393 2.813 3.015 0 .255.201.462.45.462.247 0 .448-.207.448-.462 0-1.994-1.448-3.645-3.32-3.905zM9.996 2.64c2.234 0 4.159 2.029 5.003 4.926H4.992c.845-2.897 2.77-4.926 5.004-4.926zm0 16.43c-3.011 0-5.46-3.685-5.46-8.215 0-.822.08-1.616.23-2.366h10.46c.15.75.23 1.544.23 2.366 0 4.53-2.449 8.216-5.46 8.216z"/>
</svg>
