<svg xmlns="http://www.w3.org/2000/svg" width="20" height="20" viewBox="0 0 20 20">
    <g fill="#4A4A4A" fill-rule="nonzero">
        <path d="M13.666 2.138a5.358 5.358 0 0 0-.893-.675L13.29.44a.31.31 0 0 0-.17-.416c-.171-.064-.376 0-.444.16l-.492.97C11.51.85 10.667.632 9.636.632c-1.043 0-1.923.199-2.652.52l-.49-.968C6.425.025 6.22-.04 6.05.025c-.171.064-.24.256-.171.416l.515 1.017c-1.468.879-2.17 2.282-2.257 3.305l-.034.353h10.998l-.035-.353c-.068-.672-.478-1.729-1.4-2.625zM4.89 4.475C5.196 3.098 6.63 1.273 9.67 1.273c.966 0 1.765.21 2.415.535a.3.3 0 0 0 .112.074c.021.019.054.027.084.03 1.224.686 1.871 1.783 2.068 2.563H4.89zM1.746 5.756C.79 5.756.04 6.46.04 7.357v4.483c0 .896.751 1.6 1.707 1.6.957 0 1.708-.704 1.708-1.6V7.357c0-.897-.751-1.601-1.708-1.601zm1.025 6.084c0 .544-.444.96-1.025.96-.58 0-1.024-.416-1.024-.96V7.357c0-.544.444-.96 1.024-.96.581 0 1.025.416 1.025.96v4.483zM17.457 5.756c-.956 0-1.707.704-1.707 1.601v4.483c0 .896.75 1.6 1.707 1.6.957 0 1.708-.704 1.708-1.6V7.357c0-.897-.751-1.601-1.708-1.601zm1.025 6.084c0 .544-.444.96-1.025.96-.58 0-1.024-.416-1.024-.96V7.357c0-.544.444-.96 1.024-.96.58 0 1.025.416 1.025.96v4.483zM4.137 15.042h1.366v2.881c0 .705.615 1.281 1.366 1.281.752 0 1.367-.576 1.367-1.28v-2.882h2.732v2.881c0 .705.615 1.281 1.366 1.281.751 0 1.366-.576 1.366-1.28v-2.882h1.366V5.756H4.137v9.286zm.683-8.646h9.563v8.005h-1.366v3.522c0 .353-.307.64-.683.64-.376 0-.683-.287-.683-.64v-3.522H7.553v3.522c0 .353-.308.64-.684.64-.375 0-.683-.287-.683-.64v-3.522H4.82V6.396z"/>
        <path d="M7.894 2.554c-.376 0-.683.288-.683.64 0 .353.307.64.683.64.376 0 .683-.287.683-.64 0-.352-.307-.64-.683-.64zM11.31 2.554c-.376 0-.684.288-.684.64 0 .353.308.64.684.64.375 0 .683-.287.683-.64 0-.352-.308-.64-.683-.64z"/>
    </g>
</svg>
