<svg xmlns="http://www.w3.org/2000/svg" width="20" height="20" viewBox="0 0 20 20">
    <path fill="#4A4A4A" fill-rule="evenodd" d="M11.309 9.781a4.279 4.279 0 0 1-1.12.306c-.378.048-.757.087-1.135.116-.669.049-1.19.199-1.563.451-.374.252-.56.635-.56 1.15 0 .232.046.433.138.603.092.17.213.31.364.421.15.112.324.194.523.248.199.053.4.08.604.08.349 0 .688-.044 1.018-.131.33-.087.623-.22.88-.4a2.04 2.04 0 0 0 .618-.684c.155-.276.233-.603.233-.981V9.78zm-1.47-.436c.165-.02.362-.048.59-.087.228-.039.414-.092.56-.16a.463.463 0 0 0 .269-.342c.034-.16.05-.308.05-.443 0-.447-.142-.813-.428-1.099-.286-.286-.769-.429-1.448-.429-.3 0-.577.027-.829.08a1.805 1.805 0 0 0-.661.277c-.19.13-.345.305-.466.523a2.222 2.222 0 0 0-.24.822H6.35c.03-.446.131-.827.305-1.142.175-.315.4-.572.677-.77.276-.2.596-.345.96-.437A4.693 4.693 0 0 1 9.447 6c.378 0 .734.041 1.069.124.334.082.625.213.873.392.247.18.44.42.581.72.14.3.211.67.211 1.106v4.101c0 .34.06.555.182.647.121.092.366.07.735-.065v.683l-.299.088c-.13.038-.259.058-.385.058-.136 0-.267-.015-.393-.044a.672.672 0 0 1-.349-.138.852.852 0 0 1-.21-.262 1.085 1.085 0 0 1-.11-.334 2.44 2.44 0 0 1-.029-.386 3.79 3.79 0 0 1-1.265.931 3.72 3.72 0 0 1-1.542.32 3.45 3.45 0 0 1-.953-.13 2.305 2.305 0 0 1-.807-.408 2.022 2.022 0 0 1-.552-.676C6.068 12.46 6 12.142 6 11.774c0-1.28.877-2.036 2.632-2.269l1.208-.16zm5.062 4.392v-1.28h1.062v1.28H14.9z"/>
</svg>
