<svg xmlns="http://www.w3.org/2000/svg" width="20" height="20" viewBox="0 0 20 20">
    <g fill="none" fill-rule="evenodd">
        <path fill="#4A4A4A" fill-rule="nonzero" d="M18.571 7.816v-.07l-1.095-4.857a2.386 2.386 0 0 0-2.333-1.854H4.619A2.386 2.386 0 0 0 2.286 2.89L1.19 7.769a.256.256 0 0 0 0 .188A2.34 2.34 0 0 0 0 10v4.693c0 .727.405 1.337.976 1.76 0 .023-.024.07-.024.117v1.642c0 .915.738 1.643 1.667 1.643h.476c.929 0 1.667-.728 1.667-1.643v-1.173h10.476v1.173c0 .915.738 1.643 1.667 1.643h.476c.929 0 1.667-.728 1.667-1.643V16.57A2.333 2.333 0 0 0 20 14.692V9.975c0-.962-.595-1.783-1.429-2.159zM3.238 3.1A1.42 1.42 0 0 1 4.62 1.997h10.524c.667 0 1.262.47 1.38 1.103l1.025 4.529H2.214L3.238 3.1zm.572 15.088c0 .399-.31.704-.715.704H2.62a.697.697 0 0 1-.714-.704v-1.29c.238.07.476.116.714.116h1.19v1.174zm14.285 0c0 .399-.31.704-.714.704h-.476a.697.697 0 0 1-.715-.704v-1.174h1.429c.167 0 .333-.023.476-.046v1.22zm.953-3.52c0 .774-.643 1.408-1.429 1.408h-15c-.762 0-1.667-.634-1.667-1.408V9.975c0-.774.643-1.408 1.429-1.408h15.238c.786 0 1.429.634 1.429 1.408v4.693z"/>
        <path fill="#4A4A4A" fill-rule="nonzero" d="M3.571 10.68c-.785 0-1.428.633-1.428 1.407s.643 1.408 1.428 1.408c.786 0 1.429-.634 1.429-1.408 0-.774-.643-1.408-1.429-1.408zm0 1.876a.474.474 0 0 1-.476-.469c0-.258.215-.47.476-.47.262 0 .477.212.477.47s-.215.47-.477.47zM16.429 10.68c-.786 0-1.429.633-1.429 1.407s.643 1.408 1.429 1.408c.785 0 1.428-.634 1.428-1.408 0-.774-.643-1.408-1.428-1.408zm0 1.876a.474.474 0 0 1-.477-.469c0-.258.215-.47.477-.47.261 0 .476.212.476.47s-.215.47-.476.47z"/>
        <path d="M0 0h20v20H0z"/>
    </g>
</svg>
