<svg xmlns="http://www.w3.org/2000/svg" width="20" height="20" viewBox="0 0 20 20">
    <g fill="#4A4A4A" fill-rule="nonzero">
        <path d="M5.986 11.304H3.609a6.536 6.536 0 0 1-.107-.74.435.435 0 0 0-.866.075 7.398 7.398 0 0 0 .206 1.21 7.385 7.385 0 0 0 5.31 5.31.434.434 0 0 0 .544-.422v-2.722a2.713 2.713 0 0 0-2.71-2.71zm1.84 4.847a6.516 6.516 0 0 1-3.977-3.977h2.137c1.014 0 1.84.826 1.84 1.84v2.137z"/>
        <path d="M17.071 2.929A9.935 9.935 0 0 0 10 0a9.934 9.934 0 0 0-7.071 2.929A9.934 9.934 0 0 0 0 10a9.935 9.935 0 0 0 2.929 7.071A9.934 9.934 0 0 0 10 20a9.934 9.934 0 0 0 7.071-2.929A9.934 9.934 0 0 0 20 10a9.935 9.935 0 0 0-2.929-7.071zM10 19.13C4.965 19.13.87 15.035.87 10 .87 4.965 4.965.87 10 .87c5.035 0 9.13 4.095 9.13 9.13 0 5.035-4.095 9.13-9.13 9.13z"/>
        <path d="M17.08 11.473a.435.435 0 0 0-.343-.169h-2.723a2.713 2.713 0 0 0-2.71 2.71v2.723a.435.435 0 0 0 .543.421 7.385 7.385 0 0 0 5.311-5.31.435.435 0 0 0-.077-.375zm-4.906 4.678v-2.136c0-1.015.826-1.841 1.84-1.841h2.137a6.516 6.516 0 0 1-3.977 3.977zM10 8.26c-.959 0-1.74.781-1.74 1.74s.781 1.74 1.74 1.74 1.74-.781 1.74-1.74-.781-1.74-1.74-1.74zm0 2.61a.87.87 0 0 1 0-1.74.87.87 0 0 1 0 1.74zM3.151 8.699a.435.435 0 0 0-.485.378l-.005.042a.435.435 0 0 0 .863.102l.005-.037A.435.435 0 0 0 3.15 8.7z"/>
        <path d="M17.055 7.789l-.001-.003a7.455 7.455 0 0 0-2.637-3.713A7.33 7.33 0 0 0 10 2.61a7.33 7.33 0 0 0-4.417 1.464 7.455 7.455 0 0 0-2.637 3.715.435.435 0 0 0 .477.56c1.639-.238 4.11-.522 6.577-.522 2.332 0 4.667.254 6.3.483.147.549.222 1.117.222 1.691a.435.435 0 0 0 .87 0c0-.754-.114-1.498-.337-2.211zM10 6.957c-2.177 0-4.352.215-5.979.43A6.491 6.491 0 0 1 10 3.479a6.491 6.491 0 0 1 5.979 3.91c-1.627-.216-3.802-.431-5.979-.431z"/>
    </g>
</svg>
