<svg xmlns="http://www.w3.org/2000/svg" width="20" height="20" viewBox="0 0 20 20">
    <g fill="#4A4A4A" fill-rule="nonzero">
        <path d="M15.627 7.31l-.846-1.768c-.2-.417-.585-.73-1.056-.858-.69-.188-1.43.057-1.838.61l-.255.344a1.163 1.163 0 0 1-.936.457H9.551c-.374 0-.724-.17-.936-.457l-.255-.345c-.408-.552-1.147-.797-1.838-.609-.471.128-.856.44-1.055.858L4.62 7.31c-.48 1.004-.164 2.174.77 2.846a.384.384 0 0 0 .406.024l.668-.368-.051.248c-.233 1.132.175 2.304 1.068 3.094.085 1.035 1.015 1.854 2.148 1.854h.989c1.132 0 2.063-.819 2.148-1.854.893-.79 1.301-1.962 1.068-3.094l-.05-.248.667.368c.128.07.29.061.407-.024.933-.672 1.25-1.842.769-2.846zm-5.009 7.022H9.63c-.726 0-1.327-.507-1.418-1.16l1.913-1.205 1.912 1.204c-.09.654-.692 1.16-1.418 1.16zm-.494-3.24l-.785-.702c-.008-.007-.026-.023-.013-.054.014-.03.039-.03.05-.03h1.496c.01 0 .036 0 .049.03.013.031-.005.047-.013.054l-.784.701zm4.47-1.618l-1.133-.625a.385.385 0 0 0-.393.015.328.328 0 0 0-.148.34l.202.983c.177.86-.109 1.75-.75 2.38l-1.673-1.053.711-.636a.687.687 0 0 0 .184-.794.776.776 0 0 0-.722-.455H9.376a.776.776 0 0 0-.722.455.687.687 0 0 0 .183.794l.712.636-1.673 1.053c-.642-.63-.928-1.52-.75-2.38l.201-.983a.327.327 0 0 0-.147-.34.381.381 0 0 0-.393-.015l-1.134.625c-.526-.493-.681-1.24-.37-1.889l.846-1.768a.922.922 0 0 1 .596-.484.977.977 0 0 1 1.039.344l.254.344c.348.47.92.75 1.533.75h1.145c.613 0 1.186-.28 1.533-.75l.255-.344a.976.976 0 0 1 1.038-.344.922.922 0 0 1 .596.484l.847 1.768c.31.65.155 1.396-.37 1.889z"/>
        <path d="M19.911 11.181c-.453-2.22-1.248-4.285-2.103-6.047l.954-1.638a1.41 1.41 0 0 0-.124-1.62 1.667 1.667 0 0 0-1.633-.576 6.093 6.093 0 0 0-1.172.348A4.073 4.073 0 0 0 13.916.247a4.38 4.38 0 0 0-2.702-.064L10 .55 8.786.183a4.38 4.38 0 0 0-2.702.064 4.074 4.074 0 0 0-1.917 1.401A6.092 6.092 0 0 0 2.995 1.3a1.666 1.666 0 0 0-1.633.576 1.41 1.41 0 0 0-.124 1.62l.954 1.638C1.337 6.896.542 8.962.089 11.18c-.305 1.493.506 3.007 1.973 3.682 4.22 1.943 6.996 3.732 7.612 4.908.061.116.187.19.326.19a.366.366 0 0 0 .326-.19c.617-1.176 3.391-2.965 7.613-4.908 1.466-.675 2.277-2.189 1.972-3.682zm-2.757-9.22a.91.91 0 0 1 .903.319.768.768 0 0 1 .068.894l-.699 1.199a33.225 33.225 0 0 0-1.214-2.141c.202-.08.525-.189.942-.27zM1.874 3.175a.768.768 0 0 1 .07-.894.91.91 0 0 1 .902-.318c.418.081.74.19.942.27-.388.63-.803 1.348-1.214 2.14l-.7-1.198zm15.743 11.083c-2.839 1.307-6.326 3.135-7.617 4.732-1.291-1.597-4.778-3.425-7.617-4.732-1.176-.54-1.826-1.754-1.582-2.95.758-3.713 2.506-6.995 3.838-9.094A3.327 3.327 0 0 1 6.341.878 3.58 3.58 0 0 1 8.563.826l1.325.4c.073.021.151.021.223 0l1.326-.4a3.601 3.601 0 0 1 2.222.052c.71.251 1.315.725 1.702 1.335 1.333 2.1 3.08 5.38 3.838 9.094.244 1.196-.407 2.41-1.582 2.95z"/>
        <path d="M8.043 7.736l-.617-.25a.373.373 0 0 0-.477.175c-.08.171.004.37.188.445l.617.25c.047.019.096.028.144.028.14 0 .274-.076.333-.203.08-.171-.004-.37-.188-.445zM13.175 7.661a.373.373 0 0 0-.477-.175l-.617.25c-.184.075-.268.274-.188.445.06.127.192.203.333.203a.384.384 0 0 0 .144-.028l.617-.25c.184-.075.268-.274.188-.445z"/>
    </g>
</svg>
