<svg xmlns="http://www.w3.org/2000/svg" width="20" height="20" viewBox="0 0 20 20">
    <g fill="#4A4A4A" fill-rule="nonzero">
        <path d="M8.22 9.08a.332.332 0 1 0-.47.47l1.095 1.096-.098.097a.332.332 0 1 0 .47.47l.098-.097 1.096 1.096a.332.332 0 0 0 .47 0c.13-.13.13-.34 0-.47L8.22 9.08zM6.889 10.078a.8.8 0 0 0-1.136 0l-.998.998c-.34.34-.34.796 0 1.136l1.262 1.262-2.391 2.39a.681.681 0 0 0-.94 0l-2.491 2.49a.66.66 0 0 0-.195.471c0 .178.07.345.195.47l.47.471a.66.66 0 0 0 .47.195.66.66 0 0 0 .471-.195l2.49-2.49a.66.66 0 0 0 .195-.47.66.66 0 0 0-.195-.47l2.391-2.392 1.262 1.262c.216.216.428.261.568.261.14 0 .352-.045.568-.261l.998-.998c.36-.361.36-.775 0-1.136l-2.994-2.994zm-5.753 9.218v.332-.332l-.47-.47 2.49-2.49.47.47-2.49 2.49zm8.277-5.558l-.998.998c-.055.054-.09.066-.098.066-.009 0-.043-.012-.097-.066L5.225 11.74c-.08-.08-.08-.114 0-.194l.999-.999a.136.136 0 0 1 .097-.042c.025 0 .062.007.097.042l2.995 2.995c.062.062.072.095.074.095a.282.282 0 0 1-.074.1zM16.634 1.664c-.917 0-1.663.746-1.663 1.663 0 .339.103.653.277.916l-.353.352a.333.333 0 0 0 .47.471l.353-.353c.263.174.577.277.916.277.917 0 1.664-.746 1.664-1.663s-.747-1.663-1.664-1.663zm0 2.661a1 1 0 0 1 0-1.996 1 1 0 0 1 0 1.996zM19.864.098a.332.332 0 0 0-.47 0l-1.332 1.33a.332.332 0 1 0 .47.47l1.332-1.33c.13-.13.13-.34 0-.47zM9.218 8.082a.332.332 0 1 0-.47.47l1.095 1.096-.098.097a.332.332 0 1 0 .47.47l.098-.097 1.096 1.096a.332.332 0 0 0 .47 0c.13-.13.13-.34 0-.47L9.218 8.081zM11.88 5.088a.8.8 0 0 0-1.137 0l-.998.998c-.34.34-.34.796 0 1.136l1.262 1.262-.264.263a.332.332 0 1 0 .47.47l.265-.263 1.261 1.262c.216.216.428.261.568.261.14 0 .353-.045.568-.261l.998-.998c.361-.361.361-.775 0-1.136L11.88 5.088zm2.523 3.66l-.998.997c-.054.055-.089.067-.098.067-.008 0-.043-.012-.097-.067l-2.994-2.994c-.08-.08-.08-.115 0-.195l.998-.998a.136.136 0 0 1 .097-.043c.025 0 .062.008.098.043l2.994 2.994c.062.063.073.096.074.096a.282.282 0 0 1-.074.1zM13.21 4.09a.332.332 0 1 0-.47.47l1.095 1.096-.097.097a.332.332 0 1 0 .47.47l.097-.097 1.096 1.096a.332.332 0 0 0 .47 0c.13-.13.13-.34 0-.47L13.21 4.09z"/>
    </g>
</svg>
