<svg xmlns="http://www.w3.org/2000/svg" width="20" height="20" viewBox="0 0 20 20">
    <g fill="none" fill-rule="evenodd">
        <path stroke="#4A4A4A" stroke-width=".8" d="M19.339 4.253a1.025 1.025 0 0 0-.924-.571c-.395 0-.747.218-.924.57l-.138.28c-.13.266-.178.36-.243.475a3.004 3.004 0 0 1-.322.468l-.19.226-.271-.114a1 1 0 0 0-.869.041c-.487.266-.56.521-.56 1.653v.007c.001.254 0 .387-.001.56a.607.607 0 0 1-.585.6l-.077.002a.555.555 0 0 1-.576-.542l-.002-1.315a.977.977 0 0 0-.554-.865c-.4-.19-.916-.052-1.07.173l-.104.103c-.204.14-.42.243-.597.248l-.183-.038-.047-.024-.146-.083-.043-.162a1.335 1.335 0 0 1-.03-.16l-.026-.208-.006-.042c-.044-.31-.333-.521-.862-.65a5.12 5.12 0 0 0-.853-.12c-.629-.05-1.381-.053-2.326-.007a.999.999 0 0 1-.785-.323l-.763-.796a.761.761 0 0 0-.797-.192.761.761 0 0 0-.506.646l-.005.06c-.017.201-.065.33-.239.446a.47.47 0 0 1-.439.051c-.54-.178-1.136 0-1.484.441-1.934 2.456-1.78 5.82.001 8.007 1.258 1.543 2.958 1.996 4.507 1.222a.733.733 0 0 1 1.06.681c-.021.678.396 1.339 1.078 1.68l.943.496a.71.71 0 0 0 .698-.032.65.65 0 0 0 .286-.333c.047-.128.059-.25.055-.473v-.081a.72.72 0 0 1 1.043-.645l.656.328a.625.625 0 0 0 .904-.526c.018-.34.118-.633.432-.79-.013.006.59-.305.726-.364.267-.116.483-.157.715-.108.344.074.606.307 1.101.897l.124.146c.411.48.69.682 1.029.694.793.028 1.459-1.03.952-1.844a.763.763 0 0 0-.188-.208l-.093-.081c-.264-.315-.457-.667-.457-.977 0-.396.165-.777.453-1.047.54-.506.667-1.353.3-2.113-.368-.76-.14-1.29.608-2.073.08-.083.118-.122.158-.167.177-.204.23-.346.176-.497l-.069-.192.115-.169c.07-.102.133-.209.189-.318.341-.666.355-1.332.045-1.951z"/>
        <path d="M0 0h20v20H0z"/>
    </g>
</svg>
