<svg xmlns="http://www.w3.org/2000/svg" width="20" height="20" viewBox="0 0 20 20">
    <g fill="none" fill-rule="evenodd">
        <path fill="#4A4A4A" fill-rule="nonzero" d="M10.247 11.209v-.484a2.4 2.4 0 0 0 1.358-.813c.624-.747.482-1.88-.284-2.483l-1.074-.845V3.928c.561.2.964.742.964 1.378 0 .27.215.488.481.488a.485.485 0 0 0 .482-.488 2.43 2.43 0 0 0-1.927-2.388v-.481a.485.485 0 0 0-.482-.488.485.485 0 0 0-.482.488v.482a2.4 2.4 0 0 0-1.357.814c-.624.747-.483 1.88.284 2.483l1.073.845v2.656a1.461 1.461 0 0 1-.963-1.379.485.485 0 0 0-.482-.487.485.485 0 0 0-.482.487 2.43 2.43 0 0 0 1.927 2.388v.483c0 .269.216.487.482.487a.484.484 0 0 0 .482-.487zM8.801 5.446c-.341-.268-.404-.768-.14-1.083.168-.2.382-.35.622-.435v1.898l-.482-.38zm1.928 2.752c.342.27.404.768.14 1.084-.167.2-.382.35-.622.435V7.819l.482.38z"/>
        <path fill="#4A4A4A" fill-rule="nonzero" d="M10.247 19.938c2.703-.246 4.818-2.54 4.818-5.338a.485.485 0 0 0-.482-.487c-1.793 0-3.377.899-4.336 2.276v-2.761c3.5-.25 6.263-3.201 6.263-6.805C16.51 3.054 13.49 0 9.765 0S3.02 3.054 3.02 6.823c0 3.604 2.763 6.555 6.263 6.805v2.761a5.274 5.274 0 0 0-4.336-2.276.485.485 0 0 0-.481.487c0 2.798 2.115 5.092 4.817 5.338h.964zm3.824-4.82a4.375 4.375 0 0 1-2.915 3.637l-.681-.689a4.348 4.348 0 0 1 3.596-2.949zM3.984 6.822c0-3.23 2.588-5.848 5.781-5.848 3.193 0 5.782 2.618 5.782 5.848s-2.589 5.848-5.782 5.848-5.781-2.619-5.781-5.848zm1.475 8.294a4.348 4.348 0 0 1 3.598 2.954l-.688.683a4.375 4.375 0 0 1-2.91-3.637z"/>
        <path d="M0 0h20v20H0z"/>
    </g>
</svg>
