<svg xmlns="http://www.w3.org/2000/svg" width="20" height="20" viewBox="0 0 20 20">
    <g fill="none" fill-rule="evenodd">
        <path fill="#4A4A4A" fill-rule="nonzero" d="M18.648 10.937l-8.37-6.677-.464-.381a.478.478 0 0 0-.604 0l-2.415 1.98v-.837a.47.47 0 0 0-.474-.467H4.517a.47.47 0 0 0-.473.467v3.085l-3.67 2.957a.463.463 0 0 0-.067.658.474.474 0 0 0 .666.067l1.431-1.154v7.738a.47.47 0 0 0 .474.468h5.057a.47.47 0 0 0 .473-.468v-3.626h2.208v3.626a.47.47 0 0 0 .473.468h5.057a.47.47 0 0 0 .473-.468V10.52l1.434 1.144a.476.476 0 0 0 .665-.07.463.463 0 0 0-.07-.657zM4.99 5.489h.857v1.114l-.857.686v-1.8zM15.673 9.9v8.007h-4.11v-3.627a.47.47 0 0 0-.474-.467H7.935a.47.47 0 0 0-.474.467v3.627h-4.11V9.899L5.19 8.39s4.308-3.486 4.335-3.532l6.147 5.041z"/>
        <path fill="#4A4A4A" d="M18.423 5.257c0 .431-.162.787-.485 1.068-.324.28-.776.457-1.356.53V7.96h-.614v-1.06c-.355 0-.7-.029-1.032-.084a3.246 3.246 0 0 1-.818-.23v-.743c.263.117.567.213.91.288.345.074.658.112.94.112V4.148c-.65-.206-1.106-.445-1.367-.718-.262-.273-.393-.625-.393-1.056 0-.416.161-.757.483-1.023.322-.266.748-.428 1.277-.485V0h.614v.856a4.829 4.829 0 0 1 1.689.352l-.248.624a4.831 4.831 0 0 0-1.441-.333v2.064c.498.159.87.313 1.118.464.247.15.43.324.547.519.117.195.176.432.176.71zm-.809.062a.75.75 0 0 0-.211-.555c-.142-.14-.415-.281-.821-.42v1.85c.688-.095 1.032-.387 1.032-.875zm-2.602-2.955c0 .241.071.435.214.58.143.147.39.285.742.415V1.518c-.314.05-.552.15-.713.297a.713.713 0 0 0-.243.55z"/>
        <path d="M0 0h20v20H0z"/>
    </g>
</svg>
