<svg xmlns="http://www.w3.org/2000/svg" width="20" height="20" viewBox="0 0 20 20">
    <g fill="none" fill-rule="evenodd">
        <path d="M0 0h20v20H0z"/>
        <g fill="#4A4A4A" fill-rule="nonzero" transform="translate(0 1)">
            <ellipse cx="5.815" cy="10.91" rx="1" ry="1"/>
            <ellipse cx="14.136" cy="10.91" rx="1" ry="1"/>
            <path d="M19.95 10.577c0-1.134-.831-2.079-1.923-2.272v-.342c0-4.387-3.612-7.956-8.052-7.956-4.44 0-8.051 3.569-8.051 7.956v.342C.832 8.498 0 9.443 0 10.577c0 1.144.846 2.096 1.952 2.277.156 1.753.967 3.048 2.42 3.854 1.291.717 3.124 1.065 5.603 1.065 2.48 0 4.312-.348 5.604-1.065 1.452-.806 2.264-2.1 2.42-3.854 1.105-.181 1.951-1.133 1.951-2.277zm-19.125 0c0-.682.465-1.258 1.099-1.436v2.873a1.499 1.499 0 0 1-1.1-1.437zm16.377 1.636c0 1.79-.663 3.028-2.027 3.784-1.165.647-2.866.961-5.2.961s-4.034-.314-5.2-.96c-1.363-.757-2.026-1.995-2.026-3.785v-4.25c0-3.225 2.174-5.957 5.15-6.84 2.267.028 3.475 1.645 3.475 2.816 0 .897-.739 1.627-1.646 1.627-.681 0-1.235-.547-1.235-1.22a.9.9 0 0 1 .905-.894.41.41 0 0 0 .413-.408.41.41 0 0 0-.413-.407c-.954 0-1.73.767-1.73 1.71 0 1.121.924 2.034 2.06 2.034 1.362 0 2.47-1.095 2.47-2.442 0-.846-.43-1.756-1.15-2.434a4.197 4.197 0 0 0-.974-.682c3.94.052 7.128 3.235 7.128 7.14v4.25zm.825-.199V9.141c.633.178 1.099.754 1.099 1.436 0 .683-.466 1.26-1.1 1.437z"/>
            <path d="M12.643 12.578H7.307a.41.41 0 0 0-.412.407c0 1.679 1.382 3.044 3.08 3.044 1.699 0 3.08-1.365 3.08-3.044a.41.41 0 0 0-.412-.407zm-2.668 2.636a2.252 2.252 0 0 1-2.217-1.821h1.45v.385a.41.41 0 0 0 .413.408.41.41 0 0 0 .413-.408v-.385h2.159a2.252 2.252 0 0 1-2.218 1.821z"/>
        </g>
    </g>
</svg>
