<svg xmlns="http://www.w3.org/2000/svg" width="20" height="20" viewBox="0 0 20 20">
    <g fill="#4A4A4A" fill-rule="nonzero">
        <path d="M5.43 7.158a.413.413 0 0 1-.408-.42c0-2.818 2.23-5.111 4.973-5.111.225 0 .407.187.407.419a.413.413 0 0 1-.407.419c-2.293 0-4.158 1.917-4.158 4.274a.413.413 0 0 1-.408.419z"/>
        <path d="M18.597 5.308a1.4 1.4 0 0 0-1.331 1.012h-.77C16.283 2.822 13.448.043 9.994.043c-3.455 0-6.29 2.78-6.501 6.277h-.77a1.4 1.4 0 0 0-1.332-1.012C.625 5.308 0 5.95 0 6.738c0 .79.625 1.432 1.392 1.432.243 0 .471-.065.67-.177.535 3.585 3.322 6.417 6.825 6.916v4.199h-1.58a.413.413 0 0 0-.407.419c0 .231.182.419.407.419h5.375a.413.413 0 0 0 .408-.419.413.413 0 0 0-.408-.419h-1.58v-4.199c3.503-.499 6.29-3.331 6.825-6.916.199.112.427.177.67.177.768 0 1.392-.642 1.392-1.431 0-.79-.624-1.431-1.392-1.431zM1.392 7.332a.586.586 0 0 1-.577-.593c0-.327.259-.593.577-.593.318 0 .577.266.577.593a.586.586 0 0 1-.577.593zM9.995.88c3.142 0 5.698 2.628 5.698 5.858 0 3.23-2.556 5.858-5.698 5.858-3.143 0-5.7-2.628-5.7-5.858 0-3.23 2.557-5.858 5.7-5.858zm.292 18.227h-.585v-4.126a7.927 7.927 0 0 0 .585 0v4.126zm-.292-4.958c-3.84 0-6.987-3.1-7.199-6.992h.698c.21 3.497 3.046 6.277 6.5 6.277 3.455 0 6.29-2.78 6.501-6.277h.698c-.212 3.892-3.36 6.992-7.198 6.992zm8.602-6.818a.586.586 0 0 1-.577-.593c0-.327.259-.593.577-.593.318 0 .577.266.577.593a.586.586 0 0 1-.577.593z"/>
    </g>
</svg>
