<svg xmlns="http://www.w3.org/2000/svg" width="20" height="20" viewBox="0 0 20 20">
    <g fill="none" fill-rule="evenodd">
        <path fill="#4A4A4A" fill-rule="nonzero" d="M16.32 9.615a3.63 3.63 0 0 0-.92.122L13.508 4.86h2.382a.42.42 0 0 0 0-.839h-2.936c-.009 0-.13 0-.21.029a.415.415 0 0 0-.24.543l.552 1.42H7.773l-.203-.642h.837a.42.42 0 0 0 0-.839h-2.82a.42.42 0 0 0 0 .839H6.69l.38 1.2-1.955 3.351a3.628 3.628 0 0 0-1.463-.308A3.656 3.656 0 0 0 0 13.266a3.656 3.656 0 0 0 3.652 3.652 3.655 3.655 0 0 0 3.625-3.232h.726a1.39 1.39 0 0 0 1.323.968 1.39 1.39 0 0 0 1.389-1.388c0-.361-.14-.69-.368-.937l3.102-5.301 1.168 3.01a3.654 3.654 0 0 0-1.949 3.228 3.656 3.656 0 0 0 3.652 3.652 3.656 3.656 0 0 0 3.652-3.652 3.656 3.656 0 0 0-3.652-3.651zM7.412 7.65l1.376 4.337a1.395 1.395 0 0 0-.785.86h-.726a3.647 3.647 0 0 0-1.439-2.498l1.574-2.7zm-.983 5.197H4.382l1.032-1.77a2.81 2.81 0 0 1 1.015 1.77zm-2.777 3.232a2.816 2.816 0 0 1-2.813-2.813 2.816 2.816 0 0 1 2.813-2.813c.366 0 .716.073 1.037.201l-1.4 2.401a.42.42 0 0 0 .363.63H6.43a2.815 2.815 0 0 1-2.778 2.394zm5.675-2.263a.55.55 0 0 1-.001-1.1v.001h.001a.55.55 0 0 1 0 1.099zm.309-1.931L8.039 6.853h4.54l-2.943 5.032zm6.684 4.194a2.816 2.816 0 0 1-2.813-2.813c0-1.042.572-1.952 1.417-2.438l1.005 2.59a.42.42 0 1 0 .782-.303l-1.006-2.592a2.8 2.8 0 0 1 .615-.07 2.816 2.816 0 0 1 2.813 2.813 2.816 2.816 0 0 1-2.813 2.813z"/>
        <path d="M0 0h20v20H0z"/>
    </g>
</svg>
