<svg xmlns="http://www.w3.org/2000/svg" width="20" height="20" viewBox="0 0 20 20">
    <g fill="none" fill-rule="evenodd">
        <path fill="#4A4A4A" fill-rule="nonzero" d="M3.871 8.94h3.923c.736 0 1.335-.598 1.335-1.334V6.57c0-.736-.599-1.335-1.335-1.335H3.871c-.736 0-1.335.599-1.335 1.335v1.035c0 .736.6 1.334 1.335 1.334zm-.389-2.37a.39.39 0 0 1 .389-.388h3.923a.39.39 0 0 1 .389.389v1.035a.39.39 0 0 1-.389.389H3.871a.39.39 0 0 1-.389-.39V6.572zM12.002 8.94h3.923c.736 0 1.335-.598 1.335-1.334V6.57c0-.736-.599-1.335-1.335-1.335h-3.923c-.736 0-1.335.599-1.335 1.335v1.035c0 .736.6 1.334 1.335 1.334zm-.389-2.37a.39.39 0 0 1 .389-.388h3.923a.39.39 0 0 1 .389.389v1.035a.39.39 0 0 1-.389.389h-3.923a.39.39 0 0 1-.389-.39V6.572z"/>
        <path fill="#4A4A4A" fill-rule="nonzero" d="M19.928 11.441v-6.21c0-1.212-.985-2.197-2.196-2.197H2.196C.986 3.034 0 4.02 0 5.23v7.564c0 1.211.985 2.197 2.196 2.197H3.34a2.541 2.541 0 0 0 2.493 2.065c1.237 0 2.27-.891 2.492-2.065h3.146a2.541 2.541 0 0 0 2.493 2.065c1.237 0 2.27-.891 2.492-2.065h1.276c1.211 0 2.196-.986 2.196-2.197v-1.353zM2.196 3.98h15.536c.69 0 1.25.56 1.25 1.25v4.975H.947V5.23c0-.69.56-1.25 1.25-1.25zm3.637 12.13a1.594 1.594 0 0 1-1.592-1.592c0-.878.714-1.592 1.592-1.592.877 0 1.591.714 1.591 1.592 0 .878-.714 1.592-1.591 1.592zm8.13 0a1.594 1.594 0 0 1-1.591-1.592c0-.878.714-1.592 1.591-1.592.878 0 1.592.714 1.592 1.592 0 .878-.714 1.592-1.592 1.592zm3.77-2.065h-1.277a2.541 2.541 0 0 0-2.493-2.065c-1.237 0-2.27.89-2.492 2.065H8.325a2.541 2.541 0 0 0-2.492-2.065c-1.238 0-2.27.89-2.493 2.065H2.196c-.69 0-1.25-.561-1.25-1.25V11.15h18.037v1.643c0 .69-.561 1.251-1.25 1.251z"/>
        <path d="M0 0h20v20H0z"/>
    </g>
</svg>
