<svg xmlns="http://www.w3.org/2000/svg" width="20" height="20" viewBox="0 0 20 20">
    <g fill="none" fill-rule="evenodd">
        <path d="M0 0h20v20H0z"/>
        <path fill="#4A4A4A" fill-rule="nonzero" d="M18.293 4.084H14.01V2.212c0-.647-.537-1.174-1.197-1.174H7.168c-.66 0-1.196.527-1.196 1.174v1.872H1.687C.757 4.084 0 4.827 0 5.74v12.213c0 .913.757 1.656 1.687 1.656h16.606c.93 0 1.687-.743 1.687-1.656V5.74c0-.913-.757-1.656-1.687-1.656zM6.892 2.212c0-.15.124-.27.276-.27h5.644c.152 0 .276.12.276.27v1.872h-.552v-1.15a.456.456 0 0 0-.46-.45H7.904a.456.456 0 0 0-.46.45v1.15h-.552V2.212zm4.724 1.174v.698H8.364v-.698h3.252zm7.444 14.567a.76.76 0 0 1-.767.753H1.687a.76.76 0 0 1-.767-.753v-5.837c.463.233.65.182 2.604.182v1.325c0 .25.206.451.46.451H6.18c.254 0 .46-.202.46-.451v-1.325h6.7v1.325c0 .25.206.451.46.451h2.196c.254 0 .46-.202.46-.451v-1.325c1.959 0 2.142.05 2.604-.182v5.837zM4.444 13.171v-2.649H5.72v2.649H4.444zm9.816 0v-2.649h1.276v2.649H14.26zm4.8-2.529a.76.76 0 0 1-.767.753h-1.837V10.07a.456.456 0 0 0-.46-.452H13.8a.456.456 0 0 0-.46.452v1.325h-6.7V10.07a.456.456 0 0 0-.46-.452H3.984a.456.456 0 0 0-.46.452v1.325H1.687a.76.76 0 0 1-.767-.753V5.74a.76.76 0 0 1 .767-.753h16.606a.76.76 0 0 1 .767.753v4.902z"/>
    </g>
</svg>
