<svg xmlns="http://www.w3.org/2000/svg" width="20" height="20" viewBox="0 0 20 20">
    <path fill="#4A4A4A" fill-rule="nonzero" d="M18.574 7.962l.16-.561-.572.04a3.554 3.554 0 0 1-.244.008c-1.39 0-2.197-.845-2.37-1.254l-.226-.533-.416.396c-1.39 1.326-1.91 1.56-2.071 1.599-.051-.12-.08-.473.186-1.21a9.154 9.154 0 0 1 1.02-1.962l.458-.648h-.783c-.931 0-1.771-.462-2.497-1.372a6.057 6.057 0 0 1-.847-1.447L10 .02l-.376.997c-.002.007-.28.736-.847 1.448-.726.91-1.566 1.372-2.497 1.372h-.783l.458.648c.317.449.755 1.23 1.02 1.962.266.737.237 1.09.186 1.21-.16-.039-.68-.273-2.071-1.599l-.416-.396-.226.533c-.173.409-.98 1.254-2.37 1.254-.08 0-.162-.003-.244-.009l-.571-.04.159.562c.48 1.69-.723 2.56-.773 2.594L0 11.001l.732.278c.04.015 4.044 1.57 3.77 4.583l-.067.749.653-.348c1.041-.556 2.013-.837 2.887-.837.58 0 1.124.124 1.622.37v4.181h.801v-4.182a3.63 3.63 0 0 1 1.622-.37c.874 0 1.846.282 2.887.838l.653.348-.068-.749c-.112-1.24.471-2.38 1.733-3.39a8.627 8.627 0 0 1 2.038-1.193l.734-.277-.648-.445c-.052-.036-1.254-.905-.775-2.595zm-1.826 3.853c-1.255.998-1.956 2.173-2.058 3.433-.941-.426-1.837-.64-2.67-.64-.57 0-1.113.1-1.622.297v-1.79l1.809-1.942-.581-.564-1.228 1.319V9.429h-.801v2.499l-1.228-1.319-.58.564 1.808 1.943v1.79a4.447 4.447 0 0 0-1.622-.299c-.833 0-1.729.215-2.67.64-.102-1.26-.803-2.434-2.058-3.432a9.43 9.43 0 0 0-1.659-1.045 3.144 3.144 0 0 0 .715-2.51c1.254-.066 2.134-.683 2.594-1.27C6.028 8.03 6.731 8.482 7.211 8.482c.163 0 .31-.05.427-.147.862-.714-.038-2.672-.667-3.75.907-.185 1.742-.737 2.442-1.624a6.84 6.84 0 0 0 .585-.875c.148.263.342.569.584.875.7.887 1.535 1.44 2.442 1.624-.629 1.078-1.53 3.036-.667 3.75a.659.659 0 0 0 .427.147c.48 0 1.183-.45 2.314-1.492.46.587 1.34 1.204 2.595 1.27a3.144 3.144 0 0 0 .714 2.51c-.431.214-1.05.56-1.66 1.045z"/>
</svg>
