<svg xmlns="http://www.w3.org/2000/svg" width="20" height="20" viewBox="0 0 20 20">
    <g fill="none" fill-rule="evenodd">
        <path fill="#FFF" d="M0 0h20v20H0z"/>
        <g fill="#4A4A4A" fill-rule="nonzero">
            <path d="M17.243 8.025h-2.446L11.953 5.18a.345.345 0 1 0-.488.487l2.357 2.358H6.207V6.99h-.69v1.035h-4.1a.344.344 0 0 0-.336.27L.008 13.122a.345.345 0 0 0 .337.42h1.41a2.07 2.07 0 0 0 2.038 1.724 2.07 2.07 0 0 0 2.038-1.724h7.648a2.07 2.07 0 0 0 2.038 1.724 2.07 2.07 0 0 0 2.041-1.744A2.763 2.763 0 0 0 20 10.783a2.761 2.761 0 0 0-2.757-2.758zM1.388 10.094h.784l-.229.657-.707.023.152-.68zm2.405 4.482a1.38 1.38 0 0 1-1.38-1.379 1.38 1.38 0 0 1 2.759 0c0 .76-.618 1.38-1.379 1.38zm11.724 0a1.38 1.38 0 0 1-1.38-1.379 1.38 1.38 0 0 1 2.759 0c0 .76-.618 1.38-1.379 1.38zm2.036-1.748c0-.005-.003-.01-.004-.016a2.039 2.039 0 0 0-.236-.638l-.027-.044a2.08 2.08 0 0 0-.182-.258l-.017-.019a2.081 2.081 0 0 0-.222-.223l-.021-.018a2.072 2.072 0 0 0-.257-.183l-.045-.027a2.064 2.064 0 0 0-.28-.133l-.052-.019a2.049 2.049 0 0 0-1.392.002l-.05.019a2.056 2.056 0 0 0-.282.135l-.045.027c-.09.055-.177.116-.257.184l-.026.024c-.082.072-.16.149-.23.233-.074.088-.135.18-.191.274l-.022.036a2.064 2.064 0 0 0-.232.647l-.006.021H5.833l-.005-.021a2.044 2.044 0 0 0-.233-.647l-.022-.036a2.072 2.072 0 0 0-.187-.27 2.139 2.139 0 0 0-.234-.237l-.026-.024a2.074 2.074 0 0 0-.257-.184l-.044-.027a2.056 2.056 0 0 0-.282-.135l-.051-.02a2.051 2.051 0 0 0-1.046-.091 2.066 2.066 0 0 0-.351.092l-.052.019a2.056 2.056 0 0 0-.281.135l-.045.027c-.09.055-.177.116-.257.184l-.026.024c-.082.072-.16.149-.23.233-.074.088-.135.18-.191.274l-.022.036a2.064 2.064 0 0 0-.232.647l-.006.021H.775l.307-1.383 1.121-.037a.345.345 0 0 0 .314-.232l.465-1.338a.345.345 0 0 0-.326-.458H1.541l.153-.69h15.549a2.07 2.07 0 0 1 1.888 1.23l-1.2-.535a.344.344 0 1 0-.28.63l1.659.739c0 1.039-.763 1.898-1.757 2.05z"/>
            <path d="M12.759 9.037h-1.035a.345.345 0 1 0 0 .69h1.035a.345.345 0 1 0 0-.69z"/>
        </g>
    </g>
</svg>
