<svg xmlns="http://www.w3.org/2000/svg" width="20" height="20" viewBox="0 0 20 20">
    <g fill="none" fill-rule="evenodd">
        <path fill="#4A4A4A" fill-rule="nonzero" d="M17.192 5.5h-3.144c.265-.098.494-.201.665-.301a2.26 2.26 0 0 0 .817-3.074A2.226 2.226 0 0 0 13.596 1c-.379 0-.762.097-1.114.302-.666.388-1.812 1.51-2.43 2.559C9.437 2.81 8.29 1.69 7.623 1.3A2.206 2.206 0 0 0 6.51 1c-.77 0-1.52.403-1.934 1.125A2.26 2.26 0 0 0 5.392 5.2c.17.1.4.202.665.301H2.913a.896.896 0 0 0-.892.9v2.7c0 .497.4.9.892.9v8.1c0 .497.4.9.893.9H16.3a.896.896 0 0 0 .892-.9V10a.896.896 0 0 0 .892-.9V6.4c0-.497-.4-.9-.892-.9zm-4.263-3.419a1.329 1.329 0 0 1 1.828.494c.37.645.15 1.472-.49 1.844-.506.295-1.936.723-3.025.723-.408 0-.63-.062-.722-.104.01-.613 1.455-2.401 2.409-2.957zM7.375 18.1h-3.57V10h3.57v8.1zm0-9H2.913V6.4h4.462v2.7zM5.838 4.42c-.64-.373-.859-1.2-.49-1.845A1.343 1.343 0 0 1 6.51 1.9c.233 0 .463.063.667.181.954.556 2.398 2.344 2.408 2.957-.091.042-.314.104-.722.104-1.089 0-2.519-.428-3.025-.723zm6 13.68h-3.57V6.4h3.57v11.7zm4.462 0h-3.57V10h3.57v8.1zm.892-9H12.73V6.4h4.462v2.7z"/>
        <path d="M0 0h20v20H0z"/>
    </g>
</svg>
