<svg xmlns="http://www.w3.org/2000/svg" width="20" height="9" viewBox="0 0 20 9">
    <g fill="none" fill-rule="evenodd">
        <path d="M0-6h20v20H0z"/>
        <g fill="#4A4A4A" fill-rule="nonzero">
            <path d="M15.692 5.625a1.67 1.67 0 0 0-1.669 1.669c0 .92.749 1.668 1.669 1.668a1.67 1.67 0 0 0 1.668-1.668 1.67 1.67 0 0 0-1.668-1.669zm0 2.67a1.002 1.002 0 0 1 0-2.003 1.002 1.002 0 0 1 0 2.003zM4.325 5.625a1.67 1.67 0 0 0-1.669 1.669c0 .92.749 1.668 1.669 1.668a1.67 1.67 0 0 0 1.668-1.668 1.67 1.67 0 0 0-1.668-1.669zm0 2.67a1.002 1.002 0 0 1 0-2.003 1.002 1.002 0 0 1 0 2.003z"/>
            <path d="M19.665 4.542V2.954a.724.724 0 0 0-.02-.095.338.338 0 0 0-.025-.062L18.274.767a.335.335 0 0 0-.223-.144C9.691-.781 7.548.617 7.451.685L4.859 2.629l-4.241.326a.333.333 0 0 0-.277.191c-.03.066-.74 1.63-.02 4.235.04.145.172.245.322.245h1.001c.185 0 .334-.15.334-.334a2.338 2.338 0 0 1 2.336-2.336A2.339 2.339 0 0 1 6.65 7.292c0 .185.15.334.334.334h6.006c.185 0 .334-.15.334-.334a2.338 2.338 0 0 1 2.336-2.336 2.338 2.338 0 0 1 2.336 2.336c0 .185.15.334.334.334h1c.121 0 .233-.065.292-.17.73-1.3.206-2.578.043-2.914zm-1.867-3.285l.91 1.364h-3.522L14.138.786c1.052.09 2.263.24 3.66.471zM11.322.671c.584-.008 1.256.006 2.027.055.007.02.009.04.02.057l1.05 1.838h-3.097V.67zm-3.486.558c.012-.007.712-.431 2.819-.537v1.929H5.98L7.836 1.23zm11.29 5.73h-.48a3.008 3.008 0 0 0-2.986-2.67 3.008 3.008 0 0 0-2.985 2.67H7.3a3.008 3.008 0 0 0-2.985-2.67 3.008 3.008 0 0 0-2.985 2.67H.901a7.397 7.397 0 0 1-.225-2.003h.3a.334.334 0 0 0 0-.667H.733c.045-.306.105-.542.15-.685l4.1-.316h14.015v.667h-.334a.334.334 0 0 0 0 .668h.334c0 .056.015.113.043.162.025.046.586 1.084.087 2.174z"/>
        </g>
    </g>
</svg>
