<svg xmlns="http://www.w3.org/2000/svg" width="19" height="19" viewBox="0 0 19 19">
    <g fill="#4D4D4D" fill-rule="nonzero">
        <path d="M2.91 12.132a2.85 2.85 0 0 0-.84 2.028c0 .766.299 1.486.84 2.028l.697-.697a1.872 1.872 0 0 1-.55-1.332c0-.502.195-.974.55-1.33l-.697-.697z"/>
        <path d="M17.582 1.516A4.81 4.81 0 0 0 14.16.098a4.81 4.81 0 0 0-3.423 1.418l-9.221 9.221A4.809 4.809 0 0 0 .098 14.16a4.81 4.81 0 0 0 1.418 3.422A4.808 4.808 0 0 0 4.938 19a4.807 4.807 0 0 0 3.423-1.418l9.221-9.221A4.807 4.807 0 0 0 19 4.938a4.81 4.81 0 0 0-1.418-3.422zm-9.918 15.37a3.83 3.83 0 0 1-2.726 1.128 3.83 3.83 0 0 1-2.725-1.129 3.83 3.83 0 0 1-1.129-2.725c0-1.03.401-1.998 1.129-2.726l4.262-4.262 5.451 5.45-4.262 4.263zm9.221-9.222l-4.262 4.262-5.45-5.45 4.262-4.263a3.832 3.832 0 0 1 2.725-1.129 3.83 3.83 0 0 1 2.725 1.129 3.831 3.831 0 0 1 1.129 2.725c0 1.03-.4 1.997-1.129 2.726z"/>
    </g>
</svg>
