<svg xmlns="http://www.w3.org/2000/svg" width="20" height="20" viewBox="0 0 20 20">
    <g fill="none" fill-rule="evenodd">
        <path fill="#4A4A4A" fill-rule="nonzero" d="M19.584 5.013H5.834L5 5.86l-.833-.846H.417A.42.42 0 0 0 0 5.436v10.149a.42.42 0 0 0 .417.422h3.75L5 15.162l.834.845h13.75a.42.42 0 0 0 .416-.422V5.436a.42.42 0 0 0-.416-.423zm-.417 10.15H6.18l-.59-.599L5 13.965l-.589.599-.589.598H.834V5.86h2.988l.589.598.589.598.59-.598.589-.598h12.988v9.303z"/>
        <path fill="#4A4A4A" fill-rule="nonzero" d="M10.834 7.128a1.68 1.68 0 0 0-1.667 1.691 1.68 1.68 0 0 0 1.667 1.691c.92 0 1.666-.757 1.666-1.691s-.746-1.691-1.666-1.691zm0 2.537A.84.84 0 0 1 10 8.819a.84.84 0 0 1 .834-.846c.46 0 .833.38.833.846a.84.84 0 0 1-.833.846zM14.167 10.51a1.68 1.68 0 0 0-1.667 1.691c0 .934.746 1.693 1.667 1.693.92 0 1.667-.759 1.667-1.693a1.68 1.68 0 0 0-1.667-1.69zm0 2.537a.84.84 0 0 1-.833-.846.84.84 0 0 1 .833-.845.84.84 0 0 1 .833.845.84.84 0 0 1-.833.846zM15.417 7.128a.413.413 0 0 0-.295.123l-5.833 5.92a.425.425 0 0 0 .295.723c.114 0 .219-.048.295-.124l5.833-5.92a.422.422 0 0 0 .122-.3.42.42 0 0 0-.417-.422zM5 7.55a.42.42 0 0 0-.416.423.42.42 0 0 0 .416.423.42.42 0 0 0 .417-.423A.42.42 0 0 0 5 7.55zM5 9.242a.42.42 0 0 0-.416.423.42.42 0 0 0 .416.423.42.42 0 0 0 .417-.423A.42.42 0 0 0 5 9.242zM5 10.933a.42.42 0 0 0-.416.423.42.42 0 0 0 .416.423.42.42 0 0 0 .417-.423.42.42 0 0 0-.417-.423zM5 12.625a.42.42 0 0 0-.416.422.42.42 0 0 0 .416.423.42.42 0 0 0 .417-.423.42.42 0 0 0-.417-.422z"/>
        <path d="M0 0h20v20H0z"/>
    </g>
</svg>
