<svg xmlns="http://www.w3.org/2000/svg" width="20" height="20" viewBox="0 0 20 20">
    <g fill="none" fill-rule="evenodd">
        <path fill="#4A4A4A" fill-rule="nonzero" d="M18.166 6.28a8.998 8.998 0 0 0-8.018-5.263A8.952 8.952 0 0 0 1.833 6.28 2.117 2.117 0 0 0 0 8.374v3.21c0 1.071.8 1.958 1.834 2.095A8.952 8.952 0 0 0 10 18.943a8.951 8.951 0 0 0 8.166-5.264A2.117 2.117 0 0 0 20 11.585v-3.21c0-1.071-.8-1.958-1.834-2.095zm-8.03-4.5a8.235 8.235 0 0 1 7.174 4.48H2.69a8.19 8.19 0 0 1 7.447-4.48zM10 18.18a8.19 8.19 0 0 1-7.311-4.482h14.622A8.189 8.189 0 0 1 10 18.18zm9.237-6.595c0 .745-.606 1.35-1.35 1.35H2.113a1.353 1.353 0 0 1-1.351-1.35v-3.21c0-.745.606-1.352 1.35-1.352h15.773c.745 0 1.351.607 1.351 1.351v3.21z"/>
        <path fill="#4A4A4A" fill-rule="nonzero" d="M5.548 10.512l-.645-1.996h-.89l-.645 1.996-.644-1.996h-.952l1.123 3.304h.952l.614-1.8.608 1.8h.958l1.124-3.304h-.958zM11.087 10.512l-.645-1.996h-.89l-.645 1.996-.644-1.996H7.31l1.124 3.304h.952l.614-1.8.608 1.8h.958l1.124-3.304h-.958zM16.626 10.512l-.645-1.996h-.89l-.645 1.996-.645-1.996h-.952l1.124 3.304h.952l.614-1.8.608 1.8h.958l1.124-3.304h-.958z"/>
        <path d="M0 0h20v20H0z"/>
    </g>
</svg>
