<svg xmlns="http://www.w3.org/2000/svg" width="20" height="15" viewBox="0 0 20 15">
    <g fill="none" fill-rule="evenodd">
        <path fill="#4A4A4A" fill-rule="nonzero" d="M20 10.26c0-3.097-2.414-5.67-5.44-5.87C13.577 1.764 11.1.02 8.3.02c-2.885 0-5.402 1.828-6.33 4.572A3.126 3.126 0 0 0 0 7.517v4.81h2.582c.206 1.418 1.418 2.51 2.877 2.51 1.46 0 2.67-1.092 2.877-2.51h3.302c.206 1.418 1.418 2.51 2.877 2.51 1.46 0 2.67-1.092 2.877-2.51H20V10.26zm-6.231-1.206a2.938 2.938 0 0 0-2.131 2.412H8.726v-6.17l5.043-.05v3.808zm-.13-4.667l-4.913.048V.896a5.83 5.83 0 0 1 4.913 3.491zM7.875.896v3.547L2.92 4.49A5.807 5.807 0 0 1 7.875.896zM.851 7.516c0-.985.613-1.845 1.53-2.16l5.494-.052v4.957A2.9 2.9 0 0 0 5.46 8.955c-1.46 0-2.67 1.093-2.877 2.511H.852v-3.95zm4.608 6.46c-1.135 0-2.058-.932-2.058-2.08 0-1.147.923-2.08 2.058-2.08 1.135 0 2.058.933 2.058 2.08 0 1.148-.923 2.08-2.058 2.08zm9.056 0c-1.135 0-2.058-.932-2.058-2.08 0-1.147.923-2.08 2.058-2.08 1.135 0 2.057.933 2.057 2.08 0 1.148-.922 2.08-2.057 2.08zm4.634-2.51h-1.757c-.201-1.384-1.36-2.457-2.772-2.508v-3.7c2.53.228 4.529 2.398 4.529 5.002v1.206z"/>
        <path fill="#4A4A4A" fill-rule="nonzero" d="M14.523 11.296l.586.593-.601.608-.587-.593.602-.608zm-9.658.608l.587.593.601-.608-.586-.593-.602.608zM4.436 7.552h1.023a.428.428 0 0 0 .426-.43c0-.238-.19-.43-.426-.43H4.436a.428.428 0 0 0-.426.43c0 .237.19.43.426.43zM9.475 7.552H10.5a.428.428 0 0 0 .425-.43c0-.238-.19-.43-.425-.43H9.475a.428.428 0 0 0-.425.43c0 .237.19.43.425.43z"/>
        <path d="M0-2h20v20H0z"/>
    </g>
</svg>
