<svg xmlns="http://www.w3.org/2000/svg" width="20" height="20" viewBox="0 0 20 20">
    <path fill="#4A4A4A" fill-rule="nonzero" d="M18.295 19.04l-7.79-14.467L12.703.492l-.748-.488L10 3.634 8.045.004l-.748.488 2.197 4.08-7.79 14.467H0v.957h20v-.957h-1.705zM10 5.51l7.284 13.528h-4.31c.093-1.164.17-3.873-.969-5.329-.506-.647-1.18-.975-2.005-.975s-1.5.328-2.005.975c-1.138 1.456-1.062 4.165-.968 5.33H2.715L10 5.51zM7.9 19.04c-.11-1.217-.119-3.588.754-4.705.338-.432.778-.642 1.346-.642.567 0 1.007.21 1.346.642.945 1.208.837 3.721.753 4.705h-4.2z"/>
</svg>
