<svg xmlns="http://www.w3.org/2000/svg" width="20" height="20" viewBox="0 0 20 20">
    <g fill="none" fill-rule="evenodd">
        <path d="M0 0h20v20H0z"/>
        <g fill="#4A4A4A" fill-rule="nonzero">
            <path d="M10.1 4.169h.575a.38.38 0 0 0 .383-.376.38.38 0 0 0-.383-.375h-.574a.38.38 0 0 0-.383.375.38.38 0 0 0 .383.376zM9.718 7.174c-1.053 0-1.914.845-1.914 1.878s.861 1.878 1.914 1.878 1.914-.845 1.914-1.878-.861-1.878-1.914-1.878zm0 3.004A1.141 1.141 0 0 1 8.57 9.052c0-.62.516-1.127 1.148-1.127.632 0 1.148.507 1.148 1.127s-.516 1.126-1.148 1.126z"/>
            <path d="M16.627 19.512l-.574-3.08a2.613 2.613 0 0 0-1.359-1.84l-1.09-.583c.344-1.277.535-2.61.535-3.943v-.507c0-2.855-.9-5.578-2.603-7.925L10.675.469C10.465.17 10.12 0 9.737 0 9.374 0 9.03.169 8.8.47l-.86 1.164C6.253 3.944 5.315 6.76 5.315 9.577v.508c0 1.352.192 2.704.555 4.018l-.919.489a2.613 2.613 0 0 0-1.358 1.84l-.575 3.061c-.019.15.039.32.192.394a.374.374 0 0 0 .191.057.408.408 0 0 0 .25-.094l1.607-1.352a3.443 3.443 0 0 1 2.239-.808H8.76v1.22c0 .564.479 1.034 1.053 1.034s1.052-.47 1.052-1.033v-1.24h.211c.057.02.115.038.172.038h.9c.823 0 1.626.282 2.239.807l1.608 1.353a.408.408 0 0 0 .248.093.374.374 0 0 0 .192-.056.392.392 0 0 0 .191-.394zM4.761 17.934l-.785.676.364-2.028c.115-.582.46-1.051.976-1.314l.766-.414.459 1.503c.077.244.191.45.345.638a4.187 4.187 0 0 0-2.125.94zm5.34.977c0 .15-.134.281-.287.281a.292.292 0 0 1-.287-.281v-3.944c0-.15.134-.282.287-.282.153 0 .287.132.287.282v3.944zm.957-1.99h-.192v-1.954c0-.563-.478-1.033-1.052-1.033-.574 0-1.053.47-1.053 1.033v1.972h-.383a1.17 1.17 0 0 1-1.11-.808l-.574-1.896a14.532 14.532 0 0 1-.612-4.15v-.508c0-1.859.42-3.718 1.225-5.408H8.76a.38.38 0 0 0 .383-.376.38.38 0 0 0-.383-.375H7.708c.25-.47.536-.902.862-1.333L9.43.92a.402.402 0 0 1 .306-.15c.134 0 .23.056.306.15l.862 1.165a12.591 12.591 0 0 1 2.45 7.474v.507c0 1.408-.211 2.817-.613 4.15l-.574 1.897a1.146 1.146 0 0 1-1.11.807zm3.828 1.032a4.389 4.389 0 0 0-2.335-.976c.153-.188.268-.395.344-.639l.479-1.577.937.507c.498.263.862.75.976 1.314l.383 2.028-.784-.657z"/>
        </g>
    </g>
</svg>
