<svg xmlns="http://www.w3.org/2000/svg" width="20" height="20" viewBox="0 0 20 20">
    <g fill="#4A4A4A" fill-rule="nonzero">
        <path d="M19.68.034a.477.477 0 0 0-.508.098L14.716 4.45A11.637 11.637 0 0 0 10 3.467c-1.65 0-3.272.339-4.716.982L.828.132A.477.477 0 0 0 .32.034a.452.452 0 0 0-.288.418v11.282c0 2.222 1.047 4.307 2.948 5.87C4.858 19.149 7.352 20 10 20c2.648 0 5.142-.851 7.02-2.396 1.901-1.563 2.948-3.648 2.948-5.87V.452a.452.452 0 0 0-.288-.418zM10 19.097c-4.982 0-9.036-3.303-9.036-7.363V1.542l3.482 3.372a6.275 6.275 0 0 0-1.334 1.107.442.442 0 0 0 .046.637.473.473 0 0 0 .657-.044c.787-.86 1.892-1.351 1.949-1.383 1.3-.563 2.753-.86 4.236-.86 1.543 0 3.057.32 4.396.93.021.016 1.371.682 1.789 1.313.076.114.221.155.352.155a.473.473 0 0 0 .305-.111.442.442 0 0 0 .046-.637 6.282 6.282 0 0 0-1.334-1.106l3.482-3.373v10.192c0 4.06-4.054 7.363-9.036 7.363z"/>
        <path d="M14.299 13.633a.459.459 0 0 0-.466.452v.013a.458.458 0 0 0 .46.458h.006a.46.46 0 0 0 .466-.445v-.026a.459.459 0 0 0-.466-.452zM6.772 10.251c0 .25.208.452.466.452a.459.459 0 0 0 .466-.452 2.003 2.003 0 0 0-4.005 0c0 .25.208.452.466.452a.459.459 0 0 0 .466-.452c0-.604.48-1.097 1.07-1.097.59 0 1.07.493 1.07 1.097zM14.299 8.252a2.003 2.003 0 0 0-2.003 2c0 .249.209.45.466.45a.459.459 0 0 0 .466-.45c0-.605.48-1.098 1.07-1.098.591 0 1.071.493 1.071 1.097 0 .25.209.452.466.452a.459.459 0 0 0 .466-.452c0-1.102-.898-2-2.002-2zM13.11 15.015a2.235 2.235 0 0 1-.96.208c-.572 0-1.087-.205-1.393-.508.637-.239 1.081-.767 1.081-1.38 0-.835-.824-1.515-1.838-1.515-1.013 0-1.838.68-1.838 1.515 0 .613.444 1.141 1.08 1.38-.305.304-.82.508-1.391.508-.913 0-1.684-.521-1.684-1.138a.459.459 0 0 0-.466-.452.459.459 0 0 0-.466.452c0 1.125 1.173 2.04 2.616 2.04.89 0 1.677-.349 2.15-.88.471.531 1.258.88 2.149.88.486 0 .96-.103 1.372-.3a.445.445 0 0 0 .211-.605.473.473 0 0 0-.624-.205zM10 13.947c-.491 0-.906-.28-.906-.612 0-.332.415-.612.906-.612.491 0 .906.28.906.612 0 .332-.415.612-.906.612z"/>
    </g>
</svg>
