<svg xmlns="http://www.w3.org/2000/svg" width="20" height="20" viewBox="0 0 20 20">
    <g fill="none" fill-rule="evenodd">
        <path d="M0 0h20v20H0z"/>
        <path fill="#4A4A4A" fill-rule="nonzero" d="M16.255 1.253C15.221.041 13.346.006 13.135.006c0 0-4.267-.22-7.119 1.92-1.605 1.205-2.604 2.944-2.94 5.408-.347 2.542.572 4.878 2.658 6.756 1.547 1.394 3.178 2.036 3.244 2.066a1.963 1.963 0 0 0 1.264.125l1.468 3.102c.417.835 1.305.577 1.588.41.502-.293.54-.744.542-.76.304-.027.604-.174.824-.432.22-.26.315-.59.292-.906a1.17 1.17 0 0 0 .03-2.17c-.017-.006-3.319-.939-3.319-.939.028-.826-.61-1.578-1.23-2.31-.7-.825-1.422-1.677-1.422-2.706 0-1.565.935-2.36 2.78-2.36.698 0 1.79.218 2.036.218 1.167 0 2.063-.667 2.593-1.928a6.153 6.153 0 0 0 .43-1.776c.148-1-.053-1.831-.599-2.47zM5.785 3.23C5.673 6.638 7.992 7.944 8.35 8.185c-.269.933-.245 1.41-.245 1.424-.844.08-2.849.09-4.192-1.376.006-.255-.058-2.677 1.87-5.003zm5.596 12.225l3.277.925a.253.253 0 0 1 .12.32.25.25 0 0 1-.327.138.454.454 0 0 0-.593.25.459.459 0 0 0 .117.513l.008.008c.094.08.082.277-.01.398-.175.227-.366.072-.367.07a.452.452 0 0 0-.523-.042.459.459 0 0 0-.16.627.251.251 0 0 1-.277.372.248.248 0 0 1-.145-.103l-1.455-3.08a2.11 2.11 0 0 0 .335-.396zm-1.745-2.714c.037.043 1.46 1.438 1.034 2.129l-.006.012c-.01.022-.267.531-.838.531-.158 0-1.129-.028-2.597-1.29a3.852 3.852 0 0 0 2.407-1.382zm-.587-.73c-.33.455-1.228 1.402-2.897 1.224-1.167-1.108-1.88-2.345-2.134-3.697 1.726 1.365 4.028.999 4.23.977.167.55.464 1.043.801 1.496zm-.224-4.608C8.521 7.195 6.085 5.4 6.82 2.36c1.022-.678 2.324-1.108 3.93-1.308-1.452 2.475.069 4.958.251 5.294-.947.126-1.682.488-2.175 1.056zm7.128-3.798c-.002.013-.201 2.908-2.122 2.909-.18 0-.373-.024-.575-.07a7.087 7.087 0 0 0-1.222-.144 5.478 5.478 0 0 1-.705-1.553c-.357-1.297-.193-2.571.484-3.79.4-.024 1.323-.036 1.323-.036.016 0 1.601.052 2.43.928.314.333.48 1.072.387 1.756z"/>
    </g>
</svg>
