<svg xmlns="http://www.w3.org/2000/svg" width="20" height="20" viewBox="0 0 20 20">
    <g fill="#4A4A4A" fill-rule="nonzero">
        <path d="M19.754 11.437l-1.46-.69V4.614a.426.426 0 0 0-.426-.425H14.05V.426A.426.426 0 0 0 13.623 0h-7.25a.426.426 0 0 0-.426.426v3.763H2.128a.426.426 0 0 0-.425.425v6.133l-1.461.69a.433.433 0 0 0-.164.633l5.578 7.753c.08.111.208.177.345.177h7.994a.425.425 0 0 0 .345-.177l5.578-7.753c.074-.102.191-.433-.164-.633zM6.798.851h6.4V4.19h-6.4V.85zm-5.73 11.137l8.505-4.016V19.15H6.219l-5.151-7.16zm8.749-5.072l-7.263 3.43V5.04h14.889v5.306l-7.263-3.43c-.2-.096-.36-.001-.363 0zm3.96 12.233h-3.353V7.972l8.505 4.016-5.152 7.16z"/>
        <path d="M12.158 10.95l-.883-.632.495-.693.883.632-.495.692zm-4.815-.693l.495.692.883-.631-.495-.693-.883.632z"/>
    </g>
</svg>
