<svg xmlns="http://www.w3.org/2000/svg" width="20" height="20" viewBox="0 0 20 20">
    <g fill="none" fill-rule="evenodd">
        <path fill="#4A4A4A" fill-rule="nonzero" d="M19.992 4.26a1.23 1.23 0 0 0-1.235-1.227H1.239A1.23 1.23 0 0 0 .004 4.26v12.026a1.23 1.23 0 0 0 1.235 1.227h17.559c.683 0 1.235-.549 1.194-1.272V4.26zm-.81 4.152H.859V7.185h18.323v1.227zM.814 4.304c0-.256.213-.422.425-.422V3.84h17.518c.257 0 .425.211.425.423V6.38H.814V4.304zm18.368 11.982a.423.423 0 0 1-.425.422H1.239a.423.423 0 0 1-.425-.422V9.257h18.368v7.029z"/>
        <path d="M0 0h20v20H0z"/>
    </g>
</svg>
