<svg xmlns="http://www.w3.org/2000/svg" width="20" height="20" viewBox="0 0 20 20">
    <g fill="#4A4A4A" fill-rule="nonzero">
        <path d="M2.08 17.5h3.326c.23 0 .416-.187.416-.417v-2.5a2.084 2.084 0 0 0-2.08-2.083c-1.145 0-2.079.935-2.079 2.083v2.5c0 .23.187.417.416.417zm.415-2.917c0-.689.56-1.25 1.248-1.25s1.247.561 1.247 1.25v2.084H2.495v-2.084z"/>
        <path d="M19.94 11.142c-.004-.012-.003-.024-.007-.035a.41.41 0 0 0-.136-.18c-.007-.005-.007-.015-.014-.019l-6.476-4.513V1.25a.417.417 0 0 0-.302-.4l-2.91-.834a.423.423 0 0 0-.228 0L6.956.849a.417.417 0 0 0-.302.4v5.145L.178 10.907c-.008.005-.008.015-.015.02a.414.414 0 0 0-.134.179c-.004.01-.004.022-.007.034-.01.036-.022.07-.022.11v8.333c0 .23.186.417.416.417h19.13c.229 0 .415-.187.415-.417V11.25c0-.038-.012-.073-.022-.108zM6.653 19.167H.832v-7.5h5.822v7.5zm0-8.334H1.742L6.654 7.41v3.423zm5.822 8.334h-4.99V1.564L9.98.85l2.495.714v17.603zm.831-11.757l4.912 3.423h-4.912V7.41zm5.822 11.757h-5.822v-7.5h5.822v7.5z"/>
        <path d="M8.317 5.833V8.75c0 .23.186.417.416.417h2.495c.23 0 .416-.187.416-.417V5.833c0-.919-.746-1.666-1.663-1.666-.918 0-1.664.747-1.664 1.666zm2.495 0v2.5H9.15v-2.5c0-.459.373-.833.831-.833.459 0 .832.374.832.833zM9.98 10.833c-.917 0-1.663.748-1.663 1.667v2.917c0 .23.186.416.416.416h2.495c.23 0 .416-.186.416-.416V12.5c0-.92-.746-1.667-1.663-1.667zM10.813 15H9.15v-2.5c0-.46.373-.833.831-.833.459 0 .832.374.832.833V15zM14.555 17.5h3.327c.23 0 .416-.187.416-.417v-2.5a2.084 2.084 0 0 0-2.08-2.083c-1.146 0-2.079.935-2.079 2.083v2.5c0 .23.186.417.416.417zm.416-2.917c0-.689.56-1.25 1.247-1.25.688 0 1.248.561 1.248 1.25v2.084H14.97v-2.084z"/>
    </g>
</svg>
