<svg xmlns="http://www.w3.org/2000/svg" width="20" height="20" viewBox="0 0 20 20">
    <g fill="none" fill-rule="evenodd">
        <path d="M0 0h20v20H0z"/>
        <path fill="#4A4A4A" fill-rule="nonzero" d="M19.347 9.308a.478.478 0 0 0-.483-.474h-.374c-.103-.247-.268-.46-.412-.643-.123-.157-.239-.306-.285-.43-.046-.122-.054-.31-.062-.508-.014-.36-.033-.807-.315-1.164-.258-.326-.65-.453-.997-.564-.202-.066-.41-.133-.53-.224-.101-.079-.208-.254-.311-.424-.188-.308-.401-.658-.79-.85-.359-.178-.754-.145-1.102-.116-.217.018-.441.036-.586-.007-.125-.038-.29-.171-.451-.3-.276-.221-.588-.472-1.004-.531-.393-.056-.755.09-1.074.22-.202.083-.41.168-.56.168-.149 0-.357-.085-.56-.167-.318-.13-.68-.277-1.073-.221-.416.059-.728.31-1.004.531-.16.129-.326.262-.451.3-.145.043-.369.025-.586.007-.348-.03-.744-.062-1.103.116-.388.192-.6.542-.789.85-.103.17-.21.345-.311.423-.119.092-.328.16-.53.224-.346.112-.739.239-.997.565-.282.357-.3.804-.315 1.164-.008.198-.016.386-.061.507-.047.125-.163.274-.286.43-.144.185-.309.397-.411.644H1.16a.478.478 0 0 0-.484.474c0 3.443 2.064 6.325 4.8 6.994v.853c0 .262.217.473.484.473h8.103a.478.478 0 0 0 .483-.473v-.853c2.737-.669 4.8-3.55 4.8-6.994zM2.713 8.766c.153-.197.327-.42.424-.678.099-.262.11-.534.12-.798.01-.248.02-.504.114-.62.077-.098.32-.177.536-.246.268-.087.572-.185.824-.38.242-.186.403-.45.544-.682.127-.207.257-.422.395-.49.115-.057.354-.037.586-.018.294.024.627.052.95-.045.308-.092.56-.294.78-.473.188-.15.381-.305.53-.326.13-.02.352.071.565.158.276.112.589.24.93.24.343 0 .655-.128.931-.24.214-.087.435-.178.565-.158.15.02.342.176.53.326.221.179.473.38.78.473.323.097.656.07.95.045.232-.02.471-.039.586.018.138.068.269.283.395.49.141.233.302.496.544.683.253.194.557.292.825.379.215.07.458.148.536.245.092.117.103.373.113.621.01.264.022.536.12.798.098.258.271.481.425.678l.053.068H2.659l.054-.068zM13.58 17.06H6.443v-.618c.083.01 7.054.01 7.137 0v.618zm-.25-1.558H6.693c-2.654 0-4.837-2.526-5.035-5.72h16.709c-.198 3.194-2.38 5.72-5.035 5.72z"/>
    </g>
</svg>
