<svg xmlns="http://www.w3.org/2000/svg" width="20" height="20" viewBox="0 0 20 20">
    <g fill="none" fill-rule="evenodd">
        <path fill="#4A4A4A" fill-rule="nonzero" d="M19.503 13.479l-.037-.025L10.41 8.52c.017-.553.092-.697.109-.726.091-.045.183-.086.275-.127.833-.385 1.695-.783 1.695-2.24 0-1.328-1.12-2.407-2.495-2.407S7.499 4.1 7.499 5.428h.833c0-.874.746-1.587 1.667-1.587.92 0 1.667.713 1.667 1.587 0 .935-.434 1.136-1.217 1.497-.092.04-.188.086-.283.131-.455.218-.559.808-.58 1.456l-9.07 4.942-.038.025c-.42.291-.587.886-.404 1.448.158.492.542.8 1 .8h17.833c.458 0 .842-.308 1-.804.184-.558.017-1.153-.404-1.444zm-.387 1.198c-.009.024-.08.23-.209.23H1.053c-.13 0-.2-.206-.208-.23-.067-.201-.03-.427.079-.521l9.054-4.934 9.054 4.934c.113.09.146.32.084.52z"/>
        <path d="M0 0h20v20H0z"/>
    </g>
</svg>
