<svg xmlns="http://www.w3.org/2000/svg" width="20" height="20" viewBox="0 0 20 20">
    <g fill="none" fill-rule="evenodd">
        <path fill="#4A4A4A" fill-rule="nonzero" d="M17.807 2.713c.095-.238.089-.636-.482-1.179C16.255.516 14.964 0 13.49 0c-1.693 0-3.13.687-3.65.971-.506-.288-1.88-.97-3.514-.97C4.9 0 3.64.515 2.584 1.531c-.567.546-.571.944-.475 1.183.053.132.238.44.803.44.197 0 .424-.038.673-.11 1.658-.483 3.001-.592 3.842-.312-1.129.704-3.312 2.52-3.16 5.983.046 1.019.476 1.17.73 1.17.357 0 .68-.316.959-.94.519-1.16 1.369-2.63 2.616-3.554-.3 1.377-.842 4.24-1.107 7.94l-.01.136a59.674 59.674 0 0 0-.141 3.878v.014c0 .115-.003.227-.003.342.004 1.267 1.051 2.297 2.335 2.297h.624c1.284 0 2.332-1.03 2.335-2.297 0-.115-.002-.227-.003-.342v-.014c-.021-5.61-.856-10.112-1.258-11.954 1.248.923 2.098 2.393 2.616 3.555.28.624.602.94.96.94.253 0 .684-.152.728-1.17.153-3.463-2.03-5.28-3.159-5.984.84-.28 2.184-.171 3.842.312.25.073.476.11.674.11.565-.001.75-.31.802-.442zM8.189 13.977c.41.135 1.022.284 1.759.284.75 0 1.37-.154 1.778-.29.062.994.101 2.044.11 3.14a5.525 5.525 0 0 1-3.756 0c.009-1.093.048-2.141.11-3.134zm3.484-.8a4.846 4.846 0 0 1-3.43.007c.085-1.136.196-2.187.317-3.137.34.133.827.27 1.404.27.571 0 1.054-.134 1.393-.266.121.947.232 1.994.316 3.126zm-1.403 6.055h-.624a1.58 1.58 0 0 1-1.544-1.305 6.405 6.405 0 0 0 1.856.278c.772 0 1.422-.145 1.855-.278a1.58 1.58 0 0 1-1.543 1.305zm6.275-16.923c-2.38-.694-4.147-.659-5.1.13a.384.384 0 0 0 .1.649c.035.015 3.519 1.492 3.338 5.594a2.082 2.082 0 0 1-.033.303 2.226 2.226 0 0 1-.19-.352c-.669-1.496-1.859-3.472-3.73-4.388a.382.382 0 0 0-.537.442c.008.03.462 1.763.86 4.577a3.133 3.133 0 0 1-1.289.286 3.133 3.133 0 0 1-1.299-.29c.397-2.811.85-4.543.859-4.573a.382.382 0 0 0-.538-.443c-1.871.916-3.06 2.892-3.73 4.389a2.25 2.25 0 0 1-.19.352 2.085 2.085 0 0 1-.032-.304c-.18-4.086 3.195-5.535 3.338-5.594a.383.383 0 0 0 .099-.65c-.953-.788-2.72-.823-5.1-.13-.27.08-.424.084-.507.078.039-.068.114-.17.251-.303.909-.874 1.989-1.317 3.21-1.317 1.792 0 3.285.96 3.3.97a.385.385 0 0 0 .412.004c.016-.01 1.589-.974 3.452-.974a4.66 4.66 0 0 1 3.31 1.324c.135.128.21.23.25.296-.083.005-.238.001-.504-.076z"/>
        <path d="M0 0h20v20H0z"/>
    </g>
</svg>
