<svg xmlns="http://www.w3.org/2000/svg" width="20" height="20" viewBox="0 0 20 20">
    <g fill="none" fill-rule="evenodd">
        <path d="M0 0h20v20H0z"/>
        <path fill="#4A4A4A" fill-rule="nonzero" d="M12.596 12.033a.725.725 0 0 0-.654-.437H7.445a.74.74 0 0 0-.653.42l-1.2 2.63a.597.597 0 0 0 .007.521.598.598 0 0 0 .415.314c1.248.26 2.51.393 3.75.393 1.184 0 2.36-.12 3.498-.36a.602.602 0 0 0 .434-.821l-1.1-2.66zM6.633 14.64l.958-2.099h4.192l.88 2.129c-1.95.355-3.998.343-6.03-.03z"/>
        <path fill="#4A4A4A" fill-rule="nonzero" d="M19.032 15.44l-.924-2.067a.636.636 0 0 0-.855-.295c-.419.22-.844.42-1.29.607L14.83 8.198c.346.203.687.579.793 1.279a.657.657 0 0 0 .66.553l1.188-.04a.64.64 0 0 0 .615-.635V2.653a.63.63 0 0 0-.647-.626h-.001c-.935.036-5.653.397-7.582 3.955H3.936a.688.688 0 0 0-.652.501c-.13.473-.865 1.709-1.542 1.891a.571.571 0 0 0-.339.889c.257.373 1.023.963 1.986.963.119 0 .238-.009.356-.027l-.537 3.458a13.6 13.6 0 0 1-1.278-.579.637.637 0 0 0-.851.278L.065 15.429a.622.622 0 0 0-.03.483c.056.16.171.288.325.361 3.035 1.434 6.175 2.16 9.334 2.16 4.934 0 8.416-1.802 9.064-2.164a.65.65 0 0 0 .274-.828zm-9.337 2.048c-2.918 0-5.823-.65-8.639-1.935l.729-1.49c.335.164.839.39 1.489.63a.596.596 0 0 0 .804-.472l.695-4.48a.563.563 0 0 0-.123-.461.56.56 0 0 0-.654-.132c-.199.088-.403.133-.607.133-.333 0-.627-.118-.843-.25.81-.524 1.378-1.58 1.583-2.104h5.858a.758.758 0 0 0 .648-.397c1.494-2.9 5.2-3.44 6.505-3.54v6.065l-.633.021c-.36-1.571-1.655-1.936-2.06-2.012l-.113-.01a.57.57 0 0 0-.445.209.589.589 0 0 0-.116.494l1.347 6.517a.6.6 0 0 0 .814.441c.506-.197.984-.41 1.451-.643l.671 1.501c-1 .517-4.102 1.915-8.361 1.915z"/>
        <path fill="#4A4A4A" fill-rule="nonzero" d="M14.67 6.065c.61 0 .61-.945 0-.945s-.61.945 0 .945z"/>
    </g>
</svg>
