<svg xmlns="http://www.w3.org/2000/svg" width="20" height="20" viewBox="0 0 20 20">
    <g fill="#4A4A4A" fill-rule="nonzero">
        <path d="M16.823.088a.438.438 0 0 0-.508 0c-.123.087-2.874 2.06-3.154 4.787a24.776 24.776 0 0 0-6.322 0C6.56 2.148 3.808.175 3.685.088a.438.438 0 0 0-.508 0C3.047.18 0 2.365 0 5.32 0 6.8.916 8.741 2.307 9.47c.149 1.669.293 3.304.428 4.868.244 2.586 2.486 4.891 5.453 5.606a1.796 1.796 0 0 0 1.562-.363c.091-.075.175-.158.25-.247.075.09.159.172.25.247a1.787 1.787 0 0 0 1.562.363 7.946 7.946 0 0 0 3.09-1.502c1.378-1.102 2.217-2.56 2.363-4.108.136-1.567.28-3.202.428-4.864C19.083 8.74 20 6.8 20 5.32 20 2.365 16.952.18 16.823.088zm-6.728 15.814c-.875 0-1.484-.444-1.484-.842 0-.399.61-.842 1.484-.842s1.484.443 1.484.842c0 .398-.61.842-1.484.842zm7.014-7.18a.462.462 0 0 0-.287.391c-.157 1.756-.309 3.485-.452 5.134-.121 1.287-.838 2.516-2.018 3.46a7.054 7.054 0 0 1-2.744 1.332.914.914 0 0 1-.799-.186.988.988 0 0 1-.36-.768v-1.274c1.163-.124 2.029-.849 2.029-1.751 0-.993-1.047-1.77-2.383-1.77s-2.383.777-2.383 1.77c0 .852.773 1.546 1.839 1.724v1.301a.988.988 0 0 1-.36.769.914.914 0 0 1-.799.185c-2.597-.625-4.555-2.596-4.762-4.789-.143-1.645-.295-3.373-.452-5.137a.462.462 0 0 0-.287-.39C1.751 8.272.899 6.554.899 5.32c0-2.014 1.845-3.708 2.532-4.27.688.562 2.532 2.256 2.532 4.27v.07a.471.471 0 0 0 .15.36.44.44 0 0 0 .363.112 23.905 23.905 0 0 1 7.048 0 .44.44 0 0 0 .363-.113.47.47 0 0 0 .15-.358v-.07c0-2.015 1.845-3.71 2.532-4.27.688.559 2.532 2.248 2.532 4.27 0 1.234-.852 2.951-1.992 3.401z"/>
        <ellipse cx="7.077" cy="11.347" rx="1" ry="1"/>
        <ellipse cx="12.86" cy="11.347" rx="1" ry="1"/>
        <path d="M16.072 6.267a.473.473 0 0 0-.134.638.446.446 0 0 0 .38.215.437.437 0 0 0 .24-.073.474.474 0 0 0 .142-.688.44.44 0 0 0-.628-.092zM16.948 4.01a.441.441 0 0 0-.62-.138.473.473 0 0 0-.135.641c.125.202.214.388.263.553a.451.451 0 0 0 .562.307.467.467 0 0 0 .297-.58 3.263 3.263 0 0 0-.367-.782zM3.928 6.267c-.135-.107-.427-.642-.427-.947 0-.197.113-.491.31-.807a.473.473 0 0 0-.135-.641.441.441 0 0 0-.621.14c-.3.481-.453.922-.453 1.308 0 .622.47 1.484.84 1.727.075.05.158.073.241.073a.446.446 0 0 0 .38-.215.473.473 0 0 0-.135-.638z"/>
    </g>
</svg>
