<svg xmlns="http://www.w3.org/2000/svg" width="22" height="22" viewBox="0 0 22 22">
    <path fill="#4A4A4A" fill-rule="nonzero" stroke="#4A4A4A" stroke-width=".2" d="M20.635 4.734A3.617 3.617 0 0 0 15.83 3.01l-.27.127-.144-.262a3.585 3.585 0 0 0-2.152-1.728 3.592 3.592 0 0 0-2.746.297 3.58 3.58 0 0 0-1.727 2.13 3.29 3.29 0 0 0-2.726 1.708l-.116.213-.22-.103a3.308 3.308 0 0 0-4.394 1.577 3.296 3.296 0 0 0 1.58 4.385l4.492 2.111a.7.7 0 0 0-.03.511l.07.216a.704.704 0 0 0 .89.452l.333-.108c.222.332.618 1.123.03 1.922-.923 1.257-1.749 2.739.166 4.424a.315.315 0 0 0 .418-.472c-1.521-1.34-.963-2.37-.074-3.58.677-.92.43-1.893.08-2.496l.13-.042a.701.701 0 0 0 .452-.889l-.07-.216a.703.703 0 0 0-.325-.395l1.207-2.204c.084-.152-.032-.208-.185-.292-.153-.083-.285-.163-.37-.01l-1.369 2.499-.78.253-4.796-2.254a2.666 2.666 0 0 1-1.278-3.547 2.675 2.675 0 0 1 3.554-1.275l.488.23a.316.316 0 0 0 .412-.134l.26-.473a2.66 2.66 0 0 1 2.041-1.37 3.557 3.557 0 0 0 .322 1.92l.026.055c.024.048.048.096.074.143l1.607 2.932-.56 1.02a.315.315 0 1 0 .554.303l.366-.667.676 1.235a.744.744 0 0 0-.372.434l-.078.238a.746.746 0 0 0 .479.94l.19.061a2.38 2.38 0 0 0-.146.68c-.04.565.103 1.443 1.005 2.416 1.108 1.196.492 1.945-.16 2.739-.278.34-.542.66-.65 1.01-.136.446.006.853.422 1.21a.315.315 0 0 0 .445-.033.315.315 0 0 0-.033-.444c-.422-.363-.312-.593.305-1.344.346-.42.738-.898.87-1.484.158-.696-.083-1.377-.736-2.082-1.064-1.149-.88-2.078-.72-2.472l.402.13a.746.746 0 0 0 .94-.477l.079-.238a.741.741 0 0 0-.045-.57l3.029-1.423c.158-.074-.111-.645-.27-.57l-3.347 1.573-.885-.288-1.94-3.54-.873-1.592a3.55 3.55 0 0 1-.064-.124l-.034-.072a2.98 2.98 0 0 1-.148-2.065 2.953 2.953 0 0 1 1.43-1.772 2.964 2.964 0 0 1 2.266-.245c.763.223 1.394.73 1.775 1.426l.286.522c.08.146.26.205.412.134l.54-.254a2.984 2.984 0 0 1 3.962 1.423c.7 1.482.06 3.257-1.425 3.955l-1.954.919a.315.315 0 1 0 .269.57l1.954-.919a3.604 3.604 0 0 0 1.728-4.794zm-12.61 8.953l.566-.184.485-.158.032-.01a.075.075 0 0 1 .094.048l.07.216a.073.073 0 0 1-.003.056.073.073 0 0 1-.044.037l-1.082.353a.075.075 0 0 1-.094-.048l-.071-.216a.075.075 0 0 1 .048-.094zm3.853-1.664l.078-.238a.115.115 0 0 1 .145-.073l.034.01v.001l1.124.365h.002l.034.012c.06.02.093.084.073.144l-.077.239a.115.115 0 0 1-.145.073l-.657-.213-.002-.001-.535-.174a.115.115 0 0 1-.074-.145z"/>
</svg>
