<svg xmlns="http://www.w3.org/2000/svg" width="20" height="20" viewBox="0 0 20 20">
    <g fill="none" fill-rule="evenodd">
        <path d="M0 0h20v20H0z"/>
        <path fill="#4A4A4A" fill-rule="nonzero" d="M1.011 2.728a.308.308 0 0 0-.303.313v12.918c0 .173.136.313.303.313h17.978c.167 0 .303-.14.303-.313V3.041a.308.308 0 0 0-.303-.313H1.011zM8.7 18v-1H8v1H6.08a.35.35 0 1 0 0 .7h8.538a.35.35 0 1 0 0-.7H12.7v-1H12v1H8.7zM1.011 2h17.978C19.547 2 20 2.466 20 3.04v12.92c0 .574-.453 1.04-1.011 1.04H1.011C.453 17 0 16.534 0 15.96V3.04C0 2.467.453 2 1.011 2z"/>
        <path fill="#4A4A4A" fill-rule="nonzero" d="M2.718 4.718v9.564h14.564V4.718H2.718zM2 4h16v11H2V4z"/>
    </g>
</svg>
