<svg xmlns="http://www.w3.org/2000/svg" width="20" height="15" viewBox="0 0 20 15">
    <g fill="none" fill-rule="evenodd">
        <path fill="#4A4A4A" fill-rule="nonzero" d="M18.667 2.677h-2.334c-.076 0-.15.008-.223.02a.33.33 0 0 0-.11-.02h-2.667v-.333A.333.333 0 0 0 13 2.01h-1.024a2.337 2.337 0 0 0-2.31-2c-1.173 0-2.146.871-2.309 2H6.333A.333.333 0 0 0 6 2.344v.333H1.665a1 1 0 0 0 0 2H6v.367a1.669 1.669 0 0 0-1.333 1.633v6.334c0 .919.747 1.666 1.665 1.666h6.669c.918 0 1.666-.747 1.666-1.666V6.677c0-.805-.574-1.479-1.334-1.633v-.367H15v3c0 .735.598 1.333 1.333 1.333h2.334c.735 0 1.333-.598 1.333-1.333V4.011c0-.736-.598-1.334-1.333-1.334zm-9-2A1.67 1.67 0 0 1 11.3 2.01H8.034A1.67 1.67 0 0 1 9.667.677zm-3 3.667V2.677h6V5.01h-6v-.666zM1.665 4.01a.329.329 0 0 1-.332-.333c0-.184.149-.333.332-.333H6v.666H1.665zM14 6.677v6.334a1 1 0 0 1-.999 1H6.332a1 1 0 0 1-.999-1V6.677a1 1 0 0 1 1-1h6.668a1 1 0 0 1 .999 1zm1-2.667h-1.667v-.666h1.847c-.114.196-.18.423-.18.666zm4.333 3.667a.667.667 0 0 1-.666.667h-2.334a.667.667 0 0 1-.666-.667V4.01c0-.367.299-.666.666-.666h2.334c.367 0 .666.299.666.666v3.667z"/>
        <path fill="#4A4A4A" fill-rule="nonzero" d="M1.94 5.821a.333.333 0 0 0-.548 0C1.16 6.158 0 7.877 0 8.677c0 .92.748 1.667 1.667 1.667s1.666-.748 1.666-1.667c0-.8-1.16-2.52-1.392-2.856zm-.273 3.856c-.552 0-1-.448-1-1 0-.364.52-1.314 1-2.064.48.75 1 1.7 1 2.064 0 .552-.449 1-1 1z"/>
        <path d="M0-3h20v20H0z"/>
    </g>
</svg>
