<svg xmlns="http://www.w3.org/2000/svg" width="20" height="20" viewBox="0 0 20 20">
    <path fill="#4A4A4A" fill-rule="nonzero" d="M7.383 12.29a.42.42 0 0 1-.394.448s-4.784.398-4.82.398c-.627 0-1.164-.46-1.22-1.069L.028 1.987C-.033 1.342.467.773 1.14.716L9.67.005c.324-.028.643.068.894.27.251.201.405.483.434.794l.411 4.493a.42.42 0 0 1-.394.448.428.428 0 0 1-.469-.376l-.411-4.493a.337.337 0 0 0-.128-.232.368.368 0 0 0-.262-.08l-8.529.713a.349.349 0 0 0-.327.372l.923 10.081c.009.09.054.173.128.233.074.06.167.088.262.08l4.712-.394a.427.427 0 0 1 .469.376zm.526-7.734C7.53 3.47 6.299 2.883 5.163 3.244c-1.136.362-1.751 1.539-1.373 2.624.076.216.32.334.548.261a.41.41 0 0 0 .274-.523c-.228-.652.142-1.36.825-1.577.682-.217 1.422.137 1.65.789.227.652-.143 1.36-.825 1.576-.667.213-1.028.903-.806 1.54.06.174.23.284.41.284a.452.452 0 0 0 .138-.022.41.41 0 0 0 .274-.523.387.387 0 0 1 .258-.493c1.135-.362 1.751-1.54 1.373-2.624zM5.983 9.072a.42.42 0 0 0-.394.448l.01.113a.426.426 0 0 0 .47.377.42.42 0 0 0 .393-.449l-.01-.113a.428.428 0 0 0-.469-.376zm13.758-.23l-.923 10.08c-.055.61-.592 1.07-1.22 1.07-.035 0-.071-.002-.108-.005l-8.528-.713c-.674-.056-1.173-.625-1.115-1.269l.924-10.08c.028-.311.182-.594.433-.795.252-.201.569-.298.894-.27l8.53.713c.672.056 1.172.625 1.113 1.268zm-1.19-.445l-8.528-.713-.031-.001a.367.367 0 0 0-.231.08.336.336 0 0 0-.128.233L8.71 18.077a.35.35 0 0 0 .327.373l8.529.713a.356.356 0 0 0 .39-.313l.923-10.08a.35.35 0 0 0-.327-.373zm-4.66 4.62l-.118-.01a.428.428 0 0 0-.47.375.42.42 0 0 0 .394.449l.119.01a.426.426 0 0 0 .47-.376.42.42 0 0 0-.395-.449zm3.45.703a1.206 1.206 0 0 1-.873 1.033 1.166 1.166 0 0 1-.386 1.276c-.253.204-.577.301-.909.273a1.292 1.292 0 0 1-.472-.131 1.203 1.203 0 0 1-.308.366 1.272 1.272 0 0 1-.909.275 1.237 1.237 0 0 1-1.081-.834c-.468.143-1.001.013-1.336-.368a1.147 1.147 0 0 1-.148-1.32 1.24 1.24 0 0 1-.384-.295 1.147 1.147 0 0 1-.287-.865v-.003c.029-.316.185-.603.44-.808.13-.103.276-.18.432-.226a1.166 1.166 0 0 1 .39-1.28c.254-.2.575-.296.905-.268.168.014.328.059.473.131.075-.138.179-.263.308-.367.254-.204.576-.301.905-.275h.004c.518.044.936.387 1.081.835.468-.143 1.001-.013 1.336.368.334.38.376.905.147 1.32.437.215.717.667.672 1.163zm-1.208-.465l-.35-.03a.43.43 0 0 1-.376-.288.403.403 0 0 1 .135-.441l.27-.216a.352.352 0 0 0 .046-.511.393.393 0 0 0-.535-.045l-.27.216a.45.45 0 0 1-.478.05.41.41 0 0 1-.231-.403l.03-.335a.368.368 0 0 0-.345-.393.389.389 0 0 0-.276.084.355.355 0 0 0-.135.246l-.03.335a.418.418 0 0 1-.302.358c-.167.05-.35 0-.462-.128l-.226-.258a.382.382 0 0 0-.258-.127.388.388 0 0 0-.277.083l-.003.001a.355.355 0 0 0-.044.51l.226.257a.4.4 0 0 1 .052.457.437.437 0 0 1-.421.221l-.35-.029a.39.39 0 0 0-.278.084.355.355 0 0 0-.134.246.35.35 0 0 0 .088.264c.065.075.157.12.257.13l.35.029a.43.43 0 0 1 .376.287c.052.16 0 .334-.135.442l-.27.216a.355.355 0 0 0-.046.511.393.393 0 0 0 .535.045l.27-.216a.445.445 0 0 1 .477-.05.41.41 0 0 1 .232.403l-.03.335c-.019.2.136.375.344.393.101.008.199-.022.277-.084a.355.355 0 0 0 .135-.246l.03-.335a.418.418 0 0 1 .302-.358c.167-.05.35 0 .462.128l.226.258a.383.383 0 0 0 .258.127.39.39 0 0 0 .277-.083.355.355 0 0 0 .047-.51l-.226-.258a.4.4 0 0 1-.053-.457.438.438 0 0 1 .422-.222l.35.03a.375.375 0 0 0 .412-.33.369.369 0 0 0-.345-.393z"/>
</svg>
