<svg xmlns="http://www.w3.org/2000/svg" width="20" height="20" viewBox="0 0 20 20">
    <g fill="none" fill-rule="evenodd">
        <path fill="#4A4A4A" fill-rule="nonzero" d="M19.731 6.91l-9.565-4.84a.411.411 0 0 0-.371 0L.23 6.91a.421.421 0 0 0 0 .753l3.166 1.603v3.216c0 1.986 2.892 3.542 6.585 3.542 3.692 0 6.584-1.556 6.584-3.542V9.266l1.105-.56v3.07a1.31 1.31 0 0 0-.877 1.239c0 .52.302.97.738 1.181l-.883 2.36a.425.425 0 0 0 .046.388.415.415 0 0 0 .343.181h2.098a.415.415 0 0 0 .343-.181.425.425 0 0 0 .046-.389l-.883-2.359c.436-.21.738-.66.738-1.181a1.31 1.31 0 0 0-.877-1.239v-3.49l1.23-.622a.421.421 0 0 0 0-.753zm-5.575 7.403c-1.108.56-2.591.87-4.175.87-1.585 0-3.068-.31-4.176-.87-1.002-.507-1.577-1.175-1.577-1.831V9.687l5.567 2.817a.412.412 0 0 0 .371 0l5.567-2.817v2.795c0 .656-.575 1.324-1.577 1.83zm3.483 1.97l.447-1.193.447 1.194h-.894zm.908-3.268a.464.464 0 0 1-.461.467.465.465 0 0 1-.461-.467c0-.257.206-.466.459-.467h.004c.253.001.46.21.46.467zm-.546-5.417l-7.983-.73a.417.417 0 0 0-.452.381.42.42 0 0 0 .377.457l6.644.608-6.606 3.343-8.635-4.37 8.635-4.37 8.634 4.37-.614.31z"/>
        <path d="M0 0h20v20H0z"/>
    </g>
</svg>
