<svg xmlns="http://www.w3.org/2000/svg" width="20" height="20" viewBox="0 0 20 20">
    <g fill="none" fill-rule="evenodd">
        <path d="M0 0h20v20H0z"/>
        <g fill="#4A4A4A" fill-rule="nonzero">
            <path d="M3.929 13.429c-.985 0-1.786.8-1.786 1.785 0 .985.8 1.786 1.786 1.786.984 0 1.785-.801 1.785-1.786 0-.984-.8-1.785-1.785-1.785zm0 2.857a1.073 1.073 0 0 1 0-2.143 1.073 1.073 0 0 1 0 2.143zM12.143 13.429c-.985 0-1.786.8-1.786 1.785 0 .985.801 1.786 1.786 1.786.984 0 1.786-.801 1.786-1.786 0-.984-.802-1.785-1.786-1.785zm0 2.857a1.073 1.073 0 0 1 0-2.143 1.073 1.073 0 0 1 0 2.143zM9.643 14.857H6.429a.357.357 0 0 0 0 .714h3.214a.357.357 0 0 0 0-.714z"/>
            <path d="M20 3.786a.357.357 0 0 0-.357-.357h-.714V2h-.715v1.429H17.5V2h-.714v1.429h-.715a.357.357 0 0 0-.357.357c0 1.1.835 2.01 1.905 2.129.217.55.216 1.168-.007 1.763a2.786 2.786 0 0 1-1.343 1.503c-.62.31-1.004.737-1.241 1.15-.788-1.523-2.904-2.617-5.385-2.617-3.057 0-5.56 1.659-5.707 3.736a5.312 5.312 0 0 0-2.824 1.747c-.798.94-1.085 1.875-1.097 1.915a.357.357 0 0 0 .342.46H1.43a.357.357 0 0 0 0-.715H.882C1.306 13.943 2.539 12 5.357 12h9.401l1.143 2.857H15a.357.357 0 0 0 0 .714h1.429a.357.357 0 0 0 .331-.49l-1.4-3.499a2.176 2.176 0 0 1 1.228-1.763 3.508 3.508 0 0 0 1.693-1.89 3.166 3.166 0 0 0 .079-2.06A2.146 2.146 0 0 0 20 3.785zm-14.643 7.5c-.24 0-.47.013-.69.037.251-1.623 2.387-2.894 4.976-2.894 2.569 0 4.69 1.252 4.968 2.857H5.357zm12.5-6.072a1.431 1.431 0 0 1-1.383-1.071h2.767a1.431 1.431 0 0 1-1.384 1.071z"/>
        </g>
    </g>
</svg>
