<svg xmlns="http://www.w3.org/2000/svg" width="22" height="22" viewBox="0 0 22 22">
    <g fill="#4A4A4A" fill-rule="nonzero" stroke="#4A4A4A" stroke-width=".1">
        <path d="M18.3 17.667H3.633a.333.333 0 0 0 0 .666H18.3a.333.333 0 0 0 0-.666z"/>
        <path d="M19.333 1H2.667C1.747 1 1 1.748 1 2.667v16.666C1 20.253 1.748 21 2.667 21h16.666c.92 0 1.667-.748 1.667-1.667V2.667C21 1.747 20.252 1 19.333 1zm1 18.333c0 .552-.448 1-1 1H2.667c-.552 0-1-.448-1-1V2.667c0-.552.448-1 1-1h16.666c.552 0 1 .448 1 1v16.666z"/>
        <path d="M9.501 7.045A.334.334 0 0 0 9 7.333V12a.333.333 0 0 0 .501.288l4-2.333a.333.333 0 0 0 0-.576l-4-2.334zm.166 4.375V7.914l3.005 1.753-3.005 1.753z"/>
        <path d="M17.621 3.333H4.38a.865.865 0 0 0-.864.864v11.515c0 .159.13.288.288.288h14.394a.288.288 0 0 0 0-.576H4.091V4.197c0-.159.13-.288.288-.288H17.62c.159 0 .288.13.288.288V15.5c0 .159.13.5.288.5.159 0 .303-.129.303-.288l-.015-11.515a.865.865 0 0 0-.864-.864z"/>
    </g>
</svg>
