<svg xmlns="http://www.w3.org/2000/svg" width="20" height="20" viewBox="0 0 20 20">
    <g fill="none" fill-rule="evenodd">
        <path fill="#4A4A4A" fill-rule="nonzero" stroke="#4A4A4A" stroke-width=".1" d="M7.306 6.385c-.902 0-1.637.734-1.637 1.636v.967a.341.341 0 0 0 .682 0v-.967a.956.956 0 0 1 1.91 0v1.843h-2.25a.341.341 0 0 0 0 .682h2.591a.341.341 0 0 0 .341-.341V8.02c0-.902-.734-1.636-1.637-1.636zM12.762 6.385c-.903 0-1.637.734-1.637 1.636v2.184c0 .188.153.34.341.34h2.592a.341.341 0 0 0 .34-.34V8.02c0-.902-.733-1.636-1.636-1.636zm.955 3.479h-1.91V8.02a.956.956 0 0 1 1.91 0v1.843z"/>
        <path fill="#4A4A4A" fill-rule="nonzero" stroke="#4A4A4A" stroke-width=".1" d="M19.659 6.84h-1.67a.341.341 0 0 0-.342.342v1.841h-.463a.341.341 0 0 0 0 .682h.804a.341.341 0 0 0 .341-.341V7.523h.989V18.25h-2.873V2.361a.341.341 0 0 0-.341-.341h-1.67a.341.341 0 0 0-.342.341v1.841h-1.16V2.361a.341.341 0 0 0-.34-.341H10.92a.341.341 0 0 0-.341.341v1.841H9.42V2.361a.341.341 0 0 0-.341-.341h-1.67a.341.341 0 0 0-.342.341v1.841h-1.16V2.361a.341.341 0 0 0-.34-.341h-1.67a.341.341 0 0 0-.342.341v6.662H2.352V7.18a.341.341 0 0 0-.34-.34H.34A.341.341 0 0 0 0 7.18v11.411c0 .188.153.341.341.341h19.318a.341.341 0 0 0 .341-.34V7.18a.341.341 0 0 0-.341-.34zm-7.57 11.411H10.34v-.715a.341.341 0 0 0-.682 0v.715H7.912v-3.658c0-1.035.757-1.897 1.747-2.06v3.958a.341.341 0 0 0 .682 0v-3.958a2.091 2.091 0 0 1 1.747 2.06v3.658zm3.674 0H12.77v-3.658a2.773 2.773 0 0 0-2.77-2.77 2.773 2.773 0 0 0-2.77 2.77v3.658H4.237v-5.898a.341.341 0 0 0-.682 0v5.898H.682V7.522h.989v1.842c0 .188.152.341.34.341h1.544v1.284a.341.341 0 0 0 .682 0V2.702h.989v1.841c0 .189.152.341.34.341H7.41a.341.341 0 0 0 .34-.34V2.701h.99v1.841c0 .189.152.341.34.341h1.842a.341.341 0 0 0 .341-.34V2.701h.989v1.841c0 .189.152.341.34.341h1.842a.341.341 0 0 0 .341-.34V2.701h.989v15.55z"/>
        <path d="M0 0h20v20H0z"/>
    </g>
</svg>
