<svg xmlns="http://www.w3.org/2000/svg" width="20" height="20" viewBox="0 0 20 20">
    <g fill="none" fill-rule="evenodd">
        <path stroke="#4A4A4A" stroke-width=".8" d="M14.956 16.458c.007-.757.3-1.29.865-1.61.371-.21.757-.309 1.425-.377a2.017 2.017 0 0 1-.108-.448 4.66 4.66 0 0 1-.03-.344c-.02-.32-.042-.442-.106-.56-.413-.759-.5-.958-.436-1.267.128-.609.674-.57 1.62-.181.381.156.818-.098 1.162-.604.026-.043-.309-.47-.401-.48-.625-.076-.983-.352-1.464-.952l-.09-.112a3.102 3.102 0 0 0-.282-.32l-.1-.095c-1.1-1.046-1.508-1.762-1.318-2.96.156-.982-.288-1.64-1.258-1.728a6.482 6.482 0 0 0-.508-.02 11.074 11.074 0 0 1-.3-.006c-.593-.023-1.043-.138-1.558-.453-1.264-.777-3.015-.342-4.423.837-.77.644-1.62 1.74-2.214 2.835-.39.716-.79 1.163-1.437 1.591-.88.584-1.72.769-3.124.8.016.216.094.446.248.809l.049.116c.056.135.096.236.132.34.029.086.04.115.141.361.033.08.056.139.078.197.25.651.269 1.104-.157 1.45-.146.118-.603.45-.672.505-.413.33-.423.51.154 1.248.165.209.403.588.497.738.109-.056.286-.173.583-.387.288-.205.55-.283.954-.323 1.741-.173 3.09.015 6.012.667l.03.007c1.837.41 2.654.564 3.68.656.177.016.339 0 .725-.064l.07-.011c.686-.112 1.158-.1 1.56.145zm0 0c.166.1.32.241.473.43l-.31.252-.275-.29c.035-.034.069-.061.122-.101a3.333 3.333 0 0 1-.01-.291z"/>
        <path d="M0 0h20v20H0z"/>
    </g>
</svg>
