<svg xmlns="http://www.w3.org/2000/svg" width="20" height="20" viewBox="0 0 20 20">
    <g fill="none" fill-rule="evenodd">
        <path fill="#4A4A4A" fill-rule="nonzero" stroke="#4A4A4A" stroke-width=".1" d="M18.035 1.29C17.423.49 16.6.048 15.717.048c-.885 0-1.707.441-2.318 1.242-.588.772-.913 1.804-.913 2.892 0 1.089.325 2.12.913 2.892.525.691 1.214 1.113 1.96 1.219v3.74h-.794v6.778c0 .637.478 1.141 1.094 1.141h.124c.612 0 1.095-.499 1.095-1.141v-6.777h-.793V8.293c.745-.101 1.433-.528 1.96-1.219.587-.772.912-1.803.912-2.892 0-1.088-.335-2.12-.922-2.892zm-1.888 11.463v6.058h.004c0 .201-.133.422-.377.422h-.124c-.244 0-.378-.216-.378-.422v-6.058h.875zm-.435-5.151c-1.386 0-2.519-1.535-2.519-3.42s1.128-3.42 2.519-3.42c1.386 0 2.519 1.535 2.519 3.42s-1.128 3.42-2.52 3.42zM6.392.048a.362.362 0 0 0-.358.36v4.796h-1.3V.408a.362.362 0 0 0-.359-.36.362.362 0 0 0-.358.36v4.796h-1.3V.408a.362.362 0 0 0-.359-.36.362.362 0 0 0-.358.36v6.355c0 .988.88 1.813 2.017 1.956v3.32h-.793v6.776c0 .638.477 1.142 1.094 1.142h.124c.612 0 1.095-.499 1.095-1.142v-6.777h-.794V8.72c1.143-.143 2.017-.964 2.017-1.956V.408a.377.377 0 0 0-.368-.36zM4.806 12.753v6.058h.004c0 .201-.134.422-.377.422h-.125c-.243 0-.377-.216-.377-.422v-6.058h.875zm1.233-5.99h-.005c0 .68-.76 1.256-1.659 1.256-.898 0-1.658-.575-1.658-1.256v-.84h3.322v.84z"/>
        <path d="M0 0h20v20H0z"/>
    </g>
</svg>
