<svg xmlns="http://www.w3.org/2000/svg" width="20" height="20" viewBox="0 0 20 20">
    <g fill="none" fill-rule="evenodd">
        <path fill="#4A4A4A" fill-rule="nonzero" d="M19.544 3.83L12.457 2h-.159c-.277 0-.503.178-.545.443-.057.365-.26.657-.605.905a1.931 1.931 0 0 1-1.16.364c-.436 0-.822-.118-1.17-.364-.346-.246-.54-.541-.604-.905A.54.54 0 0 0 7.67 2H7.491L.404 3.83a.553.553 0 0 0-.387.67l.991 3.867c.063.243.288.403.555.403H4.18v8.689c0 .305.238.54.545.54h10.497a.553.553 0 0 0 .565-.54V8.77h2.617c.248 0 .474-.17.535-.403L19.95 4.5a.552.552 0 0 0-.406-.67zm-1.377 3.792h-2.82a.57.57 0 0 0-.559.564v8.884h-9.63V8.186a.557.557 0 0 0-.558-.564H1.8L1.008 4.63l6.23-1.602c.224.494.579.897 1.076 1.209A3.08 3.08 0 0 0 9.99 4.7c.609 0 1.156-.15 1.654-.463.497-.312.862-.715 1.085-1.209l6.23 1.602-.79 2.992z"/>
        <path d="M0 0h20v20H0z"/>
    </g>
</svg>
