<svg xmlns="http://www.w3.org/2000/svg" width="20" height="20" viewBox="0 0 20 20">
    <path fill="#4A4A4A" fill-rule="nonzero" d="M18.649 7.876A4.583 4.583 0 0 0 20 4.614c0-1.233-.48-2.391-1.351-3.263A4.583 4.583 0 0 0 15.387 0c-1.233 0-2.391.48-3.263 1.351-.932.933-1.32 1.965-1.73 3.057-.125.333-.251.67-.395 1.01C7.673 3.61 5.391 2.543 3.826 2.543c-.692 0-1.242.199-1.634.59-.828.829-.779 2.382.138 4.374.237.515.525 1.047.858 1.587a5.725 5.725 0 0 0-1.502 1.082A5.718 5.718 0 0 0 0 14.245c0 1.537.599 2.982 1.686 4.07A5.718 5.718 0 0 0 5.756 20a5.718 5.718 0 0 0 4.069-1.686 5.724 5.724 0 0 0 1.08-1.5c1.634 1.009 3.157 1.584 4.329 1.584.692 0 1.242-.199 1.633-.59.703-.703.78-1.91.224-3.489-.456-1.295-1.34-2.813-2.51-4.318.341-.144.678-.27 1.011-.395 1.092-.41 2.124-.798 3.057-1.73zm-9.414 9.849a4.89 4.89 0 0 1-3.48 1.442 4.89 4.89 0 0 1-3.48-1.442 4.89 4.89 0 0 1-1.442-3.48 4.89 4.89 0 0 1 1.442-3.48 4.896 4.896 0 0 1 1.37-.967c.156.23.32.46.491.692a4.093 4.093 0 0 0-1.272 6.646 4.076 4.076 0 0 0 2.891 1.195 4.076 4.076 0 0 0 3.754-2.466c.232.171.463.336.693.492-.24.507-.565.966-.967 1.368zm-4.747-6.48c.055-.023.12-.042.184-.058a26.55 26.55 0 0 0 1.959 2.182 26.664 26.664 0 0 0 2.187 1.964l-.045.135a3.245 3.245 0 0 1-3.018 2.03 3.246 3.246 0 0 1-2.302-.951 3.26 3.26 0 0 1 1.035-5.302zm11.817 3.351c.436 1.238.427 2.169-.027 2.622-.23.23-.58.346-1.044.347-1.102 0-2.623-.626-4.257-1.694a.419.419 0 0 0-.057-.037c-1.214-.8-2.49-1.843-3.7-3.054a25.61 25.61 0 0 1-2.068-2.33A20.673 20.673 0 0 1 4.13 9.023a14.741 14.741 0 0 1-1.043-1.865c-.75-1.629-.86-2.88-.305-3.436.23-.23.58-.346 1.044-.346 1.398 0 3.605 1.074 5.812 2.818a8.997 8.997 0 0 1-1.44 2.042l-.062.066-.064.067-.134.136a.416.416 0 0 0-.066.503c.258.447.575.885.933 1.295a8.832 8.832 0 0 0 2.187 1.825.419.419 0 0 0 .047.023l.005.002a.405.405 0 0 0 .101.027h.002a.397.397 0 0 0 .052.004h.004a.435.435 0 0 0 .076-.008h.002a.42.42 0 0 0 .077-.023h.001a.405.405 0 0 0 .033-.016l.007-.003a.364.364 0 0 0 .027-.017l.007-.004a.43.43 0 0 0 .027-.02l.005-.004a.42.42 0 0 0 .03-.027 9.097 9.097 0 0 1 2.311-1.7c1.174 1.484 2.057 2.979 2.5 4.234zm-4.088-4.24l-.018.013c-.042.03-.084.06-.125.092l-.047.034a9.696 9.696 0 0 0-.095.073l-.062.048-.078.062-.072.058-.068.056-.08.066-.063.054-.08.07-.073.065-.07.063a11.34 11.34 0 0 0-.145.134 7.97 7.97 0 0 1-1.367-1.12A8.053 8.053 0 0 1 8.757 8.86c.082-.087.161-.175.24-.263l.017-.02a9.61 9.61 0 0 0 .094-.109l.03-.035.082-.098.04-.048.07-.087.05-.063a8.603 8.603 0 0 0 .244-.325l.022-.031c.786-1.102 1.175-2.136 1.529-3.08.394-1.048.734-1.954 1.539-2.76A3.755 3.755 0 0 1 15.387.834c1.01 0 1.959.394 2.672 1.108a3.755 3.755 0 0 1 1.108 2.672c0 1.01-.394 1.96-1.108 2.673-.805.805-1.71 1.145-2.76 1.54-.944.354-1.98.743-3.082 1.53z"/>
</svg>
