<svg xmlns="http://www.w3.org/2000/svg" width="20" height="20" viewBox="0 0 20 20">
    <g fill="#4A4A4A" fill-rule="nonzero">
        <path d="M14.436 2.981a2.571 2.571 0 1 0 0 5.144c.688 0 1.335-.267 1.822-.753a2.552 2.552 0 0 0 .755-1.819c0-.687-.268-1.333-.755-1.819a2.563 2.563 0 0 0-1.822-.753zm1.125 3.575c-.284.283-.66.439-1.061.439A1.497 1.497 0 1 1 14.5 4c.4 0 .777.156 1.06.439.284.282.44.658.44 1.058s-.156.776-.44 1.059zM10 7.408a2.571 2.571 0 1 0 0 5.144 2.571 2.571 0 1 0 0-5.144zm1.061 3.653c-.283.283-.66.439-1.061.439a1.501 1.501 0 1 1 1.061-.44z"/>
        <path d="M19.175 1.071l-.088-.16-.16-.087A6.831 6.831 0 0 0 15.674 0a6.766 6.766 0 0 0-4.81 1.989A6.787 6.787 0 0 0 9.187 4.74 6.805 6.805 0 0 0 4.75 9.168a6.806 6.806 0 0 0-2.758 1.673 6.724 6.724 0 0 0-1.93 3.876 6.83 6.83 0 0 0 .763 4.171l.087.16.16.087c.993.54 2.117.824 3.253.824a6.766 6.766 0 0 0 4.81-1.988 6.787 6.787 0 0 0 1.678-2.753 6.805 6.805 0 0 0 4.435-4.427 6.806 6.806 0 0 0 2.759-1.673 6.724 6.724 0 0 0 1.93-3.875 6.83 6.83 0 0 0-.763-4.172zM17.33 8.204a5.716 5.716 0 0 1-2.609 1.49l-.362.094-.094.362a5.716 5.716 0 0 1-4.102 4.093l-.363.093-.093.363a5.7 5.7 0 0 1-1.493 2.603 5.688 5.688 0 0 1-4.045 1.672 5.75 5.75 0 0 1-2.568-.606A5.734 5.734 0 0 1 2.67 11.77a5.716 5.716 0 0 1 2.609-1.49l.362-.094.094-.362a5.716 5.716 0 0 1 4.102-4.093l.363-.094.093-.362a5.7 5.7 0 0 1 1.493-2.603A5.689 5.689 0 0 1 15.831 1a5.75 5.75 0 0 1 2.568.605 5.734 5.734 0 0 1-1.069 6.6z"/>
        <path d="M5.565 11.834c-.689 0-1.336.268-1.823.753a2.552 2.552 0 0 0-.755 1.82c0 .686.268 1.332.755 1.818a2.563 2.563 0 0 0 1.823.753 2.571 2.571 0 1 0 0-5.144zm1.096 3.727a1.49 1.49 0 0 1-1.06.439c-.401 0-.778-.156-1.062-.44A1.49 1.49 0 0 1 4.1 14.5c0-.4.156-.777.44-1.06A1.49 1.49 0 0 1 5.6 13a1.501 1.501 0 0 1 1.06 2.56z"/>
    </g>
</svg>
