<svg xmlns="http://www.w3.org/2000/svg" width="20" height="20" viewBox="0 0 20 20">
    <path fill="#4A4A4A" fill-rule="nonzero" d="M10.033 11.41c-2.165 0-4.163.291-5.787.749V5.04L8.326 3c.125-.083.25-.207.25-.374 0-.166-.084-.291-.25-.375L3.996.087c-.124-.084-.291-.042-.416 0a.437.437 0 0 0-.208.374V12.492C1.29 13.283 0 14.407 0 15.698c0 2.372 4.371 4.246 9.991 4.246 5.62 0 9.99-1.874 9.99-4.246.043-2.415-4.328-4.288-9.948-4.288zM4.246 4.125V1.169l2.956 1.499-2.956 1.457zm5.787 14.945c-5.495 0-9.159-1.749-9.159-3.414 0-.833.916-1.665 2.54-2.331v1.498c-.458.25-.75.666-.75 1.124 0 .833 1 1.457 2.248 1.457 1.25 0 2.248-.624 2.248-1.457 0-.832-.999-1.457-2.248-1.457-.208 0-.416.042-.624.084v-1.5c1.54-.499 3.497-.79 5.786-.79 5.495 0 9.159 1.748 9.159 3.414-.042 1.623-3.705 3.372-9.2 3.372zm-5.787-3.664a2.83 2.83 0 0 1 .625-.083c.832 0 1.415.375 1.415.624 0 .25-.541.625-1.415.625-.333 0-.625-.042-.875-.167a.437.437 0 0 0 .209-.374v-.625h.041z"/>
</svg>
