<svg xmlns="http://www.w3.org/2000/svg" width="20" height="20" viewBox="0 0 20 20">
    <path fill="#4A4A4A" fill-rule="nonzero" d="M19.657.305A1.031 1.031 0 0 0 18.61.05L3.994 4.736a1.03 1.03 0 0 0-.691.744c-.086.355.016.721.274.98l4.211 4.219-1.91 1.914-.246-.246a.397.397 0 0 0-.562 0L.53 16.895a1.824 1.824 0 0 0 0 2.573c.354.355.82.532 1.284.532.465 0 .93-.177 1.284-.532l4.54-4.548a.4.4 0 0 0 0-.563l-.246-.246 1.91-1.914 4.212 4.22a1.027 1.027 0 0 0 .976.274 1.03 1.03 0 0 0 .743-.693l4.677-14.643a1.036 1.036 0 0 0-.254-1.05zm-17.12 18.6a1.02 1.02 0 0 1-1.444 0 1.025 1.025 0 0 1 0-1.447l4.258-4.266 1.444 1.447-4.258 4.265zm4.293-5.357l-.39-.392 4.307-4.315a.276.276 0 1 1 .39.39L6.83 13.549zM19.154 1.112l-4.677 14.644a.238.238 0 0 1-.173.16.237.237 0 0 1-.227-.063l-4.211-4.22L11.7 9.795c.418-.418.418-1.1 0-1.518a1.071 1.071 0 0 0-1.515 0L8.35 10.115l-4.21-4.22a.238.238 0 0 1-.064-.227.238.238 0 0 1 .16-.173L18.851.81a.235.235 0 0 1 .244.06c.03.03.1.117.059.243z"/>
</svg>
