<svg xmlns="http://www.w3.org/2000/svg" width="20" height="20" viewBox="0 0 20 20">
    <g fill="none" fill-rule="evenodd">
        <path fill="#4A4A4A" fill-rule="nonzero" d="M18.223 3.773h-4.298C13.677 2.24 12.008 1.05 9.99 1.05c-2.017 0-3.687 1.19-3.935 2.723H1.757C.788 3.773 0 4.566 0 5.54v9.647c0 .974.788 1.766 1.757 1.766h1.57a1.83 1.83 0 0 0 1.785 1.45 1.83 1.83 0 0 0 1.784-1.45h6.188c.177.827.91 1.45 1.785 1.45a1.83 1.83 0 0 0 1.784-1.45h1.57c.97 0 1.758-.792 1.758-1.766V5.54c0-.974-.789-1.767-1.758-1.767zm-1.16 12.39H2.918a2.566 2.566 0 0 0-2.132-2.14V6.704a2.567 2.567 0 0 0 2.132-2.142h14.148a2.565 2.565 0 0 0 2.13 2.141v7.318a2.566 2.566 0 0 0-2.131 2.141zM8.269 3.773c.277-.356.909-.655 1.722-.655.814 0 1.445.3 1.722.655H8.268zm9.955.79c.536 0 .972.438.972.977V5.9a1.779 1.779 0 0 1-1.331-1.338h.36zM9.99 1.839c1.571 0 2.879.838 3.136 1.934h-.534c-.254-.835-1.306-1.445-2.602-1.445-1.296 0-2.347.61-2.602 1.445h-.534C7.111 2.677 8.42 1.84 9.99 1.84zM.785 5.54c0-.538.436-.976.972-.976h.36A1.779 1.779 0 0 1 .785 5.902V5.54zm.972 10.624a.976.976 0 0 1-.972-.976v-.362c.66.15 1.182.674 1.332 1.338h-.36zm3.355 1.45a1.04 1.04 0 0 1-.966-.66h1.93a1.04 1.04 0 0 1-.964.66zm9.757 0a1.04 1.04 0 0 1-.966-.66h1.932c-.153.386-.528.66-.966.66zm4.326-2.426a.976.976 0 0 1-.972.976h-.36a1.779 1.779 0 0 1 1.332-1.338v.362z"/>
        <path fill="#4A4A4A" fill-rule="nonzero" d="M11.639 7.114c-.625 0-1.196.27-1.649.772-.452-.502-1.023-.772-1.648-.772-1.044 0-1.997.791-2.266 1.882-.142.575-.166 1.49.529 2.58.628.984 1.705 1.888 3.202 2.684a.39.39 0 0 0 .367 0c1.497-.796 2.574-1.7 3.202-2.684.694-1.09.67-2.005.529-2.58-.27-1.09-1.223-1.882-2.266-1.882zM9.99 13.463c-3.433-1.894-3.283-3.747-3.152-4.277.184-.743.816-1.283 1.504-1.283.51 0 .976.301 1.315.847a.392.392 0 0 0 .667 0c.338-.546.805-.847 1.315-.847.687 0 1.32.54 1.503 1.283.131.53.282 2.384-3.152 4.277z"/>
        <path d="M0 0h20v20H0z"/>
    </g>
</svg>
