<svg xmlns="http://www.w3.org/2000/svg" width="20" height="20" viewBox="0 0 20 20">
    <g fill="#4A4A4A" fill-rule="nonzero">
        <path d="M5.666 9H3.333A.333.333 0 0 0 3 9.333v3.333c0 .184.149.334.333.334h2.333c.184 0 .333-.15.333-.334V9.333A.333.333 0 0 0 5.666 9zm-.333 3.333H3.666V9.667h1.667v2.666zM11.332 9H8.999a.333.333 0 0 0-.334.333v3.333c0 .184.15.334.334.334h2.333c.184 0 .333-.15.333-.334V9.333A.333.333 0 0 0 11.332 9zm-.334 3.333H9.332V9.667h1.666v2.666zM11.332 14.333H8.999a.333.333 0 0 0-.334.333v3.333c0 .184.15.333.334.333h2.333c.184 0 .333-.15.333-.333v-3.333a.333.333 0 0 0-.333-.333zm-.334 3.333H9.332v-2.667h1.666v2.667zM16.664 9h-2.333a.333.333 0 0 0-.333.333v3.333c0 .184.15.334.333.334h2.333c.184 0 .334-.15.334-.334V9.333A.333.333 0 0 0 16.664 9zm-.333 3.333h-1.666V9.667h1.666v2.666zM5.666 14.333H3.333a.333.333 0 0 0-.333.333v3.333c0 .184.149.333.333.333h2.333c.184 0 .333-.15.333-.333v-3.333a.333.333 0 0 0-.333-.333zm-.333 3.333H3.666v-2.667h1.667v2.667zM16.664 14.333h-2.333a.333.333 0 0 0-.333.333v3.333c0 .184.15.333.333.333h2.333c.184 0 .334-.15.334-.333v-3.333a.333.333 0 0 0-.334-.333zm-.333 3.333h-1.666v-2.667h1.666v2.667z"/>
        <path d="M18.664 19.332V8h.333c.184 0 .334-.149.334-.333V6.001a.333.333 0 0 0-.334-.334h-.333V4.334a.333.333 0 0 0-.333-.333h-.667V.335A.333.333 0 0 0 17.331 0H2.666a.333.333 0 0 0-.333.334V4h-.667a.333.333 0 0 0-.333.333v1.333H1a.333.333 0 0 0-.333.334v1.666C.667 7.851.816 8 1 8h.333v11.332H0v.666h20v-.666h-1.336zM3 .668h13.998v3.333H3V.668zm-1 4h15.997v1H2v-1zm15.997 14.664H2V8h15.997v11.332zM1.667 7.334h-.334v-1H18.664v1H1.666z"/>
    </g>
</svg>
