<svg xmlns="http://www.w3.org/2000/svg" width="20" height="20" viewBox="0 0 20 20">
    <g fill="none" fill-rule="evenodd">
        <path fill="#4A4A4A" fill-rule="nonzero" d="M18.282 5.913c-.345 0-.667.106-.936.288a1.712 1.712 0 0 0-1.617-1.198c-.94 0-1.704.784-1.704 1.749v1.767H5.962V6.752c0-.965-.765-1.75-1.704-1.75-.753 0-1.392.504-1.618 1.2a1.663 1.663 0 0 0-.936-.29C.764 5.913 0 6.698 0 7.663v4.662c0 .965.764 1.75 1.704 1.75.346 0 .667-.107.936-.29a1.712 1.712 0 0 0 1.618 1.2c.94 0 1.704-.785 1.704-1.75v-1.767h8.062v1.767c0 .965.765 1.75 1.705 1.75.752 0 1.392-.504 1.617-1.2.269.183.59.29.936.29.94 0 1.704-.785 1.704-1.75V7.662c0-.965-.764-1.75-1.704-1.75zM1.704 13.196a.862.862 0 0 1-.85-.872V7.662c0-.48.382-.872.85-.872.468 0 .85.391.85.872v4.662c0 .48-.382.872-.85.872zm3.403.038c0 .481-.381.872-.85.872a.862.862 0 0 1-.849-.872V6.752c0-.481.381-.872.85-.872.468 0 .85.39.85.872v6.482zm.855-2.644V9.396h8.063v1.194H5.962zm10.616 2.644c0 .481-.381.872-.85.872a.862.862 0 0 1-.849-.872V6.752c0-.481.381-.872.85-.872.468 0 .85.39.85.872v6.482zm2.554-.91c0 .48-.381.872-.85.872a.862.862 0 0 1-.85-.872V7.662c0-.48.382-.872.85-.872.469 0 .85.391.85.872v4.662z"/>
        <path d="M0 0h20v20H0z"/>
    </g>
</svg>
