<svg xmlns="http://www.w3.org/2000/svg" width="20" height="20" viewBox="0 0 20 20">
    <g fill="none" fill-rule="evenodd">
        <path fill="#4A4A4A" fill-rule="nonzero" stroke="#4A4A4A" stroke-width=".1" d="M17.007 10.665L15.89 8.422c-.1-.199-.13-.429-.086-.647l.239-1.2a.309.309 0 0 0 .006-.06c0-3.067-2.486-5.563-5.542-5.563H9.198c-3.416 0-6.195 2.79-6.195 6.22 0 1.716.41 3.135.807 4.508.407 1.408.828 2.863.828 4.687 0 .107.056.207.147.263l5.254 3.222a.72.72 0 0 0 .732.014.72.72 0 0 0 .37-.634v-1.223c0-.917.743-1.663 1.656-1.663h1.086c.834 0 1.541-.653 1.61-1.486l.212-2.547.8-.321a.966.966 0 0 0 .502-1.327zm-.535.555a.345.345 0 0 1-.196.2l-.975.392a.308.308 0 0 0-.192.26l-.227 2.736a1.01 1.01 0 0 1-.999.923h-1.086a2.277 2.277 0 0 0-2.27 2.278v1.223a.108.108 0 0 1-.056.097.107.107 0 0 1-.112-.002L5.25 16.194c-.026-1.83-.445-3.28-.852-4.686-.403-1.393-.783-2.708-.783-4.336 0-3.09 2.504-5.604 5.582-5.604h1.31c2.707 0 4.911 2.203 4.927 4.917l-.233 1.17c-.07.351-.02.722.14 1.043l1.116 2.242a.347.347 0 0 1 .014.28z"/>
        <path stroke="#4A4A4A" stroke-linecap="round" stroke-linejoin="round" stroke-width=".7" d="M9.667.476L6.333 5.238H9.19L7.762 9.524l4.286-5.238H9.19l.477-3.81z"/>
        <path d="M0 0h20v20H0z"/>
    </g>
</svg>
