<svg xmlns="http://www.w3.org/2000/svg" width="20" height="20" viewBox="0 0 20 20">
    <g fill="none" fill-rule="evenodd">
        <path fill="#4A4A4A" d="M15.705 3.02c-1.476 0-2.855.45-3.989 1.297-1.003.75-1.747 1.788-2.04 2.847-.336 1.212-.063 2.307.728 3.03-.272.483-.525.981-.726 1.464a5.4 5.4 0 0 0-.706-1.245c.393-.63.447-1.401.138-2.19-.29-.744-.88-1.429-1.658-1.93a5.266 5.266 0 0 0-2.86-.827c-1.322 0-2.68.482-3.924 1.393L0 7.35l.796.218c1.315.36 2.363 1.383 3.288 2.286.945.921 1.837 1.791 2.87 1.792h.001c.509 0 .995-.206 1.482-.625.467.664.799 1.48.799 2.47v5.065h.79v-5.16c0-.637.37-1.575 1.03-2.747.489.266.946.397 1.392.397 1.452 0 2.396-1.403 3.396-2.889.892-1.325 1.904-2.828 3.41-3.606l.733-.38-.753-.34c-1.191-.537-2.378-.81-3.53-.81zm-8.75 7.827c-.714 0-1.46-.727-2.322-1.568-.816-.796-1.722-1.68-2.856-2.2.922-.541 1.867-.815 2.816-.815 1.905 0 3.345 1.133 3.783 2.252.113.29.23.77.039 1.25-.71-.727-1.49-1.224-1.975-1.533-.142-.09-.264-.168-.346-.227l-.458.65c.1.072.23.156.383.252.5.319 1.259.802 1.914 1.497-.341.297-.662.442-.978.442zm8.236-3.14c-.917 1.363-1.71 2.54-2.743 2.54-.304 0-.629-.094-.988-.286l.108-.173c.782-1.25 1.577-2.262 1.585-2.272l-.618-.497c-.068.086-.902 1.15-1.714 2.47-.478-.52-.62-1.262-.384-2.11.247-.891.885-1.774 1.75-2.421.694-.52 1.869-1.14 3.518-1.14.808 0 1.64.151 2.483.45-1.292.907-2.19 2.242-2.997 3.44z"/>
        <path d="M0 0h20v20H0z"/>
    </g>
</svg>
