<svg xmlns="http://www.w3.org/2000/svg" width="20" height="20" viewBox="0 0 20 20">
    <g fill="#4A4A4A" fill-rule="nonzero">
        <path d="M12.003 8.078C9.664 5.743 8.4 5.275 7.564 4.964c-.353-.13-.566-.21-.746-.39-.156-.155-.139-.283-.07-.351.078-.078.191-.055.31.064.02.02.041.037.064.052.412.378.944.586 1.508.586a2.226 2.226 0 0 0 1.578-3.801C9.303.22 7.971-.137 6.458.12c-1.462.248-2.929 1.045-4.13 2.243C1.129 3.56.33 5.025.082 6.483c-.257 1.511.1 2.84 1.005 3.744.87.868 2.286.868 3.156 0a2.226 2.226 0 0 0 .01-3.139c-.12-.119-.143-.232-.064-.31.068-.068.197-.086.353.07.179.18.258.392.39.745.31.834.78 2.096 3.12 4.43a.404.404 0 0 0 .573 0l3.38-3.373a.404.404 0 0 0 0-.572zM8.34 11.163C6.372 9.139 5.964 8.045 5.691 7.31c-.147-.392-.273-.731-.577-1.035-.252-.251-.536-.356-.8-.356a.994.994 0 0 0-.7.286c-.34.34-.432.938.043 1.432a1.417 1.417 0 0 1 .011 2.017 1.424 1.424 0 0 1-2.008 0C.945 8.942.669 7.864.88 6.619c.221-1.295.94-2.603 2.022-3.684C3.985 1.855 5.296 1.138 6.593.918 7.84.706 8.92.982 9.635 1.695a1.417 1.417 0 0 1-1.005 2.42c-.38 0-.736-.147-1.004-.415a.408.408 0 0 0-.07-.056c-.484-.418-1.053-.322-1.382.007-.346.345-.439.987.07 1.496.305.304.645.43 1.038.576.736.273 1.832.68 3.86 2.643l-2.803 2.797zM19.892 14.193c-.211-1.239-.888-2.48-1.906-3.497-1.018-1.016-2.263-1.691-3.504-1.902-1.293-.22-2.432.086-3.208.86a1.935 1.935 0 0 0 1.371 3.305c.51 0 .991-.195 1.356-.551l.007-.007c.046-.046.092-.073.126-.073.02-.002.035.01.044.019a.08.08 0 0 1 .023.058c-.001.042-.03.094-.083.146-.163.163-.484.342-.89.568-.978.545-2.458 1.369-4.41 3.318a.404.404 0 0 0 0 .572l2.84 2.834a.405.405 0 0 0 .573 0c1.952-1.949 2.778-3.426 3.324-4.403.226-.405.405-.725.569-.888.081-.08.16-.103.204-.059.05.05-.012.128-.054.17a.407.407 0 0 0-.049.058 1.92 1.92 0 0 0-.506 1.305c0 .517.201 1.003.568 1.369a1.944 1.944 0 0 0 2.742 0c.776-.775 1.082-1.912.863-3.202zm-1.436 2.63c-.44.439-1.156.439-1.596 0a1.118 1.118 0 0 1-.33-.797c0-.3.117-.584.33-.796a.407.407 0 0 0 .053-.067c.37-.431.278-.953-.011-1.242-.314-.313-.894-.398-1.352.06-.243.242-.436.587-.703 1.065-.497.89-1.235 2.209-2.906 3.936l-2.26-2.257c1.73-1.667 3.052-2.404 3.943-2.9.478-.266.824-.459 1.068-.702.458-.457.372-1.036.059-1.348-.301-.301-.854-.388-1.296.034a1.131 1.131 0 0 1-1.608.011 1.118 1.118 0 0 1-.33-.796c0-.301.117-.584.33-.797.585-.584 1.472-.81 2.499-.635 1.077.183 2.166.778 3.066 1.677.9.898 1.497 1.985 1.68 3.06.175 1.024-.051 1.91-.636 2.494z"/>
    </g>
</svg>
