<svg xmlns="http://www.w3.org/2000/svg" width="20" height="20" viewBox="0 0 20 20">
    <g fill="#4A4A4A" fill-rule="nonzero">
        <path d="M18.91 1.728h-.024V1.36C18.886.61 18.231 0 17.425 0H4.06C3.254 0 2.6.61 2.6 1.36v.368h-.024c-.6 0-1.09.455-1.09 1.015v.367h-.023C.656 3.11 0 3.72 0 4.47v2.765c0 .75.656 1.361 1.462 1.361h8.167c.422 0 .765.32.765.713v.713H10c-.601 0-1.09.455-1.09 1.015v7.257c0 .94.822 1.706 1.832 1.706 1.011 0 1.833-.765 1.833-1.706v-7.257c0-.56-.489-1.015-1.09-1.015h-.395v-.713c0-.75-.655-1.36-1.461-1.36H1.462c-.422 0-.766-.32-.766-.714V4.471c0-.393.344-.713.766-.713h.023v.367c0 .56.49 1.015 1.09 1.015H2.6v.368c0 .75.655 1.36 1.461 1.36h13.365c.806 0 1.461-.61 1.461-1.36V5.14h.024c.6 0 1.09-.455 1.09-1.015V2.743c0-.56-.49-1.015-1.09-1.015zm-8.168 17.624c-.626 0-1.136-.475-1.136-1.058v-6.242h2.273v6.242c0 .583-.51 1.058-1.137 1.058zm1.137-8.315v.367H9.606v-.367c0-.203.177-.367.394-.367h1.485c.217 0 .394.164.394.367zM2.575 4.492c-.217 0-.394-.164-.394-.367V2.743c0-.202.177-.367.394-.367H2.6v2.116h-.024zM18.19 5.508c0 .393-.343.712-.765.712H4.06c-.422 0-.765-.32-.765-.712V1.36c0-.393.343-.713.765-.713h13.365c.422 0 .765.32.765.713v4.147zm1.114-1.383c0 .203-.177.367-.394.367h-.024V2.376h.024c.217 0 .394.165.394.367v1.382z"/>
        <path d="M10.742 17.97a.362.362 0 0 0-.245.095.313.313 0 0 0-.103.229c0 .085.038.169.103.229a.363.363 0 0 0 .491 0 .315.315 0 0 0 .102-.23.314.314 0 0 0-.102-.228.363.363 0 0 0-.246-.095z"/>
    </g>
</svg>
