<svg xmlns="http://www.w3.org/2000/svg" width="20" height="20" viewBox="0 0 20 20">
    <g fill="#4A4A4A" fill-rule="nonzero">
        <path d="M18.333 0h-.666c-.402 0-1 .266-1 1s.598 1 1 1l.312-.003C17.987 2 18 2.013 18 2v8.333a.333.333 0 1 0 .667 0V2A.693.693 0 0 0 18 1.333h-.33c-.153-.004-.337-.065-.337-.333s.184-.33.334-.333h.666c.552 0 1 .448 1 1v17.666h-6.862l-2.235-2.235a.333.333 0 0 0-.472 0L7.53 19.333H.667V1.667c0-.552.448-1 1-1h.662c.154.004.338.065.338.333s-.184.33-.334.333H2A.693.693 0 0 0 1.333 2v8.333a.333.333 0 1 0 .667 0l-.003-8.311C2 2.014 2.013 2 2 2h.333c.402 0 1-.266 1-1s-.598-1-1-1h-.666C.747 0 0 .748 0 1.667v18c0 .184.149.333.333.333h7.334a.332.332 0 0 0 .235-.098L10 17.805l2.098 2.097a.332.332 0 0 0 .235.098h7.334c.184 0 .333-.15.333-.333v-18C20 .747 19.252 0 18.333 0z"/>
        <path d="M18.333 11.333H1.667a.333.333 0 1 0 0 .667h16.666a.333.333 0 1 0 0-.667zM17 12.667h-4.667c-.919 0-1.666.747-1.666 1.666v2c0 .089.035.174.097.236l2 2a.332.332 0 0 0 .236.098h4c.919 0 1.667-.748 1.667-1.667v-2.667c0-.919-.748-1.666-1.667-1.666zM18 17c0 .551-.449 1-1 1h-3.862l-1.805-1.805v-1.862c0-.551.449-1 1-1H17c.551 0 1 .449 1 1V17zM3 12.667c-.919 0-1.667.747-1.667 1.666V17c0 .919.748 1.667 1.667 1.667h4a.332.332 0 0 0 .236-.098l2-2a.333.333 0 0 0 .097-.236v-2c0-.919-.747-1.666-1.666-1.666H3zm5.667 1.666v1.862L6.862 18H3c-.551 0-1-.449-1-1v-2.667c0-.551.449-1 1-1h4.667c.551 0 1 .449 1 1z"/>
    </g>
</svg>
