<svg xmlns="http://www.w3.org/2000/svg" width="20" height="20" viewBox="0 0 20 20">
    <g fill="#4A4A4A" fill-rule="nonzero">
        <path d="M19.936 10.606c-.028-.091-.732-2.276-4.713-6.084S8.958.042 8.863.014a.378.378 0 0 0-.448.2L.102 18.517a.345.345 0 0 0 .078.395.385.385 0 0 0 .413.075l3.936-1.636v.253c0 .69.586 1.25 1.307 1.25.72 0 1.306-.56 1.306-1.25v-1.339l1.493-.62v3.03c0 .69.586 1.25 1.306 1.25.72 0 1.306-.56 1.306-1.25v-4.116l8.48-3.524a.353.353 0 0 0 .209-.428zm-9.21 3.39a.357.357 0 0 0-.225.328v4.35a.549.549 0 0 1-.56.536.549.549 0 0 1-.56-.536V15.1a.353.353 0 0 0-.168-.299.385.385 0 0 0-.354-.029l-2.239.93a.357.357 0 0 0-.225.328v1.573a.549.549 0 0 1-.56.536.549.549 0 0 1-.56-.536v-.797a.353.353 0 0 0-.168-.299.388.388 0 0 0-.353-.029l-3.59 1.492L7.807 3.344c.336-.038 1.27-.047 2.128.857.488.515.74.964.96 1.361.317.567.59 1.056 1.361 1.217l.187.038c.94.193 1.683.344 2.36 1.44.257.416.491.879.718 1.327.398.784.754 1.483 1.201 1.92l-5.997 2.493zm6.763-2.81c-.448-.24-.88-1.09-1.296-1.914-.234-.46-.475-.937-.748-1.378C14.602 6.53 13.584 6.32 12.6 6.12l-.183-.038c-.418-.087-.558-.31-.862-.855-.23-.412-.516-.925-1.066-1.505-.84-.884-1.757-1.081-2.352-1.1l.82-1.807c.724.305 2.714 1.32 5.74 4.213 3.006 2.876 4.079 4.794 4.402 5.49l-1.609.669z"/>
        <path d="M8.262 7.43c-1.03 0-1.867.8-1.867 1.784S7.233 11 8.262 11s1.866-.8 1.866-1.785c0-.984-.838-1.785-1.866-1.785zm0 2.855c-.618 0-1.12-.48-1.12-1.07 0-.592.502-1.072 1.12-1.072.617 0 1.12.48 1.12 1.071 0 .59-.503 1.071-1.12 1.071zM5.649 12.07c-.823 0-1.493.64-1.493 1.428 0 .788.67 1.428 1.493 1.428.823 0 1.493-.64 1.493-1.428 0-.787-.67-1.428-1.493-1.428zm0 2.142c-.412 0-.747-.32-.747-.714 0-.394.335-.714.747-.714s.746.32.746.714c0 .394-.334.714-.746.714zM12.927 8.143c-1.132 0-2.053.881-2.053 1.964 0 1.082.92 1.963 2.053 1.963 1.132 0 2.052-.88 2.052-1.963 0-1.083-.92-1.964-2.052-1.964zm0 3.213c-.72 0-1.306-.56-1.306-1.25 0-.688.586-1.249 1.306-1.249.72 0 1.306.56 1.306 1.25 0 .689-.586 1.25-1.306 1.25z"/>
    </g>
</svg>
