<svg xmlns="http://www.w3.org/2000/svg" width="20" height="20" viewBox="0 0 20 20">
    <g fill="#4A4A4A" fill-rule="nonzero">
        <path d="M9.909 5.28h.094c1.108 0 2.31-.624 3.063-1.59.776-.997 1.129-2.192.968-3.28a.48.48 0 0 0-.51-.409c-1.092.077-2.328.74-3.076 1.652-.813.991-1.186 2.2-.997 3.232a.48.48 0 0 0 .458.394zm1.283-3.017c.463-.565 1.214-1.032 1.918-1.22-.034.957-.553 1.735-.803 2.056-.486.623-1.232 1.072-1.945 1.19.014-.952.621-1.772.83-2.026z"/>
        <path d="M18.321 14.508a.48.48 0 0 0-.274-.265c-1.98-.746-2.6-2.892-2.04-4.452.278-.774.824-1.403 1.579-1.82a.48.48 0 0 0 .143-.72c-1.003-1.253-2.43-2-3.816-2-.97 0-1.627.248-2.206.468-.427.162-.796.302-1.218.302-.468 0-.894-.153-1.388-.33-.577-.207-1.23-.44-2.048-.44-1.576 0-3.172.952-4.168 2.486-.368.571-.626 1.276-.768 2.097-.397 2.335.276 5.117 1.803 7.442.865 1.317 1.956 2.664 3.482 2.677h.031c.636 0 1.064-.191 1.477-.376.438-.195.85-.38 1.598-.383h.025c.733 0 1.133.183 1.556.377.406.186.825.379 1.46.379h.028c1.496-.013 2.628-1.43 3.54-2.816.56-.859.774-1.297 1.199-2.244a.481.481 0 0 0 .005-.382zm-2.008 2.099c-.726 1.104-1.695 2.372-2.745 2.381h-.02c-.424 0-.704-.128-1.058-.29-.452-.208-1.014-.466-1.957-.466h-.03c-.95.005-1.524.261-1.985.467-.365.163-.654.292-1.085.292h-.022c-1.08-.009-2.004-1.203-2.688-2.242-1.396-2.128-2.016-4.652-1.658-6.753.12-.691.33-1.276.628-1.736.82-1.264 2.107-2.048 3.36-2.048.65 0 1.172.186 1.724.384.53.19 1.077.386 1.712.386.599 0 1.087-.185 1.559-.364.527-.2 1.071-.406 1.865-.406.945 0 1.927.455 2.706 1.237a4.25 4.25 0 0 0-1.516 2.017 4.477 4.477 0 0 0 2.137 5.469 11.27 11.27 0 0 1-.927 1.672z"/>
    </g>
</svg>
