<svg xmlns="http://www.w3.org/2000/svg" width="20" height="20" viewBox="0 0 20 20">
    <g fill="none" fill-rule="evenodd">
        <path fill="#4A4A4A" fill-rule="nonzero" d="M18.2 9.29c-.07-4.247-3.24-7.256-7.835-7.539V.513A.511.511 0 0 0 9.858 0a.51.51 0 0 0-.507.513v1.222c-4.868.126-8.243 3.254-8.243 7.703 0 .284.225.513.506.513h7.737v6.638c0 1.836 1.476 3.331 3.291 3.331s3.29-1.495 3.29-3.33a.51.51 0 0 0-.506-.514.51.51 0 0 0-.506.513c0 1.272-1.023 2.305-2.278 2.305-1.254 0-2.277-1.033-2.277-2.305V9.951h7.351a.51.51 0 0 0 .485-.66zM2.137 8.926C2.394 5.263 5.41 2.748 9.65 2.748c4.244 0 7.26 2.513 7.519 6.177H2.136zm9.627-3.003a.51.51 0 0 1-.506.513h-1.1v1.11a.51.51 0 0 1-.506.513.51.51 0 0 1-.506-.513v-1.11H8.05a.51.51 0 0 1-.507-.513.51.51 0 0 1 .507-.513h1.095V4.297c0-.282.228-.513.506-.513a.51.51 0 0 1 .507.513V5.41h1.099a.51.51 0 0 1 .506.513z"/>
        <path d="M0 0h20v20H0z"/>
    </g>
</svg>
