<svg xmlns="http://www.w3.org/2000/svg" width="20" height="20" viewBox="0 0 20 20">
    <g fill="none" fill-rule="evenodd">
        <path fill="#4A4A4A" fill-rule="nonzero" d="M15.13 5.508l-.414-.029.147-2.074a1.233 1.233 0 0 0-.748-1.228l.035-.49a1.242 1.242 0 0 0-.302-.905 1.236 1.236 0 0 0-.854-.428L8.016.002c-.673-.034-1.284.47-1.332 1.156l-.036.5a1.251 1.251 0 0 0-.91 1.1L5.59 4.833l-.416-.03a.411.411 0 0 0-.444.386.415.415 0 0 0 .385.444l.416.03-.176 2.489-.416-.03a.416.416 0 0 0-.06.83l.417.03-.177 2.49-.415-.03a.416.416 0 1 0-.06.83l.416.03-.176 2.487-.415-.03a.415.415 0 1 0-.06.83l.416.03-.265 3.734a.416.416 0 0 0 .386.444l2.364.166h5.992c.218 0 .399-.169.416-.387l.234-3.31.414.029h.03a.416.416 0 0 0 .03-.83l-.415-.03.176-2.488.414.03h.03a.415.415 0 0 0 .029-.83l-.414-.03.176-2.489.414.03h.03a.415.415 0 0 0 .03-.83l-.415-.03.176-2.488.415.03h.03a.416.416 0 0 0 .029-.83zM7.514 1.217a.41.41 0 0 1 .142-.285.405.405 0 0 1 .302-.1l4.978.352a.41.41 0 0 1 .284.142c.074.084.11.19.102.302l-.03.415-3.796-.27-2.012-.142.03-.414zm2.143 16.827L9.58 19.13h-.833l.08-1.144a.412.412 0 0 1 .444-.386.41.41 0 0 1 .285.142c.073.083.109.19.101.302zm3.258 1.086h-2.5l.072-1.027a1.25 1.25 0 0 0-1.157-1.333 1.254 1.254 0 0 0-1.333 1.157l-.085 1.204H7.34l-1.92-.136.236-3.32 1.242.09h.018l2.472.175.002.001H9.4l2.478.176h.006l1.239.088-.209 2.925zm.266-3.754l-.83-.06.088-1.244a.416.416 0 1 0-.83-.058l-.088 1.244-1.66-.119.09-1.244a.415.415 0 1 0-.83-.058l-.088 1.243-1.66-.118.089-1.244a.416.416 0 0 0-.385-.444.413.413 0 0 0-.444.386l-.089 1.245-.83-.06.177-2.487 7.467.53-.177 2.488zm.235-3.319l-.83-.059.089-1.244a.416.416 0 1 0-.83-.058l-.088 1.244-1.66-.117.09-1.245a.415.415 0 1 0-.83-.058l-.089 1.244-1.659-.118.088-1.244a.416.416 0 1 0-.83-.058l-.087 1.244-.831-.06.176-2.49 1.241.09h.024l4.957.352h.001l1.243.088-.175 2.49zm.235-3.32l-.83-.058.09-1.244a.415.415 0 1 0-.83-.059l-.088 1.245-1.66-.118.09-1.244a.415.415 0 1 0-.83-.058l-.088 1.244-1.659-.117.088-1.244a.416.416 0 0 0-.385-.444.412.412 0 0 0-.446.385l-.088 1.243-.83-.06.176-2.488 6.22.442h.008l1.239.088-.177 2.488zm.383-5.39l-.147 2.073-.83-.059.089-1.244a.415.415 0 1 0-.83-.058l-.088 1.243-1.66-.118.09-1.244a.417.417 0 0 0-.83-.059l-.09 1.246-1.66-.119.089-1.245a.416.416 0 1 0-.83-.058L7.249 4.95l-.83-.058.147-2.073a.41.41 0 0 1 .142-.285.39.39 0 0 1 .302-.1l6.637.47a.41.41 0 0 1 .284.142c.074.083.11.19.102.302z"/>
        <path d="M0 0h20v20H0z"/>
    </g>
</svg>
