<svg xmlns="http://www.w3.org/2000/svg" width="20" height="20" viewBox="0 0 20 20">
    <g fill="#4A4A4A" fill-rule="nonzero">
        <path d="M1 7.367a.3.3 0 0 0-.3.3V19a.3.3 0 0 0 .3.3h18a.3.3 0 0 0 .3-.3V7.667a.3.3 0 0 0-.3-.3H1zm0-.7h18a1 1 0 0 1 1 1V19a1 1 0 0 1-1 1H1a1 1 0 0 1-1-1V7.667a1 1 0 0 1 1-1z"/>
        <path d="M2.7 17.395h14.6V9.271H2.7v8.124zM2 8.571h16v9.524H2V8.571zM10 3.3a1.3 1.3 0 1 0 0-2.6 1.3 1.3 0 0 0 0 2.6zm1.24.269C10.9 3.839 10.47 4 10 4s-.9-.161-1.24-.431a.355.355 0 0 1-.019.018l-3.5 3.333a.35.35 0 0 1-.482-.507l3.5-3.333a.353.353 0 0 1 .038-.032 2 2 0 1 1 3.407 0c.013.01.025.02.037.032l3.5 3.333a.35.35 0 0 1-.482.507l-3.5-3.333a.355.355 0 0 1-.018-.018z"/>
        <path d="M.505 7.631l1.921 1.83.483-.507-1.921-1.83zM17.505 18.107l1.921 1.83.483-.507-1.921-1.83zM19.533 7.126l-2.026 1.72.453.534 2.026-1.72zM2.533 17.602l-2.026 1.72.453.534 2.026-1.72z"/>
    </g>
</svg>
