<svg xmlns="http://www.w3.org/2000/svg" width="20" height="20" viewBox="0 0 20 20">
    <g fill="#4A4A4A" fill-rule="nonzero">
        <path d="M19.933 13.944a1.278 1.278 0 0 0-1.183-.904c-1.28-.038-2.796.432-4.51 1.397a6.336 6.336 0 0 1-1.295.552c.218-.27.382-.605.483-.998.12-.465.025-.95-.261-1.33a1.47 1.47 0 0 0-1.183-.596H7.647c-.704 0-1.337.24-1.95.47l-.115.044c-1.89.711-3.982 1.74-4.875 2.18-.206.1-.4.196-.441.213a.43.43 0 0 0-.249.28.442.442 0 0 0 .06.372l2.868 4.163a.42.42 0 0 0 .565.12c2.243-1.396 2.822-1.216 3.873-.89.494.154 1.11.346 1.992.413 1.829.141 3.629-.302 4.704-.566.157-.039.3-.074.426-.103a2.763 2.763 0 0 0 1.095-.53l3.89-2.826a1.323 1.323 0 0 0 .443-1.461zm-.942.762l-3.888 2.824a1.919 1.919 0 0 1-.784.387c-.13.03-.276.065-.437.105-1.028.252-2.747.675-4.443.545-.79-.061-1.332-.23-1.81-.378-.564-.175-1.097-.341-1.804-.238-.651.095-1.406.409-2.414 1.01l-2.352-3.415.014-.007c.882-.434 2.95-1.45 4.801-2.147l.116-.044c.568-.215 1.104-.417 1.657-.417h4.337c.202 0 .39.094.513.258a.678.678 0 0 1 .113.58c-.203.789-.716 1.172-1.57 1.172-.432 0-.865.03-.994.384a.48.48 0 0 0 .14.525c.44.39 2.522.439 4.461-.654 1.58-.89 2.952-1.324 4.078-1.29.286.008.383.239.405.31.023.069.079.309-.139.49zM10 .03c-2.933 0-5.32 2.443-5.32 5.446 0 3.004 2.387 5.447 5.32 5.447 2.933 0 5.319-2.443 5.319-5.447 0-3.003-2.386-5.446-5.32-5.446zm0 10.027c-2.467 0-4.473-2.055-4.473-4.58C5.527 2.95 7.533.895 10 .895c2.466 0 4.473 2.055 4.473 4.58 0 2.526-2.007 4.581-4.473 4.581z"/>
        <path d="M10 5.043a.733.733 0 0 1-.723-.74c0-.408.324-.74.723-.74.398 0 .723.332.723.74 0 .24.19.433.423.433a.428.428 0 0 0 .423-.433c0-.736-.486-1.357-1.146-1.547v-.603c0-.24-.19-.433-.423-.433a.428.428 0 0 0-.423.433v.603c-.66.19-1.146.811-1.146 1.547 0 .886.704 1.606 1.569 1.606.398 0 .723.333.723.74 0 .41-.324.741-.723.741a.733.733 0 0 1-.723-.74c0-.24-.19-.433-.423-.433a.428.428 0 0 0-.423.433c0 .736.486 1.357 1.146 1.546V8.8c0 .24.19.433.423.433a.428.428 0 0 0 .423-.433v-.604c.66-.189 1.146-.81 1.146-1.546 0-.886-.704-1.607-1.57-1.607z"/>
    </g>
</svg>
