<svg xmlns="http://www.w3.org/2000/svg" width="20" height="20" viewBox="0 0 20 20">
    <g fill="none" fill-rule="evenodd">
        <path fill="#4A4A4A" fill-rule="nonzero" d="M19.706 8.293c-1.45-2.631-4.244-4.265-7.293-4.265H7.549C4.5 4.028 1.706 5.662.256 8.293a2.006 2.006 0 0 0 .065 2.069c.043.068.1.136.166.2a1.4 1.4 0 0 0 1.246.367l.058-.013c-.084.387-.13.789-.13 1.2v1.075c0 1.219 1.015 2.21 2.262 2.21H16.04c1.246 0 2.26-.991 2.26-2.21v-1.074c0-.414-.044-.817-.13-1.206l.032.008c.445.093.91-.031 1.24-.33.092-.083.165-.17.218-.257.386-.63.403-1.393.047-2.04zM6.115 4.83l1.353 1.535a5.942 5.942 0 0 0-3.674 1.324l-1.707-.725A7.641 7.641 0 0 1 6.115 4.83zM2.134 9.86l-.001-.002a.721.721 0 0 1-.53.415.707.707 0 0 1-.634-.184.452.452 0 0 1-.067-.079 1.358 1.358 0 0 1-.044-1.4c.22-.4.473-.772.756-1.118l1.64.695a5.76 5.76 0 0 0-1.12 1.673zm4.293 4.873H3.923c-.87 0-1.578-.692-1.578-1.542v-1.074c0-2.428 1.75-4.463 4.082-4.966v7.582zm6.424 0h-5.74V7.05c.144-.012.29-.018.438-.018h4.864c.147 0 .294.006.438.018v7.683zm-.438-8.369H8.37L6.92 4.722c.208-.017.417-.026.628-.026h4.864c.123 0 .246.004.368.01l.326 1.698a6.06 6.06 0 0 0-.694-.04zm5.015.184l-.34 2.076a5.913 5.913 0 0 0-3.26-2.092l-.339-1.761a7.662 7.662 0 0 1 3.94 1.777zm.188 6.643c0 .85-.707 1.542-1.577 1.542h-2.504V7.151c2.331.503 4.081 2.538 4.081 4.966v1.074zm1.456-3.201a.717.717 0 0 1-.73.276.711.711 0 0 1-.515-.411v.002a5.661 5.661 0 0 0-.187-.385l.386-2.35a7.48 7.48 0 0 1 1.078 1.487c.241.438.23.954-.032 1.381z"/>
        <path d="M0 0h20v20H0z"/>
    </g>
</svg>
