<svg xmlns="http://www.w3.org/2000/svg" width="20" height="20" viewBox="0 0 20 20">
    <g fill="none" fill-rule="evenodd">
        <path fill="#4A4A4A" fill-rule="nonzero" d="M19.99 7.055a.335.335 0 0 0-.017-.177c-.003-.008-.004-.017-.008-.024-.002-.006-.007-.01-.01-.016s-.004-.012-.008-.017l-3.333-5.334a.342.342 0 0 0-.054-.065V1.42a.328.328 0 0 0-.1-.062c-.004-.002-.007-.006-.012-.008l-.012-.001a.327.327 0 0 0-.104-.02H3.665a.326.326 0 0 0-.103.02l-.011.001-.013.008a.332.332 0 0 0-.095.058l-.006.004a.335.335 0 0 0-.054.066L.049 6.82l-.007.018c-.003.005-.008.01-.01.015-.004.008-.005.016-.008.024a.33.33 0 0 0 .008.263l.007.019c.006.01.014.017.02.026.004.007.007.015.013.021l9.663 11.996.002.002.001.002.004.003a.327.327 0 0 0 .128.093.33.33 0 0 0 .128.029.337.337 0 0 0 .114-.02l.015-.01c.017-.007.03-.018.046-.028a.323.323 0 0 0 .068-.054c.005-.005.012-.007.016-.013l9.667-12c.005-.006.008-.014.013-.021.006-.009.014-.016.02-.026l.007-.019a.315.315 0 0 0 .015-.038c.004-.016.009-.031.012-.047zm-9.292-5.057h5.153l-1.62 4.348-3.533-4.348zm2.933 4.666H6.365l3.633-4.47 3.633 4.47zm-7.89-.289l-1.6-4.377h5.156L5.741 6.375zm8.123.956L9.94 17.866 6.09 7.331h7.775zm2.543-4.916l2.656 4.25h-4.239l1.583-4.25zM3.585 2.42l1.551 4.244H.933L3.585 2.42zM5.38 7.33l3.613 9.888-7.965-9.888H5.38zm5.417 10.143l3.779-10.143h4.392l-8.171 10.143z"/>
        <path d="M0 0h20v20H0z"/>
    </g>
</svg>
