<svg xmlns="http://www.w3.org/2000/svg" width="20" height="20" viewBox="0 0 20 20">
    <g fill="none" fill-rule="evenodd">
        <path fill="#4A4A4A" fill-rule="nonzero" d="M19 1.474a.473.473 0 0 0-.516-.472c-6.187.56-11.18.755-16.949.002a.474.474 0 0 0-.535.47c0 1.235.792 2.285 1.895 2.676v1.113h-.948a.474.474 0 0 0-.473.474v2.368c0 .262.211.474.473.474h.474v7.706A2.132 2.132 0 0 0 1 18.283c0 .395.322.717.717.717h4.725a.718.718 0 0 0 .716-.717c0-.907-.588-1.704-1.421-1.998V8.58h8.526v7.706a2.132 2.132 0 0 0-1.42 1.998c0 .395.32.717.716.717h4.725a.718.718 0 0 0 .716-.717c0-.907-.588-1.704-1.421-1.998V8.58h.474a.474.474 0 0 0 .473-.474V5.737a.474.474 0 0 0-.473-.474h-.948V4.15A2.844 2.844 0 0 0 19 1.474zM17.579 6.21v1.42h-.474a.474.474 0 0 0-.473.474v8.55c0 .236.173.436.407.469.5.07.892.452.99.928h-4.216c.098-.476.49-.858.99-.928a.474.474 0 0 0 .408-.47V8.106a.474.474 0 0 0-.474-.473H5.263a.474.474 0 0 0-.474.473v8.55c0 .236.174.436.408.469.5.07.892.452.99.928H1.97c.098-.476.49-.858.99-.928a.474.474 0 0 0 .407-.47V8.106a.474.474 0 0 0-.473-.473H2.42V6.21h.947a.474.474 0 0 0 .474-.474V4.316h.947v1.42c0 .262.212.475.474.475h9.474a.474.474 0 0 0 .474-.474V4.316h.947v1.42c0 .262.212.475.474.475h.947zM5.737 5.263v-.947h1.42v.947h-1.42zm2.368 0v-.947h3.316v.947H8.105zm4.263 0v-.947h1.895v.947h-1.895zm3.79-1.895H3.843c-.856 0-1.58-.568-1.815-1.348 5.414.652 10.188.483 15.95-.022a1.898 1.898 0 0 1-1.82 1.37z"/>
        <path d="M0 0h20v20H0z"/>
    </g>
</svg>
