<svg xmlns="http://www.w3.org/2000/svg" width="20" height="20" viewBox="0 0 20 20">
    <g fill="none" fill-rule="evenodd">
        <path fill="#4A4A4A" fill-rule="nonzero" d="M11.678 7.93c-.402.5-.26 1.13.086 1.477l.536.496c.602.606 1.353.208 1.558 0l2.338-2.319c.276-.279.543-1.023 0-1.574l-.535-.496c-.394-.397-1.083-.413-1.504-.051L10.973 2.31c.252-.318.441-.995-.063-1.503L10.375.31c-.41-.413-1.15-.413-1.559 0L6.478 2.629c-.507.512-.37 1.2 0 1.574l.536.496c.523.532 1.165.292 1.456.087l.586.575L0 14.354l1.968 1.988 9.088-9.021.622.61zm2.999-1.877c.114-.118.295-.118.452.044l.536.496a.278.278 0 0 1 0 .373l-2.338 2.319a.318.318 0 0 1-.453 0l-.535-.496c-.079-.079-.158-.256 0-.413l2.338-2.323zm-1.07-.043L12.22 7.388 9.072 4.25l1.393-1.41 3.141 3.17zM8.04 4.081a.318.318 0 0 1-.453 0l-.535-.495c-.079-.08-.157-.256 0-.414L9.391.854c.114-.118.295-.118.453.043l.535.496a.278.278 0 0 1 0 .374L8.04 4.081zm-6.03 11.104l-.862-.83L9.627 5.92l.854.838-8.47 8.427zM17.562 16.263v-2.196h-7.427v2.196H8.41v3.023h10.875v-3.023h-1.724zm-6.605-1.41h5.826v1.41h-5.826v-1.41zm7.55 3.602H9.233V17.09h9.272v1.365z"/>
        <path d="M0 0h20v20H0z"/>
    </g>
</svg>
