<svg xmlns="http://www.w3.org/2000/svg" width="20" height="20" viewBox="0 0 20 20">
    <g fill="none" fill-rule="evenodd">
        <path d="M0 0h20v20H0z"/>
        <g fill="#4A4A4A" fill-rule="nonzero">
            <path d="M15.667 11.018c-.92 0-1.667.748-1.667 1.667s.748 1.666 1.667 1.666 1.666-.747 1.666-1.666c0-.92-.747-1.667-1.666-1.667zm0 2.667a1.001 1.001 0 0 1 0-2 1.001 1.001 0 0 1 0 2zM4.667 11.018c-.92 0-1.667.748-1.667 1.667s.748 1.666 1.667 1.666 1.666-.747 1.666-1.666c0-.92-.747-1.667-1.666-1.667zm0 2.667a1.001 1.001 0 0 1 0-2 1.001 1.001 0 0 1 0 2z"/>
            <path d="M19.902 10.782l-.235-.235V8.35a.333.333 0 0 0-.334-.333h-5.666v-2.66a.333.333 0 0 0-.331-.333c-5.692-.042-6.87.709-8.857 3.033C2.184 8.26.462 9.268.34 10.54l-.242.242a.333.333 0 0 0-.098.236v.667c0 .088.035.173.098.235l.235.236v.529c0 .184.15.333.334.333H2c.184 0 .333-.15.333-.333a2.336 2.336 0 0 1 2.334-2.334A2.336 2.336 0 0 1 7 12.685c0 .184.15.333.333.333H13c.184 0 .333-.15.333-.333a2.336 2.336 0 0 1 2.334-2.334A2.336 2.336 0 0 1 18 12.685c0 .184.15.333.333.333h1a.333.333 0 0 0 .236-.098l.333-.333a.333.333 0 0 0 .098-.236v-1.333a.332.332 0 0 0-.098-.236zm-9.569-5.005A32.957 32.957 0 0 1 13 5.69v2.328h-2.667v-2.24zm-.666.068v2.173H5.398C6.5 6.792 7.432 6.122 9.667 5.845zm9.666 6.368l-.138.138h-.547a3.004 3.004 0 0 0-2.981-2.666 3.004 3.004 0 0 0-2.982 2.666H7.648a3.004 3.004 0 0 0-2.981-2.666 3.004 3.004 0 0 0-2.982 2.666H1v-.333a.333.333 0 0 0-.098-.236l-.235-.235v-.39l.235-.237A.333.333 0 0 0 1 10.685a.89.89 0 0 1 .066-.32l.608-.014a.334.334 0 0 0 .326-.34.34.34 0 0 0-.34-.326h-.045c.724-.567 2.041-1 3.718-1H19v.666h-.334a.333.333 0 0 0 0 .667H19v.667c0 .088.035.173.097.235l.236.236v1.057z"/>
        </g>
    </g>
</svg>
