<svg xmlns="http://www.w3.org/2000/svg" width="20" height="20" viewBox="0 0 20 20">
    <g fill="none" fill-rule="evenodd">
        <path d="M0 0h20v20H0z"/>
        <path fill="#4A4A4A" fill-rule="nonzero" d="M5 .7a.3.3 0 0 0-.3.3v18a.3.3 0 0 0 .3.3h10.174a.3.3 0 0 0 .3-.3V1a.3.3 0 0 0-.3-.3H5zM5 0h10.174a1 1 0 0 1 1 1v18a1 1 0 0 1-1 1H5a1 1 0 0 1-1-1V1a1 1 0 0 1 1-1z"/>
        <path fill="#4A4A4A" fill-rule="nonzero" d="M6.44 3.309v11.643h7.295V3.31H6.439zm-.7-.7h8.695v13.043H5.739V2.61zM10.087 18.622c-.674 0-1.22-.55-1.22-1.225 0-.676.546-1.225 1.22-1.225.674 0 1.22.549 1.22 1.225s-.546 1.225-1.22 1.225zm0-.7c.286 0 .52-.235.52-.525a.522.522 0 0 0-.52-.525.522.522 0 0 0-.52.525c0 .29.234.525.52.525z"/>
    </g>
</svg>
