<svg xmlns="http://www.w3.org/2000/svg" width="20" height="20" viewBox="0 0 20 20">
    <g fill="none" fill-rule="evenodd">
        <path fill="#4A4A4A" fill-rule="nonzero" d="M13.456 2.496l.012-.035c-.09-.034-2.246-.834-3.818.049a2.758 2.758 0 0 0-.332.223l-.421-1.71c-.934.237-1.79.63-2.548 1.141l.012-.034c-.09-.035-2.245-.834-3.818.048-.716.402-1.19 1.07-1.411 1.99-.247.267-.776.933-.75 1.723.011.35.142.86.697 1.315.16.131.252.256.26.352.015.185-.236.47-.437.7-.278.317-.566.645-.518 1.059 0 .055-.064.217-.11.335-.239.605-.638 1.617.442 3.01.44.567.413.943.386 1.342-.053.753.02 1.371 1.462 1.896.24.088.462.167.669.242 1.663.595 1.961.737 1.98 1.177.038.829 1.31 1.57 2.475 1.744.186.027.367.04.542.04 1.138 0 2.026-.578 2.473-1.606.062 0 .122.008.184.008.45 0 .905-.042 1.362-.12a.543.543 0 0 1 .072.266c.037.828 1.31 1.57 2.474 1.743.186.028.367.041.543.041 1.137 0 2.025-.579 2.472-1.607.062.002.123.008.184.008a8.12 8.12 0 0 0 2.002-.252l-3.992-16.23c-.934.238-1.789.63-2.548 1.142zm-3.336.885c.756-.426 1.772-.302 2.409-.158a8.41 8.41 0 0 0-2.258 3.383l-.68-2.762c.145-.19.32-.345.529-.463zm.264 13.107c-3.113-.218-5.755-2.441-6.523-5.562-.89-3.616 1.026-7.289 4.341-8.633l.34 1.382.379 1.54.88 3.579 1.276 5.188.46 1.873.15.609a6.866 6.866 0 0 1-1.304.025zM8.218 18.11c-1.062-.006-1.959-.642-2.028-.836-.05-1.145-.914-1.454-2.633-2.07l-.663-.238c-.858-.313-.849-.447-.818-.89.033-.462.082-1.159-.592-2.028-.73-.942-.513-1.492-.304-2.024.096-.243.196-.495.18-.763.042-.08.179-.235.271-.34.309-.352.73-.834.682-1.443-.031-.38-.24-.732-.621-1.044-.216-.177-.325-.365-.333-.572-.016-.44.393-.928.55-1.078l.115-.108.032-.156c.145-.708.459-1.188.957-1.469.757-.426 1.773-.302 2.41-.158a8.447 8.447 0 0 0-2.51 8.275c.829 3.369 3.56 5.74 6.736 6.236-.312.473-.794.714-1.431.706zm7.12.331h-.013c-1.063-.006-1.96-.642-2.028-.835-.024-.535-.227-.887-.61-1.173l-.182-.74a8.195 8.195 0 0 0 4.252 2.043c-.308.467-.782.705-1.419.705zm2.656-1.599c-2.467 0-4.691-1.264-6.007-3.256L10.793 8.73c.269-2.685 1.98-5.077 4.517-6.106l3.485 14.172c-.267.03-.534.045-.8.045z"/>
        <path fill="#4A4A4A" fill-rule="nonzero" d="M14.5 5.113c-.188-.097-.417-.058-.53.135-.103.174-.055.44.132.538.078.04.15.084.186.117.027.024.05.052.073.08-.008-.007.012.026.026.048 0 .007.023.067.024.071l.006.02a.148.148 0 0 0-.003.04l.001.031a1.068 1.068 0 0 1-.048.162c-.089.194-.062.42.132.538.167.102.44.06.53-.135.134-.292.207-.603.11-.922-.098-.325-.347-.57-.64-.723zM13.66 9.608c-.198.11-.236.337-.153.533.147.348.153.675-.059.993-.28.42.384.82.662.404.371-.556.324-1.181.074-1.775-.083-.197-.353-.25-.524-.155zM16.34 14.118c-.284.417.38.818.661.403.382-.562.219-1.21-.17-1.714-.13-.168-.404-.15-.545-.013-.164.159-.143.387-.013.555.195.253.24.514.066.769zM7.8 5.1a1.422 1.422 0 0 0-.408-.318c-.187-.098-.416-.058-.529.135-.103.174-.055.44.133.538.077.04.148.083.185.117.027.024.05.052.073.08-.008-.008.012.026.026.048 0 .006.023.067.024.071l.006.02a.148.148 0 0 0-.003.04l.001.031a1.071 1.071 0 0 1-.048.162c-.089.193-.062.42.133.538a.374.374 0 0 0 .159.048c.146.015.306-.043.37-.183.135-.292.208-.604.11-.922A1.097 1.097 0 0 0 7.8 5.1zM6.553 9.277c-.199.11-.236.336-.153.533.146.348.153.675-.059.993-.28.419.384.82.662.403a1.601 1.601 0 0 0 .267-.927 2.316 2.316 0 0 0-.194-.847c-.082-.197-.352-.25-.523-.155zM9.179 12.463c-.164.159-.143.387-.013.555.195.253.24.514.066.768a.434.434 0 0 0-.04.075.32.32 0 0 0 .005.271c.114.237.5.35.697.058.382-.563.219-1.21-.17-1.714-.13-.168-.404-.15-.545-.013z"/>
        <path d="M0 0h20v20H0z"/>
    </g>
</svg>
