<svg xmlns="http://www.w3.org/2000/svg" width="20" height="20" viewBox="0 0 20 20">
    <g fill="none" fill-rule="evenodd">
        <path d="M0 0h20v20H0z"/>
        <path fill="#4A4A4A" fill-rule="nonzero" d="M13.392 13.82H6.279a.313.313 0 0 1 0-.625h7.113a.313.313 0 0 1 0 .625z"/>
        <path fill="#4A4A4A" fill-rule="nonzero" stroke="#4A4A4A" stroke-width=".2" d="M4.587 15.512c-1.106 0-2.006-.899-2.006-2.005 0-1.106.9-2.005 2.006-2.005 1.106 0 2.005.9 2.005 2.005 0 1.106-.9 2.005-2.005 2.005zm0-3.385c-.761 0-1.38.62-1.38 1.38a1.381 1.381 0 1 0 1.38-1.38zM15.084 15.512c-1.105 0-2.005-.899-2.005-2.005 0-1.106.9-2.005 2.005-2.005 1.107 0 2.006.9 2.006 2.005 0 1.106-.9 2.005-2.006 2.005zm0-3.385a1.381 1.381 0 1 0 1.38 1.38c.001-.76-.618-1.38-1.38-1.38z"/>
        <path fill="#4A4A4A" fill-rule="nonzero" stroke="#4A4A4A" stroke-width=".2" d="M13.394 13.82H6.28a.313.313 0 0 1 0-.625h7.114a.313.313 0 0 1 0 .625z"/>
        <path fill="#4A4A4A" fill-rule="nonzero" stroke="#4A4A4A" stroke-width=".2" d="M18.02 13.82h-1.244a.313.313 0 0 1 0-.625h1.245c.479 0 .869-.39.869-.87V11.12c0-.445-.181-.88-.498-1.195l-1.401-1.393a.33.33 0 0 1-.064-.09l-1.15-2.488a1.426 1.426 0 0 0-1.29-.825H1.615a.991.991 0 0 0-.99.99v6.208c0 .48.39.87.869.87H2.89a.313.313 0 0 1 0 .625H1.494C.67 13.82 0 13.15 0 12.326V6.117c0-.89.724-1.614 1.615-1.614h12.872c.795 0 1.524.466 1.859 1.188l1.125 2.436 1.363 1.354c.433.43.682 1.028.682 1.638v1.207c-.001.824-.672 1.494-1.495 1.494z"/>
        <path fill="#4A4A4A" fill-rule="nonzero" stroke="#4A4A4A" stroke-width=".2" d="M13.436 9.524H4.434a.313.313 0 0 1 0-.625h9.002a.313.313 0 0 1 0 .625z"/>
    </g>
</svg>
