<svg xmlns="http://www.w3.org/2000/svg" width="20" height="20" viewBox="0 0 20 20">
    <g fill="none" fill-rule="evenodd">
        <path fill="#4A4A4A" fill-rule="nonzero" d="M13.165 15.987a.32.32 0 0 0-.32.32v2.312a.32.32 0 1 0 .639 0v-2.313a.32.32 0 0 0-.32-.319zM6.835 15.987a.32.32 0 0 0-.319.32v2.312a.32.32 0 1 0 .639 0v-2.313a.32.32 0 0 0-.32-.319z"/>
        <path fill="#4A4A4A" fill-rule="nonzero" stroke="#4A4A4A" stroke-width=".1" d="M19.984 14.929L16.632 4.884a.32.32 0 0 0-.605 0l-1.008 3.02-1.552-4.65a.32.32 0 0 0-.605 0l-.78 2.337-1.78-5.333a.32.32 0 0 0-.605 0L7.918 5.591l-.78-2.337a.32.32 0 0 0-.605 0L4.98 7.904l-1.008-3.02a.32.32 0 0 0-.605 0L.016 14.929a.32.32 0 0 0 .303.42h3.033v3.27a.32.32 0 1 0 .638 0v-3.27h5.69v3.27a.32.32 0 1 0 .64 0v-3.27h5.69v3.27a.32.32 0 1 0 .638 0v-3.27h3.033a.32.32 0 0 0 .303-.42zm-6.82-10.566l1.518 4.55-.746 2.235L12.418 6.6l.747-2.236zm-6.329 0L7.582 6.6l-1.518 4.55-.747-2.237 1.518-4.549zm-3.164 8.04a.32.32 0 0 0-.32.32v1.988H.763l2.909-8.718 2.056 6.164-.852 2.554H3.99v-1.988a.32.32 0 0 0-.32-.32zm6.648.558l1.641-1.76a.32.32 0 0 0-.467-.435l-1.174 1.26V9.528a.32.32 0 1 0-.638 0v2.476l-1.176-1.24a.32.32 0 0 0-.463.438l1.639 1.73v1.778H5.548L10 1.368l4.452 13.343h-4.133v-1.75zm6.33 1.75v-1.988a.32.32 0 1 0-.639 0v1.988h-.885l-.852-2.554 2.056-6.164 2.909 8.718h-2.59z"/>
        <path d="M0 0h20v20H0z"/>
    </g>
</svg>
