<svg xmlns="http://www.w3.org/2000/svg" width="20" height="20" viewBox="0 0 20 20">
    <g fill="none" fill-rule="evenodd">
        <path fill="#4A4A4A" fill-rule="nonzero" stroke="#4A4A4A" stroke-width=".1" d="M16.246 6.004c-1.435-1.13-3.468-.817-5.079-.418a4.004 4.004 0 0 1-.79.107 6.675 6.675 0 0 0-.16-.638l1.245-.185a3.618 3.618 0 0 0 3.062-3.063l.184-1.234a.33.33 0 0 0 .02-.133l.065-.44-1.807.269a3.619 3.619 0 0 0-3.063 3.063l-.108.727c-.37-.709-.9-1.329-1.634-1.72a.333.333 0 1 0-.314.588c1.018.543 1.58 1.64 1.825 2.744a3.956 3.956 0 0 1-.463-.085c-1.61-.399-3.644-.712-5.079.418-1.285 1.012-1.902 3.014-1.886 6.121.011 2.296 1.333 4.944 3.215 6.44 1.242.989 2.578 1.36 3.861 1.07a3.924 3.924 0 0 1 1.716 0c.284.064.57.095.857.095 1.012 0 2.037-.394 3.005-1.164 1.881-1.497 3.203-4.145 3.215-6.44.016-3.108-.601-5.11-1.887-6.122zM11.363 4.21l-.292.044 2.837-2.837-.044.292a2.954 2.954 0 0 1-2.5 2.501zM13.084.929l.434-.065-3 3 .065-.434A2.955 2.955 0 0 1 13.084.929zm1.419 17.115c-.752.599-1.934 1.249-3.3.94a4.581 4.581 0 0 0-2.01 0c-1.362.308-2.547-.341-3.299-.94-1.706-1.358-2.953-3.848-2.963-5.922-.015-2.889.519-4.718 1.632-5.594.942-.742 2.333-.833 4.507-.295.241.06.487.093.735.113.019.171.032.34.037.503.006.18.154.322.333.322h.01a.333.333 0 0 0 .323-.343 6.93 6.93 0 0 0-.033-.474c.287-.017.573-.052.852-.12 2.174-.538 3.564-.447 4.507.294 1.114.876 1.647 2.706 1.632 5.594-.01 2.074-1.257 4.564-2.963 5.922z"/>
        <path d="M0 0h20v20H0z"/>
    </g>
</svg>
