<svg xmlns="http://www.w3.org/2000/svg" width="22" height="22" viewBox="0 0 22 22">
    <g fill="#4A4A4A" fill-rule="nonzero" stroke="#4A4A4A" stroke-width=".2">
        <path d="M15.798 5.364l-11.92 5.47a.333.333 0 0 0 .084.632l5.277.884.603 4.984a.334.334 0 0 0 .63.108l5.764-11.628a.334.334 0 0 0-.438-.45zM10.37 16.146l-.499-4.123a.334.334 0 0 0-.276-.289l-4.454-.746L15.22 6.362l-4.85 9.784z"/>
        <path d="M11 1C5.486 1 1 5.486 1 11s4.486 10 10 10 10-4.486 10-10S16.514 1 11 1zm0 19.333c-5.146 0-9.333-4.187-9.333-9.333S5.854 1.667 11 1.667 20.333 5.854 20.333 11 16.146 20.333 11 20.333z"/>
    </g>
</svg>
