<svg xmlns="http://www.w3.org/2000/svg" width="20" height="20" viewBox="0 0 20 20">
    <g fill="none" fill-rule="evenodd">
        <path fill="#4A4A4A" fill-rule="nonzero" d="M7.738 14.97h-4.57a.452.452 0 1 0 0 .902h4.57a.452.452 0 1 0 0-.902zM14.57 14.97H10a.452.452 0 1 0 0 .902h4.57a.452.452 0 1 0 0-.902zM14.57 3.704H3.167a.452.452 0 1 0 0 .901H14.57a.452.452 0 1 0 0-.901zM14.57 5.957H10a.452.452 0 1 0 0 .902h4.57a.452.452 0 1 0 0-.902zM14.57 8.21H10a.452.452 0 1 0 0 .902h4.57a.452.452 0 1 0 0-.901zM14.57 10.464H10a.452.452 0 1 0 0 .901h4.57a.452.452 0 1 0 0-.901zM14.57 12.717H10a.452.452 0 1 0 0 .901h4.57a.452.452 0 1 0 0-.9zM7.738 12.717h-4.57a.452.452 0 1 0 0 .901h4.57a.452.452 0 1 0 0-.9zM7.738 5.957h-4.57a.452.452 0 0 0-.453.45v4.553c0 .248.203.45.452.45h4.57c.25 0 .453-.202.453-.45V6.408a.452.452 0 0 0-.452-.45zm-.453 4.552H3.62v-3.65h3.665v3.65z"/>
        <path fill="#4A4A4A" fill-rule="nonzero" d="M19.095 3.253h-1.357V1.901A.904.904 0 0 0 16.833 1H.905A.904.904 0 0 0 0 1.901v14.421a2.26 2.26 0 0 0 2.262 2.254h15.476A2.26 2.26 0 0 0 20 16.322V4.155a.904.904 0 0 0-.905-.902zm0 13.07c0 .745-.609 1.351-1.357 1.351H2.262a1.356 1.356 0 0 1-1.357-1.352V1.902h15.928v13.744a1.13 1.13 0 0 0 1.13 1.127.452.452 0 1 0 0-.901.226.226 0 0 1-.225-.226V4.155h1.357v12.167z"/>
        <path d="M0 0h20v20H0z"/>
    </g>
</svg>
