<svg xmlns="http://www.w3.org/2000/svg" width="20" height="20" viewBox="0 0 20 20">
    <g fill="none" fill-rule="evenodd">
        <path fill="#4A4A4A" fill-rule="nonzero" d="M6.741 8.79c1.584 0 2.872-1.73 2.872-3.855S8.325 1.081 6.741 1.081C5.158 1.08 3.87 2.81 3.87 4.935s1.288 3.854 2.872 3.854zm0-6.772c1.049 0 1.935 1.336 1.935 2.917 0 1.58-.886 2.917-1.935 2.917-1.048 0-1.934-1.336-1.934-2.917 0-1.58.885-2.917 1.934-2.917zM15.26 12.538c-.06-.08-.116-.155-.146-.22-.642-1.375-2.403-2.996-5.254-3.036h-.11c-2.808 0-4.555 1.534-5.254 2.971a1.113 1.113 0 0 1-.134.18c-.066.08-.132.16-.188.248-.59.919-.892 1.953-.847 2.912.046 1.019.472 1.836 1.198 2.303.293.188.61.283.94.283.686 0 1.312-.385 2.038-.832.461-.284.938-.578 1.468-.798.06-.02.303-.049.7-.049.474 0 .813.042.886.067.516.228.97.528 1.41.817.673.443 1.309.862 1.999.862.296 0 .583-.078.853-.232 1.493-.848 1.778-3.176.635-5.188a3.049 3.049 0 0 0-.195-.288zm-.904 4.661a.77.77 0 0 1-.39.11c-.41 0-.907-.328-1.484-.708-.45-.296-.958-.631-1.546-.891-.29-.128-.917-.148-1.265-.148-.509 0-.862.04-1.05.118-.608.252-1.14.58-1.61.868-.604.371-1.126.694-1.545.694a.773.773 0 0 1-.434-.135c-.464-.298-.736-.852-.77-1.558-.034-.766.214-1.605.7-2.361.035-.056.078-.105.12-.154.086-.103.183-.22.257-.372.575-1.181 2.036-2.443 4.411-2.443h.096c2.418.034 3.891 1.366 4.418 2.495.07.15.162.273.242.382.045.062.094.125.133.193.887 1.563.76 3.317-.283 3.91zM12.847 8.79c1.584 0 2.872-1.73 2.872-3.855s-1.288-3.854-2.872-3.854c-1.583 0-2.871 1.729-2.871 3.854s1.288 3.854 2.871 3.854zm0-6.772c1.049 0 1.935 1.336 1.935 2.917 0 1.58-.886 2.917-1.935 2.917-1.048 0-1.934-1.336-1.934-2.917 0-1.58.886-2.917 1.934-2.917zM17.564 6.81c-1.269 0-2.263 1.317-2.263 2.997s.994 2.996 2.263 2.996 2.263-1.316 2.263-2.996-.994-2.997-2.263-2.997zm0 5.056c-.718 0-1.325-.944-1.325-2.06 0-1.115.607-2.058 1.325-2.058s1.325.943 1.325 2.059c0 1.115-.607 2.059-1.325 2.059zM4.526 9.807c0-1.68-.994-2.997-2.263-2.997S0 8.127 0 9.807s.994 2.996 2.263 2.996 2.263-1.316 2.263-2.996zm-2.263 2.059c-.719 0-1.325-.944-1.325-2.06 0-1.115.606-2.058 1.325-2.058.718 0 1.325.943 1.325 2.059 0 1.115-.607 2.059-1.325 2.059z"/>
        <path d="M0 0h20v20H0z"/>
    </g>
</svg>
