<svg xmlns="http://www.w3.org/2000/svg" xmlns:xlink="http://www.w3.org/1999/xlink" width="20" height="20" viewBox="0 0 20 20">
    <defs>
        <path id="a" d="M.003.026v10.206h12.592V.026H.003z"/>
    </defs>
    <g fill="none" fill-rule="evenodd">
        <g transform="translate(0 1)">
            <mask id="b" fill="#fff">
                <use xlink:href="#a"/>
            </mask>
            <path fill="#4A4A4A" d="M11.76 4.3c.13.378.48.313.516.305a.424.424 0 0 0 .306-.517L11.625.346a.42.42 0 0 0-.517-.305L7.366.997a.424.424 0 1 0 .212.823l2.915-.745-3.717 5.488L5.51 3.497a.428.428 0 0 0-.729-.093L.087 9.555a.423.423 0 0 0 .081.595.436.436 0 0 0 .595-.082l4.242-5.57 1.287 3.115c.24.44.663.228.744.078l4.06-5.99.663 2.598z" mask="url(#b)"/>
        </g>
        <path d="M0 0h20v20H0z"/>
        <path fill="#4A4A4A" d="M14.157 6.158c-2.809 0-5.793.839-5.793 2.394v7.793c0 1.555 2.984 2.393 5.793 2.393 2.878 0 5.793-.822 5.793-2.393V8.552c0-1.571-2.915-2.394-5.793-2.394zM19.1 16.345c0 .63-1.926 1.547-4.947 1.547-3.02 0-4.947-.916-4.947-1.547v-1.307c1.087.72 3.058 1.103 4.947 1.103 1.93 0 3.872-.37 4.947-1.083v1.287zm0-2.598c0 .631-1.926 1.547-4.947 1.547-3.02 0-4.947-.916-4.947-1.547V12.44c1.087.72 3.058 1.104 4.947 1.104 1.93 0 3.872-.371 4.947-1.083v1.286zm0-2.597c0 .63-1.926 1.547-4.947 1.547-3.02 0-4.947-.916-4.947-1.547V9.843c1.087.72 3.058 1.103 4.947 1.103 1.93 0 3.872-.37 4.947-1.083v1.287zm-4.943-1.05c-3.02 0-4.946-.917-4.946-1.548 0-.63 1.925-1.547 4.946-1.547s4.947.916 4.947 1.547c-.004.631-1.93 1.547-4.947 1.547z"/>
    </g>
</svg>
