<svg xmlns="http://www.w3.org/2000/svg" width="22" height="22" viewBox="0 0 22 22">
    <path fill="#4A4A4A" fill-rule="nonzero" stroke="#4A4A4A" stroke-width=".2" d="M21 11c0-5.202-3.994-9.488-9.076-9.956v-.002l-.255-.017h-.007a9.234 9.234 0 0 0-.273-.015 8.918 8.918 0 0 0-.873.002l-.148.01a9.298 9.298 0 0 0-.335.026l-.166.018a10.914 10.914 0 0 0-.479.066 9.085 9.085 0 0 0-.794.163 9.772 9.772 0 0 0-.494.136l-.09.026c-.164.051-.326.106-.486.165l-.125.046-.003.007C3.658 3.125 1 6.756 1 11c0 4.19 2.591 7.784 6.254 9.27l.002.003.137.054c.025.01.05.017.075.026.083.032.167.062.251.091l.191.065a9.83 9.83 0 0 0 .93.253 9.937 9.937 0 0 0 .484.094c.076.013.15.026.226.037.09.013.18.024.271.035.068.008.137.017.205.023.105.01.21.018.316.024l.168.012a9.619 9.619 0 0 0 .973 0c.048-.002.095-.006.143-.009.113-.007.227-.015.34-.026l.156-.017a9.933 9.933 0 0 0 1.322-.238l.073-.018c.313-.081.623-.176.928-.288l.215-.08v-.008C18.368 18.84 21 15.223 21 11zm-7.409-2.667a.351.351 0 0 0-.236.348l.023.26.237.062c.134.036.614.175 1.164.493 1.141.661 1.873 1.808 2.009 3.146.135 1.343-.355 2.619-1.345 3.499-.263.233-.956.543-1.6.777a4.235 4.235 0 0 0-1.343-1.207.332.332 0 1 0-.334.577c.53.307.909.686 1.181 1.084l-.016.092.129.132c.013.013.05.055.099.132.089.17.164.341.222.508.109.347.205.86.215 1.601l-.103.035a9.235 9.235 0 0 1-.61.178l-.136.031a9.48 9.48 0 0 1-.667.134l-.025.004a9.38 9.38 0 0 1-.742.084l-.067.005a9.459 9.459 0 0 1-.76.022h-.006a9.4 9.4 0 0 1-1.557-.151l-.027-.005a9.236 9.236 0 0 1-.744-.169l-.048-.014a9.263 9.263 0 0 1-.73-.233c-.362-1.062-.808-3.71.853-5.268.562-.528.667-1.406.249-2.086C5.937 7.622 7.145 3.76 7.879 2.205a8.72 8.72 0 0 1 .29-.098l.073-.024c.126-.04.253-.075.382-.109l.055-.015a9.327 9.327 0 0 1 2.63-.284l.074.001c.236.853 1.175 3.348 4.19 3.929-.182.698-.729 2.302-1.982 2.728zM1.667 11C1.667 7.284 3.85 4.069 7 2.568c-.743 1.947-1.453 5.694 1.307 10.185.253.412.195.938-.137 1.25-1.789 1.68-1.47 4.207-1.176 5.426C3.847 17.927 1.667 14.714 1.667 11zm13.015 8.575a5.077 5.077 0 0 0-.23-1.427l-.012-.04-.03-.096a3.072 3.072 0 0 0-.212-.514c.518-.194 1.315-.526 1.688-.859 1.153-1.024 1.723-2.505 1.565-4.064-.157-1.554-1.009-2.886-2.338-3.655a5.863 5.863 0 0 0-.614-.31c1.406-.989 1.788-3.117 1.805-3.22l.059-.34-.342-.047c-2.66-.359-3.62-2.346-3.925-3.27 4.631.545 8.237 4.491 8.237 9.267 0 3.84-2.33 7.144-5.651 8.575z"/>
</svg>
