<svg xmlns="http://www.w3.org/2000/svg" width="20" height="20" viewBox="0 0 20 20">
    <g fill="none" fill-rule="evenodd">
        <path d="M0 0h20v20H0z"/>
        <g fill="#4A4A4A" fill-rule="nonzero">
            <path d="M3.98 10.189c-.856 0-1.553.69-1.553 1.541 0 .88.668 1.542 1.554 1.542.852 0 1.52-.678 1.52-1.542 0-.85-.684-1.541-1.52-1.541zm0 2.26c-.426 0-.733-.304-.733-.719a.718.718 0 1 1 1.435 0c0 .411-.304.72-.701.72zM15.657 10.189c-.857 0-1.553.69-1.553 1.541 0 .88.668 1.542 1.553 1.542.852 0 1.52-.678 1.52-1.542 0-.85-.684-1.541-1.52-1.541zm0 2.26c-.426 0-.734-.304-.734-.719a.718.718 0 1 1 1.435 0c0 .411-.304.72-.701.72zM13.354 12.018h-7.07a.412.412 0 0 0 0 .822h7.07a.412.412 0 0 0 0-.822z"/>
            <path d="M19.763 10.213L16.862 8.85a.538.538 0 0 0-.123-.037l-3.631-.465-2.418-1.78a.342.342 0 0 0-.05-.033L9.81 6.09a.41.41 0 1 0-.381.728l.807.428 1.582 1.163-4.566.345-.7-.773-.8-.883a.408.408 0 0 0-.578-.03.41.41 0 0 0-.028.58l.295.325-2.16.358-.057.012-2.935.92a.412.412 0 0 0-.283.457l.435 2.763a.41.41 0 0 0 .405.345h.832a.412.412 0 0 0 0-.822h-.483L.87 9.938l2.57-.806 2.651-.44.685.757a.416.416 0 0 0 .336.136l5.815-.44 3.644.468 2.606 1.225v.794l-1.34.394a.412.412 0 0 0 .115.806.37.37 0 0 0 .115-.016l1.635-.481a.41.41 0 0 0 .295-.395v-1.365a.396.396 0 0 0-.234-.362z"/>
        </g>
    </g>
</svg>
