<svg xmlns="http://www.w3.org/2000/svg" width="20" height="20" viewBox="0 0 20 20">
    <g fill="none" fill-rule="evenodd">
        <path fill="#4A4A4A" fill-rule="nonzero" d="M19.982 6.451l-1.574-5.158a.4.4 0 0 0-.38-.284H1.972a.4.4 0 0 0-.38.284L.017 6.451a.41.41 0 0 0 .06.36.396.396 0 0 0 .32.164h.395v11.543c0 .223.179.404.399.404h17.616c.22 0 .398-.18.398-.404V6.975h.396a.396.396 0 0 0 .32-.164.41.41 0 0 0 .06-.36zM.94 6.166l1.327-4.348h6.909L6 6.166H.939zm10.904 11.947H8.157V11.327h3.686v6.786zm6.567 0h-5.77v-7.19a.402.402 0 0 0-.398-.405H7.758a.402.402 0 0 0-.398.404v7.191H1.59V6.975H6c.5.025.613-.087.737-.238C7.537 5.755 10 2.08 10 2.08l3.807 4.66c.107.13.33.235.483.235h4.12v11.138zM14.453 6.166L13.36 4.86l-2.534-3.041h6.909l1.327 4.348h-4.608z"/>
        <path d="M0 0h20v20H0z"/>
    </g>
</svg>
