<svg xmlns="http://www.w3.org/2000/svg" width="20" height="20" viewBox="0 0 20 20">
    <g fill="none" fill-rule="evenodd">
        <path fill="#4A4A4A" fill-rule="nonzero" d="M5.175 17.043v1.904c0 .21.188.381.42.381.233 0 .422-.17.422-.38v-1.905c0-.21-.189-.381-.421-.381-.233 0-.421.17-.421.38zM14.039 17.043v1.904c0 .21.188.381.42.381.233 0 .422-.17.422-.38v-1.905c0-.21-.189-.381-.421-.381-.233 0-.421.17-.421.38z"/>
        <path stroke="#4A4A4A" stroke-width=".8" d="M10.389 1.465a.6.6 0 0 0-1.02 0L.505 15.725a.6.6 0 0 0 .51.918h17.731a.6.6 0 0 0 .51-.917l-8.866-14.26z"/>
        <path fill="#4A4A4A" d="M10.714 8.825c0 .49-.095 1.1-.283 1.833a26.9 26.9 0 0 0-.124.493c-.04.164-.083.33-.13.5-.098.36-.19.534-.272.522-.09-.016-.189-.198-.298-.546a7.534 7.534 0 0 1-.096-.33 154.6 154.6 0 0 1-.177-.64c-.188-.708-.282-1.304-.282-1.785 0-.83.278-1.255.833-1.275.553-.012.829.398.829 1.228zm-.243 4.282c0 .13-.048.245-.143.344a.542.542 0 0 1-.407.16.567.567 0 0 1-.415-.148.479.479 0 0 1-.143-.348c0-.139.047-.258.143-.357a.54.54 0 0 1 .402-.149c.18 0 .318.05.416.15a.489.489 0 0 1 .147.348z"/>
    </g>
</svg>
