<svg xmlns="http://www.w3.org/2000/svg" width="20" height="20" viewBox="0 0 20 20">
    <g fill="none" fill-rule="evenodd">
        <path fill="#4A4A4A" fill-rule="nonzero" d="M19.963 14.113l-.014-.143c-.236-1.754-1.922-2.042-2.483-2.137-1.042-.178-1.707-.316-2.088-.436a.207.207 0 0 1-.131-.124l-.147-.384h.261a.447.447 0 0 0 .453-.421.435.435 0 0 0-.435-.448h-.613l-.268-.697h.073a.447.447 0 0 0 .452-.421.435.435 0 0 0-.434-.448h-.424l-.177-.461a1.614 1.614 0 0 0-.639-.783c-.032-.263-.074-1.325 1.242-1.805.22-.08.351-.32.28-.543a.435.435 0 0 0-.56-.28c-1.409.506-1.81 1.59-1.841 2.358l-1.83-.18a3.69 3.69 0 0 1-2.527-1.346 3.43 3.43 0 0 1-.758-2.552.742.742 0 0 0-.186-.583.784.784 0 0 0-.584-.26c-.19 0-.372.07-.514.197L.64 6.56a1.89 1.89 0 0 0-.214 2.614l1.112 1.36c.312.383.759.63 1.248.7.37.052.634.369.603.722-.058.657.255 1.294.775 1.7l3.902 3.056a5.294 5.294 0 0 0 3.051 1.216l.016.001 4.873-.043c1.579.095 3.026-.797 3.524-2.172 0 0 .352-1.032.355-1.057.05-.174.077-.357.077-.545zm-.87.02c-.012.645-.565 1.166-1.243 1.166h-4.608a6.194 6.194 0 0 1-4.28-1.716l-1.358-1.316a2.256 2.256 0 0 1 2.519.292l1.87 1.63c.226.196.515.304.814.304h2.227c1.117 0 2.063-.769 2.288-1.803 1.149.196 1.68.629 1.77 1.444zM6.47 3.004a4.296 4.296 0 0 0 .966 2.958c.77.95 1.877 1.54 3.117 1.663l1.966.195c.297.03.554.22.656.485l.057.15h-.564a.447.447 0 0 0-.452.42.435.435 0 0 0 .434.449h.916l.267.697h-.374a.447.447 0 0 0-.453.421.435.435 0 0 0 .435.448h.726l.318.829a.78.78 0 0 0 .453.448c.245.092.65.205 1.525.37-.152.626-.738 1.087-1.43 1.087h-2.365l-1.975-1.72a3.128 3.128 0 0 0-3.737-.264L4.367 9.13a3.27 3.27 0 0 0 .89-2.135 3.268 3.268 0 0 0-.91-2.384L6.47 3.004zM2.808 5.776l.84-.636.007.007a2.415 2.415 0 0 1 .088 3.378L2.684 7.498a1.135 1.135 0 0 1-.35-.773 1.15 1.15 0 0 1 .474-.95zm13.239 11.243h-.016l-4.873.042a4.418 4.418 0 0 1-2.536-1.017l-3.973-3.11a1.03 1.03 0 0 1-.393-.903c.07-.815-.524-1.543-1.354-1.657a1.078 1.078 0 0 1-.69-.388L1.1 8.625a1.01 1.01 0 0 1 .117-1.413l.267-.245c.063.437.27.842.595 1.156l6.277 6.084a6.975 6.975 0 0 0 4.886 1.961h4.608c.155 0 .305-.017.45-.047-.521.604-1.358.954-2.253.897z"/>
        <path d="M0 0h20v20H0z"/>
    </g>
</svg>
