<svg xmlns="http://www.w3.org/2000/svg" width="20" height="20" viewBox="0 0 20 20">
    <g fill="none" fill-rule="evenodd">
        <path fill="#4A4A4A" fill-rule="nonzero" d="M17.32 4.07H15.32c-.2 0-.333.134-.333.335s.134.335.333.335h1.999c.2 0 .333-.134.333-.335s-.133-.335-.333-.335zM17.32 5.41H15.32c-.2 0-.333.135-.333.336 0 .2.134.335.333.335h1.999c.2 0 .333-.134.333-.335s-.133-.335-.333-.335z"/>
        <path fill="#4A4A4A" fill-rule="nonzero" d="M17.92 2.428c-1.866-.436-4.564-.537-6.429-.168l-.3.067c-.433.067-.866.168-1.299.235l-.627.1H9.26l-1.665.268a1.47 1.47 0 0 0-1.228 1.14h-1.37a1.34 1.34 0 0 0-1.332 1.34H.334c-.2 0-.334.135-.334.336 0 .2.133.335.333.335h3.33c0 .737.6 1.34 1.333 1.34h1.37c.064.284.209.54.41.738.222.22.514.376.851.435l3.298.503c.607.159 1.367.256 2.176.302l.555 2.514a.325.325 0 0 0 .333.268h.666v2.145l-1.841 1.853a.305.305 0 0 0-.152.222.288.288 0 0 0-.005.088v1.322c0 .369.3.67.666.67h4.996a.67.67 0 0 0 .666-.67v-1.34a.344.344 0 0 0-.074-.224l-.592-1.787v-2.682l-.182-2.78a2.757 2.757 0 0 0 1.847-2.582v-1.34c0-1.24-.832-2.313-2.065-2.648zM7.726 3.6l1.266-.203V8.12l-1.299-.196a.86.86 0 0 1-.7-.838V4.405a.8.8 0 0 1 .733-.804zM4.33 6.08v-.67c0-.37.3-.67.666-.67h1.332v2.01H4.996a.67.67 0 0 1-.666-.67zm13.323 5.697v2.347H15.32v-4.72a16.543 16.543 0 0 0 2.167-.25l.165 2.623zm-3.397-.268l-.433-2.01h.832v2.01h-.4zm.866 3.285h2.63l.434 1.34h-4.397l1.333-1.34zm3.197 3.016h-4.996v-1.005h4.996v1.005zm.966-11.395c0 .938-.633 1.743-1.566 1.977-1.865.47-4.862.503-6.694.034L9.659 8.22V3.29l.367-.059c.432-.067.899-.134 1.332-.235l.3-.067c.732-.134 1.598-.2 2.53-.2 1.267 0 2.599.1 3.565.368a2.04 2.04 0 0 1 1.532 1.977v1.341z"/>
        <path d="M0 0h20v20H0z"/>
    </g>
</svg>
