<svg xmlns="http://www.w3.org/2000/svg" width="20" height="20" viewBox="0 0 20 20">
    <path fill="#4A4A4A" fill-rule="nonzero" d="M17.038 2.929A9.9 9.9 0 0 0 9.903 0a9.913 9.913 0 0 0-6.98 2.928A9.951 9.951 0 0 0 0 9.923a9.938 9.938 0 0 0 2.923 7.148A9.897 9.897 0 0 0 10.053 20h.005a9.913 9.913 0 0 0 6.98-2.929 9.952 9.952 0 0 0 2.923-6.994 9.938 9.938 0 0 0-2.923-7.148zM9.511 4.467l.09-.21.005-.01.08-.2.027-.07.054-.144.03-.083.046-.133.03-.087a9.54 9.54 0 0 0 .108-.354l.025-.086.038-.143.02-.078c.015-.06.03-.118.043-.177l.011-.046.049-.224.011-.058.032-.167.014-.083.025-.145.013-.09a10.452 10.452 0 0 0 .048-.372l.01-.091c.005-.049.01-.097.013-.146l.008-.086.011-.165.004-.067.001-.013a8.971 8.971 0 0 1 6.024 2.648 9.005 9.005 0 0 1 2.643 6.035l-.013.001-.07.005-.162.01-.087.008a10.42 10.42 0 0 0-.144.014l-.092.01a10.069 10.069 0 0 0-.37.047l-.091.014-.142.024-.085.015-.164.031-.06.012a9.94 9.94 0 0 0-.224.049l-.049.011a9.716 9.716 0 0 0-.173.043l-.08.02a9.61 9.61 0 0 0-.14.038L16.79 10a9.695 9.695 0 0 0-.571.184l-.084.03-.142.053-.071.027a9.714 9.714 0 0 0-.199.08l-.012.006c-.07.029-.139.06-.208.09l-.066.03a9.339 9.339 0 0 0-.14.065l-.08.039c-.042.02-.084.04-.126.062l-.082.042a10.148 10.148 0 0 0-.324.175l-.08.045a10.04 10.04 0 0 0-.124.073l-.072.043-.146.09-.048.03a9.628 9.628 0 0 0-.192.126l-.046.031-.142.099-.068.049c-.04.028-.08.057-.118.086l-.074.055a10.379 10.379 0 0 0-.474.381l-.069.06a9.933 9.933 0 0 0-.116.102l-.058.052-.01.01L10.638 10l2.915-2.921.931-.933a.466.466 0 0 0-.657-.659l-.931.933L9.98 9.341 7.77 7.127l.01-.01.052-.059.102-.116.06-.069.09-.108.06-.074a9.762 9.762 0 0 0 .23-.292l.055-.074.085-.119.05-.068.097-.143.032-.046c.043-.064.084-.127.125-.192l.03-.048c.03-.049.061-.097.09-.146.015-.024.03-.048.043-.072l.074-.125.045-.08a10.079 10.079 0 0 0 .174-.325l.042-.082.062-.127.038-.078.066-.142.03-.065zM9.425.948l-.01.15-.002.038c-.006.07-.012.139-.02.208l-.007.06c-.005.05-.01.098-.017.146l-.01.079a9.204 9.204 0 0 1-.09.542l-.016.08-.03.134-.014.068a8.943 8.943 0 0 1-.048.197l-.011.041a9.436 9.436 0 0 1-.042.158l-.022.075-.036.122-.026.082a8.852 8.852 0 0 1-.133.393l-.044.117-.028.075a9.714 9.714 0 0 1-.056.137l-.021.053a8.874 8.874 0 0 1-.08.185l-.029.063a9.222 9.222 0 0 1-.057.123l-.036.075a7.942 7.942 0 0 1-.149.294l-.041.077a9.51 9.51 0 0 1-.06.107l-.04.073a9.061 9.061 0 0 1-.068.116l-.037.061a8.79 8.79 0 0 1-.107.173l-.017.028a9.005 9.005 0 0 1-.095.145l-.042.061-.075.11-.048.067a9.467 9.467 0 0 1-.201.27l-.05.065-.085.106-.046.057a9.538 9.538 0 0 1-.108.128l-.027.031-.132.15-3.195-3.202A8.976 8.976 0 0 1 9.425.948zM3.26 3.925l3.195 3.201a9.18 9.18 0 0 1-.15.133l-.03.026a9.246 9.246 0 0 1-.128.108l-.057.046-.105.085-.065.05a9.058 9.058 0 0 1-.27.202l-.067.048-.11.076-.06.041a8.984 8.984 0 0 1-.146.095l-.027.018a9.078 9.078 0 0 1-.173.107l-.061.037a9.313 9.313 0 0 1-.116.068l-.073.04a8.9 8.9 0 0 1-.476.25l-.075.037-.123.057-.063.029a9.147 9.147 0 0 1-.185.08l-.052.021a8.524 8.524 0 0 1-.137.056l-.076.029-.116.044-.082.029a9.336 9.336 0 0 1-.31.104l-.082.026-.122.036-.075.022a8.686 8.686 0 0 1-.157.042l-.04.01a8.95 8.95 0 0 1-.198.049l-.068.015-.134.029-.08.016a8.728 8.728 0 0 1-.54.09l-.079.01a9.974 9.974 0 0 1-.145.018l-.061.007a8.888 8.888 0 0 1-.207.019l-.038.003-.15.01a9.013 9.013 0 0 1 2.314-5.52zm7.19 11.609a9.865 9.865 0 0 0-.176.42c-.01.023-.018.047-.027.071l-.053.141-.03.085a9.716 9.716 0 0 0-.184.572l-.025.087a9.948 9.948 0 0 0-.038.142l-.02.08a9.794 9.794 0 0 0-.043.174l-.011.048a9.994 9.994 0 0 0-.049.223l-.012.062-.031.164-.015.084a9.747 9.747 0 0 0-.024.143l-.013.091a10.224 10.224 0 0 0-.048.371l-.01.092a9.96 9.96 0 0 0-.014.146l-.007.086-.011.164-.005.068a8.895 8.895 0 0 1-6.024-2.635 9.003 9.003 0 0 1-2.643-6.035l.082-.006a9.42 9.42 0 0 0 .163-.01l.086-.008a9.923 9.923 0 0 0 .607-.071l.09-.014.143-.024.085-.015.163-.031.062-.012a9.94 9.94 0 0 0 .223-.049l.049-.011.173-.042.08-.022a9.56 9.56 0 0 0 .14-.037L3.171 10a10.049 10.049 0 0 0 .57-.183l.085-.03.14-.054.073-.027a10.021 10.021 0 0 0 .419-.176l.067-.03.14-.065.079-.039a10.061 10.061 0 0 0 .531-.278l.08-.046L5.48 9l.072-.043a9.2 9.2 0 0 0 .145-.09l.05-.03a9.84 9.84 0 0 0 .19-.126l.047-.032.142-.098.069-.05a10.2 10.2 0 0 0 .117-.085l.074-.055a10.217 10.217 0 0 0 .474-.381l.069-.06c.039-.033.077-.067.115-.102.02-.017.04-.034.058-.052C7.106 7.792 9.323 10 9.323 10l-2.915 2.921-.931.933a.466.466 0 0 0 .328.795.463.463 0 0 0 .33-.136l.93-.933 2.916-2.921 2.21 2.214-.06.066-.105.12-.057.066a9.866 9.866 0 0 0-.093.11l-.059.072a10.599 10.599 0 0 0-.23.295l-.054.073-.087.12-.048.067a9.579 9.579 0 0 0-.1.145l-.03.044a9.997 9.997 0 0 0-.125.192l-.03.046-.09.148-.043.071-.074.126-.045.08a9.906 9.906 0 0 0-.174.324l-.042.083a9.99 9.99 0 0 0-.062.126l-.038.08a9.551 9.551 0 0 0-.065.14l-.03.067zm.085 3.518l.01-.147.003-.042c.006-.069.012-.137.02-.206l.007-.064.016-.143.011-.08.018-.126.013-.086a8.951 8.951 0 0 1 .059-.327l.016-.082.028-.13.016-.072a9.36 9.36 0 0 1 .048-.197l.012-.046.04-.152.023-.078.036-.12.026-.083a8.393 8.393 0 0 1 .103-.31l.03-.082a9.02 9.02 0 0 1 .043-.115l.03-.077c.017-.046.036-.09.054-.136l.022-.054.08-.184.029-.064.057-.123.036-.075a8.654 8.654 0 0 1 .149-.294l.04-.076.06-.108.041-.072.069-.117.035-.06c.035-.059.071-.117.108-.174l.016-.026.096-.147.041-.06c.025-.037.05-.074.077-.111l.047-.066a8.786 8.786 0 0 1 .201-.272l.05-.064.085-.106.046-.056a9.44 9.44 0 0 1 .109-.13l.025-.03.133-.15.236.238 2.959 2.964a8.976 8.976 0 0 1-5.509 2.318zm6.166-2.977l-.237-.237-2.958-2.964.149-.132.035-.03.124-.105.059-.048a9.39 9.39 0 0 1 .614-.458l.062-.042.143-.094.03-.02.172-.106.062-.037a9.72 9.72 0 0 1 .115-.068l.073-.041a9.696 9.696 0 0 1 .476-.25l.075-.036.123-.057.063-.029a9.06 9.06 0 0 1 .185-.08l.052-.021.137-.056.075-.029a8.958 8.958 0 0 1 .509-.177l.082-.026.122-.036.075-.022.158-.042.04-.01c.065-.018.131-.034.197-.049l.067-.015.135-.029.08-.016a9.438 9.438 0 0 1 .54-.09l.078-.01.147-.018.06-.007.207-.019.037-.003.15-.01a9.011 9.011 0 0 1-2.313 5.52z"/>
</svg>
