<svg xmlns="http://www.w3.org/2000/svg" width="20" height="20" viewBox="0 0 20 20">
    <g fill="none" fill-rule="evenodd">
        <path fill="#4A4A4A" fill-rule="nonzero" d="M1.549 17.302L2.732 4.355a.501.501 0 0 1 .51-.45h2.494C5.741 1.752 7.546 0 9.763 0s4.021 1.752 4.026 3.905h2.494c.264 0 .485.194.51.45l1.184 12.947v.045c0 1.442-1.367 2.616-3.043 2.616H4.592c-1.677 0-3.043-1.174-3.043-2.616v-.045zM9.763.992c-1.656 0-3 1.306-3.005 2.913h6.01C12.762 2.298 11.417.992 9.762.992zM4.592 18.967h10.342c1.106 0 2.008-.715 2.021-1.603l-1.14-12.467h-2.026v1.74c0 .272-.23.495-.511.495a.505.505 0 0 1-.51-.496v-1.74h-6.01v1.74c0 .273-.23.496-.51.496a.505.505 0 0 1-.512-.496v-1.74H3.711L2.57 17.369c.013.884.915 1.599 2.022 1.599z"/>
        <path d="M19.529 0h-20v20h20z"/>
    </g>
</svg>
