<svg xmlns="http://www.w3.org/2000/svg" width="20" height="20" viewBox="0 0 20 20">
    <g fill="none" fill-rule="evenodd">
        <path fill="#4A4A4A" fill-rule="nonzero" stroke="#4A4A4A" stroke-width=".3" d="M17.858 12.743a8.023 8.023 0 0 0-3.634-8.687.31.31 0 1 0-.325.528 7.406 7.406 0 0 1 3.371 7.944 2.175 2.175 0 0 0-2.615 2.127c0 1.198.975 2.173 2.173 2.173A2.175 2.175 0 0 0 19 14.655c0-.825-.463-1.544-1.142-1.912zm-1.03 3.464a1.553 1.553 0 0 1-1.552-1.552c0-.855.696-1.552 1.552-1.552.855 0 1.551.697 1.551 1.552 0 .856-.696 1.552-1.551 1.552zM12.846 17.815A7.407 7.407 0 0 1 10 18.38c-1.982 0-3.888-.799-5.281-2.2.387-.393.626-.93.626-1.524a2.175 2.175 0 0 0-2.173-2.172A2.175 2.175 0 0 0 1 14.655c0 1.198.974 2.173 2.172 2.173.38 0 .738-.1 1.05-.272A8.083 8.083 0 0 0 10 19a8.018 8.018 0 0 0 3.084-.612.31.31 0 0 0-.238-.573zm-11.225-3.16c0-.855.696-1.552 1.551-1.552.856 0 1.552.697 1.552 1.552 0 .856-.696 1.552-1.552 1.552a1.553 1.553 0 0 1-1.551-1.552zM2.241 10.687h.022a.31.31 0 0 0 .31-.288 7.41 7.41 0 0 1 5.344-6.615c.265.901 1.098 1.56 2.083 1.56a2.175 2.175 0 0 0 2.172-2.172A2.175 2.175 0 0 0 10 1c-1.195 0-2.168.97-2.172 2.165a8.029 8.029 0 0 0-5.874 7.19.31.31 0 0 0 .287.332zM10 1.62c.856 0 1.552.696 1.552 1.551 0 .856-.696 1.552-1.552 1.552a1.553 1.553 0 0 1-1.552-1.552c0-.855.696-1.551 1.552-1.551z"/>
        <path d="M0 0h20v20H0z"/>
    </g>
</svg>
