<svg xmlns="http://www.w3.org/2000/svg" width="20" height="20" viewBox="0 0 20 20">
    <g fill="none" fill-rule="evenodd">
        <path fill="#4A4A4A" fill-rule="nonzero" d="M16.82 2.65A6.539 6.539 0 0 0 14.47.78C13.383.264 12.103 0 10.667 0H10.653c-1.44.002-2.708.221-3.768.654-.95.389-1.745.951-2.361 1.672C3.232 3.84 3.04 5.676 3.04 6.636c0 1.457.582 3.253 1.64 5.058.996 1.7 2.269 3.155 3.493 3.993a.432.432 0 0 0 .243.075h.132v.829a.42.42 0 0 0-.424.416v2.488c0 .229.19.415.424.415h4.238a.42.42 0 0 0 .423-.415v-2.488a.42.42 0 0 0-.423-.416v-.829h.131a.433.433 0 0 0 .244-.075c1.224-.838 2.497-2.293 3.493-3.993 1.058-1.805 1.64-3.601 1.64-5.058 0-.975-.386-2.605-1.474-3.986zm-5.73-1.62a5.18 5.18 0 0 1 2.505 2.62c.51 1.182.638 2.62.38 4.276-.314 2.025-1.208 4.381-2.657 7.006h-.228V1.03zm0 14.732h.848v.829h-.848v-.829zM9.611 1.393a5.13 5.13 0 0 1 .632-.363v13.902h-.228C8.57 12.315 7.677 9.963 7.36 7.942c-.259-1.655-.134-3.093.372-4.275a5.12 5.12 0 0 1 1.88-2.274zm.632 14.37v.828h-.847v-.829h.847zM5.415 11.28c-.971-1.657-1.528-3.35-1.528-4.645 0-.847.167-2.465 1.287-3.778.832-.974 2.03-1.6 3.575-1.872a5.97 5.97 0 0 0-1.79 2.342c-.573 1.324-.72 2.914-.439 4.723.314 2.016 1.166 4.329 2.535 6.881h-.503c-1.08-.774-2.244-2.128-3.137-3.651zm6.946 7.799h-3.39v-1.66h.425c0 .23.19.415.423.415a.42.42 0 0 0 .424-.414h.847c0 .229.19.414.425.414a.419.419 0 0 0 .423-.414h.423v1.659zm3.558-7.8c-.893 1.524-2.058 2.878-3.137 3.652h-.504c1.37-2.552 2.222-4.865 2.535-6.881.282-1.81.134-3.399-.438-4.723a5.979 5.979 0 0 0-1.73-2.294c.522.116 1.008.28 1.455.493a5.706 5.706 0 0 1 2.049 1.63c1.024 1.3 1.297 2.799 1.297 3.48 0 1.294-.556 2.987-1.527 4.644z"/>
        <path d="M.471 0h20v20h-20z"/>
    </g>
</svg>
