<svg xmlns="http://www.w3.org/2000/svg" width="20" height="20" viewBox="0 0 20 20">
    <path fill="#4A4A4A" fill-rule="nonzero" d="M18.171 4.306A9.902 9.902 0 0 0 11.764.165a9.96 9.96 0 0 0-11.6 8.01c-.99 5.406 2.604 10.61 8.01 11.6a9.96 9.96 0 0 0 11.6-8.01 9.902 9.902 0 0 0-1.603-7.46zM1.163 8.358c.16-.872.442-1.694.826-2.451.17 1.442.69 2.678 1.167 3.806.548 1.299 1.066 2.525.996 3.88-.05.94-.21 1.859-.475 2.74a8.95 8.95 0 0 1-2.514-7.975zM9.98 18.924a9.04 9.04 0 0 1-1.623-.148 8.897 8.897 0 0 1-3.847-1.713c.374-1.091.595-2.239.656-3.417.082-1.588-.506-2.98-1.074-4.328-.628-1.486-1.275-3.021-1.12-4.938a8.93 8.93 0 0 1 8.609-3.216 8.894 8.894 0 0 1 5.755 3.719c.214.31.408.632.58.962.003 1.072-1.583 2.036-2.692 2.359-5.134 1.497-6.299 4.776-6.372 7.263-.037 1.247.48 2.529 1.146 3.457H9.98zm8.795-7.342a8.948 8.948 0 0 1-7.533 7.252c-.72-.729-1.412-2.076-1.375-3.337.092-3.127 1.99-5.253 5.642-6.318 1.053-.307 1.941-.823 2.568-1.492.154-.163.288-.334.402-.508a8.904 8.904 0 0 1 .296 4.403z"/>
</svg>
