<svg xmlns="http://www.w3.org/2000/svg" width="20" height="20" viewBox="0 0 20 20">
    <g fill="none" fill-rule="evenodd">
        <path fill="#4A4A4A" fill-rule="nonzero" stroke="#4A4A4A" stroke-width=".1" d="M19.623 16.108h-4.258V14.09c.93-.125 1.754-.705 2.233-1.586a2.952 2.952 0 0 0 1.643-1.05c.464-.583.72-1.327.72-2.096 0-1.17-.599-2.253-1.542-2.815-.098-1.951-1.602-3.507-3.434-3.507-.57 0-1.135.154-1.634.445a.329.329 0 1 0 .331.568 2.59 2.59 0 0 1 1.304-.355c1.53 0 2.778 1.366 2.78 3.046.001.124.07.237.181.293.824.417 1.356 1.33 1.356 2.325 0 1.256-.85 2.344-1.979 2.53a.329.329 0 0 0-.242.181c-.353.732-.99 1.227-1.717 1.356v-2.91l1.618-1.489a.329.329 0 1 0-.445-.484L15.365 9.62V7.424a.329.329 0 1 0-.658 0v3.98l-1.174-1.078a.329.329 0 1 0-.445.484l1.619 1.488v1.14c-.776-.1-1.46-.612-1.827-1.389a.329.329 0 0 0-.229-.18c-1.091-.233-1.883-1.289-1.883-2.512 0-.965.486-1.838 1.27-2.279a.329.329 0 0 0 .166-.317v-.016c0-.691.205-1.343.594-1.885a.329.329 0 1 0-.535-.383 3.854 3.854 0 0 0-.715 2.129c-.891.582-1.438 1.618-1.438 2.75 0 1.475.936 2.758 2.247 3.117.494.93 1.367 1.532 2.35 1.628v2.007H9.15v-1.25h1.012a.329.329 0 1 0 0-.658H9.15v-.77h.368a.329.329 0 1 0 0-.659H9.15v-.77h.368a.329.329 0 1 0 0-.658H2.296a.329.329 0 1 0 0 .658h.368v.77h-.368a.329.329 0 1 0 0 .658h.368v.77H1.652a.329.329 0 1 0 0 .659h1.012v1.25H.329a.329.329 0 1 0 0 .658h19.294a.329.329 0 1 0 0-.658zm-11.13 0H3.32v-1.25h5.172v1.25zm0-1.908H3.32v-.77h5.172v.77zm0-1.428H3.32V12h5.172v.77z"/>
        <path d="M0 0h20v20H0z"/>
    </g>
</svg>
