<svg xmlns="http://www.w3.org/2000/svg" width="20" height="20" viewBox="0 0 20 20">
    <g fill="none" fill-rule="evenodd">
        <path fill="#4A4A4A" fill-rule="nonzero" d="M10.2 6.543V4.029h-.8v2.514z"/>
        <path fill="#4A4A4A" fill-rule="nonzero" d="M9.89 4.381A1.89 1.89 0 1 1 9.89.6a1.89 1.89 0 0 1 0 3.781zm0-.8a1.09 1.09 0 1 0 0-2.181 1.09 1.09 0 0 0 0 2.181zM13.016 7.326a.598.598 0 0 0-.6-.597H7c-.335 0-.6.265-.6.597v.803h6.616v-.803zm-7.416 0c0-.773.623-1.397 1.4-1.397h5.416c.773 0 1.4.625 1.4 1.397V8.93H5.6V7.326z"/>
        <path fill="#4A4A4A" fill-rule="nonzero" d="M2.543 10.522l.493 6.46c.068.89.854 1.618 1.745 1.618h10.342c.889 0 1.677-.73 1.745-1.618l.493-6.46c.066-.865-.578-1.557-1.45-1.557H3.993c-.868 0-1.515.694-1.45 1.557zm-.797.06a2.224 2.224 0 0 1 2.247-2.417h11.918c1.337 0 2.349 1.088 2.248 2.418l-.493 6.46c-.1 1.305-1.236 2.357-2.543 2.357H4.781c-1.31 0-2.443-1.05-2.542-2.357l-.493-6.46z"/>
        <path fill="#4A4A4A" fill-rule="nonzero" d="M5.354 13.437a1.518 1.518 0 1 1 0-3.036 1.518 1.518 0 0 1 0 3.036zm0-.8a.718.718 0 1 0 0-1.436.718.718 0 0 0 0 1.436zM7.4 14.9a2.636 2.636 0 1 0 5.272 0 .4.4 0 1 0-.8 0 1.836 1.836 0 1 1-3.672 0 .4.4 0 1 0-.8 0zM14.553 13.437a1.518 1.518 0 1 1 0-3.036 1.518 1.518 0 0 1 0 3.036zm0-.8a.718.718 0 1 0 0-1.436.718.718 0 0 0 0 1.436z"/>
        <path d="M0 0h20v20H0z"/>
    </g>
</svg>
