<svg xmlns="http://www.w3.org/2000/svg" width="20" height="20" viewBox="0 0 20 20">
    <g fill="none" fill-rule="evenodd">
        <path d="M0 0h20v20H0z"/>
        <g fill="#4A4A4A" fill-rule="nonzero">
            <path d="M3.502 13.485c-.385 0-.7.315-.7.7 0 .386.315.7.7.7.385 0 .7-.314.7-.7 0-.385-.315-.7-.7-.7zM15.759 13.485c-.386 0-.7.315-.7.7 0 .386.314.7.7.7.385 0 .7-.314.7-.7 0-.385-.315-.7-.7-.7z"/>
            <path d="M19.68 7.777l-3.046-3.362a1.254 1.254 0 0 0-.875-.385H12.537c-.56 0-.98.42-.98.945v2.207H.84a.852.852 0 0 0-.84.84v5.673c0 .455.385.84.84.84h.235a2.434 2.434 0 0 0 2.427 2.102c1.247 0 2.26-.905 2.427-2.101h7.403a2.434 2.434 0 0 0 2.427 2.1c1.246 0 2.26-.904 2.426-2.1h.936c.455 0 .84-.386.875-.806V8.583a1.11 1.11 0 0 0-.315-.806zM15.76 4.73c.105 0 .245.07.35.14l3.012 3.362h-5.113V4.73h1.75zM.7 8.022c0-.07.07-.14.14-.14h10.716v2.451H.7V8.022zm2.802 7.914c-.98 0-1.751-.77-1.751-1.75 0-.981.77-1.752 1.75-1.752.981 0 1.752.77 1.752 1.751 0 .981-.77 1.751-1.751 1.751zm12.257 0c-.98 0-1.751-.77-1.751-1.75 0-.981.77-1.752 1.75-1.752.981 0 1.752.77 1.752 1.751 0 .981-.77 1.751-1.751 1.751zm3.362-2.1h-.936a2.434 2.434 0 0 0-2.426-2.102h-.035a2.45 2.45 0 0 0-2.417 2.101H5.93a2.431 2.431 0 0 0-2.197-2.09l-.025-.002a2.522 2.522 0 0 0-.324-.006c-.029.001-.057.004-.086.006l-.025.002a2.431 2.431 0 0 0-2.197 2.09H.84a.15.15 0 0 1-.14-.14v-2.661h11.557V4.975c0-.14.105-.245.28-.245h.77v3.607c0 .315.28.596.596.596h5.358v1.05H17.51c-.21 0-.35.14-.35.35 0 .21.14.35.35.35h1.75v3.012c0 .07-.07.14-.14.14z"/>
        </g>
    </g>
</svg>
