<svg xmlns="http://www.w3.org/2000/svg" width="20" height="20" viewBox="0 0 20 20">
    <path fill="#4A4A4A" fill-rule="nonzero" d="M19.969 3.28a3.88 3.88 0 0 0-1.037-1.95c0-.002-.002-.003-.003-.004a3.988 3.988 0 0 0-1.335-.929l-.013-.005A4.577 4.577 0 0 0 15.712 0c-.967 0-1.881.289-2.645.835l-.005.004c-.656.474-1.09 1.151-1.143 1.237a3.773 3.773 0 0 0-.51 2.343c.015.13.098.243.222.304.08.038.162.07.246.095.337.954 1.073 1.717 2.01 2.146a3.9 3.9 0 0 0-1.074.747.367.367 0 0 0 .018.547.443.443 0 0 0 .592-.016c.15-.148.314-.279.49-.392a1.79 1.79 0 0 0 1.651 1.151h.063c.744 0 1.397-.521 1.636-1.227.884.512 1.45 1.426 1.45 2.404v4.024l-3.81 2.286a.37.37 0 0 0-.123.536.442.442 0 0 0 .58.114l4-2.4a.381.381 0 0 0 .19-.326v-4.234c0-1.372-.827-2.602-2.136-3.216 1.24-.572 2.116-1.727 2.201-3.071.119-.1.221-.216.304-.347a.362.362 0 0 0 .05-.264zm-4.342 4.946h-.063c-.501 0-.925-.449-.925-.98v-.02a4.284 4.284 0 0 0 1.88.031c-.032.524-.435.97-.892.97zm.025-1.655c-1.263 0-2.383-.696-2.874-1.739.582-.152 1.027-.608 1.12-1.17.25.03.504.044.758.044.852 0 1.672-.165 2.407-.481.19.601.792 1.042 1.502 1.042.052 0 .104-.002.155-.007-.296 1.317-1.563 2.311-3.068 2.311zm2.913-3.078c-.4 0-.726-.302-.726-.672v-.216a.384.384 0 0 0-.216-.339.448.448 0 0 0-.425.011c-.737.428-1.616.655-2.542.655a5.45 5.45 0 0 1-1.07-.105.445.445 0 0 0-.351.077.377.377 0 0 0-.156.301v.235c0 .37-.326.672-.726.672a.794.794 0 0 1-.128-.01 3.004 3.004 0 0 1 .423-1.644c.004-.006.382-.613.929-1.008l.003-.002a3.64 3.64 0 0 1 2.132-.673 3.69 3.69 0 0 1 1.542.33 3.147 3.147 0 0 1 1.05.737c.396.406.672.895.805 1.422a.755.755 0 0 1-.544.229zm-6.48 9.912c.948-.517 1.587-1.472 1.587-2.562a2.776 2.776 0 0 0-.386-1.41c-.544-.928-1.606-1.56-2.825-1.56s-2.282.632-2.825 1.56a2.775 2.775 0 0 0-.386 1.41c0 1.09.638 2.045 1.587 2.561-1.174.562-1.918 1.677-1.918 2.91v1.413c0 .133.073.256.194.327l3.123 1.84a.444.444 0 0 0 .449 0l3.13-1.83a.381.381 0 0 0 .196-.329l-.008-1.422c-.006-1.237-.75-2.348-1.919-2.908zM10.46 8.648c.73 0 1.382.306 1.818.786a7.146 7.146 0 0 1-1.818.227 7.146 7.146 0 0 1-1.818-.227 2.45 2.45 0 0 1 1.818-.786zm-2.373 2.195c0-.252.046-.494.13-.719a7.96 7.96 0 0 0 2.243.312c.784 0 1.551-.107 2.242-.312.085.225.131.467.131.72 0 1.21-1.064 2.194-2.373 2.194-1.309 0-2.373-.985-2.373-2.195zm3.116 2.89c-.052.366-.4.614-.714.614h-.05c-.334 0-.704-.26-.752-.62a3.456 3.456 0 0 0 1.516.006zm-.742 5.375l-2.706-1.593v-1.2c0-.852.466-1.63 1.219-2.089.262.553.879.896 1.464.896h.051c.632 0 1.19-.38 1.432-.91.764.456 1.24 1.24 1.244 2.104l.006 1.208-2.71 1.584zM7.453 8.709a.37.37 0 0 0-.134-.534 4.01 4.01 0 0 0-.396-.198 3.9 3.9 0 0 0 1.34-1.034c.149.048.31.074.477.074.804 0 1.46-.606 1.46-1.35v-.963c0-1.224-.506-2.383-1.424-3.264C7.861.562 6.632.052 5.316.004a5.292 5.292 0 0 0-3.805 1.378C.556 2.265.028 3.445.028 4.704v.963c0 .744.655 1.35 1.46 1.35.167 0 .328-.026.478-.074.4.483.915.86 1.498 1.105-1.292.629-2.092 1.845-2.092 3.193v3.171c0 .131.072.254.191.325l3.8 2.28a.442.442 0 0 0 .58-.113.37.37 0 0 0-.124-.536l-3.609-2.166v-2.96c0-.897.451-1.72 1.207-2.251.26.695.925 1.218 1.661 1.218h.063c.8 0 1.437-.669 1.662-1.417.025.014.05.027.074.042a.44.44 0 0 0 .577-.125zm-4.93-5.413a2.62 2.62 0 0 0-.414 1.408v.963a.56.56 0 0 1-.274.477.654.654 0 0 1-.348.098c-.343 0-.622-.258-.622-.575v-.963c0-2.15 1.821-3.876 4.146-3.928.087-.002.176-.001.273.002C7.57.862 9.362 2.586 9.362 4.704v.963c0 .317-.28.575-.623.575a.655.655 0 0 1-.383-.122.56.56 0 0 1-.239-.453v-.963c0-1.367-1.1-2.55-2.561-2.749a.443.443 0 0 0-.323.08.38.38 0 0 0-.156.273 3.66 3.66 0 0 1-.158.797H2.884a.426.426 0 0 0-.361.191zM5.14 9.435h-.063c-.473 0-.938-.532-.938-1.074a.36.36 0 0 0-.014-.098 4.314 4.314 0 0 0 1.925.012c-.028.563-.49 1.16-.91 1.16zm-.027-1.833c-.976 0-1.877-.41-2.469-1.113a1.28 1.28 0 0 0 .303-.822v-.963c0-.285.065-.566.191-.824h2.083a.419.419 0 0 0 .393-.253c.104-.262.183-.532.236-.808.839.283 1.43 1.034 1.43 1.885v.963c0 .309.113.594.302.822-.591.702-1.492 1.113-2.469 1.113z"/>
</svg>
