<svg xmlns="http://www.w3.org/2000/svg" width="20" height="20" viewBox="0 0 20 20">
    <path fill="#4A4A4A" fill-rule="nonzero" d="M10.156.001a9.92 9.92 0 0 0-7.223 2.924 9.92 9.92 0 0 0-2.932 7.22C.078 15.59 4.558 20 10.001 20h.053a9.891 9.891 0 0 0 4.299-.998h2.33a2.047 2.047 0 0 0 2.044-2.044V14.88A9.999 9.999 0 0 0 20 10.096C20.052 4.614 15.636.085 10.156.001zm7.23 4.68c.641.911 1.149 1.921 1.493 3.002h-5.448l3.955-3.001zm-4.983-3.494a10.753 10.753 0 0 1 4.31 2.77l-4.31 3.27v-6.04zM3.5 3.735a10.6 10.6 0 0 1 4.097-2.554v6.21l-4.43-3.308c.109-.118.22-.234.333-.348zM2.5 4.812l3.844 2.87H1.11a11.03 11.03 0 0 1 1.39-2.87zm.174 10.542a10.991 10.991 0 0 1-1.523-3.037H6.36l-3.684 3.037zm4.917 3.475a10.777 10.777 0 0 1-4.268-2.727l4.268-3.519v6.246zm9.448-.78h-2.905a.753.753 0 0 0-.339.082c-.422.213-.855.394-1.296.545V13l5.371 4.47a.888.888 0 0 1-.831.58zm.819-3.563a.812.812 0 0 0-.111.409V16l-4.473-3.722h5.562c-.243.767-.57 1.509-.978 2.208zm1.207-3.066h-6.788a.678.678 0 0 0-.678.677v6.942a9.225 9.225 0 0 1-3.2-.002v-6.94a.678.678 0 0 0-.678-.677H.932A9.15 9.15 0 0 1 .93 8.58h6.792a.678.678 0 0 0 .678-.677V1.127a.679.679 0 0 0-.021-.164 9.301 9.301 0 0 1 3.241.003.678.678 0 0 0-.02.16v6.777c0 .374.304.677.678.677h6.79a9.169 9.169 0 0 1-.002 2.84z"/>
</svg>
