<svg xmlns="http://www.w3.org/2000/svg" width="20" height="20" viewBox="0 0 20 20">
    <g fill="none" fill-rule="evenodd">
        <path d="M0 0h20v20H0z"/>
        <g fill="#4A4A4A" fill-rule="nonzero" transform="translate(0 5)">
            <path d="M19.667 6.333h-.334a2.67 2.67 0 0 0-2.666-2.666h-2.452L12.637.195A.333.333 0 0 0 12.333 0H3a.333.333 0 0 0-.333.333v3.334H2A.333.333 0 0 0 1.667 4v2.333H.333A.333.333 0 0 0 0 6.667v2C0 8.85.15 9 .333 9h2.03c.16.944.981 1.667 1.97 1.667.99 0 1.81-.723 1.97-1.667h7.394c.16.944.98 1.667 1.97 1.667.989 0 1.81-.723 1.97-1.667h2.03c.184 0 .333-.15.333-.333v-2a.333.333 0 0 0-.333-.334zM6 .667h6.119l1.363 3H6v-3zm-2.667 0h2v3h-2v-3zm1 9.333A1.335 1.335 0 0 1 3 8.667c0-.736.598-1.334 1.333-1.334a1.335 1.335 0 0 1 0 2.667zm11.334 0a1.335 1.335 0 0 1-1.334-1.333 1.335 1.335 0 0 1 2.667 0C17 9.402 16.402 10 15.667 10zm3.666-1.667H17.64l-.006-.022a1.975 1.975 0 0 0-.224-.623l-.022-.037a2.004 2.004 0 0 0-.18-.258l-.006-.007a2.016 2.016 0 0 0-.22-.223l-.026-.024a2.007 2.007 0 0 0-.248-.177l-.043-.027a1.982 1.982 0 0 0-.272-.13l-.05-.018a1.987 1.987 0 0 0-.3-.084l-.04-.006a2 2 0 0 0-.335-.03 2 2 0 0 0-.336.03c-.013.003-.027.004-.04.006-.103.02-.203.049-.3.084l-.05.018c-.093.037-.184.08-.271.13l-.044.027c-.087.053-.17.112-.248.177l-.026.024a2.016 2.016 0 0 0-.22.223l-.006.006c-.066.081-.125.168-.18.26l-.022.036a1.995 1.995 0 0 0-.224.623c-.001.008-.004.015-.006.022H6.306c-.002-.007-.005-.014-.006-.022a1.975 1.975 0 0 0-.224-.623l-.023-.037a2.004 2.004 0 0 0-.18-.259l-.005-.006a2.016 2.016 0 0 0-.22-.223l-.026-.024a2 2 0 0 0-.248-.177l-.044-.027a1.982 1.982 0 0 0-.272-.13l-.05-.019a1.987 1.987 0 0 0-.3-.083l-.039-.006a2 2 0 0 0-.336-.03 2 2 0 0 0-.335.03l-.04.006c-.103.02-.203.049-.3.083l-.05.019c-.094.037-.185.08-.272.13l-.043.027c-.087.053-.17.112-.248.177l-.026.024a2.016 2.016 0 0 0-.22.223l-.006.006c-.067.081-.126.168-.18.259l-.022.037a1.995 1.995 0 0 0-.224.623l-.006.022H.667V7H2c.184 0 .333-.15.333-.334V4.333h3v.015H6v-.015h10.667a2.002 2.002 0 0 1 1.98 2.286.334.334 0 0 0 .33.381h.356v1.333z"/>
            <circle cx="15.667" cy="8.667" r="1"/>
            <circle cx="4.333" cy="8.667" r="1"/>
        </g>
    </g>
</svg>
