<svg xmlns="http://www.w3.org/2000/svg" width="20" height="20" viewBox="0 0 20 20">
    <g fill="none" fill-rule="evenodd">
        <path fill="#4A4A4A" fill-rule="nonzero" d="M12.338 4.753a.403.403 0 0 0-.398.406v1.98c0 .225.178.407.398.407.22 0 .399-.182.399-.406V5.16a.403.403 0 0 0-.399-.407zM15.854 6.344a.393.393 0 0 0-.564 0l-.82.838a.413.413 0 0 0 0 .575.393.393 0 0 0 .563 0l.82-.838a.413.413 0 0 0 0-.575zM10.356 7.182l-.82-.838a.393.393 0 0 0-.564 0 .413.413 0 0 0 0 .575l.82.838a.393.393 0 0 0 .564 0 .413.413 0 0 0 0-.575z"/>
        <path fill="#4A4A4A" fill-rule="nonzero" d="M19.602 8.483H18.15c.202-.438.307-.919.307-1.416 0-1.834-1.462-3.326-3.26-3.326h-.003a3.253 3.253 0 0 0-2.857-1.725A3.254 3.254 0 0 0 9.482 3.74h-.004c-1.797 0-3.26 1.492-3.26 3.326 0 .5.11.975.327 1.416H5.448V5.301a.403.403 0 0 0-.398-.407c-1.632 0-2.96 1.356-2.96 3.022 0 .19.017.38.052.567H.398A.403.403 0 0 0 0 8.89c0 5.645 4.486 10.237 10 10.237S20 14.535 20 8.89a.403.403 0 0 0-.398-.407zM9.478 4.554c.065 0 .134.003.211.01a.398.398 0 0 0 .398-.24 2.464 2.464 0 0 1 2.251-1.495c.973 0 1.856.587 2.251 1.495a.397.397 0 0 0 .398.24c.077-.007.147-.01.212-.01 1.357 0 2.462 1.127 2.462 2.513 0 .512-.147 1-.426 1.416h-9.76a2.367 2.367 0 0 1-.46-1.416c0-1.386 1.105-2.513 2.463-2.513zM4.652 5.745v2.738H2.957a2.313 2.313 0 0 1-.07-.567c0-1.079.761-1.98 1.765-2.17zM10 18.314c-4.941 0-8.986-4.009-9.195-9.017h18.39c-.21 5.008-4.254 9.017-9.195 9.017z"/>
        <path d="M0 0h20v20H0z"/>
    </g>
</svg>
