<svg xmlns="http://www.w3.org/2000/svg" width="20" height="20" viewBox="0 0 20 20">
    <g fill="#4A4A4A" fill-rule="nonzero">
        <path d="M19.252 9.152c.678-.884.384-1.712.153-2.001-.507-.775-1.206-1.253-2.079-1.42-.069-.013-.14-.017-.209-.026.09-.077.176-.154.258-.232.585-.564.866-1.167.835-1.791-.049-.956-.828-1.575-.862-1.601l-.015-.012c-1.373-.948-2.915.2-2.98.25l-.058.056c-.024.03-.047.065-.071.096A2.782 2.782 0 0 0 12.981.614c-.159-.13-1.169-.889-2.348-.28a2.115 2.115 0 0 0-.403.28C9.885.517 9.501.487 9.12.624c-.517.186-.856.634-.906 1.198-.053.6.244 1.18.757 1.48.47.274 1.033.78 1.555 1.71a2.145 2.145 0 0 0-.895.116c-1.694.62-8.393 10.6-9.581 13.84-.1.274-.048.56.136.747.123.125.288.19.464.19.089 0 .18-.017.27-.05 3.21-1.218 13.064-7.996 13.663-9.69.081-.232.12-.475.123-.725.914.456 1.397.899 1.65 1.25.367.513.959.83 1.55.83h.019a1.45 1.45 0 0 0 1.199-.63c.401-.589.259-1.223.045-1.638.028-.033.058-.066.083-.099zm-.387-1.604c.038.05.35.503-.1 1.135l-.043-.05a5.92 5.92 0 0 0-.264-.29l-.059-.06c-1.043-1.039-2.232-1.366-3.312-1.366-.382 0-.751.041-1.095.105a8.782 8.782 0 0 1 .271-.12 7.61 7.61 0 0 1 .176-.073 8.415 8.415 0 0 1 .789-.273 6.546 6.546 0 0 1 .67-.15c.05-.01.1-.016.15-.022a3.652 3.652 0 0 1 1.156.014c.699.134 1.237.503 1.661 1.15zM14.783 2.84c.194-.135 1.27-.824 2.165-.216.06.05.566.491.596 1.093.021.417-.19.842-.628 1.264a6.35 6.35 0 0 1-.927.725c-.045.006-.089.015-.133.022a6.372 6.372 0 0 0-.279.047c-.064.013-.126.028-.19.043-.073.017-.145.033-.217.053a6.395 6.395 0 0 0-.397.116 8.765 8.765 0 0 0-.377.133c-.069.025-.137.05-.204.078-.046.018-.09.037-.134.056a10.98 10.98 0 0 0-.812.38c.205-.385.42-.841.602-1.334.011-.03.024-.06.035-.092.031-.088.06-.177.089-.267l.047-.147c.025-.085.048-.17.07-.257a6.722 6.722 0 0 0 .162-.847c.004-.03.01-.06.013-.09.171-.286.342-.537.519-.76zM10.948.933c.85-.43 1.59.187 1.62.212.011.01.023.02.036.028.536.35.853.821.969 1.44.049.263.056.54.036.82l-.002.031c-.044.534-.193 1.084-.383 1.596a4.98 4.98 0 0 0-.056-.997l-.006-.03a4.686 4.686 0 0 0-.074-.354l-.03-.11a4.038 4.038 0 0 0-.055-.181l-.017-.05a4.038 4.038 0 0 0-.806-1.372l-.032-.036a4.291 4.291 0 0 0-.171-.18l-.09-.085c-.047-.044-.092-.087-.142-.13a5.283 5.283 0 0 0-.287-.234 3.14 3.14 0 0 0-.169-.137l-.001-.001a3.771 3.771 0 0 0-.329-.222l-.011-.008zm-1.645 1.78a.874.874 0 0 1-.425-.831.703.703 0 0 1 .465-.62.963.963 0 0 1 .33-.056 1.488 1.488 0 0 1 .52.107l.013.005c.057.022.114.046.168.072l.077.04c.044.023.087.046.127.069.015.01.031.018.046.027.179.11.316.218.384.274l.023.02a4.344 4.344 0 0 1 .427.365c.035.034.064.07.098.104.085.088.167.178.242.271.032.041.06.083.09.124a3.476 3.476 0 0 1 .256.404c.062.118.12.239.168.363l.023.058c.235.636.288 1.358.156 2.162a6.868 6.868 0 0 1-.419 1.455c-.056-.206-.116-.4-.177-.59l-.03-.093a12.308 12.308 0 0 0-.176-.495l-.03-.08c-.717-1.846-1.631-2.733-2.356-3.155zm4.652 7.22c-.18.509-1.432 1.617-3.121 2.9-.029-.011-.057-.024-.089-.028-.544-.06-1.25-.347-1.597-.85a.33.33 0 0 0-.465-.08.342.342 0 0 0-.08.472c.37.533.972.856 1.52 1.018a84.295 84.295 0 0 1-3.415 2.381.324.324 0 0 0-.18-.087c-.341-.038-.783-.215-.998-.525a.33.33 0 0 0-.464-.081.343.343 0 0 0-.08.472c.244.353.629.575.994.698-2.158 1.398-4.198 2.58-5.292 2.995l-.019.007a.183.183 0 0 1 .006-.02c.269-.734.769-1.722 1.4-2.83.012.013.02.028.033.038.24.179.494.334.756.461a.33.33 0 0 0 .445-.16.341.341 0 0 0-.157-.451 4.053 4.053 0 0 1-.65-.396.322.322 0 0 0-.104-.05 74.555 74.555 0 0 1 2.666-4.17c.127.336.337.676.649.9a.331.331 0 0 0 .465-.081.343.343 0 0 0-.08-.473c-.306-.219-.48-.667-.517-1.015-.002-.02-.012-.035-.017-.054A65.123 65.123 0 0 1 7.678 8.06c.159.559.477 1.173 1.002 1.55a.33.33 0 0 0 .465-.081.343.343 0 0 0-.08-.473C8.571 8.7 8.29 7.983 8.23 7.43c-.002-.015-.01-.027-.013-.04.75-.909 1.345-1.517 1.64-1.625.164-.06.333-.09.51-.09.167 0 .342.027.525.08.147.338.281.704.403 1.094l.024.076c.05.165.098.335.144.508l.031.116c.053.206.103.416.15.633.002.014.01.027.014.04.005.014.008.028.014.04l.005.012.02.028a.099.099 0 0 0 .006.007c.008.01.014.022.023.031l.005.007a.018.018 0 0 0 .003.002c.01.01.021.017.032.025l.007.006c.008.007.016.015.025.02l.012.006.024.012.023.008c.01.004.019.01.03.013.191.05.378.1.56.153l.12.036c.142.042.283.085.42.128l.102.034c.142.047.281.094.415.143l.07.025c.154.057.304.114.448.173.044.286.022.55-.067.802zm4.621.568a.778.778 0 0 1-.659.339h-.012c-.381 0-.767-.21-1.011-.55-.462-.644-1.285-1.216-2.447-1.712l-.006-.004-.04-.016a15.556 15.556 0 0 0-1.321-.48l-.16-.052.085-.032c.01-.003.02 0 .03-.004 1.04-.386 2.82-.759 4.362.33.08.057.158.122.237.186.037.031.076.058.113.09.237.21.466.458.685.75l.043.058.004.004c.113.158.404.644.097 1.093z"/>
        <path d="M13.46 9.81c-.683-.264-1.316-.74-1.881-1.412a.33.33 0 0 0-.47-.037.343.343 0 0 0-.037.478c.639.76 1.362 1.3 2.15 1.605a.332.332 0 0 0 .43-.196.341.341 0 0 0-.193-.437z"/>
    </g>
</svg>
