<svg xmlns="http://www.w3.org/2000/svg" width="20" height="20" viewBox="0 0 20 20">
    <g fill="#4A4A4A" fill-rule="nonzero">
        <path d="M19.885 3.774L16.226.114a.392.392 0 0 0-.317-.112l-2.034.205a.392.392 0 0 0-.353.368l-.174 3.015a8.772 8.772 0 0 0-4.522-1.242 8.768 8.768 0 0 0-6.24 2.585A8.768 8.768 0 0 0 0 11.174c0 2.358.918 4.574 2.585 6.241A8.768 8.768 0 0 0 8.826 20a8.768 8.768 0 0 0 6.241-2.585 8.768 8.768 0 0 0 2.585-6.241c0-1.618-.432-3.17-1.242-4.522l3.017-.175a.392.392 0 0 0 .366-.352l.205-2.034a.392.392 0 0 0-.113-.317zm-1.952-.842l-.403.727L16.34 2.47l.728-.403.864.865zm-.967 1.272l-1.728.905a8.985 8.985 0 0 0-.347-.347l.905-1.728 1.17 1.17zM15.803.801l.688.689-.727.403-.988-.988 1.027-.104zm-1.548.693l.96.96-.934 1.78a8.712 8.712 0 0 0-.176-.135l.15-2.605zm.257 15.366a7.989 7.989 0 0 1-5.686 2.355A7.99 7.99 0 0 1 3.14 16.86a7.989 7.989 0 0 1-2.355-5.686c0-2.148.836-4.168 2.355-5.686a8.016 8.016 0 0 1 5.686-2.352c2.06 0 4.119.784 5.686 2.352 3.136 3.135 3.136 8.237 0 11.372zm1.39-10.965a9.004 9.004 0 0 0-.136-.176l1.78-.934.96.96-2.605.15zm3.193-.67l-.988-.99.403-.726.689.688-.104 1.027z"/>
        <path d="M8.826 3.917a7.21 7.21 0 0 0-5.131 2.125 7.208 7.208 0 0 0-2.123 5.132c0 1.94.754 3.763 2.123 5.131a7.21 7.21 0 0 0 5.131 2.126 7.21 7.21 0 0 0 5.132-2.126 7.208 7.208 0 0 0 2.122-5.131c0-1.94-.754-3.763-2.122-5.132a7.21 7.21 0 0 0-5.132-2.125zm4.577 11.834a6.43 6.43 0 0 1-4.577 1.895 6.43 6.43 0 0 1-4.577-1.895 6.428 6.428 0 0 1-1.892-4.577c0-1.731.672-3.356 1.892-4.577a6.43 6.43 0 0 1 4.577-1.896 6.43 6.43 0 0 1 4.577 1.896 6.429 6.429 0 0 1 1.892 4.577 6.429 6.429 0 0 1-1.892 4.577z"/>
    </g>
</svg>
