<svg xmlns="http://www.w3.org/2000/svg" width="20" height="20" viewBox="0 0 20 20">
    <g fill="#4A4A4A" fill-rule="nonzero">
        <ellipse cx="6.567" cy="9.769" rx="1" ry="1"/>
        <ellipse cx="13.433" cy="9.769" rx="1" ry="1"/>
        <path d="M12.5 20l.005-1.436h.832c2.462 0 4.466-1.872 4.466-4.173v-1.11c1.228-.289 2.141-1.33 2.141-2.565 0-1.218-.91-2.273-2.141-2.564v-.86C17.803 3.272 14.303 0 10 0S2.197 3.271 2.197 7.292v.86C.967 8.443.055 9.498.055 10.715c0 1.237.913 2.277 2.142 2.565v1.11c0 2.302 2.003 4.174 4.466 4.174h.832L7.5 20h5zm5.303-9.158V9.095c.69.26 1.178.896 1.178 1.62 0 .735-.489 1.364-1.178 1.62v-1.493zm-15.606 0v1.494c-.69-.257-1.179-.886-1.179-1.62 0-.725.488-1.362 1.179-1.62v1.746zM10 19.077H8.458V17.991c0 .029.628.093.686.099a8.419 8.419 0 0 0 2.398-.1v1.087H10zm6.84-4.686c0 1.805-1.572 3.273-3.503 3.273h-.58l.082-.03.057-.021a7.99 7.99 0 0 0 2.31-1.344 7.473 7.473 0 0 0 1.634-1.913v.035zM3.16 7.29C3.16 3.768 6.228.9 10 .9s6.84 2.867 6.84 6.392v.68c-2.451-.506-5.064-1.773-6.248-3.942a3.326 3.326 0 0 1-.027-.052c-.076-.144-.11-.228-.11-.23A.48.48 0 0 0 10 3.446a.481.481 0 0 0-.446.283c-.002.006-.006.01-.008.017-.002.006-.175.446-.647 1.046l-.004.004a6.437 6.437 0 0 1-.043.054l-.032.04-.015.017a7.781 7.781 0 0 1-1.879 1.619l-.015.01a9.162 9.162 0 0 1-.224.134l-.043.025c-1.17.673-2.423 1.057-3.484 1.277v-.68zm3.503 10.374c-1.931 0-3.503-1.469-3.503-3.274v-.035c.187.315.4.62.638.911a7.696 7.696 0 0 0 2.001 1.717c.413.247.85.458 1.305.629l.057.02.082.032h-.58zm.787-.905c-2.37-.907-4.074-3.052-4.27-5.444-.066-.802-.02-1.62-.02-2.423 0-.027 1.385-.326 1.517-.366.543-.164 1.072-.369 1.582-.61 1.38-.652 2.653-1.56 3.54-2.754.074-.1.14-.195.2-.285a7.516 7.516 0 0 0 1.178 1.364l.035.032c.794.723 1.758 1.303 2.76 1.748.913.405 1.88.681 2.868.871 0 1.46.108 2.935-.488 4.318-.47 1.091-1.273 2.046-2.281 2.747a7.172 7.172 0 0 1-3.824 1.272 7.157 7.157 0 0 1-2.797-.47z"/>
        <path d="M12.833 12.96a.503.503 0 0 0-.672-.104c-.452.303-1.28.49-2.16.49-.882 0-1.71-.187-2.162-.49a.503.503 0 0 0-.672.104.431.431 0 0 0 .11.627c.617.413 1.635.66 2.723.66 1.088 0 2.106-.247 2.722-.66a.431.431 0 0 0 .111-.627z"/>
    </g>
</svg>
