<svg xmlns="http://www.w3.org/2000/svg" width="20" height="20" viewBox="0 0 20 20">
    <g fill="none" fill-rule="evenodd">
        <path d="M0 0h20v20H0z"/>
        <g fill="#4A4A4A" fill-rule="nonzero">
            <path d="M8.087 17.999a8.08 8.08 0 1 1 0-16.162 8.08 8.08 0 0 1 0 16.162zm.063-.799a7.25 7.25 0 1 0 0-14.5 7.25 7.25 0 0 0 0 14.5z"/>
            <path d="M14.376 15.099l4.687 3.56a.58.58 0 0 0 .82-.119.598.598 0 0 0-.117-.83l-4.687-3.561a.58.58 0 0 0-.82.119.598.598 0 0 0 .117.83z"/>
        </g>
        <path fill-rule="nonzero" stroke="#4A4A4A" stroke-width=".7" d="M8.333 10.686c-1.38 0-2.5-1.173-2.5-2.62 0-1.448 1.12-2.62 2.5-2.62 1.381 0 2.5 1.172 2.5 2.62 0 1.447-1.119 2.62-2.5 2.62zm0 0c2.148 0 3.89 1.825 3.89 4.076H4.443c0-2.251 1.742-4.076 3.89-4.076z"/>
    </g>
</svg>
