<svg xmlns="http://www.w3.org/2000/svg" width="20" height="20" viewBox="0 0 20 20">
    <g fill="none" fill-rule="evenodd">
        <path fill="#4A4A4A" fill-rule="nonzero" d="M16.673 6.321a16.703 16.703 0 0 0-.881-2.783C14.826 1.257 13.56 0 12.228 0 10.895 0 9.63 1.251 8.665 3.523c-.34.8-.624 1.692-.844 2.62L6.486 1.227a.41.41 0 0 0-.79 0L2.015 14.784a.412.412 0 0 0 .395.519h3.273v3.286a.41.41 0 1 0 .819 0v-3.286h3.273a.408.408 0 0 0 .406-.45 4.862 4.862 0 0 0 1.64.432v3.304a.41.41 0 1 0 .818 0v-3.303a4.885 4.885 0 0 0 2.793-1.177c2.495-2.374 1.657-5.727 1.242-7.788zm-7.435 8.16H6.501v-.651l.724-.727c.16-.16.16-.42 0-.581a.408.408 0 0 0-.58 0l-.144.146V9.962a.41.41 0 1 0-.819 0v1.884l-.529-.531a.408.408 0 0 0-.578 0c-.16.16-.16.42 0 .58l1.107 1.113V14.481H2.945L6.09 2.896 7.478 8a17.788 17.788 0 0 0-.166 2.367c0 1.561.726 2.955 1.857 3.86l.069.254zm3.4-.651l1.516-1.523c.16-.16.16-.42 0-.581a.408.408 0 0 0-.578 0l-.938.942v-1.714l1.107-1.112c.16-.16.16-.42 0-.581a.408.408 0 0 0-.578 0l-.53.53V8.73a.41.41 0 1 0-.818 0V11.846l-.938-.942a.408.408 0 0 0-.578 0c-.16.16-.16.42 0 .581l1.516 1.523v1.452a4.114 4.114 0 0 1-3.688-4.093c0-2.185.48-4.623 1.287-6.521.816-1.922 1.84-3.024 2.81-3.024.969 0 1.993 1.107 2.81 3.038.807 1.903 1.288 4.335 1.288 6.507 0 2.13-1.62 3.887-3.688 4.093v-.63z"/>
        <path d="M0 0h20v20H0z"/>
    </g>
</svg>
