<svg xmlns="http://www.w3.org/2000/svg" width="20" height="20" viewBox="0 0 20 20">
    <g fill="none" fill-rule="evenodd">
        <path fill="#4A4A4A" fill-rule="nonzero" d="M17.072 7.261l-.166-.249c-.954-1.452-2.116-3.152-3.65-4.48-1.162-.996-2.988-2.24-5.311-2.448C7.28.043 6.7.084 6.203.21c-1.37.415-2.407 1.7-2.448 3.111-.042 1.452.954 2.821 2.323 3.195 1.37.373 2.987-.374 3.568-1.66.29-.622.415-.705.498-.705.041 0 .124.124.124.166a8.892 8.892 0 0 1 1.66 4.273A5.794 5.794 0 0 0 8.36 8.09c-1.037.166-2.448.747-3.444 2.365-.746-.498-1.576-.996-2.489-1.037a.377.377 0 0 0-.29.124.448.448 0 0 0-.124.29v9.708c0 .208.165.415.414.415h.042c1.66 0 3.194-1.12 3.817-2.614.622.498 1.452.83 2.406.872 2.489.166 5.31-1.162 6.72-2.531.789-.747 2.614-2.904 2.614-6.181-.041-.83-.54-1.577-.954-2.24zm-2.282 7.841c-1.286 1.245-3.941 2.448-6.098 2.282-1.037-.083-1.826-.456-2.324-1.12a.394.394 0 0 0-.414-.166c-.166.041-.29.166-.29.332-.25 1.327-1.453 2.447-2.863 2.613v-8.878c.705.166 1.369.664 1.95 1.079.082.083.207.083.331.083a.48.48 0 0 0 .29-.207c.872-1.618 2.158-2.158 3.112-2.324 1.452-.249 2.946.208 3.61.83.124.124.29.124.456.083.166-.083.249-.207.249-.373a9.93 9.93 0 0 0-1.867-5.56c-.125-.165-.249-.331-.456-.414-.872-.374-1.37.705-1.577 1.12-.415.954-1.618 1.452-2.614 1.203-.995-.29-1.742-1.328-1.7-2.365.041-1.037.83-2.033 1.825-2.323A3.134 3.134 0 0 1 7.82.914c2.075.207 3.776 1.328 4.854 2.24 1.452 1.286 2.614 2.904 3.485 4.315l.166.249c.373.58.788 1.203.788 1.825.042 2.946-1.618 4.895-2.323 5.56z"/>
        <path d="M0 0h20v20H0z"/>
    </g>
</svg>
