<svg xmlns="http://www.w3.org/2000/svg" width="20" height="20" viewBox="0 0 20 20">
    <g fill="none" fill-rule="evenodd">
        <path fill="#4A4A4A" fill-rule="nonzero" stroke="#4A4A4A" stroke-width=".1" d="M16.274 2.045c-.947 0-1.717.782-1.717 1.744V7.09c0 .986-.71 1.805-1.639 1.958V2.456C12.918 1.102 11.833 0 10.5 0 9.167 0 8.082 1.102 8.082 2.456v9.442a1.978 1.978 0 0 1-1.64-1.958V6.638c0-.962-.77-1.744-1.716-1.744-.947 0-1.717.782-1.717 1.744V9.94c0 2.91 2.248 5.296 5.073 5.462v3.96h-.943a.317.317 0 0 0-.314.319c0 .176.14.319.314.319h6.722a.317.317 0 0 0 .314-.32c0-.175-.14-.318-.314-.318h-.943v-6.809c2.825-.166 5.073-2.552 5.073-5.462V3.79c0-.962-.77-1.744-1.717-1.744zm1.089 5.046c0 2.665-2.135 4.833-4.76 4.833a.317.317 0 0 0-.313.32v7.118H8.71v-4.27c0-.176-.14-.319-.314-.319-2.624 0-4.759-2.168-4.759-4.833V6.638c0-.61.489-1.106 1.089-1.106s1.088.496 1.088 1.106V9.94c0 1.338.992 2.444 2.268 2.602v.552c0 .177.14.32.314.32a.317.317 0 0 0 .314-.32V2.456c0-1.002.803-1.818 1.79-1.818s1.79.816 1.79 1.818v7.79c0 .176.14.319.314.319a.317.317 0 0 0 .314-.32v-.552c1.276-.158 2.268-1.264 2.268-2.602V3.79c0-.61.488-1.106 1.088-1.106.6 0 1.089.496 1.089 1.106V7.09z"/>
        <path d="M0 0h20v20H0z"/>
    </g>
</svg>
