<svg xmlns="http://www.w3.org/2000/svg" width="20" height="20" viewBox="0 0 20 20">
    <g fill="none" fill-rule="evenodd">
        <path d="M0 0h20v20H0z"/>
        <path fill="#4A4A4A" fill-rule="nonzero" d="M19.246 11.131a2.555 2.555 0 0 0-1.849-.791c-1.442 0-2.57 1.18-2.57 2.693 0 1.487 1.132 2.655 2.57 2.655 1.46 0 2.603-1.164 2.603-2.655 0-.722-.267-1.394-.754-1.902zm-1.849 3.738c-1 0-1.75-.787-1.75-1.836 0-1.05.77-1.873 1.75-1.873 1 0 1.783.823 1.783 1.873 0 1.028-.783 1.836-1.783 1.836zM17.397 7.098c.226 0 .41-.184.41-.41v-1.34a.411.411 0 0 0-.41-.41.411.411 0 0 0-.41.41v1.34c0 .226.185.41.41.41zM3.471 10.34c-1.443 0-2.57 1.18-2.57 2.693 0 1.487 1.132 2.655 2.57 2.655 1.463 0 2.607-1.164 2.602-2.655 0-.722-.266-1.394-.754-1.902a2.555 2.555 0 0 0-1.848-.791zm0 4.529c-1 0-1.75-.787-1.75-1.836 0-1.05.77-1.873 1.75-1.873 1 0 1.787.823 1.783 1.873 0 1.028-.783 1.836-1.783 1.836z"/>
        <path fill="#4A4A4A" fill-rule="nonzero" d="M17.04 9.598a.411.411 0 0 0 .554.168.407.407 0 0 0 .164-.549l-2.61-4.967a.405.405 0 0 0-.365-.217h-1.287a.411.411 0 0 0-.41.41c0 .225.184.41.41.41h1.04l.75 1.426h-4.852c-.14 0-.27.07-.344.188l-.467.73-8.345-.013a.407.407 0 0 0-.368.234L.04 9.229a.406.406 0 0 0 .025.398.41.41 0 0 0 .349.193h5.012l2.488 3.454c.078.107.2.173.332.173h4.352c.156 0 .3-.09.369-.234l2.86-5.922 1.214 2.307zm-4.704 3.025H8.45L5.963 9.168a.414.414 0 0 0-.332-.172H1.06l.476-.992 7.561.012-.75 1.172a.413.413 0 0 0-.016.418.412.412 0 0 0 .36.214h4.996l-1.352 2.803zm1.742-3.627H9.442l1.218-1.898H15l-.922 1.898z"/>
    </g>
</svg>
