<svg xmlns="http://www.w3.org/2000/svg" width="20" height="20" viewBox="0 0 20 20">
    <g fill="none" fill-rule="evenodd">
        <path fill="#4A4A4A" fill-rule="nonzero" d="M19.67 9.933l-.002-.1-.002-.136-.001-.033c-.064-2.729-.898-5.19-2.204-6.945C16.301 1.15 14.767.14 13.07 0h-.066l-.072.008A4.95 4.95 0 0 0 12.67 0H8.003C6.269 0 4.683.905 3.46 2.399a.368.368 0 0 0-.085.106C1.92 4.34 1.003 7.024 1.003 10c0 5.5 3.133 10 7 10h4.666c.095 0 .19-.004.284-.009.028.003.055.007.083.009 3.2-.267 5.867-3.533 6.5-8.033l.01-.105c.08-.604.123-1.226.123-1.862v-.067zM8.644 15.248a.288.288 0 0 0-.044-.107c-.59-1.476-.932-3.242-.932-5.141 0-4.921 2.324-8.958 5.285-9.323 3.367.22 6.049 4.33 6.049 9.323 0 4.994-2.682 9.104-6.05 9.324-1.81-.221-3.363-1.785-4.308-4.076zm-6.56-1.928a.918.918 0 0 0 .218-.12l.433-.667.7.7a.322.322 0 0 0 .467 0l.766-.766.8.8a.322.322 0 0 0 .467 0l.8-.8.548.49c.116.594.266 1.166.448 1.707l-.596-.297c-.167-.1-.333-.034-.433.1l-.434.666-.7-.7a.322.322 0 0 0-.466 0l-.767.767-.767-.767a.322.322 0 0 0-.466 0l-.482.482a11.585 11.585 0 0 1-.537-1.595zm-.414-3.156l.832.47c.133.066.3.033.4-.067l.766-.767.8.767a.322.322 0 0 0 .467 0l.8-.8 1.276.771c.016.48.053.95.11 1.41l-.253-.215a.35.35 0 0 0-.433.034l-.767.766-.766-.766a.322.322 0 0 0-.467 0l-.767.766-.766-.766a.378.378 0 0 0-.267-.1c-.1 0-.2.066-.267.133l-.468.702c-.141-.746-.22-1.53-.23-2.338zM2.76 4.771l.743.496c.1.066.266.066.366 0l.8-.534.834.567c.1.067.266.067.366 0l.834-.567 1.062.516c-.176.51-.323 1.048-.44 1.606l-.422-.422a.322.322 0 0 0-.467 0l-.767.767-.766-.767a.322.322 0 0 0-.467 0l-.767.767-.766-.767a.303.303 0 0 0-.234-.1c-.1 0-.166.034-.233.1l-.392.406c.18-.736.422-1.43.716-2.068zm1.073-1.79l2.103-.614.867.566c.1.067.266.067.366 0l.834-.566.93.451c-.358.548-.675 1.16-.943 1.826l-1.22-.61a.395.395 0 0 0-.334.033l-.8.533-.8-.533a.361.361 0 0 0-.367 0l-.8.533-.607-.43c.233-.429.49-.827.77-1.189zm2.003 6.086a.354.354 0 0 0-.4.066l-.767.767-.766-.767a.322.322 0 0 0-.467 0l-.833.834-.922-.53c.02-.5.067-.987.14-1.462a.35.35 0 0 0 .115-.075l.733-.767.767.767a.322.322 0 0 0 .467 0l.766-.767.767.767a.322.322 0 0 0 .467 0l.766-.767.434.434a.353.353 0 0 0 .08.06c-.106.69-.168 1.406-.179 2.14l-1.168-.7zm5.217-8.4c-.64.392-1.227.943-1.744 1.62L8.136 1.7a.395.395 0 0 0-.333.033l-.8.534-.8-.534c-.1-.066-.2-.066-.3-.066l-1.155.33c.95-.844 2.064-1.33 3.255-1.33h3.05zM2.916 15.553l.42-.42.767.767a.322.322 0 0 0 .466 0l.767-.767.767.767c.066.067.133.1.233.1.133 0 .233-.067.267-.167l.5-.766.962.481c.251.592.54 1.14.865 1.634l-.627.418-.8-.533a.361.361 0 0 0-.367 0l-.8.533-.8-.533a.361.361 0 0 0-.367 0l-.823.549a8.543 8.543 0 0 1-1.43-2.063zm5.087 3.78c-1.158 0-2.243-.46-3.176-1.26l.509-.34.833.534c.1.066.267.066.367 0l.8-.534.767.567c.1.067.266.067.366 0l.852-.568c.518.669 1.105 1.212 1.743 1.601H8.003z"/>
        <path fill="#4A4A4A" fill-rule="nonzero" d="M13.336 2.667c-1.726 0-3.173 1.93-3.741 4.7a9.814 9.814 0 0 0-.054.278l-.014.08a12.273 12.273 0 0 0-.135 1.027l-.009.1-.017.225-.005.084a13.76 13.76 0 0 0-.01.2l-.003.058c-.004.083-.006.167-.008.252l-.001.065a14.125 14.125 0 0 0 .009.845c0 .02.002.04.003.059l.01.2.005.083c.005.075.01.15.017.224l.009.101a13.66 13.66 0 0 0 .135 1.027l.014.08a11.863 11.863 0 0 0 .054.278c.568 2.77 2.015 4.7 3.74 4.7 2.234 0 4-3.233 4-7.333s-1.766-7.333-4-7.333zm-3.289 8.387l-.005-.061-.007-.092a11.766 11.766 0 0 1-.009-.13l-.004-.074a12.902 12.902 0 0 1-.01-.204l-.001-.037a13.204 13.204 0 0 1-.007-.645c.019-1.243.22-2.416.55-3.414.489.835.782 2.154.782 3.603 0 1.45-.293 2.768-.783 3.603a11.164 11.164 0 0 1-.506-2.549zm3.289 5.613c-.98 0-1.882-.91-2.5-2.32.707-.868 1.167-2.521 1.167-4.347 0-1.826-.46-3.479-1.166-4.346.617-1.41 1.518-2.32 2.499-2.32 1.8 0 3.333 3.066 3.333 6.666 0 3.6-1.533 6.667-3.333 6.667z"/>
        <path d="M0 0h20v20H0z"/>
    </g>
</svg>
