<svg xmlns="http://www.w3.org/2000/svg" width="20" height="20" viewBox="0 0 20 20">
    <g fill="none" fill-rule="evenodd">
        <path d="M0 0h20v20H0z"/>
        <path fill="#4A4A4A" fill-rule="nonzero" d="M19.46 11.429c0-.365-.108-.705-.294-.99.076-.47.114-.95.114-1.43C19.28 4.04 15.22 0 10.23 0 5.24 0 1.18 4.041 1.18 9.009c0 .48.039.96.114 1.43a1.805 1.805 0 0 0-.294.99c0 .907.67 1.662 1.543 1.8C3.01 17.038 6.28 20 10.23 20c3.952 0 7.221-2.961 7.687-6.772a1.828 1.828 0 0 0 1.544-1.8zm-17.77 0c0-.507.335-.937.796-1.083v1.945c0 .074.001.148.003.221a1.139 1.139 0 0 1-.8-1.083zm8.54 7.884c-3.89 0-7.054-3.15-7.054-7.022v-3.55c0-.53.28-1 .747-1.255a1.41 1.41 0 0 1 1.45.046 9.051 9.051 0 0 0 4.857 1.406 9.052 9.052 0 0 0 4.858-1.406 1.41 1.41 0 0 1 1.45-.046c.467.255.747.725.747 1.255v3.55c0 3.872-3.165 7.022-7.055 7.022zm6.639-12.43a2.093 2.093 0 0 0-2.152.07A8.36 8.36 0 0 1 10.23 8.25a8.36 8.36 0 0 1-4.487-1.298 2.094 2.094 0 0 0-2.151-.07 2.09 2.09 0 0 0-1.106 1.858v.898c-.205.039-.398.112-.573.214a8.394 8.394 0 0 1-.043-.844c0-4.59 3.75-8.322 8.36-8.322 4.61 0 8.36 3.733 8.36 8.322 0 .282-.014.564-.043.843a1.823 1.823 0 0 0-.572-.213V8.74a2.09 2.09 0 0 0-1.106-1.857zm1.102 5.63a7.7 7.7 0 0 0 .004-.222v-1.945c.46.146.796.576.796 1.083 0 .508-.337.939-.8 1.083z"/>
        <ellipse cx="7.488" cy="12.097" fill="#4A4A4A" fill-rule="nonzero" rx="1" ry="1"/>
        <ellipse cx="13.301" cy="12.097" fill="#4A4A4A" fill-rule="nonzero" rx="1" ry="1"/>
        <path fill="#4A4A4A" fill-rule="nonzero" d="M11.612 14.157a.312.312 0 0 0-.313.31.953.953 0 1 1-1.909 0 .312.312 0 0 0-.624 0c0 .867.708 1.572 1.58 1.572.87 0 1.578-.705 1.578-1.571 0-.172-.14-.311-.312-.311z"/>
    </g>
</svg>
