<svg xmlns="http://www.w3.org/2000/svg" width="20" height="20" viewBox="0 0 20 20">
    <g fill="none" fill-rule="evenodd">
        <path fill="#4A4A4A" fill-rule="nonzero" d="M17.035 11.277c.13-.314.59-1.501.793-3.017.302-2.26-.12-4.2-1.223-5.625.044-.23.148-.66.365-.995a.409.409 0 0 0 .014-.424A.428.428 0 0 0 16.61 1c-2.05 0-3.915.395-5.201.76l.051-.049a.41.41 0 0 0 .092-.454A.426.426 0 0 0 11.16 1c-2.272 0-4.642.105-6.497 1.335-1.667.053-3.47 1.12-3.47 2.636 0 3.487.649 5.12 1.365 6.335.045 3.11 1.913 5.768 4.541 6.869 1.697.55 3.181.61 4.454.182 1.91-.643 4.52-1.286 5.483-7.08zM4.791 3.166H4.8a.433.433 0 0 0 .246-.077c1.403-.975 3.23-1.199 5.074-1.245l-.624.61a.41.41 0 0 0-.051.53.431.431 0 0 0 .522.147c.029-.012 2.707-1.14 5.971-1.283a4.271 4.271 0 0 0-.204.856.41.41 0 0 0 .092.307c1.669 2.018 1.316 4.84.878 6.542-.06-.122-.125-.244-.195-.376-.079-.147-.168-.313-.263-.508a.425.425 0 0 0-.314-.23l-1.976-.324a.433.433 0 0 0-.335.084c-.516.4-1.154.61-1.58.712v-.995c0-.165-.1-.315-.256-.381a.434.434 0 0 0-.46.075c-.903.813-1.899 1.3-2.585 1.566a172.673 172.673 0 0 0 .408-.953c.173-.415.21-.502.13-.676a.424.424 0 0 0-.254-.225c-.906-.299-1.728-.125-2.453.029-.735.156-1.315.279-1.855-.066a.432.432 0 0 0-.573.099l-.117.152c-.597.773-1.057 1.37-1.293 2.214-.359-.934-.688-2.384-.688-4.779 0-1.017 1.477-1.805 2.747-1.805zm-1.384 8.025c0-1.414.4-1.988 1.197-3.022.72.298 1.444.145 2.146-.004.532-.112 1.04-.22 1.564-.152-.186.442-.494 1.15-.727 1.681a.41.41 0 0 0 .064.43c.102.12.265.175.42.14.074-.015 1.58-.355 3.116-1.465v.615c0 .118.052.231.142.31.09.08.21.117.33.104.056-.006 1.31-.146 2.335-.862l1.58.259c.065.125.124.236.179.338.296.554.431.807.432 1.624v.004c0 3.69-2.866 6.693-6.39 6.693-3.522 0-6.388-3.003-6.388-6.693z"/>
        <path fill="#4A4A4A" fill-rule="nonzero" d="M6.616 11.663a.421.421 0 0 0-.426.417v.444c0 .23.19.417.426.417a.421.421 0 0 0 .426-.417v-.444c0-.23-.191-.417-.426-.417zM12.976 12.94a.421.421 0 0 0 .426-.416v-.444c0-.23-.19-.417-.426-.417a.421.421 0 0 0-.426.417v.444c0 .23.19.417.426.417zM11.853 15.522a.41.41 0 0 0 .112-.578.432.432 0 0 0-.592-.11c-.361.24-.95.384-1.577.384-.626 0-1.216-.144-1.578-.384a.432.432 0 0 0-.591.11.41.41 0 0 0 .112.578c.505.336 1.255.529 2.057.529s1.552-.193 2.057-.529z"/>
        <path d="M0 0h20v20H0z"/>
    </g>
</svg>
