<svg xmlns="http://www.w3.org/2000/svg" width="20" height="20" viewBox="0 0 20 20">
    <g fill="none" fill-rule="evenodd">
        <path fill="#4A4A4A" fill-rule="nonzero" d="M18.333 10.313H15.59c-.442-.442-1.983-1.98-2.909-2.901a2.898 2.898 0 0 0-2.057-.85H9.167a.417.417 0 0 0-.417.417v3.333H6.07L5.172 8.82a1.216 1.216 0 0 0-2.256.625v.869h-1.25c-.92 0-1.667.747-1.667 1.666 0 .92.748 1.667 1.667 1.667H2.5c0 .919.748 1.666 1.667 1.666s1.666-.747 1.666-1.666h8.334c0 .919.747 1.666 1.666 1.666.92 0 1.667-.747 1.667-1.666h.833c.92 0 1.667-.748 1.667-1.667s-.748-1.666-1.667-1.666zm-8.75-2.917h1.04a2.07 2.07 0 0 1 1.47.606l2.316 2.31H9.583V7.396zM3.75 9.444a.382.382 0 0 1 .709-.196l.638 1.065H3.75v-.87zm.417 5.035a.834.834 0 0 1 0-1.666.835.835 0 0 1 .833.833c0 .46-.374.833-.833.833zm11.666 0a.834.834 0 0 1 0-1.666.835.835 0 0 1 .834.833c0 .46-.374.833-.834.833zm2.5-1.666h-1.057a1.668 1.668 0 0 0-2.886 0H5.61a1.668 1.668 0 0 0-2.886 0H1.667a.834.834 0 0 1 0-1.667h16.666a.834.834 0 0 1 0 1.666z"/>
        <path d="M0 0h20v20H0z"/>
    </g>
</svg>
