<svg xmlns="http://www.w3.org/2000/svg" width="20" height="20" viewBox="0 0 20 20">
    <path fill="#4A4A4A" fill-rule="nonzero" d="M19.337 14.469c-.693-.425-1.622-.238-2.07.418-.266.388-.767.773-1.43 1.109l-1.705-3.466c.496.03.968.208 1.355.516l.427.339a1.536 1.536 0 0 0 1.092.326c.399-.033.76-.21 1.017-.501a1.369 1.369 0 0 0-.185-1.998l-.426-.339a5.506 5.506 0 0 0-3.9-1.164l-6.186.512c-.501.042-.97-.242-1.14-.69l-.492-1.296 3.742-.498c.72-.096 1.438.08 2.019.495l.566.404a1.422 1.422 0 0 0 1.024.251c.366-.049.69-.23.911-.508a1.25 1.25 0 0 0 .265-.97 1.29 1.29 0 0 0-.537-.864l-.566-.404a5.68 5.68 0 0 0-4.066-.996l-4.313.574L2.925.939C2.645.202 1.786-.182 1.009.083.233.348-.17 1.162.107 1.898L3.37 10.49c.408 1.076 1.282 1.896 2.352 2.298l-1.55 3.15c-.608-.321-1.068-.684-1.32-1.05-.448-.657-1.377-.844-2.07-.42-.692.426-.89 1.306-.441 1.962.754 1.101 2.11 2.02 3.92 2.656 1.702.598 3.707.914 5.8.914 2.09 0 4.096-.316 5.798-.914 1.81-.636 3.167-1.555 3.92-2.656.45-.656.251-1.536-.441-1.961zM15 16.36l-.183.067c-.224.079-.456.15-.693.217l-1.957-3.977.976-.08L15 16.36zm-1.785.502c-.983.199-2.05.302-3.156.302a15.93 15.93 0 0 1-3.28-.328l1.909-3.88 2.502-.208 2.025 4.114zM9.18 6.01a4.726 4.726 0 0 1 3.384.829l.566.404a.43.43 0 0 1 .179.288.417.417 0 0 1-.088.323.477.477 0 0 1-.645.086l-.567-.404a3.75 3.75 0 0 0-2.186-.696 3.9 3.9 0 0 0-.515.034l-3.932.524-.318-.84L9.18 6.01zm-4.944 4.185L.974 1.603a.539.539 0 0 1 .347-.698.586.586 0 0 1 .737.329l3.261 8.591c.312.821 1.171 1.342 2.088 1.266l6.185-.513a4.556 4.556 0 0 1 3.228.964l.426.339a.526.526 0 0 1 .071.768.594.594 0 0 1-.811.067l-.426-.339a3.355 3.355 0 0 0-2.387-.712l-6.186.512c-1.438.119-2.783-.696-3.271-1.983zm2.388 2.824a4.313 4.313 0 0 0 .963.028l.041-.003-1.755 3.567a10.975 10.975 0 0 1-.872-.294l1.623-3.298zm12.382 2.937c-.645.943-1.845 1.743-3.468 2.313-1.6.562-3.495.86-5.479.86-1.983 0-3.878-.298-5.478-.86-1.624-.57-2.823-1.37-3.468-2.313a.529.529 0 0 1 .17-.754.596.596 0 0 1 .312-.088c.189 0 .374.088.484.249.502.733 1.533 1.402 2.902 1.883 1.474.518 3.23.792 5.078.792 1.849 0 3.605-.274 5.078-.792 1.37-.48 2.4-1.15 2.902-1.883a.596.596 0 0 1 .797-.161.529.529 0 0 1 .17.754z"/>
</svg>
