<svg xmlns="http://www.w3.org/2000/svg" width="20" height="20" viewBox="0 0 20 20">
    <g fill="none" fill-rule="evenodd">
        <path d="M0 0h20v20H0z"/>
        <path fill="#4A4A4A" fill-rule="nonzero" d="M13.818 13.571H7.286a.286.286 0 0 1 0-.571h6.532a.286.286 0 0 1 0 .571z"/>
        <path fill="#4A4A4A" fill-rule="nonzero" stroke="#4A4A4A" stroke-width=".2" d="M5.84 14.681A1.842 1.842 0 0 1 4 12.841C4 11.825 4.825 11 5.84 11c1.015 0 1.84.825 1.84 1.84 0 1.016-.825 1.841-1.84 1.841zm0-3.109a1.27 1.27 0 0 0 0 2.538 1.27 1.27 0 0 0 0-2.538zM15.84 14.681a1.842 1.842 0 0 1-1.84-1.84c0-1.016.825-1.841 1.84-1.841 1.016 0 1.841.825 1.841 1.84 0 1.016-.826 1.841-1.84 1.841zm0-3.109a1.27 1.27 0 0 0 0 2.538 1.27 1.27 0 0 0 0-2.538z"/>
        <path fill="#4A4A4A" fill-rule="nonzero" stroke="#4A4A4A" stroke-width=".2" d="M13.819 13.571H7.286a.286.286 0 0 1 0-.571h6.533a.286.286 0 0 1 0 .571zM18.386 12.992h-1.373a.286.286 0 0 1 0-.571h1.373a.71.71 0 0 0 .704-.604l.305-1.95a.503.503 0 0 0-.438-.58l-3.807-.464a.288.288 0 0 1-.149-.064l-3.44-2.892a1.264 1.264 0 0 0-.813-.296H5.366a.772.772 0 0 0-.653.358L3.104 8.446a.28.28 0 0 1-.158.12l-1.942.585a.609.609 0 0 0-.424.675l.272 1.742c.077.493.495.851.994.851h2.417a.286.286 0 0 1 0 .572H1.845a1.57 1.57 0 0 1-1.56-1.335L.015 9.914a1.183 1.183 0 0 1 .823-1.31l1.843-.555L4.232 5.62C4.48 5.232 4.904 5 5.366 5h5.383c.431 0 .85.153 1.18.43l3.375 2.837 3.722.454c.293.036.551.184.728.418.178.235.25.524.206.816l-.305 1.95a1.278 1.278 0 0 1-1.27 1.087z"/>
        <path fill="#4A4A4A" fill-rule="nonzero" stroke="#4A4A4A" stroke-width=".2" d="M11.839 9.571H5.286a.286.286 0 0 1 0-.571h6.553a.286.286 0 0 1 0 .571z"/>
    </g>
</svg>
