<svg xmlns="http://www.w3.org/2000/svg" width="20" height="20" viewBox="0 0 20 20">
    <g fill="none" fill-rule="evenodd">
        <path fill="#FFF" d="M0 0h20v20H0z"/>
        <path fill="#4A4A4A" fill-rule="nonzero" d="M8.522 4.01c-.498 0-.904-.34-.904-.759 0-.418.406-.759.904-.759.499 0 .904.34.904.76 0 .245.237.443.529.443.292 0 .529-.198.529-.444 0-.754-.608-1.391-1.433-1.585v-.62c0-.245-.237-.443-.529-.443-.292 0-.529.198-.529.444v.619c-.825.194-1.432.83-1.432 1.585 0 .909.88 1.647 1.961 1.647.499 0 .904.341.904.76 0 .418-.405.759-.904.759-.498 0-.904-.34-.904-.76 0-.245-.237-.443-.529-.443-.292 0-.528.198-.528.444 0 .754.607 1.391 1.432 1.585v.62c0 .245.237.443.53.443.291 0 .528-.198.528-.444v-.619c.825-.194 1.433-.831 1.433-1.585 0-.909-.88-1.648-1.962-1.648zM13.905 18.062H7.373a.286.286 0 0 1 0-.571h6.532a.286.286 0 0 1 0 .571z"/>
        <path fill="#4A4A4A" fill-rule="nonzero" stroke="#4A4A4A" stroke-width=".2" d="M5.819 19.617a1.842 1.842 0 0 1-1.84-1.841c0-1.015.824-1.84 1.84-1.84 1.014 0 1.84.825 1.84 1.84 0 1.015-.826 1.84-1.84 1.84zm0-3.11a1.27 1.27 0 0 0 0 2.539 1.27 1.27 0 0 0 0-2.539zM15.46 19.617a1.842 1.842 0 0 1-1.841-1.841c0-1.015.825-1.84 1.84-1.84 1.016 0 1.841.825 1.841 1.84 0 1.015-.826 1.84-1.84 1.84zm0-3.11a1.27 1.27 0 0 0 0 2.539 1.27 1.27 0 0 0 0-2.539z"/>
        <path fill="#4A4A4A" fill-rule="nonzero" stroke="#4A4A4A" stroke-width=".2" d="M13.907 18.062H7.374a.286.286 0 0 1 0-.571h6.533a.286.286 0 0 1 0 .571z"/>
        <path fill="#4A4A4A" fill-rule="nonzero" stroke="#4A4A4A" stroke-width=".2" d="M18.386 18.062h-1.373a.286.286 0 0 1 0-.571h1.373a.71.71 0 0 0 .704-.604l.305-1.95a.503.503 0 0 0-.438-.58l-3.807-.463a.288.288 0 0 1-.149-.065l-3.44-2.892a1.264 1.264 0 0 0-.813-.296H5.366a.772.772 0 0 0-.653.358l-1.609 2.517a.28.28 0 0 1-.158.12l-1.943.585a.609.609 0 0 0-.424.675l.272 1.742c.078.493.496.852.995.852h2.417a.286.286 0 0 1 0 .571H1.845a1.57 1.57 0 0 1-1.56-1.335l-.271-1.742a1.183 1.183 0 0 1 .823-1.31l1.842-.555 1.552-2.429c.249-.388.673-.62 1.135-.62h5.383c.431 0 .85.153 1.18.43l3.375 2.837 3.722.454c.293.036.551.184.728.419.178.234.25.524.205.815l-.304 1.95a1.278 1.278 0 0 1-1.27 1.087z"/>
        <path fill="#4A4A4A" fill-rule="nonzero" stroke="#4A4A4A" stroke-width=".2" d="M12.091 14.117H5.538a.286.286 0 0 1 0-.572h6.553a.286.286 0 0 1 0 .572z"/>
    </g>
</svg>
