<svg xmlns="http://www.w3.org/2000/svg" width="20" height="20" viewBox="0 0 20 20">
    <g fill="none" fill-rule="evenodd">
        <path fill="#4A4A4A" fill-rule="nonzero" d="M8.608 19.98h-.004a.372.372 0 0 1-.368-.377c.027-2.362-.168-4.065-.563-4.917-.152-.326-.432-.598-.703-.859-.33-.32-.642-.62-.746-1.027a2.184 2.184 0 0 1-.128-.667 2.3 2.3 0 0 1 .519-1.525.374.374 0 0 1 .53-.048 1.898 1.898 0 0 0 1.238.466l.071-.002c.447-.014.88-.19 1.212-.496a.375.375 0 0 1 .484-.016c.336.265.757.413 1.185.413l.07-.002c.317-.01.63-.102.907-.266.094-.056.181-.125.263-.195a.375.375 0 0 1 .532.045 2.267 2.267 0 0 1 .43 2.08c-.074.406-.392.753-.726 1.12-.266.29-.542.591-.688.935-.376.873-.559 2.59-.533 4.963a.373.373 0 0 1-.37.376h-.004a.373.373 0 0 1-.374-.368c-.027-2.512.173-4.283.594-5.266.198-.46.53-.824.824-1.145.261-.287.508-.556.551-.788.053-.191.072-.351.068-.515a1.515 1.515 0 0 0-.155-.622l-.03.018c-.386.23-.823.357-1.267.373l-.083.002c-.502 0-.99-.14-1.41-.4a2.645 2.645 0 0 1-1.461.498l-.085.002A2.64 2.64 0 0 1 7 11.376a1.542 1.542 0 0 0-.158.732c.005.158.036.318.093.469.064.24.301.47.553.713.306.295.653.63.862 1.082.448.968.66 2.73.631 5.24a.37.37 0 0 1-.372.368zM8.384 10.319a2.293 2.293 0 0 1-2.288-2.213 2.31 2.31 0 0 1 .09-.71c.073-.407.39-.754.726-1.121.266-.291.541-.591.687-.936.375-.873.559-2.59.533-4.962A.373.373 0 0 1 8.502 0c.223.007.375.162.376.368.027 2.512-.173 4.283-.594 5.266-.198.46-.53.824-.824 1.144-.261.286-.508.556-.551.789a1.546 1.546 0 0 0 2.697 1.406.375.375 0 0 1 .282-.145.384.384 0 0 1 .291.125c.308.345.742.524 1.21.518a1.548 1.548 0 0 0 1.492-1.598 1.47 1.47 0 0 0-.093-.47c-.065-.24-.301-.47-.554-.713-.305-.294-.652-.629-.862-1.082-.448-.968-.66-2.73-.63-5.239.001-.206.134-.366.376-.368.206.002.37.171.369.377-.028 2.362.168 4.064.562 4.917.153.326.433.598.702.858.33.319.643.62.748 1.029.072.191.119.428.128.666a2.299 2.299 0 0 1-2.212 2.369 2.27 2.27 0 0 1-1.495-.49c-.397.36-.91.571-1.457.59l-.079.002z"/>
        <path d="M0 0h20v20H0z"/>
    </g>
</svg>
