<svg xmlns="http://www.w3.org/2000/svg" width="20" height="20" viewBox="0 0 20 20">
    <g fill="none" fill-rule="evenodd">
        <path stroke="#4A4A4A" stroke-width=".8" d="M11.693 19.907a.071.071 0 0 0 .012.01l-.012-.01zm-.446-.363l-.115-.093a2.392 2.392 0 0 1-.891-1.904l.017-1.013c.01-.604.358-1.147.905-1.416l.047-.023a.357.357 0 0 0 .185-.43.767.767 0 0 1 .09-.678.78.78 0 0 1 .586-.343c.186-.015.32-.124.357-.276l.356-1.424c.16-.642.64-1.148 1.277-1.352a1.482 1.482 0 0 0 1.045-1.41V8.09c0-.347.123-.684.346-.95l.38-.455c.225-.268.302-.609.216-.944a1.07 1.07 0 0 0-.652-.733L12.647 3.91a1.089 1.089 0 0 1-.547-.479l-.413-.74a.686.686 0 0 0-.63-.345c-.394.017-.77-.18-.978-.511L9.81 1.4A1.542 1.542 0 0 0 8.838.72L7.55.437a1.564 1.564 0 0 0-1.313.307l-.554.447a.447.447 0 0 0-.1.582c.186.299.172.679-.035.964l-.77 1.057a1.847 1.847 0 0 0-.218 1.8l.523 1.276a2.59 2.59 0 0 0 1.092 1.247 3.294 3.294 0 0 1 1.628 2.423l.971 7.275c-.004-.034.153.437.184.53a1.772 1.772 0 0 0 1.649 1.187l.639.012z"/>
        <path d="M0 0h20v20H0z"/>
    </g>
</svg>
