<svg xmlns="http://www.w3.org/2000/svg" width="20" height="20" viewBox="0 0 20 20">
    <g fill="none" fill-rule="evenodd">
        <path fill="#4A4A4A" fill-rule="nonzero" d="M18.667 3.008c-.619 0-1.142.426-1.291 1h-.71V3.34c0-.767-.566-1.333-1.333-1.333H4.667c-.734 0-1.334.5-1.334 1.133v.867h-.709c-.149-.574-.672-1-1.29-1C.6 3.008 0 3.608 0 4.34s.6 1.333 1.333 1.333c.619 0 1.142-.426 1.291-1h.71v12.334c0 .566.433 1 1 1h9.333c.566 0 1-.434 1-1v-.334h1c.566 0 1-.433 1-1v-11h.709c.149.574.672 1 1.29 1 .734 0 1.334-.6 1.334-1.333s-.6-1.333-1.333-1.333zm-17.334 2a.669.669 0 0 1-.666-.667c0-.367.3-.667.666-.667.367 0 .667.3.667.667 0 .367-.3.667-.667.667zM16 3.34v.667h-1.333V3.34c0-.267.3-.667.666-.667.4 0 .667.267.667.667zm-12-.2c0-.267.3-.467.667-.467H14.2a1.198 1.198 0 0 0-.2.667v11.333H4V3.141zm10 13.867c0 .2-.133.333-.333.333H4.333c-.2 0-.333-.133-.333-.333V15.34h10v1.667zm2-1.334c0 .2-.133.334-.333.334h-1V4.674H16v11zm2.667-10.666A.669.669 0 0 1 18 4.34c0-.367.3-.667.667-.667.366 0 .666.3.666.667 0 .367-.3.667-.666.667z"/>
        <path d="M0 0h20v20H0z"/>
    </g>
</svg>
