<svg xmlns="http://www.w3.org/2000/svg" width="20" height="20" viewBox="0 0 20 20">
    <g fill="none" fill-rule="evenodd">
        <path fill="#4A4A4A" fill-rule="nonzero" stroke="#4A4A4A" stroke-width=".1" d="M13.5 18.446S15 18 16.228 16.65c2.578-.391 3.734-2.523 3.734-4.486 0-1.393-.776-2.556-1.78-2.76 0-.205-.07-.38-.21-.52a.689.689 0 0 0-.488-.209H1.434a.689.689 0 0 0-.488.21.689.689 0 0 0-.21.488c.027 3.753.68 7.547 4.499 9.072 1.177.503 2.598.754 4.265.754 2.5 0 4-.754 4-.754zm4.682-8.304c.593.209 1.047 1.046 1.047 2.023 0 1.36-.627 2.998-2.369 3.593.03-.05.058-.1.086-.15.969-1.681 1.168-3.705 1.236-5.466zM1.434 9.374h16.05c-.035 4.71-1.046 9.072-8.025 9.072-6.978 0-7.99-4.362-8.025-9.072zM9.215 3.896c-.523.523-.803 1.047-.803 1.605s.28 1.117.803 1.675c.07.07.14.104.244.104a.317.317 0 0 0 .244-.104.337.337 0 0 0 0-.489c-.383-.418-.593-.802-.593-1.186 0-.384.21-.768.593-1.117.524-.488.803-1.046.803-1.605 0-.558-.244-1.15-.803-1.674a.337.337 0 0 0-.488 0 .337.337 0 0 0 0 .488c.384.419.593.803.593 1.187 0 .383-.21.767-.593 1.116zM12.25 5.501c0 .558.28 1.117.803 1.675.07.07.14.104.244.104.07 0 .175-.034.21-.104a.337.337 0 0 0 0-.489c-.384-.418-.594-.802-.594-1.186 0-.384.21-.768.594-1.117.558-.488.837-1.046.837-1.605 0-.593-.244-1.151-.802-1.674a.337.337 0 0 0-.489 0 .337.337 0 0 0 0 .488c.384.419.593.803.593 1.186 0 .384-.21.733-.593 1.117-.523.523-.802 1.047-.802 1.605zM4.923 5.501c0 .558.28 1.117.803 1.675.07.07.14.104.244.104.07 0 .174-.034.21-.104a.337.337 0 0 0 0-.489c-.384-.418-.594-.802-.594-1.186 0-.384.21-.768.593-1.117.559-.488.838-1.046.838-1.605 0-.593-.244-1.151-.803-1.674a.337.337 0 0 0-.488 0 .337.337 0 0 0 0 .488c.384.419.593.803.593 1.186 0 .384-.21.733-.593 1.117-.524.523-.803 1.047-.803 1.605z"/>
        <path d="M0 0h20v20H0z"/>
    </g>
</svg>
