<svg xmlns="http://www.w3.org/2000/svg" width="20" height="20" viewBox="0 0 20 20">
    <g fill="none" fill-rule="evenodd">
        <path fill="#4A4A4A" fill-rule="nonzero" d="M12.64 19.225a6.9 6.9 0 0 0 2.92-2.54c.871-1.354 1.068-2.657 1.075-2.712.003-.014.004-.068.005-.162.318-.078.595-.242.814-.485.22-.244.36-.535.446-.83a.453.453 0 0 0 .328-.436V8.09c0-4.46-3.625-8.09-8.08-8.09C5.69 0 2.065 3.63 2.065 8.09v3.97c0 .25.203.453.453.453.126.289.265.574.48.813.222.246.502.41.825.488v.094c.012.12.209 1.423 1.08 2.776.558.869 1.475 1.87 2.927 2.47 1.53.564 3.132.588 4.808.07zm-2.368-12.44l-.036.002a.451.451 0 0 0-.037-.002c-2.06 0-2.7-.377-2.794-.442-.097-.128-.224-.152-.388-.129-.797.115-1.59.776-2.18 1.42.125-.447.37-1.142.827-1.852C6.678 4.207 8.2 3.34 10.19 3.208h.084c1.977.132 3.493.988 4.507 2.547.46.707.712 1.41.84 1.865-.588-.64-1.376-1.291-2.166-1.406-.164-.023-.292.001-.389.13-.094.064-.734.441-2.794.441zm6.51 5.933a.72.72 0 0 1-.142.122v-2.03c.14.016.28.052.37.122.043.034.09.085.102.206.053.528-.005 1.22-.33 1.58zm-13.81-2.56V8.09c0-3.961 3.218-7.184 7.175-7.184s7.176 3.223 7.176 7.184v1.98a1.928 1.928 0 0 0-.683-.17V8.068a.45.45 0 0 0-.004-.065c-.008-.055-.205-1.357-1.076-2.711-.81-1.261-2.379-2.804-5.242-2.99a.473.473 0 0 0-.03 0H10.146c-2.862.186-4.43 1.729-5.242 2.99-.87 1.354-1.067 2.656-1.075 2.71a.45.45 0 0 0-.004.066v1.831c-.263.018-.583.083-.853.26zm.37.98c.012-.12.058-.171.101-.205.092-.072.237-.108.38-.124v2.037a.71.71 0 0 1-.152-.128c-.325-.36-.383-1.052-.33-1.58zm2.34 5.084a6.773 6.773 0 0 1-.953-2.35V9.263c0-.006.003-.011.004-.017.181-.347 1.31-1.82 2.25-2.1.124.073.3.156.551.235.65.205 1.546.309 2.666.309.012 0 .024 0 .036-.002a.451.451 0 0 0 .036.002c1.12 0 2.017-.104 2.666-.309a2.67 2.67 0 0 0 .55-.234c.935.278 2.055 1.733 2.247 2.092V13.872a6.704 6.704 0 0 1-.935 2.322c-1.014 1.576-2.537 2.442-4.526 2.575h-.084c-1.977-.132-3.494-.99-4.508-2.547z"/>
        <ellipse cx="7.178" cy="10.301" fill="#4A4A4A" fill-rule="nonzero" rx="1" ry="1"/>
        <ellipse cx="13.286" cy="10.301" fill="#4A4A4A" fill-rule="nonzero" rx="1" ry="1"/>
        <path d="M0 0h20v20H0z"/>
    </g>
</svg>
