<svg xmlns="http://www.w3.org/2000/svg" width="20" height="20" viewBox="0 0 20 20">
    <g fill="none" fill-rule="evenodd">
        <path d="M0 0h20v20H0z"/>
        <path fill="#4A4A4A" fill-rule="nonzero" d="M1.027 4.719a.308.308 0 0 0-.308.308V17.28c0 .17.138.308.308.308h17.946c.17 0 .308-.138.308-.308V5.027a.308.308 0 0 0-.308-.308H1.027zm0-.719h17.946C19.54 4 20 4.46 20 5.027V17.28c0 .567-.46 1.027-1.027 1.027H1.027C.46 18.308 0 17.848 0 17.281V5.027C0 4.46.46 4 1.027 4z"/>
        <path fill="#4A4A4A" fill-rule="nonzero" d="M7.822 19.106l.167-.647c.046-.178-.074-.358-.269-.4-.195-.043-.39.068-.437.247l-.273 1.056c-.054.209.119.41.353.41h5.163c.24 0 .413-.21.35-.422l-.333-1.106c-.054-.177-.253-.28-.446-.232-.193.049-.307.232-.254.409l.207.685H7.822zM8.024.729a.332.332 0 1 0-.497.442l2.514 2.821a.333.333 0 0 0 .488.01l2.71-2.822a.333.333 0 0 0-.48-.46L10.3 3.282 8.023.729zM2.691 6.691v8.618H17.24V6.69H2.69zM2 6h15.931v10H2V6z"/>
    </g>
</svg>
