<svg xmlns="http://www.w3.org/2000/svg" width="20" height="20" viewBox="0 0 20 20">
    <g fill="none" fill-rule="evenodd">
        <path fill="#4A4A4A" fill-rule="nonzero" d="M7.008 9.978c-1.175 0-2.134.968-2.134 2.162 0 1.193.955 2.16 2.134 2.16 1.175 0 2.134-.967 2.134-2.16 0-1.194-.96-2.162-2.134-2.162zm0 3.31a1.146 1.146 0 0 1-1.138-1.153c0-.638.508-1.152 1.138-1.152.626 0 1.138.514 1.138 1.152 0 .639-.512 1.153-1.138 1.153zM15.126 12.135c0-1.19-.955-2.16-2.134-2.16-1.175 0-2.134.967-2.134 2.16 0 1.194.955 2.162 2.134 2.162 1.179 0 2.134-.972 2.134-2.162zm-2.134 1.153a1.146 1.146 0 0 1-1.138-1.153c0-.638.508-1.152 1.138-1.152.626 0 1.138.514 1.138 1.152 0 .639-.508 1.153-1.138 1.153z"/>
        <path fill="#4A4A4A" fill-rule="nonzero" d="M18.61 6.771c-.342-2.058-2.02-3.582-4.09-3.71l-.085-.016a.599.599 0 0 0-.085-.008H5.752c-2.167 0-4 1.569-4.358 3.722L.081 13.885c-.04.194-.06.387-.06.58 0 1.557 1.247 2.82 2.784 2.82.927 0 1.793-.464 2.3-1.23l.635-.89a.507.507 0 0 0-.114-.703.492.492 0 0 0-.695.115l-.642.901c-.334.503-.89.803-1.484.803-.988 0-1.789-.815-1.789-1.811 0-.124.012-.251.04-.387L2.37 6.94a3.425 3.425 0 0 1 3.378-2.89h8.56l.07.012c.02.004.037.004.057.008 1.585.087 2.927 1.297 3.191 2.878l1.317 7.143c.024.123.037.251.037.375 0 1-.805 1.811-1.789 1.811-.598 0-1.15-.3-1.496-.815l-.683-.955a.496.496 0 0 0-.695-.115.51.51 0 0 0-.114.704l.671.942a2.776 2.776 0 0 0 2.309 1.244c1.537 0 2.784-1.264 2.784-2.82 0-.194-.02-.392-.056-.573L18.61 6.771z"/>
        <ellipse cx="12.581" cy="7.109" fill="#4A4A4A" fill-rule="nonzero" rx="1" ry="1"/>
        <ellipse cx="15.341" cy="7.109" fill="#4A4A4A" fill-rule="nonzero" rx="1" ry="1"/>
        <path fill="#4A4A4A" fill-rule="nonzero" d="M6.085 5.083c-.276 0-.5.227-.5.507v.91h-.898c-.276 0-.5.226-.5.506s.224.506.5.506h.898v.91c0 .28.224.506.5.506.277 0 .5-.226.5-.506v-.91h.899c.276 0 .5-.226.5-.506a.503.503 0 0 0-.5-.507h-.899v-.91a.503.503 0 0 0-.5-.506z"/>
        <ellipse cx="13.959" cy="8.504" fill="#4A4A4A" fill-rule="nonzero" rx="1" ry="1"/>
        <ellipse cx="13.959" cy="5.709" fill="#4A4A4A" fill-rule="nonzero" rx="1" ry="1"/>
        <path d="M0 0h20v20H0z"/>
    </g>
</svg>
