<svg xmlns="http://www.w3.org/2000/svg" width="20" height="20" viewBox="0 0 20 20">
    <g fill="none" fill-rule="evenodd">
        <path fill="#4A4A4A" fill-rule="nonzero" d="M4.93 15.337a1.028 1.028 0 0 0 0 2.054 1.028 1.028 0 0 0 0-2.054zm0 1.333a.306.306 0 1 1 0-.612.306.306 0 0 1 0 .612zM15.03 15.337a1.028 1.028 0 0 0 0 2.054 1.028 1.028 0 0 0 0-2.054zm0 1.333a.306.306 0 1 1 .001-.612.306.306 0 0 1 0 .612zM14.96 11.843h-.434V9.33a2.108 2.108 0 0 0-2.106-2.106H7.541a2.108 2.108 0 0 0-2.106 2.106v2.512h-.434a.36.36 0 0 0 0 .721h9.959a.36.36 0 0 0 0-.721zm-1.156 0H6.157V9.33c0-.763.62-1.384 1.384-1.384h4.879c.763 0 1.384.62 1.384 1.384v2.512z"/>
        <path fill="#4A4A4A" fill-rule="nonzero" d="M19.6 2.58h-1.537l-.802-1.38a.36.36 0 0 0-.312-.18H3.011a.36.36 0 0 0-.311.18l-.803 1.38H.361a.36.36 0 0 0 0 .721h.421v.872c0 .518.212 1.006.563 1.355v10.475h-.55a.36.36 0 0 0 0 .722h1.612a2.553 2.553 0 0 0 2.523 2.188 2.553 2.553 0 0 0 2.524-2.188h5.054a2.553 2.553 0 0 0 2.523 2.188 2.553 2.553 0 0 0 2.523-2.188h1.25a.36.36 0 1 0 0-.722h-.188V5.525c.351-.35.562-.834.562-1.353v-.87h.422a.36.36 0 1 0 0-.722zM3.22 1.742h13.523l.487.838H2.732l.487-.838zm1.711 16.45a1.83 1.83 0 0 1-1.828-1.828 1.83 1.83 0 0 1 1.828-1.828 1.83 1.83 0 0 1 1.828 1.828 1.83 1.83 0 0 1-1.828 1.828zm10.1 0a1.83 1.83 0 0 1-1.827-1.828 1.83 1.83 0 0 1 1.828-1.828 1.83 1.83 0 0 1 1.828 1.828 1.83 1.83 0 0 1-1.828 1.828zm2.864-2.189h-.34a2.553 2.553 0 0 0-2.523-2.188 2.553 2.553 0 0 0-2.523 2.188H7.453a2.553 2.553 0 0 0-2.523-2.188 2.553 2.553 0 0 0-2.523 2.188h-.34V5.973a2.595 2.595 0 0 0 2.61-.56c.475.45 1.1.7 1.768.7.668 0 1.292-.25 1.766-.699.472.45 1.095.703 1.764.705h.005c.67 0 1.294-.253 1.768-.704.47.446 1.09.697 1.754.7h.013c.668 0 1.294-.251 1.768-.701.69.653 1.69.877 2.611.558v10.031zm.563-11.831c0 .497-.31.943-.771 1.11-.77.278-1.62.028-2.114-.623a.361.361 0 0 0-.575-.005l-.014.018a1.84 1.84 0 0 1-1.468.722h-.01a1.84 1.84 0 0 1-1.476-.745.36.36 0 0 0-.57.008l-.005.007c-.352.466-.89.733-1.474.733h-.004a1.833 1.833 0 0 1-1.475-.74.36.36 0 0 0-.576-.001 1.842 1.842 0 0 1-1.48.736 1.842 1.842 0 0 1-1.48-.736.36.36 0 0 0-.285-.143h-.002a.36.36 0 0 0-.288.144c-.5.66-1.389.91-2.16.607a1.171 1.171 0 0 1-.726-1.091V3.3h16.953v.871z"/>
        <path d="M0 0h20v20H0z"/>
    </g>
</svg>
