<svg xmlns="http://www.w3.org/2000/svg" width="20" height="20" viewBox="0 0 20 20">
    <g fill="none" fill-rule="evenodd">
        <path fill="#4A4A4A" fill-rule="nonzero" d="M17.817 3.708a2.072 2.072 0 0 0-1.523-.65h-1.056A6.583 6.583 0 0 0 9.696 0a6.583 6.583 0 0 0-5.543 3.059H3.097a2.072 2.072 0 0 0-2.085 2.207l.676 11.89c.068 1.19 1.092 2.158 2.283 2.158H15.42c1.191 0 2.216-.968 2.283-2.157l.676-11.891a2.073 2.073 0 0 0-.562-1.558zm-.31 1.508l-.676 11.891c-.041.723-.687 1.333-1.411 1.333H3.97c-.723 0-1.37-.61-1.41-1.333L1.885 5.216c-.02-.343.096-.665.325-.908.229-.242.544-.375.887-.375H4.4c.156 0 .3-.083.378-.218A5.706 5.706 0 0 1 9.696.874a5.706 5.706 0 0 1 4.918 2.84.437.437 0 0 0 .378.219h1.302c.343 0 .659.133.888.375.228.243.344.565.324.908z"/>
        <path fill="#4A4A4A" fill-rule="nonzero" d="M5.326 6.991h8.74a.437.437 0 0 0 .436-.436 4.812 4.812 0 0 0-4.806-4.807 4.812 4.812 0 0 0-4.807 4.807c0 .24.196.436.437.436zm4.37-4.37c2.02 0 3.69 1.533 3.908 3.497h-3.471V4.37a.437.437 0 0 0-.874 0v1.748H5.787a3.938 3.938 0 0 1 3.909-3.496z"/>
        <path d="M0 0h20v20H0z"/>
    </g>
</svg>
