<svg xmlns="http://www.w3.org/2000/svg" width="20" height="20" viewBox="0 0 20 20">
    <g fill="none" fill-rule="evenodd">
        <path fill="#4A4A4A" fill-rule="nonzero" d="M11.348 17.374v-4.902a4.66 4.66 0 0 0 3.146-3.212c.087-.325.135-.666.145-1.016a5.27 5.27 0 0 0-.044-.826l-.004-.024-.017-.098-.002-.007L13.335.275A.332.332 0 0 0 13.008 0H7.03a.332.332 0 0 0-.327.275l-.978 5.543-.001.004-.279 1.581c-.066.508-.063.996.013 1.458.038.231.094.455.168.672a4.661 4.661 0 0 0 2.955 2.906l.11.033v4.902c-2.184.133-3.653.554-3.653 1.292 0 .868 2.163 1.334 4.98 1.334 2.818 0 4.98-.466 4.98-1.334 0-.738-1.468-1.158-3.651-1.292zm-3.924-6.34a3.994 3.994 0 0 1-1.17-1.72 3.415 3.415 0 0 1-.145-.592 4.303 4.303 0 0 1-.007-1.218l.241-1.365c1.218-.336 2.572-.05 3.45.771 1.075 1.01 2.721 1.336 4.173.897a4.05 4.05 0 0 1-.066 1.08l-.004.02a3.496 3.496 0 0 1-.042.177l-.01.037a3.57 3.57 0 0 1-.018.06l-.011.039-.02.06-.011.034a3.993 3.993 0 0 1-2.837 2.576l-.008.002a3.99 3.99 0 0 1-.331.064l-.041.005a3.95 3.95 0 0 1-.134.017l-.073.007-.065.005a4.11 4.11 0 0 1-.25.01H9.994a3.998 3.998 0 0 1-.25-.01l-.065-.005-.073-.007a3.96 3.96 0 0 1-.134-.017l-.041-.005a4.165 4.165 0 0 1-.093-.015l-.028-.005a4.03 4.03 0 0 1-.21-.044l-.008-.002a3.956 3.956 0 0 1-1.668-.856zM7.309.667h5.42l1.143 6.47c-1.256.418-2.705.15-3.626-.714-.98-.915-2.426-1.271-3.777-.998L7.31.667zm6.844 18.091c-.205.104-.518.204-.916.29-.842.18-1.99.285-3.218.285-1.227 0-2.376-.104-3.217-.285-.398-.086-.712-.186-.916-.29a.801.801 0 0 1-.165-.105c.069-.043.333-.178.777-.295.637-.168 1.533-.287 2.54-.335a.333.333 0 0 0 .317-.333V12.62l.027.003.124.016.054.005c.039.004.077.008.115.01l.068.005.105.005.084.002.087.002.09-.002c.027 0 .055 0 .082-.002.036-.001.071-.003.107-.006.022 0 .043-.002.065-.003l.118-.011.05-.005.128-.016.025-.003v5.071c0 .178.139.325.316.333 1.008.048 1.903.167 2.54.335.445.117.709.252.778.295a.804.804 0 0 1-.165.105z"/>
        <path d="M0 0h20v20H0z"/>
    </g>
</svg>
